<svg width="40" height="56" viewBox="0 0 40 56" fill="none" xmlns="http://www.w3.org/2000/svg">
<g clip-path="url(#clip0_827_3252)">
<path d="M2.54386 19.7512C8.39317 23.9075 15.0364 22.5357 21.8309 21.1184C26.8323 20.0885 31.9092 19.0403 36.8674 20.1204L37.078 20.1659L34.3289 50.0025C34.2318 51.2122 33.6267 52.353 32.6222 53.22C32.1462 53.6263 31.5793 53.9487 30.9544 54.1686C30.3294 54.3884 29.659 54.5013 28.9819 54.5005H11.3853C10.7179 54.5029 10.0567 54.3924 9.44078 54.1756C8.82483 53.9588 8.2666 53.6401 7.79906 53.2382C6.7975 52.3588 6.17545 51.2208 6.03292 50.0071L2.04156 19.3958L2.54386 19.7512Z" fill="black" fill-opacity="0.7"/>
<path fill-rule="evenodd" clip-rule="evenodd" d="M2.37646 20.8725C12.6384 28.1641 25.1526 18.767 36.8026 21.3282L34.0697 50.978C33.8536 53.3341 31.7796 55.2755 28.9819 55.2755H11.3854C8.58764 55.2755 6.60007 53.325 6.29761 50.978L2.37646 20.8725Z" fill="url(#paint0_linear_827_3252)"/>
<path d="M1.8086e-05 6.43034C-0.0135965 6.35941 -0.0135965 6.28708 1.8086e-05 6.21615C-0.00795495 6.11904 -0.00795495 6.02159 1.8086e-05 5.92448C1.8086e-05 4.13347 2.37647 2.59766 6.2166 1.55859C9.75967 0.592448 14.6368 0 19.9838 0C25.3308 0 30.2458 0.592448 33.7888 1.55404C37.629 2.5931 40 4.12891 40 5.91992C39.9993 6.20569 39.9408 6.48926 39.8272 6.75847L34.9663 51.0235C34.837 52.3583 34.161 53.6135 33.0543 54.5736C32.5257 55.027 31.8951 55.3867 31.1995 55.6316C30.5039 55.8766 29.7573 56.0018 29.0035 56H11.3854C10.6334 56.0035 9.88832 55.8794 9.19432 55.6352C8.50031 55.3909 7.87156 55.0315 7.34541 54.5781C6.23545 53.6226 5.54891 52.3739 5.40104 51.0417L1.8086e-05 6.43034ZM2.05781 8.65886L7.17798 50.9004C7.27945 51.8913 7.78088 52.8227 8.59845 53.5391C8.96211 53.8509 9.39601 54.0983 9.87462 54.2665C10.3532 54.4348 10.8669 54.5206 11.3854 54.5189H28.9819C29.5032 54.5198 30.0194 54.4332 30.5006 54.2642C30.9819 54.0952 31.4185 53.8472 31.7851 53.5345C32.5974 52.8221 33.0934 51.8949 33.1893 50.9095L37.8342 8.72266C36.5838 9.41362 35.2211 9.94783 33.7888 10.3086C30.2458 11.252 25.3848 11.849 19.9838 11.849C14.5828 11.849 9.72187 11.2565 6.2004 10.2949C4.72945 9.92941 3.33271 9.37779 2.05781 8.65886ZM38.0827 6.44401L38.1205 6.14779C38.129 6.0454 38.164 5.94584 38.2231 5.85612C38.1259 4.82162 36.2409 3.80534 33.2433 2.99414C29.8731 2.06445 25.1904 1.49935 19.9838 1.49935C14.7772 1.49935 10.1269 2.06445 6.7567 2.97591C3.67812 3.8099 1.77696 4.85808 1.77696 5.92448C1.77696 6.99089 3.67812 8.03907 6.7567 8.87305C10.1269 9.78451 14.8096 10.3496 20 10.3496C25.1904 10.3496 29.8731 9.78451 33.2433 8.87305C35.8358 8.17123 37.5642 7.31901 38.1043 6.43034L38.0827 6.44401Z" fill="black" fill-opacity="0.74"/>
<path d="M19 37V31H21V37H27V39H21V45H19V39H13V37H19Z" fill="white"/>
</g>
<defs>
<linearGradient id="paint0_linear_827_3252" x1="112.5" y1="-56.4999" x2="4.5" y2="57.5001" gradientUnits="userSpaceOnUse">
<stop stop-color="#C58BF2"/>
<stop offset="1" stop-color="#B4C0FE"/>
</linearGradient>
<clipPath id="clip0_827_3252">
<rect width="40" height="56" fill="white"/>
</clipPath>
</defs>
</svg>
