<svg width="28" height="30" viewBox="0 0 28 30" fill="none" xmlns="http://www.w3.org/2000/svg">
<path d="M23.3238 26.9589L21.5988 23.8379L19.3459 24.8884L20.9062 29.1054C21.2657 29.8764 22.1875 30.2173 22.9649 29.8547C23.7402 29.4932 24.0757 28.5715 23.7142 27.7961L23.3238 26.9589Z" fill="#BFBFBF"/>
<path d="M6.57762 23.9209L4.67526 26.9593L4.28491 27.7964C3.92333 28.5718 4.25884 29.4935 5.03421 29.855C5.80073 30.2127 6.72809 29.888 7.09284 29.1057L8.51039 24.8221L6.57762 23.9209Z" fill="#BFBFBF"/>
<path d="M4.67529 26.9587C5.3793 27.7802 6.18988 28.5075 7.08578 29.1194C7.08806 29.1146 7.09058 29.11 7.09287 29.1052L8.98673 25.0437L6.17881 23.7344L4.67529 26.9587Z" fill="#ACACAC"/>
<path d="M23.3241 26.9587L21.8206 23.7344L19.0127 25.0437L20.9066 29.1052C20.9088 29.1101 20.9114 29.1146 20.9137 29.1194C21.8096 28.5076 22.6201 27.7803 23.3241 26.9587Z" fill="#ACACAC"/>
<path d="M5.30748 7.53033L4.78306 7.20215L3.77197 8.21318L4.09793 8.74006L6.92132 11.5634L8.13093 10.3538L5.30748 7.53033Z" fill="#ACACAC"/>
<path d="M1.97681 6.62012L3.18628 5.41065L5.30587 7.53024L4.0964 8.7397L1.97681 6.62012Z" fill="#9C9C9C"/>
<path d="M1.00302 4.55578C-0.18544 5.80851 -0.166338 7.78716 1.06202 9.01552L1.58403 9.53753C1.72718 9.68067 1.95927 9.68067 2.10247 9.53753L5.98478 5.65517C6.12792 5.51203 6.12792 5.27988 5.98478 5.13674L5.46276 4.61472C4.23435 3.38637 2.25575 3.36732 1.00302 4.55578Z" fill="#EB5569"/>
<path d="M24.3625 8.00338L23.3787 7.01953L22.6063 7.61596L19.8684 10.3537L21.078 11.5634L23.8159 8.82556L24.3625 8.00338Z" fill="#ACACAC"/>
<path d="M15.2068 4.11154V1.5166H12.7923V4.11154H12.7166V10.2533H15.2826V4.11154H15.2068Z" fill="#ACACAC"/>
<path d="M12.7166 1.85938H15.2826V4.11207H12.7166V1.85938Z" fill="#9C9C9C"/>
<path d="M17.647 1.54266C17.647 0.690703 16.9563 0 16.1043 0H11.7238C10.8718 0 10.1812 0.690703 10.1812 1.54266C10.1812 2.39467 10.8719 3.08531 11.7238 3.08531H16.1043C16.9563 3.08531 17.647 2.39467 17.647 1.54266Z" fill="#EB5569"/>
<path d="M22.6028 7.61816L24.8079 5.41303L26.0174 6.6225L23.8122 8.82763L22.6028 7.61816Z" fill="#9C9C9C"/>
<path d="M16.2755 0H14.5645C15.4165 0 16.1071 0.690703 16.1071 1.54266C16.1071 2.39467 15.4164 3.08531 14.5645 3.08531H16.2755C17.1275 3.08531 17.8182 2.39467 17.8182 1.54266C17.8182 0.690703 17.1275 0 16.2755 0Z" fill="#E53950"/>
<path d="M26.8755 4.43566C25.6228 3.24721 23.6441 3.26625 22.4157 4.49461L21.8937 5.01662C21.7506 5.15976 21.7506 5.39191 21.8937 5.53505L25.7761 9.41741C25.9192 9.56056 26.1513 9.56056 26.2945 9.41741L26.8165 8.8954C28.0449 7.66704 28.0639 5.68839 26.8755 4.43566Z" fill="#EB5569"/>
<path d="M26.9376 4.49514C26.7279 4.28549 26.4961 4.11193 26.2501 3.97266C26.9403 5.19205 26.7666 6.76793 25.7276 7.80697L25.2056 8.32898C25.0624 8.47213 24.8305 8.47213 24.6873 8.3291L25.897 9.53889C26.0402 9.68203 26.2723 9.68203 26.4155 9.53889L26.9375 9.01688C28.1862 7.76824 28.1862 5.74377 26.9376 4.49514Z" fill="#E53950"/>
<path d="M5.58371 4.49311C4.33508 3.24448 2.31061 3.24448 1.06197 4.49311C0.852383 4.7027 0.67877 4.93456 0.539551 5.18059C1.75895 4.49042 3.33482 4.66403 4.37381 5.70301L4.89582 6.22503C5.03896 6.36817 5.03896 6.60032 4.89582 6.74346L2.1023 9.53697C2.10236 9.53691 2.10236 9.53691 2.10242 9.53691L6.10572 5.53356C6.24887 5.39042 6.24887 5.15827 6.10572 5.01512L5.58371 4.49311Z" fill="#E53950"/>
<path d="M13.9998 29.5396C20.7791 29.5396 26.2749 24.0438 26.2749 17.2644C26.2749 10.485 20.7791 4.98926 13.9998 4.98926C7.22038 4.98926 1.72461 10.485 1.72461 17.2644C1.72461 24.0438 7.22038 29.5396 13.9998 29.5396Z" fill="#EB5569"/>
<path d="M13.9996 4.98926C13.7162 4.98926 13.4353 4.99975 13.1567 5.01861C19.5429 5.45174 24.5891 10.7684 24.5891 17.2644C24.5891 23.7605 19.5429 29.077 13.1567 29.5102C13.4353 29.5291 13.7162 29.5396 13.9996 29.5396C20.7789 29.5396 26.2747 24.0438 26.2747 17.2644C26.2747 10.485 20.7789 4.98926 13.9996 4.98926Z" fill="#E53950"/>
<path d="M13.9996 27.4025C19.598 27.4025 24.1363 22.8641 24.1363 17.2657C24.1363 11.6673 19.598 7.12891 13.9996 7.12891C8.40118 7.12891 3.86279 11.6673 3.86279 17.2657C3.86279 22.8641 8.40118 27.4025 13.9996 27.4025Z" fill="#E8EDF2"/>
<path d="M13.9994 7.12891C13.6821 7.12891 13.3683 7.14432 13.0583 7.17303C18.2082 7.64939 22.2541 11.9936 22.2541 17.2657C22.2541 22.5378 18.2082 26.882 13.0583 27.3585C13.3683 27.3871 13.6821 27.4025 13.9994 27.4025C19.5889 27.4025 24.1362 22.8552 24.1362 17.2657C24.1362 11.6762 19.5889 7.12891 13.9994 7.12891Z" fill="#D9E7EC"/>
<path d="M14.0455 16.9847C13.7954 16.9847 13.5928 16.782 13.5928 16.532V11.7818C13.5928 11.5318 13.7954 11.3291 14.0455 11.3291C14.2955 11.3291 14.4982 11.5318 14.4982 11.7818V16.532C14.4982 16.782 14.2955 16.9847 14.0455 16.9847Z" fill="#838383"/>
<path d="M17.6409 17.7179H14.3875C14.1375 17.7179 13.9348 17.5152 13.9348 17.2652C13.9348 17.0152 14.1375 16.8125 14.3875 16.8125H17.6409C17.8909 16.8125 18.0936 17.0152 18.0936 17.2652C18.0936 17.5152 17.8909 17.7179 17.6409 17.7179Z" fill="#9C9C9C"/>
<path d="M14.0456 18.8836C14.9398 18.8836 15.6646 18.1588 15.6646 17.2646C15.6646 16.3704 14.9398 15.6455 14.0456 15.6455C13.1514 15.6455 12.4265 16.3704 12.4265 17.2646C12.4265 18.1588 13.1514 18.8836 14.0456 18.8836Z" fill="#FBC56D"/>
<path d="M3.8734 17.7179H6.2144C6.46442 17.7179 6.66709 17.5152 6.66709 17.2652C6.66709 17.0152 6.46442 16.8125 6.2144 16.8125H3.8734C3.86678 16.9627 3.86279 17.1135 3.86279 17.2652C3.86279 17.417 3.86678 17.5678 3.8734 17.7179Z" fill="#ACACAC"/>
<path d="M13.9998 24.5977C13.7498 24.5977 13.5471 24.8003 13.5471 25.0504V27.3913C13.6972 27.398 13.8481 27.402 13.9998 27.402C14.1516 27.402 14.3024 27.398 14.4525 27.3913V25.0504C14.4526 24.8003 14.2498 24.5977 13.9998 24.5977Z" fill="#ACACAC"/>
<path d="M13.9998 7.12891C13.8481 7.12891 13.6972 7.13289 13.5471 7.13951V9.48057C13.5471 9.73059 13.7498 9.93327 13.9998 9.93327C14.2498 9.93327 14.4525 9.73059 14.4525 9.48057V7.13951C14.3024 7.13289 14.1516 7.12891 13.9998 7.12891Z" fill="#ACACAC"/>
<path d="M14.0451 15.6455C13.7686 15.6455 13.5057 15.7192 13.2751 15.8475C13.7763 16.1263 14.1242 16.6635 14.1242 17.2645C14.1242 17.8656 13.7764 18.4027 13.2751 18.6815C13.5057 18.8098 13.7686 18.8835 14.0451 18.8835C14.9227 18.8835 15.6642 18.1421 15.6642 17.2645C15.6642 16.3869 14.9227 15.6455 14.0451 15.6455Z" fill="#E9B665"/>
<path d="M24.1257 16.8125H21.7847C21.5347 16.8125 21.332 17.0152 21.332 17.2652C21.332 17.5153 21.5347 17.7179 21.7847 17.7179H24.1257C24.1323 17.5678 24.1363 17.417 24.1363 17.2652C24.1363 17.1135 24.1323 16.9627 24.1257 16.8125Z" fill="#ACACAC"/>
<path d="M24.1335 17.0356C24.1317 16.961 24.1291 16.8867 24.1258 16.8126V16.8125H22.2439C22.2505 16.9626 22.2543 17.1135 22.2543 17.2653C22.2543 17.417 22.2505 17.5678 22.2439 17.7179H24.1258C24.1291 17.6438 24.1317 17.5694 24.1335 17.4949C24.1352 17.4188 24.1364 17.3426 24.1364 17.2661C24.1364 17.2658 24.1364 17.2655 24.1364 17.2653C24.1364 17.1884 24.1353 17.112 24.1335 17.0356Z" fill="#9C9C9C"/>
<path d="M13.9994 27.8547C8.1604 27.8547 3.40991 23.1043 3.40991 17.2653C3.40991 11.4262 8.16034 6.67578 13.9994 6.67578C19.8385 6.67578 24.589 11.4262 24.589 17.2653C24.589 23.1044 19.8385 27.8547 13.9994 27.8547ZM13.9994 7.58117C8.65962 7.58117 4.31536 11.9254 4.31536 17.2653C4.31536 22.605 8.65962 26.9493 13.9994 26.9493C19.3393 26.9493 23.6835 22.605 23.6835 17.2653C23.6835 11.9254 19.3393 7.58117 13.9994 7.58117Z" fill="#F58A97"/>
</svg>
