<svg width="21" height="44" viewBox="0 0 21 44" fill="none" xmlns="http://www.w3.org/2000/svg">
<path d="M18.8614 9.58222L14.5416 4.00889C14.7241 3.81333 14.9066 3.52 14.9066 3.27556V1.76C14.9066 0.782222 13.9331 0 12.7163 0H7.48374C6.26687 0 5.29337 0.782222 5.29337 1.76V3.27556C5.29337 3.56889 5.41506 3.81333 5.65843 4.00889L1.33855 9.58222C0.486745 10.7067 0 12.0267 0 13.3467V39.5022C0 41.9956 2.49458 44 5.59759 44H14.6024C17.7054 44 20.2 41.9956 20.2 39.5022V13.3467C20.2 12.0267 19.7741 10.7067 18.8614 9.58222ZM6.93614 1.76C6.93614 1.51556 7.17952 1.32 7.48374 1.32H12.7163C13.0205 1.32 13.2639 1.51556 13.2639 1.76V3.17778H6.93614V1.76ZM2.67711 10.2667L6.93614 4.79111H13.2639L17.5229 10.2667C18.253 11.1956 18.6181 12.2711 18.6181 13.3467V14.52H1.58193V13.3467C1.58193 12.2711 1.94699 11.1956 2.67711 10.2667ZM1.58193 33.7333V31.1422H18.6181V33.7333H1.58193ZM18.6181 34.3689V36.96H1.58193V34.3689H18.6181ZM1.58193 30.5067V27.9156H18.6181V30.5067H1.58193ZM1.58193 27.28V24.3956H18.6181V27.28H1.58193ZM14.6024 42.7289H5.59759C3.40723 42.7289 1.58193 41.2622 1.58193 39.5022V37.5956H18.6181V39.5022C18.6181 41.2622 16.7928 42.7289 14.6024 42.7289Z" fill="black"/>
</svg>
