<svg width="21" height="23" viewBox="0 0 21 23" fill="none" xmlns="http://www.w3.org/2000/svg">
<path id="Vector" fill-rule="evenodd" clip-rule="evenodd" d="M5.25 0C4.9019 0 4.56806 0.15145 4.32192 0.421034C4.07578 0.690617 3.9375 1.05625 3.9375 1.4375V2.875H2.625C1.92881 2.875 1.26113 3.1779 0.768845 3.71707C0.276562 4.25624 0 4.9875 0 5.75V20.125C0 20.8875 0.276562 21.6188 0.768845 22.1579C1.26113 22.6971 1.92881 23 2.625 23H18.375C19.0712 23 19.7389 22.6971 20.2312 22.1579C20.7234 21.6188 21 20.8875 21 20.125V5.75C21 4.9875 20.7234 4.25624 20.2312 3.71707C19.7389 3.1779 19.0712 2.875 18.375 2.875H17.0625V1.4375C17.0625 1.05625 16.9242 0.690617 16.6781 0.421034C16.4319 0.15145 16.0981 0 15.75 0C15.4019 0 15.0681 0.15145 14.8219 0.421034C14.5758 0.690617 14.4375 1.05625 14.4375 1.4375V2.875H6.5625V1.4375C6.5625 1.05625 6.42422 0.690617 6.17808 0.421034C5.93194 0.15145 5.5981 0 5.25 0ZM5.25 7.1875C4.9019 7.1875 4.56806 7.33895 4.32192 7.60853C4.07578 7.87812 3.9375 8.24375 3.9375 8.625C3.9375 9.00625 4.07578 9.37188 4.32192 9.64147C4.56806 9.91105 4.9019 10.0625 5.25 10.0625H15.75C16.0981 10.0625 16.4319 9.91105 16.6781 9.64147C16.9242 9.37188 17.0625 9.00625 17.0625 8.625C17.0625 8.24375 16.9242 7.87812 16.6781 7.60853C16.4319 7.33895 16.0981 7.1875 15.75 7.1875H5.25Z" fill="#92A3FD"/>
</svg>
