<svg width="20" height="32" viewBox="0 0 20 32" fill="none" xmlns="http://www.w3.org/2000/svg">
<g id="icon/day">
<path id="Shape" fill-rule="evenodd" clip-rule="evenodd" d="M10.185 7.0413C10.5829 7.0413 10.9058 6.53921 10.9058 5.92055V3.01333C10.9058 2.39243 10.5829 1.89258 10.185 1.89258C9.78713 1.89258 9.4642 2.39243 9.4642 3.01333V5.92055C9.4642 6.53921 9.78713 7.0413 10.185 7.0413ZM10.185 10.0095C7.8611 10.0095 5.97688 12.9391 5.97688 16.5524C5.97688 20.1657 7.8611 23.0954 10.185 23.0954C12.5089 23.0954 14.3932 20.1657 14.3932 16.5524C14.3932 12.9391 12.5089 10.0095 10.185 10.0095ZM9.4642 27.0023C9.4642 26.3837 9.78713 25.8816 10.185 25.8816C10.5829 25.8816 10.9058 26.3837 10.9058 27.0023V29.9095C10.9058 30.5304 10.5829 31.0303 10.185 31.0303C9.78713 31.0303 9.4642 30.5304 9.4642 29.9095V27.0023ZM4.12639 16.4614C4.12639 15.8428 3.80346 15.3407 3.40557 15.3407H1.53576C1.13643 15.3407 0.814941 15.8428 0.814941 16.4614C0.814941 17.0801 1.13643 17.5822 1.53576 17.5822H3.40557C3.80346 17.5822 4.12639 17.0801 4.12639 16.4614ZM16.9651 15.3407H18.8349C19.2328 15.3407 19.5557 15.8428 19.5557 16.4614C19.5557 17.0801 19.2328 17.5822 18.8349 17.5822H16.9651C16.5657 17.5822 16.2442 17.0801 16.2442 16.4614C16.2442 15.8428 16.5657 15.3407 16.9651 15.3407ZM4.88166 23.1225L3.55968 25.178C3.27712 25.6173 3.27712 26.3256 3.55968 26.7649C3.69952 26.9824 3.88405 27.0922 4.06858 27.0922C4.25311 27.0922 4.43764 26.9824 4.57892 26.7649L5.9009 24.7072C6.18202 24.2701 6.18202 23.5596 5.9009 23.1225C5.61978 22.6854 5.16278 22.6854 4.88166 23.1225ZM15.4891 9.80149C15.3478 10.0189 15.1633 10.1287 14.9788 10.1287C14.7942 10.1287 14.6097 10.0189 14.4684 9.80149C14.1873 9.36215 14.1873 8.65384 14.4684 8.21451L15.7919 6.15905C16.073 5.72196 16.53 5.72196 16.8111 6.15905C17.0922 6.59614 17.0922 7.3067 16.8111 7.74379L15.4891 9.80149ZM4.88166 9.80037C5.02294 10.02 5.20747 10.1276 5.392 10.1276C5.57509 10.1276 5.75962 10.02 5.9009 9.80037C6.18202 9.36327 6.18202 8.65272 5.9009 8.21563L4.57892 6.15793C4.29636 5.72084 3.8408 5.72084 3.55968 6.15793C3.27712 6.59726 3.27712 7.30558 3.55968 7.74491L4.88166 9.80037ZM14.4691 24.7072C14.188 24.2701 14.188 23.5596 14.4691 23.1225C14.7503 22.6854 15.2073 22.6854 15.4884 23.1225L16.8104 25.178C17.0929 25.6173 17.0929 26.3256 16.8104 26.7649C16.6705 26.9824 16.486 27.0922 16.3015 27.0922C16.1169 27.0922 15.9324 26.9824 15.7911 26.7649L14.4691 24.7072Z" fill="#E4DFFF"/>
</g>
</svg>
