<svg width="107" height="161" viewBox="0 0 107 161" fill="none" xmlns="http://www.w3.org/2000/svg">
<path d="M65.6725 16.1844L67.6695 23.3074C67.931 24.2438 68.9295 25.0267 70.3083 25.3798L74.7302 26.5004C74.7302 26.5004 70.0706 30.9983 60.7277 32.2725C51.3847 33.5312 46.2734 28.0662 46.2734 28.0662L50.2198 26.1627C51.0994 25.7329 51.5749 25.0574 51.5036 24.3513L50.7904 17.7349L65.6725 16.1844Z" fill="#FFEDE5"/>
<path d="M51.3375 22.6931C51.3375 22.6931 62.5347 26.9607 65.6728 16.1842L50.8145 17.7193L51.3375 22.6931Z" fill="#DF845C"/>
<path d="M68.8902 13.9226C69.3122 12.7673 68.8256 11.7046 67.8033 11.5489C66.7809 11.3931 65.61 12.2034 65.188 13.3587C64.766 14.5139 65.2526 15.5767 66.2749 15.7324C67.2973 15.8881 68.4682 15.0779 68.8902 13.9226Z" fill="#FFEDE5"/>
<path d="M49.2702 17.0606C50.1799 16.7214 50.1722 15.6133 49.2531 14.5854C48.334 13.5575 46.8516 12.9991 45.9419 13.3382C45.0323 13.6774 45.04 14.7855 45.9591 15.8134C46.8781 16.8413 48.3606 17.3997 49.2702 17.0606Z" fill="#DF845C"/>
<path d="M66.432 14.2813C66.3845 14.2813 66.3607 14.2813 66.3132 14.2659C66.1943 14.2199 66.1468 14.1278 66.2181 14.0664L67.0502 13.0225C67.1215 12.9457 67.2641 12.915 67.3592 12.9611C67.4781 13.0071 67.5256 13.0993 67.4543 13.1607L66.6222 14.2045C66.5985 14.2506 66.5271 14.2813 66.432 14.2813Z" fill="#472938"/>
<path d="M48.5305 15.7238C48.4829 15.7238 48.4116 15.7084 48.3641 15.6777L46.7475 14.7106C46.6524 14.6492 46.6524 14.5571 46.7237 14.4957C46.8188 14.4343 46.9614 14.4343 47.0565 14.4803L48.6731 15.4475C48.7682 15.5089 48.7682 15.601 48.6969 15.6624C48.6493 15.7084 48.578 15.7238 48.5305 15.7238Z" fill="#472938"/>
<path d="M45.0124 9.06142C45.0124 9.06142 48.9112 18.4256 50.3852 19.7765C51.8354 21.1121 56.3285 22.3555 57.0893 22.4323C57.85 22.509 60.8693 22.3095 61.5587 21.9257C62.2481 21.5419 65.9568 19.009 66.5273 17.3664C67.0741 15.7238 67.2168 7.05042 64.8632 5.46925C62.4858 3.88809 43.8237 5.17758 45.0124 9.06142Z" fill="#FFEDE5"/>
<path d="M57.2332 15.7241C56.6388 15.7241 55.5928 15.5246 55.4502 15.4785C55.26 15.4171 55.2362 15.4171 55.3075 12.7153C55.3075 12.5311 55.3075 12.3929 55.3075 12.3469C55.2838 12.2241 54.7132 11.5947 54.2139 11.0727C54.1426 10.996 54.1664 10.9039 54.2853 10.8578C54.4041 10.8118 54.5468 10.8271 54.6181 10.9039C55.046 11.3491 55.8068 12.1166 55.8068 12.3315C55.8068 12.3776 55.8068 12.5157 55.8068 12.7C55.783 13.2526 55.7592 14.8338 55.783 15.2022C56.0683 15.2636 56.8766 15.4018 57.2807 15.3864C57.6135 15.3711 58.1366 15.1101 58.3743 14.9566C58.4694 14.8952 58.612 14.8952 58.7071 14.9566C58.8022 15.018 58.8022 15.1101 58.7071 15.1715C58.6358 15.2175 57.8988 15.6781 57.3045 15.6934C57.2807 15.7241 57.2569 15.7241 57.2332 15.7241Z" fill="#472938"/>
<path d="M54.2852 17.3514L60.8942 16.7681C60.8942 16.7681 60.3949 18.733 58.0414 19.0707C55.6878 19.4085 54.2852 17.3514 54.2852 17.3514Z" fill="white"/>
<path d="M60.8464 11.8865C60.4422 11.9172 60.0856 11.733 60.0381 11.472L59.9905 11.1189C59.943 10.8579 60.2283 10.6277 60.6324 10.597C61.0366 10.5663 61.3932 10.7505 61.4407 11.0115L61.4882 11.3645C61.5596 11.6255 61.2505 11.8558 60.8464 11.8865Z" fill="#472938"/>
<path d="M51.5984 12.9606C51.1942 13.0067 50.8139 12.8378 50.7425 12.5769L50.6474 12.2238C50.5761 11.9628 50.8376 11.7172 51.2418 11.6711C51.6459 11.6251 52.0263 11.7939 52.0976 12.0549L52.1927 12.408C52.264 12.669 52.0025 12.9146 51.5984 12.9606Z" fill="#472938"/>
<path d="M58.3732 9.7218C58.3732 9.7218 61.7966 8.93889 63.6272 9.62969C63.6272 9.62969 63.3181 8.66257 61.44 8.70863C59.5619 8.75468 58.3495 8.92354 58.1593 9.21521C57.9691 9.50688 58.3732 9.7218 58.3732 9.7218Z" fill="#472938"/>
<path d="M53.2855 10.3202C53.2855 10.3202 49.6719 10.1053 48.1742 11.0724C48.1742 11.0724 48.1029 10.0746 49.9334 9.82894C51.764 9.58333 53.0002 9.55262 53.2855 9.79824C53.5945 10.0592 53.2855 10.3202 53.2855 10.3202Z" fill="#472938"/>
<path d="M47.3189 14.2655L46.6295 10.397C46.6295 10.397 52.3113 10.7808 56.5905 7.98692C60.8698 5.19301 63.8414 6.75882 63.8414 6.75882L66.8131 11.9936L67.5263 11.5177C67.5263 11.5177 67.6927 6.63602 67.5263 6.46715C67.3599 6.29829 66.0999 5.7917 66.0999 5.7917C66.0999 5.7917 65.6957 1.03284 56.543 0.0964233C47.3902 -0.839997 44.9654 5.34652 42.3027 5.59214L43.3725 6.46715C43.3725 6.46715 43.0159 7.17331 43.0397 8.04832C43.0635 8.92334 45.9638 13.3445 45.9638 13.3445L47.3189 14.2655Z" fill="#3B2645"/>
<path d="M34.6239 30.6144C34.6239 30.6144 29.2273 31.6122 29.4651 38.8733C29.4651 38.8733 24.1161 44.062 23.5217 50.2639C23.5217 50.2639 10.4463 42.5116 9.99465 41.5598C9.51919 40.5927 9.78069 37.2001 9.47164 36.3711C9.16259 35.5421 8.02146 34.6671 8.1641 33.5004C8.30674 32.3338 8.6158 30.6912 8.44938 30.5223C8.28297 30.3535 5.78676 30.5377 5.35884 31.8732C4.93092 33.2088 4.81205 34.7285 4.81205 34.7285C4.81205 34.7285 0.794348 35.3733 0.295106 35.8492C-0.204135 36.3251 0.0811473 37.5838 0.0811473 37.5838C0.0811473 37.5838 0.17624 41.8208 0.841895 42.2967C1.50755 42.7725 4.69319 43.8164 5.35884 44.1081C6.0245 44.3998 13.5369 55.56 16.7938 58.093C20.0508 60.6259 23.07 61.3321 25.8991 60.7334C28.7281 60.1347 36.5495 53.3188 39.0695 50.1564C41.5895 46.9941 40.6623 30.9829 34.6239 30.6144Z" fill="#FFEDE5"/>
<path d="M40.2588 41.1606C37.3823 40.7001 35.5042 40.9764 35.5042 40.9764C35.5042 40.9764 39.3317 49.9108 33.4121 55.7135C35.7419 53.7178 37.9291 51.5687 39.0464 50.1717C40.1162 48.8055 40.5679 45.0291 40.2588 41.1606Z" fill="#DF845C"/>
<path d="M23.498 50.2639L25.7327 51.3231L23.5931 49.6038L23.498 50.2639Z" fill="#DF845C"/>
<path d="M1.9599 35.7722C1.9599 35.7722 6.02515 35.9718 6.23911 36.1253C6.45307 36.2788 6.7859 41.6978 6.02516 42.0662C5.24063 42.45 1.3418 42.3886 1.3418 42.3886C1.3418 42.3886 6.00138 42.6649 6.50062 42.5267C6.99986 42.3886 7.90325 40.485 8.06967 39.5025C8.23608 38.5201 7.28514 35.9257 6.92854 35.8643C6.57194 35.8029 1.9599 35.7722 1.9599 35.7722Z" fill="#DF845C"/>
<path d="M86.2833 144.52C86.4497 141.143 86.9965 136.184 86.9014 131.595C86.7588 124.994 85.7365 117.564 85.2373 115.399C84.7142 113.235 85.9267 103.21 85.9267 103.21L64.4355 105.144C64.9586 106.219 68.8574 115.645 69.0238 119.759C69.214 123.873 77.0354 143.031 77.3445 144.566C77.392 144.766 77.4158 144.981 77.4634 145.196C79.4365 145.349 83.2165 145.472 86.2833 144.52Z" fill="#FFEDE5"/>
<path d="M79.6266 149.417C79.6266 149.417 79.3888 147.775 82.2416 147.375C85.0945 146.976 86.402 147.897 86.402 147.897C86.2356 147.176 86.2356 145.994 86.3069 144.52C83.2401 145.472 79.4602 145.349 77.5107 145.196C77.7009 146.393 77.7485 147.821 77.5583 148.987C77.8673 149.509 79.6266 149.417 79.6266 149.417Z" fill="white"/>
<path d="M76.6318 156.417C79.6748 157.446 78.7952 159.748 82.599 160.316C85.7608 160.792 90.563 160.516 92.4411 160.378C92.9404 160.347 93.3445 160.086 93.4396 159.764C93.4872 159.533 93.5347 159.226 93.5109 158.904C91.1336 159.042 85.5469 159.319 83.3122 158.965C80.4594 158.52 79.7699 156.632 78.3435 156.11C77.2737 155.726 76.5843 155.22 76.299 154.99C76.2515 155.312 76.1802 155.588 76.1564 155.788C76.0613 156.064 76.2752 156.31 76.6318 156.417Z" fill="#3B2645"/>
<path d="M92.441 156.847C91.8704 156.325 91.0383 155.204 90.1825 153.93C89.6832 155.082 83.9776 154.544 83.2407 154.421C82.5037 154.299 79.6509 149.417 79.6509 149.417C79.6509 149.417 77.8916 149.494 77.5588 148.972C77.5113 149.233 77.4637 149.494 77.3924 149.724C77.1071 150.706 76.5841 153.393 76.2988 154.989C76.5841 155.22 77.2735 155.711 78.3433 156.11C79.7935 156.632 80.4592 158.52 83.312 158.965C85.5467 159.318 91.1334 159.042 93.5108 158.904C93.4394 158.29 93.2017 157.553 92.441 156.847Z" fill="#AB8DA8"/>
<path d="M83.2161 154.422C83.953 154.544 89.6586 155.082 90.1579 153.93C88.3511 151.259 86.3779 147.897 86.3779 147.897C86.3779 147.897 85.0704 146.976 82.2176 147.375C79.3648 147.775 79.6025 149.417 79.6025 149.417C79.6025 149.417 82.4791 154.314 83.2161 154.422Z" fill="#3B2645"/>
<path d="M78.5186 115.88C80.7759 115.654 82.5356 115.178 82.4489 114.818C82.3622 114.458 80.4619 114.349 78.2045 114.576C75.9472 114.802 74.1875 115.278 74.2742 115.638C74.3609 115.999 76.2612 116.107 78.5186 115.88Z" fill="#E0855C"/>
<path d="M25.377 144.781C25.4007 141.388 25.686 136.46 26.0188 131.87C26.6132 123.719 29.3709 116.55 29.3709 115.675C29.3709 112.206 29.989 101.445 30.3218 101.705L50.2201 104.822C49.6496 105.881 44.2055 114.785 43.8013 118.899C43.3972 123.013 34.6961 143.507 34.292 145.026C34.2444 145.226 34.1969 145.426 34.1493 145.656C32.1761 145.748 28.3962 145.794 25.377 144.781Z" fill="#FFEDE5"/>
<path d="M31.7711 149.816C31.7711 149.816 32.104 148.173 29.2749 147.713C26.4459 147.252 25.0908 148.143 25.0908 148.143C25.3048 147.421 25.3761 146.239 25.3761 144.766C28.3953 145.779 32.1753 145.733 34.1485 145.625C33.9108 146.807 33.7681 148.235 33.9108 149.417C33.5066 149.939 31.7711 149.816 31.7711 149.816Z" fill="white"/>
<path d="M34.3859 156.877C31.2716 157.844 32.0561 160.163 28.2286 160.638C25.0429 161.038 20.2645 160.669 18.3864 160.485C17.8871 160.439 17.483 160.178 17.4354 159.84C17.3879 159.61 17.3641 159.303 17.4117 158.98C19.789 159.165 25.352 159.564 27.6104 159.272C30.487 158.888 31.2716 157.016 32.7217 156.524C33.8153 156.156 34.5285 155.68 34.8376 155.45C34.8851 155.772 34.9089 156.048 34.9327 156.263C34.9802 156.524 34.7425 156.77 34.3859 156.877Z" fill="#3B2645"/>
<path d="M18.577 156.97C19.1713 156.463 20.0747 155.358 21.0019 154.099C21.4536 155.266 27.1592 154.851 27.9199 154.744C28.6807 154.636 31.7712 149.816 31.7712 149.816C31.7712 149.816 33.5067 149.939 33.8871 149.417C33.9108 149.678 33.9584 149.939 34.0059 150.169C34.2437 151.167 34.624 153.853 34.838 155.45C34.529 155.68 33.8158 156.156 32.7222 156.524C31.2482 157.016 30.4875 158.873 27.6109 159.272C25.3762 159.579 19.7894 159.18 17.4121 158.981C17.4834 158.382 17.7925 157.645 18.577 156.97Z" fill="#AB8DA8"/>
<path d="M27.8966 154.744C27.1358 154.851 21.4302 155.266 20.9785 154.099C22.9279 151.459 25.0675 148.143 25.0675 148.143C25.0675 148.143 26.4226 147.252 29.2517 147.713C32.0807 148.173 31.7479 149.816 31.7479 149.816C31.7479 149.816 28.6573 154.636 27.8966 154.744Z" fill="#3B2645"/>
<path d="M38.8604 116.986C38.9658 116.628 37.2318 116.115 34.9875 115.839C32.7431 115.564 30.8383 115.631 30.7328 115.989C30.6274 116.347 32.3614 116.861 34.6058 117.136C36.8501 117.412 38.755 117.345 38.8604 116.986Z" fill="#E0855C"/>
<path d="M83.3121 73.9508C83.3121 73.9508 87.306 90.2844 85.9271 103.21C85.9271 103.21 78.2008 106.94 60.1568 104.714L57.3753 94.4446L52.8108 104.776C52.8108 104.776 34.1011 105.497 29.085 100.815C29.085 100.815 31.7714 81.4421 37.4532 73.613C43.135 65.784 81.4577 67.534 83.3121 73.9508Z" fill="#8C80F8"/>
<path d="M57.3751 94.4445C57.3751 94.4445 55.1404 93.1703 54.9027 93.0475C54.665 92.9247 52.5967 87.6439 52.5967 87.6439L54.8789 100.094L57.3751 94.4445Z" fill="#3B2645"/>
<path d="M67.5975 103.486C63.5798 103.486 60.6794 103.287 60.6081 103.287C60.5368 103.287 60.4892 103.241 60.513 103.195C60.513 103.149 60.5843 103.118 60.6557 103.133C60.8221 103.149 76.774 104.239 86.0694 101.215C86.117 101.199 86.1883 101.215 86.2358 101.245C86.2596 101.276 86.2358 101.322 86.1883 101.353C80.7442 103.118 73.1129 103.486 67.5975 103.486Z" fill="white"/>
<path d="M53.5476 103.179C53.5238 103.179 53.5476 103.179 53.5476 103.179C36.2405 102.243 29.37 99.1268 29.2987 99.0961C29.2512 99.0654 29.2274 99.0193 29.2749 98.9886C29.3225 98.9579 29.3938 98.9426 29.4414 98.9733C29.5127 99.004 36.3356 102.09 53.5714 103.026C53.6427 103.026 53.6902 103.072 53.6902 103.103C53.6427 103.149 53.5951 103.179 53.5476 103.179Z" fill="white"/>
<path d="M71.7095 25.7332C71.7095 25.7332 68.0484 30.4767 59.6564 30.8297C51.2644 31.1828 48.0075 27.2529 48.0075 27.2529L34.623 30.6302C34.623 30.6302 37.0479 36.1873 35.5027 40.9922C35.5027 40.9922 39.0449 49.159 39.0449 50.1875C39.0449 51.2161 42.0166 55.5758 42.2068 56.6043C42.3969 57.6328 37.4521 73.6287 37.4521 73.6287C37.4521 73.6287 61.0828 78.1113 66.5745 77.9578C72.0661 77.8043 83.311 73.9511 83.311 73.9511C83.311 73.9511 82.1936 60.5496 83.311 57.2491C84.4283 53.9486 88.6124 45.1217 88.6124 45.1217C88.6124 45.1217 85.0702 33.5622 86.0687 28.9569L71.7095 25.7332Z" fill="#AB8DA8"/>
<path d="M85.9029 44.9373C85.784 44.9373 85.6889 44.8913 85.6652 44.8145C83.5731 39.2881 83.1689 28.4656 83.1689 28.3581C83.1689 28.266 83.264 28.2046 83.4067 28.2046C83.5493 28.2046 83.6444 28.266 83.6444 28.3581C83.6444 28.4656 84.0486 39.2574 86.1406 44.7531C86.1644 44.8299 86.0931 44.922 85.9742 44.9373C85.9267 44.9373 85.9029 44.9373 85.9029 44.9373Z" fill="#472938"/>
<path d="M36.2869 42.9569C36.2393 42.9569 36.168 42.9416 36.1204 42.9262C36.0253 42.8648 36.0016 42.7727 36.0967 42.7113C40.2808 39.6564 36.4295 30.2462 36.3819 30.1541C36.3582 30.0773 36.4295 29.9852 36.5484 29.9699C36.6672 29.9545 36.8099 30.0006 36.8336 30.0773C37.0001 30.4765 40.78 39.7332 36.4295 42.9109C36.4057 42.9416 36.3344 42.9569 36.2869 42.9569Z" fill="#472938"/>
<path d="M58.3727 32.5028C50.052 32.5028 45.749 27.8974 45.7015 27.836C45.6302 27.7593 45.6777 27.6672 45.7966 27.6211C45.9154 27.5751 46.0581 27.6058 46.1294 27.6825C46.1769 27.7286 50.6701 32.5488 59.3474 32.1651C66.3843 31.858 70.1881 28.9413 71.4481 27.9742C71.876 27.6365 71.9949 27.5597 72.185 27.5904C72.2801 27.6058 72.3514 27.6518 72.3752 27.7132C72.4228 27.79 72.3515 27.8821 72.2088 27.8974C72.185 27.8974 72.185 27.8974 72.1613 27.8974C72.0899 27.9435 71.9473 28.0663 71.8047 28.1738C70.5209 29.1562 66.6221 32.1497 59.3712 32.4721C59.0384 32.5028 58.7055 32.5028 58.3727 32.5028Z" fill="#472938"/>
<path d="M86.0698 28.9566C86.0698 28.9566 94.7233 28.6496 96.5539 37.4612C96.5539 37.4612 105.445 48.3605 106.467 51.8452C107.49 55.3299 105.659 60.2423 103.424 62.7599C101.19 65.2774 93.7486 73.4136 92.3935 74.657C91.0384 75.9004 91.2524 76.2228 87.7102 76.3917C87.7102 76.3917 85.0951 76.6987 84.5721 76.8522C84.0491 77.0057 80.8872 78.0957 80.2453 77.9421C79.6034 77.804 78.9853 77.2513 79.1042 77.1439C79.2468 77.0211 82.5513 75.8697 82.5513 75.8697C82.5513 75.8697 77.2261 76.4531 76.7268 76.4377C76.2276 76.4224 75.4906 75.7009 75.4906 75.7009C75.4906 75.7009 73.7552 75.1943 73.5412 74.7952C73.3272 74.396 75.2291 73.5978 75.2291 73.5978C75.2291 73.5978 74.088 73.4136 73.6838 73.0298C73.2797 72.646 80.3404 70.2052 81.1962 70.2359C82.0521 70.2666 87.8528 70.7425 87.8528 70.7425C87.8528 70.7425 95.5554 54.7466 95.6267 53.7487C95.698 52.7509 89.5169 48.5907 88.566 45.1214C88.6135 45.1214 84.6434 33.0554 86.0698 28.9566Z" fill="#FFEDE5"/>
<path d="M75.158 75.7468C75.0629 75.7468 74.9915 75.7161 74.944 75.6547C74.8965 75.5779 74.944 75.4858 75.0629 75.4551L80.4357 73.8739C80.5545 73.8432 80.6972 73.8739 80.7447 73.9507C80.7923 74.0275 80.7447 74.1196 80.6259 74.1503L75.2531 75.7314C75.2293 75.7468 75.2055 75.7468 75.158 75.7468Z" fill="#472938"/>
<path d="M75.2777 73.7662C75.1826 73.7662 75.1113 73.7355 75.0638 73.6895C74.9925 73.6127 75.04 73.5206 75.1589 73.4746L80.4128 71.6631C80.5317 71.6171 80.6743 71.6478 80.7456 71.7245C80.8169 71.8013 80.7694 71.8934 80.6505 71.9394L75.3966 73.7509C75.3491 73.7509 75.3015 73.7662 75.2777 73.7662Z" fill="#472938"/>
</svg>
