<svg width="184" height="291" viewBox="0 0 184 291" fill="none" xmlns="http://www.w3.org/2000/svg">
<g clip-path="url(#clip0_1318_106)">
<path d="M95.8259 120.128C95.6462 123.695 95.1843 127.827 94.5171 132.395C93.311 140.453 91.4634 149.64 89.3847 158.57C84.8169 179.048 79.3766 197.935 79.3766 197.935C78.911 209.998 77.5298 222.008 75.245 233.862C75.014 235.171 74.7831 236.428 74.5265 237.711C73.7566 241.843 72.9354 245.821 72.1656 249.49C69.3171 262.526 66.7252 271.944 66.7252 271.944L54.2279 269.789C53.6376 262.706 53.4067 255.931 53.4323 249.593C53.4323 245.641 53.4323 241.894 53.689 238.25C53.689 236.351 53.8942 234.504 54.0226 232.733C55.4853 211.126 59.1549 196.806 59.1549 193.958C59.1549 179.51 60.1044 166.91 61.2592 156.158C64.4926 126.518 70.2153 111.07 70.2153 111.07C78.2988 92.4907 90.4112 93.7738 94.4145 107.451C95.5719 111.572 96.0486 115.854 95.8259 120.128Z" fill="#FFEDE5"/>
<path d="M135.576 253.544C135.576 258.676 135.268 264.091 134.806 269.685L122.308 272.072C122.308 272.072 120.101 263.988 117.51 252.389C116.56 248.129 115.559 243.407 114.61 238.429C114.353 237.018 114.071 235.555 113.814 234.118C111.516 222.179 110.126 210.083 109.657 197.934C109.657 197.934 104.165 178.868 99.5462 158.287C97.5446 149.459 95.697 140.323 94.4139 132.342C93.721 127.8 93.2847 123.617 93.1051 120.076C92.8306 115.756 93.2728 111.421 94.4139 107.245C98.4684 93.5673 110.555 92.3098 118.639 110.863C118.639 110.863 124.336 126.261 127.543 155.72C128.897 168.353 129.608 181.047 129.673 193.751C129.673 196.6 133.369 210.637 134.806 231.936C134.806 233.733 135.037 235.555 135.139 237.428C135.55 242.535 135.653 247.873 135.576 253.544Z" fill="#FFEDE5"/>
<path d="M134.986 232.041C127.961 233.105 120.886 233.799 113.789 234.12C111.499 222.18 110.118 210.085 109.657 197.936C109.657 197.936 104.166 178.87 99.5465 158.289C97.5449 149.461 95.6972 140.325 94.4141 132.344C93.208 140.402 91.3604 149.589 89.2817 158.52C84.8166 179.049 79.3762 197.936 79.3762 197.936C78.9106 209.999 77.5295 222.009 75.2447 233.863C67.5461 233.504 60.1811 233.016 54.0222 232.503C55.4849 210.896 59.1546 196.576 59.1546 193.728C59.1546 179.28 60.1041 166.68 61.2589 155.928C64.4923 126.288 70.2149 110.84 70.2149 110.84C78.2984 92.2602 90.4109 93.5433 94.4141 107.221C97.4936 96.7768 105.269 93.569 112.378 100.909C115.031 103.826 117.15 107.188 118.639 110.84C120.235 115.558 121.555 120.364 122.591 125.236C124.854 135.328 126.542 145.541 127.646 155.825C129 168.458 129.711 181.151 129.776 193.856C129.802 196.705 133.472 210.767 134.986 232.041Z" fill="#AB8DA8"/>
<path d="M122.694 125.364C115.662 117.691 84.8423 115.817 84.8423 115.817L112.48 101.164C115.133 104.082 117.253 107.444 118.742 111.095C120.333 115.771 121.653 120.535 122.694 125.364Z" fill="#826B80"/>
<path d="M68.3672 284.672C68.3813 284.8 68.3813 284.929 68.3672 285.057C67.9566 290.831 63.2348 289.958 56.2547 290.189C50.6861 290.189 47.7093 287.084 48.0429 283.722C48.1523 282.704 48.5236 281.732 49.1207 280.9C50.7098 278.416 51.8721 275.684 52.5594 272.816C52.8615 271.518 53.5941 270.36 54.638 269.531C59.0262 265.99 63.2348 268.71 65.339 270.66C66.2795 271.5 66.9344 272.613 67.2124 273.843C68.0033 277.397 68.3907 281.03 68.3672 284.672Z" fill="#3B2645"/>
<path d="M132.856 290.062C125.696 290.062 120.82 290.883 120.692 284.673V284.134C120.678 280.732 121.057 277.339 121.821 274.023C122.116 272.615 122.853 271.339 123.925 270.379C125.131 268.994 126.791 268.086 128.608 267.817C130.424 267.549 132.276 267.939 133.831 268.916C135.217 269.875 136.203 271.308 136.602 272.945C137.297 275.682 138.441 278.283 139.99 280.644C140.325 281.127 140.593 281.654 140.785 282.209C142.017 286.11 139.117 290.165 132.856 290.062Z" fill="#3B2645"/>
<path d="M107.399 20.8679C108.083 20.0691 108.52 19.0882 108.656 18.0451C108.729 16.3861 109.031 14.7452 109.554 13.1693C110.017 12.4717 110.396 11.7224 110.684 10.9367C110.778 10.5188 110.767 10.0838 110.65 9.67136C110.534 9.25897 110.316 8.88233 110.016 8.57581C109.58 8.13956 108.964 7.83162 108.759 7.24139C108.707 6.86681 108.707 6.48684 108.759 6.11226C108.68 5.55725 108.462 5.03118 108.125 4.58266C107.789 4.13414 107.345 3.77763 106.834 3.54607C105.788 3.03542 104.673 2.68094 103.524 2.49393C102.394 2.35338 101.312 1.94901 100.367 1.31348C99.9788 0.950915 99.5579 0.624514 99.11 0.338325C98.2593 -0.0263383 97.3116 -0.0985395 96.4155 0.13303C94.7137 0.428058 93.0517 0.918895 91.4627 1.59576C90.8896 1.89652 90.2759 2.11262 89.6407 2.23731C88.6912 2.23731 87.6904 2.05768 86.7409 2.23731C86.0297 2.46416 85.3765 2.84345 84.8269 3.34871C84.2773 3.85398 83.8446 4.47306 83.5589 5.16277C83.3861 5.56044 83.1224 5.91202 82.789 6.18925C82.3695 6.40295 81.9193 6.55012 81.4546 6.6255C80.8672 6.85633 80.3451 7.22713 79.9336 7.70567C79.5222 8.1842 79.2338 8.75599 79.0937 9.37133C78.8509 10.643 78.8509 11.949 79.0937 13.2206C79.1402 14.4778 79.2775 15.7299 79.5043 16.9673C82.0705 27.2321 82.8147 24.3836 82.8147 24.3836L90.5132 23.5881C94.0033 23.2031 97.4676 22.7925 100.932 22.305C102.318 22.0997 103.703 21.8174 105.089 21.5864C105.921 21.6393 106.744 21.3835 107.399 20.8679Z" fill="#3B2645"/>
<path d="M82.0965 19.9187C81.8417 19.5688 81.5078 19.2841 81.1221 19.0878C80.7363 18.8914 80.3096 18.7891 79.8767 18.7891C79.4439 18.7891 79.0172 18.8914 78.6314 19.0878C78.2456 19.2841 77.9117 19.5688 77.657 19.9187C75.527 22.6645 79.4533 27.6173 82.3531 27.7713C82.4256 25.151 82.3399 22.5287 82.0965 19.9187Z" fill="#E0855C"/>
<path d="M124.413 49.5581C121.614 56.8052 119.358 64.2506 117.664 71.8327C117.459 72.8078 117.305 73.7573 117.125 74.6812C116.945 75.605 116.868 76.2979 116.766 77.0421C116.663 77.7863 116.766 78.0942 116.56 78.8127C115.765 86.5113 114.276 107.888 113.994 111.532C113.994 111.891 113.994 112.07 113.994 112.07C94.0548 118.204 72.9351 113.328 72.9351 113.328L72.7811 112.199C72.3192 108.657 68.0079 70.7806 67.854 69.2665C66.9558 60.2591 66.3143 51.9703 66.2629 46.8123C66.2629 46.0424 66.9302 45.6062 67.931 45.3239C69.5477 44.862 71.8316 44.785 73.6279 44.477C76.9732 43.9179 80.35 43.5665 83.7387 43.4249H84.5599C84.7308 43.4147 84.9022 43.4147 85.0732 43.4249H85.689L86.3306 33.1601H87.3314C87.9852 33.2614 88.6458 33.3129 89.3074 33.3141C90.0963 33.3254 90.8852 33.2825 91.6683 33.1858L92.7717 33.0575C93.3106 33.0575 93.7982 32.8778 94.2858 32.7495C95.0725 32.5681 95.8446 32.3279 96.5954 32.031C96.8263 31.9812 97.0503 31.9037 97.2626 31.8H97.4679L97.9811 31.5691C98.9231 31.16 99.8325 30.6796 100.701 30.132L101.907 29.3108L102.113 29.1312C102.276 29.0241 102.431 28.904 102.575 28.7719L102.857 28.541C102.857 28.9259 102.857 29.0799 102.857 29.2338C102.633 31.2279 102.513 33.2322 102.498 35.2387C102.498 36.7015 102.498 38.1642 102.498 39.4473C102.498 41.6286 102.498 43.2196 102.498 43.2196H103.935C103.961 43.2008 103.992 43.1907 104.025 43.1907C104.057 43.1907 104.088 43.2008 104.114 43.2196C106.195 43.2477 108.27 43.4278 110.325 43.7585C114.228 44.2712 118.065 45.2003 121.77 46.53C122.334 46.761 122.745 46.9663 123.104 47.1459C123.463 47.3255 124.593 49.0962 124.413 49.5581Z" fill="#FFEDE5"/>
<path d="M102.96 28.5664C102.669 30.4136 101.972 32.1734 100.919 33.7189C99.866 35.2645 98.4837 36.5574 96.8714 37.5047C95.259 38.452 93.4567 39.03 91.5942 39.1973C89.7316 39.3645 87.8552 39.1168 86.0999 38.4719L86.4335 33.1599C89.3564 33.6193 92.3438 33.447 95.1945 32.6546C98.0453 31.8622 100.693 30.4682 102.96 28.5664Z" fill="#E0855C"/>
<path d="M82.3785 12.1937C80.9414 13.7847 80.9158 17.3261 80.9158 21.047C80.9158 32.5693 84.4571 36.0593 90.3594 36.4442C96.2616 36.8291 102.369 34.4426 103.19 23.6132C103.678 18.2499 104.191 13.3485 102.19 11.0389C99.2897 7.88246 86.741 7.34356 82.3785 12.1937Z" fill="#FFEDE5"/>
<path d="M102.446 22.2797C102.446 22.2797 104.088 17.4552 107.014 19.8931C109.939 22.331 106.218 29.6703 101.881 29.2597C101.856 29.2597 101.112 23.9477 102.446 22.2797Z" fill="#FFEDE5"/>
<path d="M105.757 22.0999C105.096 22.3342 104.511 22.7419 104.063 23.2804C103.539 23.7433 103.12 24.3117 102.831 24.9484C102.831 25.1281 103.037 25.2307 103.165 25.1281C103.293 25.0254 103.806 24.3325 104.14 23.9733C104.368 24.2443 104.659 24.4557 104.987 24.5892C105.045 24.615 105.11 24.6205 105.171 24.6048C105.233 24.5892 105.287 24.5532 105.326 24.5028C105.365 24.4523 105.385 24.3904 105.384 24.3269C105.383 24.2634 105.361 24.2021 105.321 24.1529C105.142 23.8887 104.905 23.6692 104.628 23.5114C105.1 23.187 105.546 22.8267 105.962 22.4336C105.991 22.4006 106.008 22.3593 106.012 22.3157C106.015 22.2722 106.005 22.2286 105.982 22.1914C105.959 22.1542 105.925 22.1253 105.884 22.1088C105.844 22.0924 105.799 22.0893 105.757 22.0999Z" fill="#E0855C"/>
<path d="M85.9716 20.6115C85.9716 20.6115 84.9964 20.9965 85.0734 19.2514C85.1504 17.5064 85.8946 17.84 85.8946 17.84C85.8946 17.84 86.5875 17.84 86.5105 19.2001C86.4335 20.5602 85.9716 20.6115 85.9716 20.6115Z" fill="#3B2645"/>
<path d="M96.0568 20.3029C96.0568 20.3029 95.0817 20.6878 95.1843 18.9172C95.287 17.1465 95.9799 17.5314 95.9799 17.5314C95.9799 17.5314 96.6727 17.5314 96.6214 18.8915C96.5701 20.2516 96.0568 20.3029 96.0568 20.3029Z" fill="#3B2645"/>
<path d="M90.6928 25.1799C90.1796 25.1799 89.0248 25.4366 88.7682 24.8977C88.8368 23.6703 89.0522 22.4555 89.4097 21.2793C89.8258 19.698 90.1598 18.0963 90.4105 16.4805C90.4105 16.4805 90.4105 16.4805 90.2309 16.4805C89.2954 19.3361 88.5917 22.2625 88.1266 25.2313C88.1139 25.2672 88.1102 25.3057 88.1159 25.3434C88.1216 25.381 88.1366 25.4167 88.1595 25.4472C88.1823 25.4777 88.2124 25.5021 88.247 25.5181C88.2815 25.5342 88.3195 25.5414 88.3576 25.5392C89.1018 25.5392 89.8203 25.5392 90.5645 25.5392C90.8468 25.6162 90.8981 25.2056 90.6928 25.1799Z" fill="#E0855C"/>
<path d="M87.9476 15.2996C87.3327 15.248 86.7147 15.248 86.0999 15.2996C85.4683 15.1513 84.8236 15.0653 84.1752 15.043C84.1013 15.0439 84.0292 15.0661 83.9676 15.1068C83.9059 15.1476 83.8573 15.2052 83.8275 15.2729C83.7977 15.3406 83.7881 15.4154 83.7997 15.4884C83.8113 15.5614 83.8437 15.6295 83.893 15.6846C84.4895 16.106 85.1788 16.3773 85.9025 16.4756C86.6262 16.5739 87.3629 16.4962 88.0502 16.2491C88.157 16.2148 88.2487 16.1446 88.3098 16.0505C88.3709 15.9564 88.3977 15.8441 88.3856 15.7326C88.3736 15.621 88.3234 15.517 88.2436 15.4382C88.1638 15.3593 88.0592 15.3104 87.9476 15.2996Z" fill="#3B2645"/>
<path d="M98.7765 13.9382C97.9123 14.4233 96.9625 14.737 95.9794 14.862C95.3378 14.862 94.5679 14.7337 94.0547 15.17C94.0227 15.2197 94.0056 15.2776 94.0056 15.3368C94.0056 15.3959 94.0227 15.4538 94.0547 15.5036C95.0555 16.9663 98.3403 15.247 99.1871 14.2205C99.2128 14.0408 98.9561 13.8612 98.7765 13.9382Z" fill="#3B2645"/>
<path d="M94.4649 28.182C93.384 28.0279 92.2867 28.0279 91.2058 28.182C90.4616 28.182 89.4095 28.0537 88.8706 28.6695C89.4608 29.2084 90.4616 28.9775 91.2058 28.9518C92.2898 29.0547 93.381 29.0547 94.4649 28.9518C94.567 28.9518 94.6649 28.9113 94.7371 28.8391C94.8093 28.7669 94.8498 28.669 94.8498 28.5669C94.8498 28.4648 94.8093 28.3669 94.7371 28.2947C94.6649 28.2225 94.567 28.182 94.4649 28.182Z" fill="#E0855C"/>
<path d="M182.332 161.803H2.31329C1.8709 161.803 1.44663 161.628 1.13382 161.315C0.821 161.002 0.645264 160.578 0.645264 160.135C0.645264 159.693 0.821 159.269 1.13382 158.956C1.44663 158.643 1.8709 158.467 2.31329 158.467H182.332C182.774 158.467 183.199 158.643 183.511 158.956C183.824 159.269 184 159.693 184 160.135C184 160.578 183.824 161.002 183.511 161.315C183.199 161.628 182.774 161.803 182.332 161.803Z" fill="#3B2645"/>
<path d="M8.01033 168.733C7.25487 168.733 6.53036 168.433 5.99616 167.899C5.46197 167.365 5.16187 166.64 5.16187 165.885V154.311C5.16187 153.556 5.46197 152.831 5.99616 152.297C6.53036 151.763 7.25487 151.463 8.01033 151.463C8.7658 151.463 9.49033 151.763 10.0245 152.297C10.5587 152.831 10.8588 153.556 10.8588 154.311V165.833C10.8692 166.213 10.803 166.59 10.6641 166.943C10.5253 167.296 10.3167 167.618 10.0508 167.889C9.78494 168.159 9.4672 168.374 9.1166 168.519C8.76601 168.664 8.38975 168.737 8.01033 168.733Z" fill="#3B2645"/>
<path d="M13.7071 178.817C12.9517 178.817 12.2271 178.517 11.6929 177.983C11.1587 177.449 10.8586 176.724 10.8586 175.969V144.302C10.9262 143.59 11.2568 142.928 11.7859 142.447C12.315 141.966 13.0046 141.699 13.7199 141.699C14.4353 141.699 15.1249 141.966 15.654 142.447C16.1831 142.928 16.5137 143.59 16.5813 144.302V175.969C16.5745 176.727 16.2687 177.451 15.7304 177.984C15.1922 178.518 14.465 178.817 13.7071 178.817Z" fill="#291B30"/>
<path d="M19.4296 183.591C19.0546 183.595 18.6827 183.524 18.3355 183.382C17.9884 183.24 17.673 183.03 17.4078 182.765C17.1426 182.5 16.933 182.184 16.791 181.837C16.6491 181.49 16.5777 181.118 16.5812 180.743V140.479C16.5812 139.724 16.8813 138.999 17.4155 138.465C17.9497 137.931 18.6742 137.631 19.4296 137.631C20.1851 137.631 20.9096 137.931 21.4438 138.465C21.978 138.999 22.2781 139.724 22.2781 140.479V180.743C22.2781 181.498 21.978 182.223 21.4438 182.757C20.9096 183.291 20.1851 183.591 19.4296 183.591Z" fill="#3B2645"/>
<path d="M174.145 168.733C174.901 168.733 175.625 168.433 176.159 167.899C176.694 167.365 176.994 166.64 176.994 165.885V154.311C176.994 153.556 176.694 152.831 176.159 152.297C175.625 151.763 174.901 151.463 174.145 151.463C173.39 151.463 172.665 151.763 172.131 152.297C171.597 152.831 171.297 153.556 171.297 154.311V165.833C171.29 166.212 171.359 166.588 171.499 166.939C171.639 167.291 171.848 167.611 172.113 167.881C172.378 168.151 172.694 168.365 173.043 168.512C173.392 168.658 173.767 168.733 174.145 168.733Z" fill="#3B2645"/>
<path d="M168.449 178.817C169.205 178.817 169.929 178.517 170.463 177.983C170.997 177.449 171.298 176.724 171.298 175.969V144.302C171.23 143.59 170.899 142.928 170.37 142.447C169.841 141.966 169.152 141.699 168.436 141.699C167.721 141.699 167.031 141.966 166.502 142.447C165.973 142.928 165.642 143.59 165.575 144.302V175.969C165.582 176.727 165.888 177.451 166.426 177.984C166.964 178.518 167.691 178.817 168.449 178.817Z" fill="#291B30"/>
<path d="M162.726 183.591C163.101 183.595 163.473 183.524 163.82 183.382C164.167 183.24 164.483 183.03 164.748 182.765C165.013 182.5 165.223 182.184 165.365 181.837C165.507 181.49 165.578 181.118 165.575 180.743V140.479C165.575 139.724 165.275 138.999 164.74 138.465C164.206 137.931 163.482 137.631 162.726 137.631C161.971 137.631 161.246 137.931 160.712 138.465C160.178 138.999 159.878 139.724 159.878 140.479V180.743C159.878 181.498 160.178 182.223 160.712 182.757C161.246 183.291 161.971 183.591 162.726 183.591Z" fill="#3B2645"/>
<path d="M77.3999 66.1863C76.3486 69.8515 74.8941 73.3888 73.0631 76.7334C72.3189 78.2731 69.3164 84.7912 69.1881 85.0478C64.5176 95.2869 57.9225 110.401 57.3323 112.198C55.8696 117.997 52.7388 151.743 52.7131 151.743C49.5054 156.567 43.3978 154.309 43.3978 154.309C43.3978 154.309 43.3978 153.282 43.1156 151.537C42.4227 144.07 40.7803 123.078 42.6793 110.658C43.2182 107.219 45.2455 98.8796 47.8117 89.4617C49.8647 81.7631 50.7628 74.4494 53.2007 66.9561C55.2542 60.5087 58.3489 54.4408 62.362 48.9928C63.8654 47.2776 65.8363 46.038 68.0333 45.4258C68.9828 45.4258 69.3934 46.6575 70.1889 47.0168C72.4492 48.072 74.2661 49.8889 75.3213 52.1492C77.5574 56.4664 78.2889 61.4063 77.3999 66.1863Z" fill="#FFEDE5"/>
<path d="M42.7822 157.775C42.7822 156.646 43.0132 155.491 43.0389 154.362C43.0389 152.592 43.0389 151.437 43.0389 151.437C44.1365 150.371 45.5371 149.67 47.0487 149.431C48.5602 149.192 50.1086 149.427 51.4816 150.102C52.0997 150.554 52.6676 151.07 53.1753 151.642C54.2018 152.617 55.3822 153.387 56.3574 154.414C56.8648 154.903 57.2535 155.502 57.4937 156.165C57.7339 156.828 57.8192 157.536 57.7431 158.237C56.5267 158.371 55.3981 158.936 54.5611 159.828C53.6116 161.009 54.0222 162.087 53.5602 163.395C53.0983 164.704 51.9692 164.832 50.9941 164.986C47.7093 165.474 43.0132 165.628 42.7309 161.394C42.6592 160.188 42.6764 158.979 42.7822 157.775Z" fill="#FFEDE5"/>
<path d="M145.507 151.358C145.353 153.103 145.224 154.13 145.224 154.13C145.224 154.13 139.117 156.465 135.883 151.563C135.883 151.563 132.753 117.92 131.187 112.121C130.931 111.146 128.929 106.398 126.414 100.65C123.899 94.9021 115.816 77.3236 115.559 76.7334C113.717 73.394 112.262 69.8554 111.222 66.1863C110.248 61.3437 110.945 56.314 113.198 51.9183C114.268 49.668 116.08 47.8554 118.331 46.7859C119.125 46.3871 120.009 46.2014 120.897 46.247C121.178 46.2462 121.456 46.2984 121.718 46.401C122.193 46.5325 122.644 46.7405 123.052 47.0168C123.681 47.4557 124.265 47.9541 124.797 48.5052C129.398 53.4072 132.798 59.3105 134.729 65.7501C137.295 73.4487 138.809 81.7375 140.759 89.1538C143.325 98.5717 145.327 106.911 145.891 110.35C147.842 122.899 146.174 143.89 145.507 151.358Z" fill="#FFEDE5"/>
<path d="M145.738 157.801C145.738 156.518 145.584 155.235 145.559 154.363C145.559 152.592 145.559 151.437 145.559 151.437C144.467 150.37 143.071 149.668 141.563 149.429C140.055 149.19 138.51 149.425 137.141 150.103C136.521 150.56 135.945 151.076 135.422 151.642C134.421 152.618 133.215 153.387 132.266 154.414C131.753 154.9 131.361 155.498 131.121 156.162C130.88 156.826 130.798 157.536 130.88 158.237C132.056 158.548 133.206 158.951 134.319 159.444C135.268 160.419 134.55 161.291 134.55 162.42C134.55 163.986 135.627 164.525 137.116 164.781L139.99 165.295C141.514 165.661 143.116 165.526 144.558 164.91C144.765 164.791 144.948 164.634 145.097 164.448C145.219 164.26 145.306 164.051 145.353 163.832C145.844 161.861 145.975 159.818 145.738 157.801Z" fill="#FFEDE5"/>
<path d="M117.664 71.832L119.101 111.992C95.3889 121.256 69.7526 112.608 69.7526 112.608L69.1881 74.1159L68.4182 73.8849C67.2634 73.5257 66.0317 73.1407 64.7742 72.6275C64.0557 72.3452 63.3115 72.0629 62.5673 71.7037C59.3559 70.2367 56.2289 68.5918 53.2007 66.7766C55.2542 60.3291 58.3488 54.2612 62.362 48.8132C63.8721 47.1059 65.8404 45.8679 68.0333 45.2462C69.65 44.8099 71.9339 44.7073 73.7302 44.3993C77.0756 43.8402 80.4523 43.4888 83.8411 43.3472L93.1563 66.443C97.1451 58.915 100.651 51.1408 103.652 43.1676H103.909C103.935 43.1488 103.966 43.1387 103.999 43.1387C104.031 43.1387 104.062 43.1488 104.088 43.1676C106.169 43.1957 108.244 43.3758 110.299 43.7065C114.212 44.2375 118.057 45.1837 121.769 46.5293C122.245 46.6608 122.695 46.8688 123.104 47.1452C123.732 47.584 124.316 48.0824 124.849 48.6336C129.45 53.5355 132.849 59.4388 134.78 65.8784C131.692 67.2942 128.531 68.5448 125.311 69.625C121.051 70.9595 117.664 71.832 117.664 71.832Z" fill="#4870AC"/>
<path d="M69.1883 60.8496V74.1168L68.4184 73.8858C67.2636 73.5266 66.0318 73.1416 64.7744 72.6284C66.4471 68.7806 67.9204 64.8491 69.1883 60.8496Z" fill="#27192E"/>
<path d="M62.6447 275.82C60.6174 274.691 56.8194 273.819 54.9461 275.384C54.9101 275.447 54.8911 275.517 54.8911 275.589C54.8911 275.662 54.9101 275.732 54.9461 275.795V275.949C54.9461 276.154 55.2284 276.205 55.3824 276.128C55.5363 276.051 55.3824 276.128 55.562 276.128C56.0009 275.849 56.5052 275.69 57.0247 275.666C57.6885 275.636 58.3534 275.696 59.0007 275.846C60.2039 276.201 61.4438 276.416 62.696 276.488C62.7845 276.481 62.8667 276.439 62.9244 276.372C62.9822 276.304 63.0108 276.217 63.004 276.128C62.9972 276.04 62.9555 275.958 62.8881 275.9C62.8207 275.842 62.7332 275.814 62.6447 275.82Z" fill="#27192E"/>
<path d="M63.9535 279.437C62.8066 278.507 61.3752 278 59.8989 278C58.4371 277.65 56.8999 277.803 55.5364 278.436C55.3568 278.59 55.2541 278.975 55.5364 279.103C56.734 279.411 57.9706 279.541 59.2061 279.488C60.6809 279.896 62.1949 280.145 63.7226 280.232C63.8074 280.217 63.8863 280.179 63.9504 280.121C64.0145 280.063 64.0612 279.989 64.0853 279.906C64.1093 279.824 64.1097 279.736 64.0864 279.653C64.0631 279.57 64.0171 279.495 63.9535 279.437Z" fill="#27192E"/>
<path d="M133.035 274.435C131.657 273.676 130.079 273.358 128.515 273.523C126.95 273.688 125.474 274.329 124.284 275.358C124.028 275.692 124.284 276.334 124.669 276.282C125.978 276.282 127.235 275.512 128.518 275.384C129.802 275.256 131.213 275.743 132.547 275.589C133.061 275.538 133.523 274.922 133.035 274.435Z" fill="#27192E"/>
<path d="M134.113 277.795C132.433 277.395 130.695 277.3 128.981 277.513C128.376 277.435 127.761 277.486 127.177 277.663C126.593 277.84 126.053 278.139 125.593 278.54C125.234 279.001 125.593 279.874 126.235 279.643C128.801 278.745 131.701 280.079 134.241 279.155C134.381 279.095 134.497 278.992 134.574 278.862C134.651 278.731 134.685 278.58 134.671 278.429C134.656 278.278 134.595 278.135 134.495 278.022C134.395 277.908 134.261 277.829 134.113 277.795Z" fill="#27192E"/>
<path d="M45.5537 26.6686C36.9056 28.2596 27.9239 26.9252 19.5068 30.1586C18.9423 30.3896 18.9679 31.3391 19.6608 31.2877C24.7932 31.0055 29.7973 29.979 34.904 29.671C38.5993 29.4401 42.9362 30.2356 46.2979 28.4136C47.2731 27.849 46.5545 26.4889 45.5537 26.6686Z" fill="#F7F8F8"/>
<path d="M48.6841 14.632C44.467 12.4592 40.1123 10.5647 35.6478 8.96064C34.878 8.70402 34.4417 9.85881 35.1089 10.2694C39.1393 12.5926 43.3039 14.6748 47.5806 16.5053C48.8381 17.0442 49.9672 15.2478 48.6841 14.632Z" fill="#F7F8F8"/>
</g>
<defs>
<clipPath id="clip0_1318_106">
<rect width="184" height="291" fill="white"/>
</clipPath>
</defs>
</svg>
