<svg width="169" height="181" viewBox="0 0 169 181" fill="none" xmlns="http://www.w3.org/2000/svg">
<path d="M81.7339 180.893C77.9077 180.898 74.0919 180.594 70.3523 179.986C63.8159 178.977 57.6587 176.892 52.3243 173.88C46.9899 170.869 42.6111 167.006 39.5033 162.57C37.0371 158.421 35.2052 154.075 34.0424 149.616L33.7741 148.767C29.942 136.504 25.1134 123.536 16.2036 111.819C14.7665 109.934 13.1953 108.048 11.6816 106.235C8.01946 102.128 4.91882 97.7547 2.42687 93.1802C-1.40531 85.3359 -0.696355 77.5347 4.53457 72.3963C5.22363 71.598 6.12018 70.9124 7.17049 70.3807C8.2208 69.8489 9.40323 69.4819 10.6469 69.3018C11.4047 69.2329 12.1733 69.2817 12.905 69.4452C13.6367 69.6086 14.3159 69.8831 14.9006 70.2517C15.3567 70.5249 15.7308 70.8675 15.9983 71.2569C16.2657 71.6464 16.4206 72.0739 16.4527 72.5115H15.2072C15.1772 72.2063 15.0629 71.9092 14.8716 71.6391C14.6802 71.369 14.416 71.1317 14.0959 70.9426C13.641 70.6588 13.1149 70.4463 12.5489 70.3178C11.9828 70.1892 11.3882 70.1472 10.8002 70.1941C8.64151 70.5637 6.75481 71.5429 5.53094 72.9289C0.568265 77.837 -0.217333 85.2783 3.61485 92.8203C6.08569 97.3622 9.16742 101.703 12.8121 105.774C14.3258 107.602 15.897 109.488 17.3532 111.388C26.2822 123.19 31.1682 136.23 35.0004 148.565L35.2687 149.415C36.4071 153.8 38.2071 158.074 40.6337 162.153C43.6538 166.463 47.9104 170.216 53.0961 173.141C58.2819 176.066 64.2674 178.089 70.6206 179.065C83.4674 180.977 96.7963 179.62 108.502 175.207C113.189 173.638 117.42 171.394 120.956 168.601C124.554 165.33 127.326 161.594 129.138 157.576C132.338 151.271 134.886 144.622 137.186 138.217C140.73 128.66 144.39 118.771 150.598 109.819C152.514 107.199 154.43 104.623 156.461 102.133C160.265 97.6638 163.473 92.9249 166.042 87.9842C168.245 83.292 168.341 79.3483 166.349 76.4696C165.649 75.5096 164.677 74.6768 163.502 74.0302C162.326 73.3835 160.976 72.9387 159.546 72.7274C158.548 72.5501 157.509 72.5501 156.511 72.7275C155.513 72.9049 154.584 73.2548 153.798 73.7493L152.974 73.044C153.899 72.4499 154.995 72.026 156.176 71.8061C157.357 71.5862 158.59 71.5764 159.776 71.7774C161.398 72.0289 162.926 72.5463 164.251 73.2927C165.576 74.0392 166.665 74.9962 167.441 76.0954C169.606 79.2619 169.51 83.3784 167.192 88.3296C164.597 93.3326 161.335 98.1259 157.458 102.637C155.542 105.127 153.434 107.689 151.71 110.279C145.578 119.146 141.938 128.991 138.412 138.49C136.017 144.938 133.545 151.602 130.307 157.935C128.454 162.065 125.61 165.904 121.914 169.263C118.262 172.145 113.894 174.463 109.057 176.085C100.541 179.199 91.2052 180.842 81.7339 180.893Z" fill="#AB8DA8"/>
<path d="M95.7975 13.2969C96.7882 12.1156 97.3558 10.7621 97.4453 9.36755C97.5534 8.74124 97.4774 8.10473 97.2224 7.50291C96.9675 6.90108 96.54 6.34859 95.9699 5.88438C95.4909 5.53894 94.8969 5.26547 94.4562 4.89124C94.0155 4.51702 93.8047 4.1284 93.4407 3.76857C93.046 3.38253 92.5382 3.07004 91.9566 2.85536C91.3751 2.64068 90.7355 2.5296 90.0875 2.53075C88.7654 2.53075 87.3666 2.99133 86.2553 2.53075C85.5655 2.27167 85.1057 1.75351 84.3392 1.46565C83.6179 1.18986 82.7904 1.11344 82.0016 1.24975C81.3125 1.43028 80.5849 1.51324 79.8556 1.49443C78.8209 1.37929 78.1119 0.68841 77.1922 0.299792C76.7194 0.118218 76.1995 0.0165276 75.6689 0.00185187C75.1382 -0.0128238 74.6098 0.0598703 74.1205 0.214837C73.6312 0.369803 73.193 0.603291 72.8365 0.898928C72.4801 1.19456 72.2141 1.54519 72.0571 1.92623C71.9321 2.2897 71.9321 2.67104 72.0571 3.03451C72.2678 3.9125 73.0726 4.61777 73.1301 5.49576C73.1876 6.37375 72.4786 7.13659 73.1301 7.91383C73.7816 8.69106 74.7396 8.71985 75.1995 9.45391C75.8126 10.447 75.1995 11.7424 75.7551 12.8075C76.0425 13.484 76.1958 14.4484 77.0389 14.8802C78.2077 15.4847 80.7561 14.9809 82.1549 14.8802L87.5774 14.5491C89.9725 14.3764 92.9233 14.5491 95.0885 13.6567C95.3499 13.5674 95.5896 13.4458 95.7975 13.2969Z" fill="#3B2645"/>
<path d="M77.4037 12.6631C77.2134 12.4668 76.9641 12.3071 76.6761 12.197C76.388 12.0869 76.0694 12.0295 75.7462 12.0295C75.4231 12.0295 75.1044 12.0869 74.8164 12.197C74.5284 12.3071 74.2791 12.4668 74.0888 12.6631C72.4218 14.1024 75.2385 16.9811 77.4037 17.1538C77.5297 15.6584 77.5297 14.1585 77.4037 12.6631Z" fill="#E0855C"/>
<path d="M104.324 36.7727C103.819 39.1971 103.141 41.5995 102.293 43.9693C102.159 44.4155 102.044 44.8473 101.968 45.2647C101.891 45.6821 101.814 45.9987 101.719 46.5313C101.719 46.6321 101.719 46.7472 101.719 46.848C101.719 47.1934 101.584 47.5532 101.527 47.9418L99.1126 64.8539C84.1096 67.9485 68.4552 64.8539 68.4552 64.8539C68.4552 64.8539 68.4552 64.638 68.4552 64.2206C68.2061 62.3063 67.4396 56.218 66.6732 49.3524C66.6732 49.3524 66.6732 49.2516 66.6732 49.2084C66.6809 49.103 66.6809 48.9973 66.6732 48.8918C66.3475 46.0131 66.0409 42.9618 65.7918 40.0543C65.3319 35.0023 65.0445 30.3389 65.102 27.4458C65.102 26.3807 68.4169 26.4959 70.6778 26.2656C72.3448 26.0929 74.0502 25.9777 75.5256 25.9201C77.0009 25.8626 78.1123 25.8338 78.8595 25.8338H79.7026C79.7026 25.8338 79.8942 24.1786 79.8942 24.1642L80.4116 20.1053C80.6631 20.154 80.9194 20.1877 81.178 20.206C81.6523 20.2728 82.1328 20.3113 82.6151 20.3212C83.2474 20.3212 83.8414 20.3212 84.3971 20.3212L85.221 20.2492H85.7C86.2365 20.1772 86.7538 20.0909 87.2329 19.9901C87.7119 19.8894 87.8652 19.8462 88.1718 19.7742C89.5716 19.4373 90.9006 18.9527 92.1189 18.3349L92.2914 18.2485L92.6171 18.0614L92.847 17.9319C92.847 18.1334 92.847 18.2198 92.847 18.3061C92.6937 19.2561 92.5213 20.4651 92.4446 21.6597C92.4446 22.4945 92.3297 23.315 92.2914 24.0202C92.253 24.7255 91.9465 25.7474 92.6171 26.1073C92.8564 26.2083 93.1148 26.2811 93.3835 26.3232C94.4352 26.4479 95.4998 26.5009 96.5642 26.4815C96.89 26.4815 97.2157 26.4815 97.5414 26.4815C98.3583 26.4457 99.1772 26.4457 99.994 26.4815C100.565 26.4802 101.13 26.5649 101.657 26.7306C102.183 26.8962 102.66 27.1394 103.06 27.4458C103.556 27.9859 103.872 28.608 103.979 29.2594L104.209 30.4396C104.574 32.5402 104.613 34.6654 104.324 36.7727Z" fill="#FFEDE5"/>
<path d="M92.7704 17.8308C92.5113 18.8609 91.9516 19.835 91.1315 20.6832C90.3114 21.5313 89.2513 22.2325 88.0274 22.7362C86.8036 23.2399 85.4463 23.5336 84.0533 23.5963C82.6603 23.659 81.2661 23.4891 79.9709 23.0987L80.335 20.1193C82.5049 20.4338 84.7396 20.3921 86.886 19.997C89.0324 19.602 91.0398 18.8631 92.7704 17.8308Z" fill="#E0855C"/>
<path d="M77.7872 8.34605C76.6758 9.20965 76.58 11.1383 76.5034 13.2685C76.216 19.7455 78.8027 21.7606 83.1905 22.1204C87.5784 22.4802 92.1962 21.1992 93.1351 15.2116C93.6141 12.2034 94.1123 9.45433 92.656 8.14454C90.5675 6.21585 81.1595 5.69769 77.7872 8.34605Z" fill="#FFEDE5"/>
<path d="M92.4839 14.3338C92.4839 14.3338 93.8252 11.6567 95.952 13.0816C98.0789 14.5065 95.1473 18.551 91.8899 18.2488C91.9282 18.2488 91.4875 15.255 92.4839 14.3338Z" fill="#FFEDE5"/>
<path d="M95.0123 14.3045C94.5093 14.4225 94.0588 14.6415 93.7094 14.9378C93.3136 15.1861 92.9935 15.4953 92.7705 15.8446C92.7705 15.9453 92.9046 16.0173 93.0004 15.9453C93.2705 15.7445 93.5263 15.5331 93.7669 15.312C93.9417 15.4568 94.1579 15.57 94.3992 15.6431C94.5908 15.6431 94.7441 15.5135 94.6674 15.3984C94.5347 15.246 94.3579 15.118 94.1501 15.0242C94.5078 14.8521 94.8473 14.6596 95.1656 14.4484C95.1716 14.4311 95.1721 14.413 95.1671 14.3955C95.1621 14.378 95.1518 14.3616 95.1369 14.3477C95.122 14.3337 95.103 14.3225 95.0814 14.315C95.0598 14.3075 95.0361 14.3039 95.0123 14.3045Z" fill="#E0855C"/>
<path d="M80.2776 13.1242C80.2776 13.1242 79.5304 13.3257 79.6453 12.3326C79.7603 11.3395 80.2776 11.5697 80.2776 11.5697C80.2776 11.5697 80.795 11.5697 80.7183 12.347C80.6417 13.1242 80.2776 13.1242 80.2776 13.1242Z" fill="#3B2645"/>
<path d="M87.8078 13.1242C87.8078 13.1242 87.0797 13.3257 87.1947 12.3326C87.3097 11.3395 87.8078 11.5697 87.8078 11.5697C87.8078 11.5697 88.3252 11.5697 88.2485 12.347C88.1719 13.1242 87.8078 13.1242 87.8078 13.1242Z" fill="#3B2645"/>
<path d="M81.0825 10.1162C80.7814 9.98819 80.4343 9.93457 80.0904 9.96299C79.7465 9.99141 79.4232 10.1004 79.1664 10.2746C79.1534 10.2943 79.1473 10.3161 79.1486 10.338C79.1499 10.36 79.1587 10.3813 79.174 10.4C79.1894 10.4188 79.2108 10.4342 79.2362 10.445C79.2617 10.4558 79.2904 10.4615 79.3197 10.4617C79.588 10.4617 79.8179 10.3465 80.0861 10.3321C80.3671 10.3221 80.6478 10.3564 80.9101 10.4329C81.1591 10.4905 81.3316 10.2026 81.0825 10.1162Z" fill="#3B2645"/>
<path d="M88.9382 10.6058C88.6317 10.03 87.3095 9.98684 86.7347 10.3323C86.7069 10.3484 86.6843 10.3691 86.6688 10.3928C86.6533 10.4165 86.6453 10.4426 86.6453 10.469C86.6453 10.4954 86.6533 10.5215 86.6688 10.5452C86.6843 10.5689 86.7069 10.5896 86.7347 10.6058C87.079 10.6273 87.4251 10.6273 87.7694 10.6058C88.048 10.6395 88.3189 10.7024 88.5742 10.7929C88.6072 10.8291 88.6581 10.8541 88.7156 10.8622C88.773 10.8702 88.8325 10.8609 88.8807 10.836C88.929 10.8112 88.9622 10.773 88.973 10.7298C88.9838 10.6867 88.9713 10.642 88.9382 10.6058Z" fill="#3B2645"/>
<path d="M81.7913 17.7588C83.4076 17.918 85.0503 17.7073 86.5048 17.1543C86.2873 17.5384 85.9653 17.884 85.5594 18.1691C85.1535 18.4541 84.6728 18.6723 84.1481 18.8095C82.4811 19.155 81.7913 17.7588 81.7913 17.7588Z" fill="white"/>
<path d="M72.1147 27.4311C76.5217 29.7485 76.9241 34.2536 74.7781 37.8519C73.3218 40.2555 70.6201 41.9396 69.0298 44.2137C67.3725 46.4193 65.4483 48.5056 63.2815 50.446C58.5296 54.9799 54.0076 59.0819 52.264 60.6364C46.2666 66.0195 33.6587 73.1298 29.1176 75.6054C28.0829 76.1811 27.4698 76.4978 27.4698 76.4978C27.4698 76.4978 23.1202 74.785 24.2699 71.6185C24.2699 71.6185 41.5147 57.8585 44.0631 55.0518C46.8794 51.4037 49.4377 47.6467 51.7275 43.7963C54.6655 39.5263 57.7248 35.3139 60.9056 31.159C62.3618 29.2447 64.2204 26.841 67.4203 26.4092C68.7116 26.3002 70.0153 26.5072 71.1375 26.9993C71.4765 27.1256 71.8031 27.2699 72.1147 27.4311Z" fill="#FFEDE5"/>
<path d="M24.2703 71.6332C24.7422 71.606 25.2162 71.606 25.6882 71.6332C25.6882 71.6332 29.8269 73.3604 29.118 75.6058C29.118 75.6058 28.6773 75.908 27.9875 76.3686C27.2977 76.8292 26.5504 77.3761 25.6499 78.067C24.7493 78.7579 22.6991 80.9457 21.8177 80.7586C21.6123 80.7016 21.4328 80.6017 21.3003 80.4707L19.5184 79.0314C18.522 78.1966 16.855 76.786 18.1196 75.6777C17.1999 76.0951 15.0539 77.1171 14 76.6277L13.5593 76.0951C13.5593 76.0951 16.7209 74.3248 18.0238 73.4468C19.7815 72.3398 21.9784 71.702 24.2703 71.6332Z" fill="#FFEDE5"/>
<path d="M77.346 49.4819C77.3394 49.5587 77.3394 49.6358 77.346 49.7125C77.346 49.7125 77.5187 49.7125 77.4803 49.7125L77.346 49.4819Z" fill="#D6BED3"/>
<path d="M84.4544 96.1302C82.6916 106.738 80.6222 115.964 80.6222 115.964C80.9096 118.526 81.0438 121.304 81.0438 124.154C81.0438 129.739 80.5456 135.669 79.9133 140.893C79.1085 147.557 77.9972 153.228 77.5182 156.078V156.438C78.2271 175.336 71.0609 177.841 67.7078 173.71C64.3546 169.579 67.7078 157.402 67.7078 157.402C67.7185 157.292 67.7185 157.182 67.7078 157.071C66.297 151.416 65.3563 145.701 64.8911 139.958C63.7415 126.054 65.715 116.54 65.4851 114.813C61.4805 84.5869 67.0755 67.9195 67.0755 67.9195C67.949 65.4976 69.526 63.2512 71.6932 61.3417C75.7745 58.0313 80.6797 58.8661 83.7646 62.9106C84.089 63.3253 84.3832 63.753 84.646 64.1916C85.903 66.5147 86.6161 68.9835 86.7537 71.489C87.0603 77.7501 85.8915 87.4079 84.4544 96.1302Z" fill="#FFEDE5"/>
<path d="M104.248 139.224C103.803 145.087 102.868 150.922 101.451 156.697L101.278 157.403C101.278 157.403 104.632 169.622 101.278 173.71C97.9253 177.798 90.8357 175.409 91.4681 156.697C91.4681 156.611 91.4681 156.525 91.4681 156.453C90.9315 153.747 89.8585 147.889 89.0155 140.951C88.364 135.683 87.8658 129.782 87.8658 124.197C87.8658 121.319 88.0191 118.555 88.3065 115.979C88.3065 115.979 86.1796 106.753 84.4743 96.1592C83.0373 87.4225 81.8493 77.7646 82.3475 71.5611C82.4908 69.0547 83.2104 66.5859 84.4743 64.2637C84.7253 63.8116 85.0199 63.3739 85.3557 62.954C88.9005 58.3337 94.802 57.9307 99.1516 63.1411C100.398 64.6514 101.377 66.2771 102.064 67.9772C102.064 67.9772 107.659 84.6014 103.654 114.87C103.367 116.569 105.264 125.752 104.248 139.224Z" fill="#FFEDE5"/>
<path d="M23.8104 80.9744C24.1922 81.3064 24.6664 81.5713 25.1994 81.7504C25.7325 81.9294 26.3115 82.0183 26.8954 82.0107C27.1628 81.964 27.4149 81.877 27.6363 81.755C27.8577 81.633 28.0439 81.4785 28.1836 81.3009C28.3233 81.1233 28.4136 80.9263 28.4491 80.7218C28.4845 80.5172 28.4644 80.3094 28.3899 80.1108C28.1671 79.673 27.8053 79.2827 27.3361 78.9738C24.4428 76.8148 21.4728 74.6558 18.4645 72.6551C17.9618 72.2295 17.29 71.9367 16.5485 71.8203C15.8588 71.8201 15.1915 72.0037 14.6652 72.3384C14.1389 72.6731 13.7877 73.1373 13.6743 73.6483C13.6743 74.5694 14.7282 74.9149 15.5904 75.433C18.3113 77.2466 21.0321 79.1465 23.8104 80.9744Z" fill="#3B2645"/>
<path d="M23.3887 78.4262C23.508 78.3338 23.6052 78.2266 23.6761 78.1095C23.7247 77.9608 23.7275 77.8057 23.6843 77.6561C23.6412 77.5065 23.5532 77.3662 23.427 77.2459C22.7181 76.3679 21.2618 74.9574 19.8248 74.8278C19.3503 74.8097 18.8778 74.8852 18.4542 75.0468C18.0307 75.2084 17.6708 75.4505 17.4105 75.749C16.9805 76.2137 16.707 76.7499 16.6136 77.3114C16.5201 77.873 16.6095 78.4432 16.874 78.9731C17.2945 79.9264 18.1585 80.7338 19.3074 81.2472C19.8807 81.4297 20.5258 81.4388 21.1078 81.2725C21.6898 81.1062 22.1637 80.7774 22.4307 80.3548C22.7181 79.8223 22.6223 79.1746 23.0821 78.7284C23.1693 78.6196 23.2721 78.5182 23.3887 78.4262Z" fill="#FFEDE5"/>
<path d="M96.7178 27.4317C92.2917 29.749 91.8893 34.2541 94.0545 37.8524C95.4915 40.2561 98.1932 41.9401 99.8027 44.2142C101.474 46.4135 103.397 48.4988 105.551 50.4465C110.303 54.9804 114.844 59.0825 116.569 60.6369C122.585 66.0488 135.193 73.1303 139.734 75.6059L141.401 76.4983C141.401 76.4983 145.731 74.7855 144.582 71.619C144.582 71.619 127.337 57.859 124.789 55.0524C121.965 51.4074 119.406 47.65 117.124 43.7968C114.173 39.4788 111.127 35.3192 107.927 31.1595C106.471 29.2452 104.631 26.8416 101.412 26.4098C100.121 26.3018 98.8177 26.5087 97.695 26.9999C97.3556 27.1255 97.0289 27.2698 96.7178 27.4317Z" fill="#FFEDE5"/>
<path d="M144.563 71.6331C144.085 71.606 143.604 71.606 143.126 71.6331C143.126 71.6331 138.987 73.3603 139.696 75.6056C139.696 75.6056 140.156 75.9079 140.827 76.3684C141.497 76.829 142.283 77.376 143.164 78.0669C144.046 78.7577 146.134 80.9455 146.996 80.7584C147.199 80.6976 147.377 80.5984 147.514 80.4705L149.277 79.0312C150.292 78.1964 151.94 76.7859 150.695 75.6776C151.595 76.095 153.741 77.1169 154.814 76.6275L155.178 76.095C155.178 76.095 152.017 74.3246 150.695 73.4466C148.971 72.3535 146.816 71.7163 144.563 71.6331Z" fill="#FFEDE5"/>
<path d="M145.004 80.9742C144.622 81.3062 144.148 81.5711 143.615 81.7502C143.082 81.9292 142.503 82.0181 141.919 82.0106C141.648 81.9671 141.392 81.8825 141.166 81.7619C140.94 81.6413 140.75 81.4872 140.606 81.3093C140.463 81.1313 140.369 80.9332 140.331 80.7271C140.293 80.5209 140.312 80.3112 140.386 80.1106C140.625 79.6921 140.993 79.3222 141.459 79.0311C144.359 76.8722 147.322 74.7659 150.35 72.7125C150.85 72.2844 151.523 71.9911 152.266 71.8777C152.953 71.878 153.618 72.0621 154.141 72.397C154.664 72.7319 155.011 73.1959 155.121 73.7056C155.121 74.6268 154.086 74.9722 153.205 75.4904C150.503 77.2464 147.782 79.1463 145.004 80.9742Z" fill="#3B2645"/>
<path d="M145.444 78.4262C145.314 78.338 145.209 78.2301 145.138 78.1095C145.097 77.9595 145.1 77.8048 145.147 77.6557C145.193 77.5067 145.281 77.3669 145.406 77.2459C146.096 76.3679 147.552 74.9574 148.989 74.8278C149.464 74.8097 149.936 74.8852 150.36 75.0468C150.783 75.2084 151.143 75.4505 151.404 75.749C151.829 76.2159 152.095 76.754 152.178 77.3162C152.262 77.8783 152.16 78.4473 151.883 78.9731C151.475 79.9315 150.607 80.742 149.449 81.2472C148.876 81.4297 148.231 81.4388 147.649 81.2725C147.067 81.1062 146.593 80.7774 146.326 80.3548C146.058 79.8223 146.153 79.1746 145.674 78.7284L145.444 78.4262Z" fill="#FFEDE5"/>
<path d="M104.536 129.997V131.436C104.536 132.401 104.536 133.394 104.536 134.416V135.582C104.536 136.762 104.421 137.985 104.344 139.238C99.3828 140.266 94.2747 140.841 89.1303 140.95C88.9195 139.338 88.498 135.049 88.4788 134.574C88.4788 133.595 88.1914 130.832 88.1722 130.458C88.0573 128.356 87.9806 126.255 87.9806 124.197C87.9806 121.52 88.1148 118.9 88.383 116.467C88.383 116.295 88.383 116.136 88.383 115.978C88.383 115.82 86.2561 106.766 84.5508 96.1586C84.3592 97.2813 84.1676 98.4039 83.976 99.4834C82.3665 108.609 80.6612 115.978 80.6612 115.978C80.9486 118.54 81.0827 121.318 81.0827 124.168C81.0827 126.341 81.0827 128.486 80.8719 130.76C80.8719 131.134 80.4887 135.942 80.4312 136.402C80.2971 137.942 80.1247 139.454 79.9522 140.907C77.2697 140.821 74.6255 140.691 72.0004 140.519C69.9311 140.389 67.3252 140.303 64.7959 140.029C64.681 138.734 64.6043 137.496 64.5468 136.287C64.5468 135.985 64.5468 135.682 64.5468 135.38C64.5468 134.056 64.5468 132.804 64.5468 131.595V130.645C64.5468 121.923 65.6773 116.18 65.5049 114.812C61.5002 84.5864 67.0952 67.919 67.0952 67.919C67.9688 65.4971 69.5458 63.2507 71.713 61.3413C73.3555 61.5324 74.9672 61.8507 76.5224 62.2913C78.8915 62.7562 81.3368 62.9647 83.7844 62.9102H85.5472C87.6741 62.9102 89.8009 62.7231 91.9086 62.6799H93.3265C95.3471 62.6573 97.3648 62.8021 99.3431 63.1117C100.525 64.6384 101.44 66.2736 102.064 67.9766C103.612 73.4093 104.522 78.9335 104.785 84.4857C105.434 94.6206 105.056 104.778 103.654 114.87C103.424 116.151 104.44 121.635 104.536 129.997Z" fill="#8C80F8"/>
<path d="M77.4034 156.438C77.6716 163.879 76.7327 168.773 75.2765 171.724C73.0538 176.286 69.5282 176.229 67.6122 173.767C67.0946 173.084 66.7381 172.339 66.5583 171.565C65.1596 166.427 67.6122 157.46 67.6122 157.46C67.6229 157.35 67.6229 157.239 67.6122 157.129C68.5655 157.651 69.6462 158.028 70.7929 158.237C72.0795 158.474 73.4338 158.392 74.6531 158.003C75.8724 157.614 76.8911 156.939 77.5567 156.078L77.4034 156.438Z" fill="#AB8DA8"/>
<path d="M102.428 171.162C102.264 172.077 101.874 172.961 101.278 173.768C99.2088 176.301 95.6448 176.286 93.4413 171.378C92.1001 168.5 91.2378 163.707 91.5252 156.683C92.96 157.651 94.8085 158.203 96.737 158.237C98.4574 158.118 100.092 157.617 101.431 156.798C101.467 157.023 101.467 157.25 101.431 157.474C101.431 157.474 103.616 165.967 102.428 171.162Z" fill="#AB8DA8"/>
<path d="M74.5099 160.857C73.5394 160.422 72.4305 160.192 71.3005 160.192C70.1705 160.192 69.0615 160.422 68.091 160.857C68.0551 160.887 68.031 160.924 68.0216 160.963C68.0121 161.003 68.0177 161.044 68.0376 161.081C68.0576 161.119 68.0911 161.151 68.1344 161.175C68.1777 161.199 68.2291 161.214 68.2826 161.217C69.2407 161.217 70.1987 160.914 71.0993 160.929C72.1534 160.996 73.1944 161.15 74.2034 161.389C74.2897 161.397 74.3772 161.384 74.4527 161.352C74.5283 161.319 74.5878 161.269 74.6223 161.209C74.6568 161.149 74.6646 161.083 74.6443 161.019C74.624 160.955 74.5769 160.898 74.5099 160.857Z" fill="#291B30"/>
<path d="M74.2033 163.159C72.5671 162.443 70.647 162.183 68.7808 162.425C68.1485 162.425 68.1293 163.217 68.7808 163.174C69.6823 163.109 70.5915 163.138 71.4825 163.26C72.3064 163.375 73.0537 163.634 73.8776 163.764C73.979 163.78 74.0848 163.769 74.1764 163.733C74.268 163.696 74.3396 163.637 74.3785 163.565C74.4174 163.492 74.4211 163.412 74.3891 163.338C74.3571 163.264 74.2913 163.201 74.2033 163.159Z" fill="#291B30"/>
<path d="M99.5726 160.857C98.1164 160.483 94.9548 160.339 93.8243 161.346C93.671 161.476 93.8243 161.749 94.0351 161.735C94.9357 161.649 95.7213 161.375 96.6601 161.346C97.599 161.318 98.5762 161.505 99.4576 161.462C99.5105 161.467 99.5643 161.465 99.616 161.455C99.6677 161.445 99.7163 161.428 99.759 161.404C99.8017 161.379 99.8377 161.349 99.8649 161.315C99.8921 161.28 99.9099 161.242 99.9175 161.202C99.925 161.163 99.9221 161.122 99.9089 161.084C99.8956 161.045 99.8723 161.008 99.8403 160.976C99.8083 160.944 99.7681 160.917 99.7222 160.897C99.6763 160.876 99.6254 160.863 99.5726 160.857Z" fill="#291B30"/>
<path d="M100.282 163.289C98.6919 162.756 94.7256 162.368 93.9208 163.98C93.8059 164.196 94.1699 164.369 94.3998 164.268C95.2277 163.921 96.1503 163.721 97.0969 163.684C98.0435 163.646 98.9889 163.772 99.8607 164.052C100.436 164.225 100.876 163.476 100.282 163.289Z" fill="#291B30"/>
<path d="M27.7385 25.7183C27.7385 25.632 27.5086 25.632 27.4894 25.7183C26.5314 30.6264 27.087 35.7936 27.087 40.8169C27.087 46.128 26.8571 51.4823 27.2786 56.779C27.2967 56.8356 27.3397 56.8859 27.4005 56.9219C27.4613 56.9579 27.5365 56.9774 27.6139 56.9774C27.6914 56.9774 27.7665 56.9579 27.8274 56.9219C27.8882 56.8859 27.9311 56.8356 27.9492 56.779C28.3516 51.4823 28.1217 46.128 28.1217 40.8169C28.1217 35.9088 28.6774 30.6696 27.7385 25.7183Z" fill="#F7F8F8"/>
<path d="M36.1119 27.388C36.0915 27.3173 36.0395 27.254 35.9645 27.2086C35.8896 27.1632 35.7962 27.1384 35.6999 27.1384C35.6036 27.1384 35.5103 27.1632 35.4353 27.2086C35.3604 27.254 35.3084 27.3173 35.288 27.388C35.288 32.1089 34.8856 36.9163 35.288 41.6229C35.288 41.7031 35.3304 41.7799 35.4058 41.8366C35.4813 41.8933 35.5836 41.9252 35.6903 41.9252C35.7971 41.9252 35.8994 41.8933 35.9749 41.8366C36.0503 41.7799 36.0927 41.7031 36.0927 41.6229C36.5334 36.9163 36.1502 32.1089 36.1119 27.388Z" fill="#F7F8F8"/>
<path d="M121.78 76.8144C121.764 76.7718 121.73 76.7343 121.684 76.7075C121.637 76.6808 121.58 76.6663 121.521 76.6663C121.462 76.6663 121.405 76.6808 121.358 76.7075C121.312 76.7343 121.278 76.7718 121.262 76.8144C120.722 82.995 120.614 89.1926 120.936 95.3817C120.936 101.571 120.936 107.746 121.243 113.935C121.259 113.981 121.295 114.021 121.346 114.05C121.396 114.079 121.457 114.095 121.521 114.095C121.584 114.095 121.646 114.079 121.696 114.05C121.746 114.021 121.782 113.981 121.799 113.935C122.067 107.746 122.067 101.571 122.105 95.3817C122.418 89.1925 122.31 82.9953 121.78 76.8144Z" fill="#F7F8F8"/>
<path d="M136.554 40.6158C136.494 36.4973 136.136 32.3843 135.481 28.2951C135.481 28.0504 134.964 28.1224 134.944 28.2951C134.797 32.7176 134.969 37.1429 135.462 41.5513C135.711 45.6534 135.653 49.8562 136.382 53.9151C136.382 54.2894 137.225 54.1742 137.244 53.8288C137.512 49.4388 136.899 44.9625 136.554 40.6158Z" fill="#F7F8F8"/>
<path d="M140.386 42.9039C140.372 42.8716 140.345 42.8435 140.309 42.8235C140.273 42.8035 140.229 42.7927 140.184 42.7927C140.139 42.7927 140.096 42.8035 140.06 42.8235C140.023 42.8435 139.997 42.8716 139.983 42.9039C139.475 48.8173 139.437 54.7483 139.868 60.6651C139.856 60.7012 139.855 60.7388 139.866 60.7751C139.876 60.8115 139.897 60.8456 139.928 60.8748C139.958 60.9041 139.997 60.9277 140.042 60.944C140.086 60.9603 140.135 60.9687 140.184 60.9687C140.234 60.9687 140.283 60.9603 140.327 60.944C140.372 60.9277 140.41 60.9041 140.441 60.8748C140.471 60.8456 140.493 60.8115 140.503 60.7751C140.513 60.7388 140.512 60.7012 140.501 60.6651C140.932 54.7483 140.893 48.8173 140.386 42.9039Z" fill="#F7F8F8"/>
<path d="M83.8801 99.4694C83.9093 98.3486 84.1021 97.2337 84.455 96.1445C84.2633 97.2672 84.0717 98.3899 83.8801 99.4694Z" fill="#291B30"/>
<path d="M104.727 84.4864C102.14 72.8134 80.776 72.2665 80.776 72.2665C79.4539 67.4591 88.0764 66.0198 88.0764 66.0198L93.1157 62.7525C95.1362 62.7299 97.1539 62.8748 99.1322 63.1843C100.38 64.6804 101.366 66.2914 102.064 67.9773C103.58 73.4128 104.471 78.9362 104.727 84.4864Z" fill="#291B30"/>
<path d="M102.37 69.229C85.1251 75.3174 66.3857 69.7328 66.3857 69.7328C67.7462 66.8541 66.7306 52.173 66.6348 49.3807C66.6348 49.3807 66.6348 49.28 66.6348 49.2368C66.6426 49.1313 66.6426 49.0256 66.6348 48.9201C70.2562 42.6159 70.6586 30.468 70.6778 26.2939C72.3065 26.1068 74.0118 26.0061 75.4872 25.9485C76.062 30.6119 78.1122 42.5727 83.8222 42.0545C89.5321 41.5364 92.253 30.8854 93.2493 26.222C94.2999 26.3543 95.3654 26.4074 96.4301 26.3803C96.7558 26.3803 97.0815 26.3803 97.4073 26.3803C96.9091 32.7565 101.623 46.1566 101.757 46.5308C101.757 46.6316 101.757 46.7467 101.757 46.8475C101.757 47.1929 101.623 47.5528 101.565 47.9414C101.565 47.9414 101.565 48.0997 101.565 48.1861C100.358 56.3039 102.37 69.229 102.37 69.229Z" fill="#AB8DA8"/>
</svg>
