<svg width="50" height="50" viewBox="0 0 50 50" fill="none" xmlns="http://www.w3.org/2000/svg">
<g id="Latest-Pic">
<g id="Vector-Bg">
<circle id="Ellipse 90" opacity="0.3" cx="25" cy="25" r="25" fill="url(#paint0_linear_1561_9500)"/>
</g>
<g id="Vector">
<mask id="mask0_1561_9500" style="mask-type:alpha" maskUnits="userSpaceOnUse" x="0" y="0" width="50" height="50">
<circle id="Ellipse 91" cx="25" cy="25" r="25" fill="#C4C4C4"/>
</mask>
<g mask="url(#mask0_1561_9500)">
<g id="Group">
<g id="Layer 2">
<g id="OBJECTS">
<path id="Vector_2" d="M37.4138 35.7931C37.8317 32.2936 37.4332 28.8828 36.7201 25.4383C36.3048 23.4238 36.1402 21.3797 36.229 19.3377C36.3065 17.9193 35.8742 16.5135 34.986 15.2961C33.9713 13.8254 32.2414 12.6382 30.1152 12.8456C30.0186 12.8624 29.9188 12.8624 29.8222 12.8456C29.7442 12.821 29.6714 12.7863 29.6068 12.7428C28.5081 12.0571 26.6963 11.8498 25.3478 11.8338C23.6863 11.8101 22.042 12.1138 20.5524 12.7197C18.0362 13.7581 16.0952 15.7603 15.5976 18.0354C15.4231 18.9816 15.4014 19.9425 15.5329 20.8934C15.6191 21.6819 15.7484 22.4881 15.5782 23.2606C15.3391 24.3238 14.5592 25.2416 14.0702 26.2462C13.4523 27.4982 13.1539 28.8414 13.1934 30.1922C13.243 31.1596 13.5941 33.6155 14.9319 33.9663C16.735 34.4412 18.6394 34.5918 20.533 34.7388L25.8713 35.157C26.7847 35.2279 27.7153 35.2987 28.605 35.118C29.2707 34.9833 29.8847 34.714 30.5439 34.5616C31.362 34.3736 32.2266 34.37 33.0471 34.551" fill="#AA4F7A"/>
<g id="Group_2" style="mix-blend-mode:multiply" opacity="0.32">
<g id="Vector_3" style="mix-blend-mode:multiply" opacity="0.32">
<path d="M21.6489 16.2373L18.2021 17.0967C18.1393 17.109 18.08 17.1312 18.0276 17.1622C17.9691 17.2076 17.9266 17.2651 17.9048 17.3288C17.3131 18.5644 16.9122 19.8561 16.7113 21.1737C16.4571 22.8942 17.4093 24.5952 16.7996 26.3122L16.0974 28.3587C15.7441 29.3563 15.3886 30.4052 15.6665 31.4187C15.8819 32.2161 16.4571 32.9071 16.8793 33.6442C17.5139 34.7537 17.7999 35.9764 17.7109 37.2003C17.7109 37.1614 20.5114 36.6954 20.7678 36.6333C21.8136 36.3874 22.842 36.094 23.8484 35.7545C24.723 35.4604 25.5718 35.1007 26.4486 34.8349C26.9721 34.679 27.4525 34.5656 27.8144 34.1952C28.8161 33.1693 29.0488 31.3602 29.0876 30.1004C29.1315 28.6152 28.7915 27.1391 28.0901 25.77C27.6003 24.8121 26.926 23.9254 26.0931 23.1441" fill="#AA4F7A"/>
</g>
</g>
<path id="Vector_4" d="M11.0157 35.2632C9.07686 37.8696 7.88986 40.8304 7.23927 43.8426C6.95922 45.1449 6.78472 46.5429 7.51287 47.7212C8.69987 49.6703 11.9679 49.1263 14.0683 48.7383C17.2695 48.15 21.1774 46.9505 23.1808 44.7533" fill="#EA7C99"/>
<path id="Vector_5" d="M41.0893 48.9651C41.8842 47.1064 41.7097 44.7711 41.5201 42.9407C41.2896 40.6036 40.6929 38.4685 39.3422 36.3564C38.3297 34.7759 37.2655 33.0359 35.2728 32.1925C34.3077 31.7832 33.265 31.5157 32.2568 31.1666C31.0289 30.7378 29.8548 29.8182 30.1952 28.6258C30.4106 27.8373 31.1 27.1923 31.8087 26.6289C32.2142 26.2913 32.5886 25.9294 32.9289 25.5462C32.9485 25.5218 32.9751 25.5017 33.0065 25.4878C33.0533 25.4783 33.1026 25.4821 33.1465 25.4984C33.6782 25.6379 34.2477 25.6474 34.7858 25.5256C35.3239 25.4039 35.8074 25.1562 36.1776 24.8127C36.8798 24.1748 37.0694 22.8193 36.4511 22.0822C35.9169 21.4444 34.5834 21.2246 33.754 21.5117C34.0771 20.08 34.1375 18.0459 33.4115 16.6904C32.735 15.3775 30.9879 14.3888 29.495 13.7828C28.0021 13.1768 26.3692 13.0616 24.7427 13.2105C23.0344 13.3682 21.2593 13.8944 20.2683 15.0479C19.8909 15.5256 19.6006 16.0461 19.4066 16.593C18.8462 17.9716 18.4529 19.3925 18.2325 20.8348C18.0473 22.0574 17.9999 23.5068 18.3165 24.717C18.4925 25.4757 18.943 26.173 19.6091 26.7174C20.4385 27.3589 21.1386 27.5644 22.2675 27.6955C23.4459 27.8337 25.1326 28.0215 25.7143 28.9978C26.7527 30.7148 25.068 31.5299 23.3317 32.0224C19.5768 33.0856 19.7061 36.2306 19.202 38.9186C18.9865 40.1093 18.3402 41.0714 17.8771 42.1894C17.6305 42.8706 17.4858 43.5739 17.4462 44.2838C17.4053 44.6807 17.1899 45.2388 17.2631 45.6251C17.3407 46.0397 17.7457 46.2524 18.1399 46.5234C19.3528 47.3545 20.725 48.0225 22.0757 48.6763C23.2477 49.2226 24.4842 49.6697 25.766 50.0105C27.5562 50.5102 29.2128 51.1374 31.0698 51.4723C32.4628 51.742 33.8798 51.9198 35.3072 52.0039C37.4852 52.1084 39.521 51.4262 40.6024 49.8262C40.7944 49.5512 40.9573 49.2631 41.0893 48.9651Z" fill="#FF8DA8" fill-opacity="0.72"/>
<g id="Group_3" style="mix-blend-mode:multiply" opacity="0.2">
<g id="Vector_6" style="mix-blend-mode:multiply" opacity="0.2">
<path d="M28.4092 13.3027C28.6871 14.334 28.4631 15.4042 28.3187 16.4531C28.1744 17.5021 28.1248 18.6166 28.7065 19.5592C29.0862 20.1363 29.6731 20.6029 30.3871 20.8956C31.101 21.1883 31.9074 21.2927 32.6962 21.1947C32.2953 19.1654 31.4733 17.2079 30.2662 15.4077" fill="#FF8DA8" fill-opacity="0.72"/>
</g>
</g>
<path id="Vector_7" d="M21.2527 16.6182C21.0739 15.9892 19.6736 16.4835 19.3138 16.7068C19.0101 16.8928 18.5943 17.2862 19.0661 17.5325C19.5379 17.7788 20.5461 17.3074 20.9231 17.0877C21.1105 16.9726 21.3065 16.7954 21.2527 16.6182Z" fill="#843860"/>
<path id="Vector_8" d="M26.8387 16.3735C27.0175 15.7445 28.4177 16.2406 28.7775 16.4639C29.0791 16.6411 29.4949 17.0415 29.0231 17.2878C28.5513 17.5341 27.5431 17.0628 27.1661 16.8431C26.9808 16.7332 26.7848 16.5613 26.8387 16.3735Z" fill="#843860"/>
<path id="Vector_9" d="M35.3242 52.0094C37.5021 52.1139 39.5379 51.4317 40.6193 49.8317C40.8058 49.5545 40.9629 49.2646 41.089 48.9653C41.8839 47.1066 41.7094 44.7713 41.5198 42.9409C41.2893 40.6038 40.6926 38.4687 39.3419 36.3566C38.4371 34.9391 37.487 33.4065 35.8735 32.4922C35.8196 32.5188 35.7636 32.5453 35.7119 32.5737C32.7304 34.1383 30.0871 36.4382 26.5865 36.851C24.5184 37.0937 22.4072 36.6224 20.5265 35.8712C20.2982 35.779 20.059 35.6833 19.8134 35.593C19.5162 36.6561 19.4149 37.8344 19.2103 38.9259C18.9948 40.1166 18.3485 41.0787 17.8854 42.1967C17.6388 42.8779 17.4941 43.5812 17.4545 44.2911C17.4136 44.688 17.1982 45.2461 17.2714 45.6324C17.349 46.047 17.754 46.2596 18.1482 46.5307C19.3611 47.3618 20.7333 48.0297 22.084 48.6836C23.256 49.2299 24.4925 49.677 25.7743 50.0178C27.5645 50.5175 29.2211 51.1447 31.0781 51.4796C32.474 51.7491 33.8939 51.9263 35.3242 52.0094Z" fill="#F26757"/>
<g id="Group_4" style="mix-blend-mode:multiply" opacity="0.25">
<g id="Vector_10" style="mix-blend-mode:multiply" opacity="0.25">
<path d="M29.1244 25.7642C30.2701 25.7642 31.1989 25.0002 31.1989 24.0579C31.1989 23.1155 30.2701 22.3516 29.1244 22.3516C27.9786 22.3516 27.0498 23.1155 27.0498 24.0579C27.0498 25.0002 27.9786 25.7642 29.1244 25.7642Z" fill="#FF8DA8" fill-opacity="0.72"/>
</g>
<g id="Vector_11" style="mix-blend-mode:multiply" opacity="0.25">
<path d="M19.6264 23.4842C19.6261 23.1133 19.4787 22.7525 19.2065 22.4567C18.9344 22.1609 18.5523 21.9462 18.1184 21.8452C18.0295 22.8055 18.0954 23.7713 18.3144 24.7174C18.3424 24.8237 18.3769 24.93 18.4135 25.0346C18.7753 24.8992 19.082 24.681 19.2971 24.4061C19.5122 24.1312 19.6265 23.8111 19.6264 23.4842Z" fill="#FF8DA8" fill-opacity="0.72"/>
</g>
</g>
<path id="Vector_12" d="M41.8004 42.5616C41.6375 41.0834 41.2762 39.6245 40.7232 38.2116C40.2924 37.1007 39.9003 35.7664 38.849 34.9514C37.2204 33.688 34.9606 33.9662 33.3858 35.1835C31.3306 36.7782 31.9618 38.8389 32.927 40.7241C33.6142 42.0672 34.3983 43.4138 34.534 44.865C34.5574 44.9883 34.5395 45.1145 34.4823 45.23C34.3445 45.4515 33.9825 45.4923 33.6788 45.4923C32.1406 45.4923 30.6305 45.1715 29.1398 44.8544L24.6761 43.9047C23.3728 43.6282 22.0544 43.3483 20.7877 42.9691C19.6934 44.2011 18.7868 45.5388 18.0884 46.9523C20.1069 48.2723 22.2353 49.5498 24.661 50.2976C28.2759 51.4139 32.8645 53.0192 36.8585 52.337C37.8747 52.181 38.8229 51.8072 39.6073 51.2534C40.3918 50.6997 40.9848 49.9855 41.3264 49.1831C42.2592 47.094 42.0201 44.7339 41.8004 42.5616Z" fill="#FF8DA8" fill-opacity="0.72"/>
<path id="Vector_13" d="M31.2873 30.6848C30.9616 30.4838 30.6852 30.2336 30.473 29.9478C29.0396 30.3416 27.4905 30.3478 26.0524 29.9655C26.0564 30.2853 25.9306 30.5971 25.6948 30.8514C27.5249 31.338 29.5048 31.279 31.2873 30.6848Z" fill="#F7BF54"/>
<path id="Vector_14" d="M28.0366 12.663C28.8488 13.2672 29.0685 14.1886 29.1741 15.0497C29.3356 16.3857 29.3292 17.7589 29.9388 19.0169C30.5485 20.275 31.9682 21.4249 33.7239 21.4692C33.8238 21.4785 33.9248 21.4618 34.0126 21.4214C34.0761 21.3742 34.1211 21.3125 34.1418 21.2442C35.2599 18.7405 34.1418 15.7514 31.4576 14.0752C30.5119 13.4905 29.4046 13.0617 28.3274 12.6382" fill="#AA4F7A"/>
<g id="Group_5" style="mix-blend-mode:multiply" opacity="0.2">
<g id="Vector_15" style="mix-blend-mode:multiply" opacity="0.2">
<path d="M19.1094 17.4416C20.4687 17.7677 21.8841 17.9945 23.2994 17.9183C24.7148 17.8421 26.1344 17.4434 27.1771 16.6478C28.2198 15.8523 28.8036 14.6279 28.5106 13.4868C26.6824 14.6046 24.4912 15.2498 22.2158 15.3402" fill="#FF8DA8" fill-opacity="0.72"/>
</g>
</g>
<path id="Vector_16" d="M28.5732 12.9397C28.9739 13.8274 28.487 14.8462 27.6813 15.5372C26.3543 16.6748 24.3487 17.0717 22.44 17.2152C20.5313 17.3587 18.5774 17.3073 16.7441 17.768C17.2289 15.7552 19.2151 14.1374 21.5201 13.3507C23.8252 12.564 26.406 12.5144 28.8834 12.743" fill="#AA4F7A"/>
<path id="Vector_17" d="M21.7418 23.73C21.7429 23.7176 21.7429 23.7052 21.7418 23.6928C21.7349 23.6439 21.7163 23.5966 21.6871 23.5536C21.6578 23.5107 21.6186 23.4729 21.5715 23.4424C21.5245 23.412 21.4706 23.3894 21.4129 23.3762C21.3553 23.3629 21.295 23.3591 21.2356 23.365L16.3993 23.8328C16.2969 23.8431 16.2017 23.8817 16.1294 23.9422C16.057 24.0027 16.0116 24.0815 16.0007 24.1659L15.139 30.954C15.1269 31.0528 15.1627 31.1515 15.2385 31.2288C15.3143 31.3061 15.4241 31.3557 15.544 31.3668H15.5936C15.7062 31.3664 15.8146 31.3319 15.8981 31.2697C15.9816 31.2076 16.0343 31.1223 16.046 31.0302L16.8754 24.5416L21.1645 24.1252C21.2015 24.0193 21.2763 23.925 21.3792 23.8545C21.4822 23.7841 21.6085 23.7407 21.7418 23.73Z" fill="#B9B5EC"/>
<path id="Vector_18" d="M24.4625 21.9103C24.4409 21.9103 24.4022 21.9989 24.2923 22.1388C24.1322 22.3369 23.9085 22.4945 23.646 22.5942C23.4731 22.6626 23.2842 22.6995 23.0924 22.7023C22.8769 22.7023 22.7606 22.6421 22.8015 22.4613C22.8425 22.2806 22.9782 22.0857 23.0622 21.8731C23.1618 21.6536 23.2473 21.4301 23.3186 21.2033C23.575 20.4094 23.6739 19.5868 23.6115 18.767C23.562 18.138 23.4306 17.7623 23.3961 17.7676C23.3616 17.7729 23.4198 18.1557 23.422 18.7723C23.4275 19.5739 23.3058 20.3727 23.0601 21.1484C22.9847 21.3752 22.9071 21.5949 22.8166 21.8022C22.7735 21.9067 22.724 22.0077 22.6787 22.107C22.6238 22.2103 22.5833 22.3185 22.5581 22.4294C22.5431 22.4914 22.5431 22.5553 22.5581 22.6173C22.5754 22.6859 22.6192 22.748 22.6831 22.7944C22.7994 22.8668 22.9456 22.8986 23.0902 22.883C23.3109 22.8708 23.5257 22.8188 23.7193 22.7307C23.9996 22.6081 24.2258 22.4159 24.3655 22.1814C24.4733 22.0148 24.4754 21.9138 24.4625 21.9103Z" fill="#C45673"/>
<path id="Vector_19" d="M21.97 19.687C21.9312 19.687 21.901 19.9758 21.7546 20.4223C21.6737 20.6832 21.5663 20.9381 21.4336 21.1842C21.3554 21.3243 21.2586 21.4568 21.1449 21.5794C21.0407 21.7026 20.8888 21.7931 20.714 21.8363C20.634 21.8575 20.5484 21.8604 20.4665 21.8448C20.3846 21.8292 20.3093 21.7957 20.2487 21.7477C20.1301 21.6353 20.04 21.5046 19.9837 21.3632C19.8601 21.1154 19.7684 20.8577 19.7102 20.5942C19.6197 20.1406 19.6434 19.8483 19.6003 19.8447C19.5572 19.8412 19.4796 20.1335 19.527 20.6137C19.5549 20.8955 19.6273 21.173 19.7425 21.4394C19.8036 21.6103 19.9095 21.7682 20.0527 21.9018C20.1421 21.9788 20.2565 22.0329 20.3823 22.0578C20.5075 22.0835 20.6384 22.0835 20.7636 22.0578C20.9983 22.0031 21.2029 21.8835 21.3431 21.7193C21.467 21.5782 21.5697 21.4253 21.649 21.264C21.7813 21.004 21.8795 20.7331 21.942 20.456C22.0411 19.9847 22.0023 19.687 21.97 19.687Z" fill="#C45673"/>
<path id="Vector_20" d="M28.8831 19.5311C28.8422 19.5311 28.8573 19.8642 28.7301 20.3763C28.6565 20.6731 28.5401 20.9616 28.3833 21.2356C28.2953 21.3891 28.1707 21.5264 28.0171 21.6396C27.8574 21.7523 27.6545 21.8151 27.4441 21.8168C27.3414 21.8097 27.2417 21.7849 27.1515 21.744C27.0613 21.7031 26.9826 21.647 26.9206 21.5794C26.787 21.4479 26.6801 21.2995 26.6039 21.14C26.464 20.8551 26.3649 20.5578 26.3088 20.254C26.2118 19.7384 26.2527 19.4088 26.2118 19.4053C26.1709 19.4018 26.0718 19.7296 26.1235 20.2735C26.1596 20.595 26.2487 20.9109 26.3885 21.2126C26.4665 21.3975 26.5823 21.5701 26.731 21.7229C26.8164 21.8126 26.9238 21.8865 27.0464 21.9396C27.1689 21.9927 27.3037 22.024 27.4419 22.0312C27.7171 22.0329 27.9833 21.9508 28.1894 21.8009C28.3732 21.6688 28.5202 21.5056 28.6203 21.3225C28.775 21.0286 28.8794 20.7185 28.9305 20.4011C28.9973 19.8624 28.9133 19.5293 28.8831 19.5311Z" fill="#C45673"/>
<path id="Vector_21" d="M33.6785 24.958C33.7151 24.9403 33.5773 24.7667 33.5579 24.4584C33.5494 24.2776 33.583 24.0972 33.657 23.9268C33.7489 23.719 33.8805 23.5247 34.0469 23.351C34.3531 23.0252 34.73 22.7488 35.1585 22.5359C35.4902 22.3711 35.7186 22.2967 35.7078 22.2648C35.697 22.2329 35.445 22.2648 35.0723 22.4012C34.5857 22.587 34.1618 22.8681 33.8379 23.2198C33.6528 23.4139 33.5126 23.6344 33.4243 23.8701C33.353 24.0659 33.336 24.2724 33.3748 24.4743C33.448 24.8216 33.6591 24.9775 33.6785 24.958Z" fill="#C45673"/>
<path id="Vector_22" d="M33.9735 24.6979C33.9843 24.7227 34.1351 24.7085 34.3139 24.5809C34.426 24.4953 34.5162 24.3921 34.5791 24.2774C34.642 24.1627 34.6764 24.0388 34.6801 23.913C34.6852 23.6671 34.6021 23.4255 34.441 23.2184C34.3182 23.0642 34.2105 22.9916 34.1825 23.0075C34.1545 23.0235 34.204 23.128 34.2729 23.2857C34.3682 23.483 34.4164 23.6936 34.4151 23.9059C34.4061 24.1116 34.3237 24.3107 34.1782 24.4782C34.064 24.6075 33.9563 24.6678 33.9735 24.6979Z" fill="#C45673"/>
<path id="Vector_23" d="M21.7352 24.3448C21.6427 24.3228 21.5526 24.2944 21.4659 24.2598C21.3776 24.2282 21.3026 24.1758 21.2505 24.1092C21.2431 24.0986 21.2393 24.0867 21.2393 24.0746C21.2393 24.0625 21.2431 24.0506 21.2505 24.04C21.2735 24.0083 21.3062 23.982 21.3453 23.9639C21.3905 23.9408 21.4509 23.9142 21.5133 23.8894L21.6081 23.854L21.6814 23.8292C21.7088 23.8138 21.7334 23.7953 21.7546 23.7743C21.7697 23.7583 21.7912 23.7317 21.8128 23.7034C21.8121 23.6308 21.7765 23.5613 21.7137 23.5103L21.6491 23.4837L21.621 23.466L21.5715 23.4376C21.54 23.4189 21.5098 23.3988 21.481 23.3774C21.4237 23.3353 21.371 23.289 21.3238 23.2392C21.2794 23.1919 21.239 23.1422 21.2031 23.0903C21.1816 23.0443 21.188 23.0513 21.2031 23.0354C21.2457 23.0113 21.2958 22.9977 21.3475 22.9964C21.412 22.9938 21.4768 22.9938 21.5413 22.9964L21.9183 23.007C22.3815 23.007 22.6702 23.007 22.6723 22.9752C22.6745 22.9433 22.3923 22.9007 21.9334 22.8547L21.5564 22.8192H21.453C21.4121 22.8174 21.3711 22.8174 21.3302 22.8192C21.2306 22.8189 21.1334 22.8443 21.0523 22.8919C20.9968 22.9275 20.9604 22.9797 20.9511 23.0372C20.9434 23.0889 20.9547 23.1413 20.9834 23.1878C21.0223 23.2556 21.0699 23.3197 21.1256 23.3791C21.181 23.4425 21.243 23.5018 21.3108 23.5563C21.3453 23.5811 21.3819 23.6077 21.4207 23.6307L21.4789 23.6644L21.5047 23.6786L21.4056 23.7193C21.341 23.7477 21.2785 23.776 21.2096 23.8132C21.135 23.855 21.0754 23.9126 21.0372 23.9798C21.0188 24.0176 21.0114 24.0585 21.0155 24.099C21.0196 24.1396 21.0352 24.1789 21.0609 24.2137C21.1404 24.3059 21.2525 24.3758 21.3819 24.4139C21.4356 24.4324 21.4911 24.4472 21.5478 24.4582L21.69 24.4848C22.0519 24.5468 22.2738 24.5734 22.2824 24.5468C22.291 24.5202 22.0799 24.444 21.7352 24.3448Z" fill="#C45673"/>
<path id="Vector_24" d="M21.5842 31.4541L10.27 32.014L11.9934 44.0876C12.0119 44.2148 12.0894 44.3312 12.2099 44.4125C12.3304 44.4937 12.4844 44.5335 12.6397 44.5234L19.8587 44.1531C20.0036 44.1458 20.1405 44.0957 20.2442 44.0121C20.3479 43.9284 20.4114 43.8168 20.4231 43.6977L21.5842 31.4541Z" fill="#F9A353"/>
<path id="Vector_25" d="M11.6725 41.8795L20.7829 39.7781L21.4163 33.2026L10.7871 35.6531L11.6725 41.8795Z" fill="#F7BF54"/>
<g id="Group_6" style="mix-blend-mode:multiply" opacity="0.14">
<g id="Vector_26" style="mix-blend-mode:multiply" opacity="0.14">
<path d="M10.27 32.014L11.9934 44.0875C12.0119 44.2148 12.0894 44.3312 12.2099 44.4124C12.3304 44.4937 12.4844 44.5335 12.6397 44.5234L18.3851 44.2293C16.85 42.3977 15.6502 40.3906 14.8241 38.2722C14.0202 36.1953 13.6687 34.0179 13.7858 31.8403L10.27 32.014Z" fill="#F9A353"/>
</g>
</g>
<path id="Vector_27" d="M21.5945 30.363L9.6501 30.9673C9.3841 30.9808 9.18172 31.1691 9.19808 31.3879L9.24358 31.9962C9.25995 32.215 9.48885 32.3815 9.75486 32.368L21.6992 31.7637C21.9652 31.7502 22.1676 31.562 22.1512 31.3432L22.1057 30.7348C22.0894 30.516 21.8605 30.3496 21.5945 30.363Z" fill="#F7BF54"/>
<g id="Group_7" style="mix-blend-mode:multiply" opacity="0.2">
<g id="Vector_28" style="mix-blend-mode:multiply" opacity="0.2">
<path d="M41.7999 42.5616C41.637 41.0833 41.2758 39.6245 40.7228 38.2116C40.292 37.1006 39.8999 35.7664 38.8486 34.9514C37.6573 34.0282 36.1321 33.9308 34.7814 34.4198L32.0713 38.3711C32.2299 39.1835 32.5197 39.9748 32.933 40.7241C33.422 41.6792 33.9584 42.6377 34.2773 43.6335C35.7648 43.8407 37.2691 43.9562 38.7775 43.9791C39.8333 44.0059 40.8898 43.9465 41.9314 43.8019C41.8818 43.3731 41.8409 42.9673 41.7999 42.5616Z" fill="#FF8DA8" fill-opacity="0.72"/>
</g>
</g>
<path id="Vector_29" d="M32.6789 42.5173C35.5764 43.0489 39.1417 42.9231 41.9423 41.7944C41.8604 41.13 40.9104 38.8106 40.822 38.5678C40.1908 36.8119 39.7449 34.9674 38.0646 33.7838C36.5566 32.7065 34.5014 32.4389 32.9116 33.5464C32.5564 33.806 32.2602 34.1156 32.0369 34.4606C30.8586 36.1794 31.3347 38.6493 31.9702 40.4673C32.2028 41.15 32.4391 41.8334 32.6789 42.5173Z" fill="#DB5449"/>
<path id="Vector_30" d="M35.5417 30.6298C35.0463 29.7244 35.4857 28.8473 34.8588 27.972C34.5271 27.5131 33.9239 27.0861 33.7128 26.5687C33.5232 26.1133 33.5297 25.5056 33.478 25.0147C33.3339 23.6779 33.4561 22.3307 33.8399 21.0263C33.8669 20.9571 33.8765 20.8841 33.8679 20.8119C33.8329 20.7134 33.7641 20.6255 33.6697 20.5585C33.0195 20.007 32.4156 19.4197 31.8623 18.8008L32.4051 21.1857C32.347 21.6748 32.2694 22.1585 32.1768 22.6546C32.0207 23.6037 31.7008 24.5297 31.2268 25.4046C30.1259 27.3093 29.4301 29.7899 30.5568 31.8099C31.0199 32.6374 31.9506 33.3284 33.0514 33.4223C34.4495 33.5392 35.8649 32.7135 37.1984 33.0679C36.5629 32.2954 36.0087 31.4798 35.5417 30.6298Z" fill="#AA4F7A"/>
<path id="Vector_31" d="M21.2722 48.7154C19.3333 47.872 16.4552 46.2897 16.787 44.1759C16.8716 43.5193 17.0954 42.88 17.4484 42.2871C17.7478 41.8352 18.0946 41.4295 17.7909 40.882C17.5905 40.5276 17.0951 40.276 16.7439 40.0279C16.3025 39.7332 15.9182 39.3848 15.6043 38.9949C15.5814 38.9724 15.5657 38.9455 15.5586 38.9168C15.5514 38.888 15.5531 38.8582 15.5634 38.8301C15.7616 38.5413 17.1769 39.1686 17.401 39.2855C18.0277 39.6074 18.5433 40.0565 18.8982 40.5896C18.8594 40.5294 18.9219 40.2972 18.9111 40.214C18.8835 40.0915 18.8371 39.9725 18.7732 39.8596C18.6814 39.6126 18.5691 39.3711 18.4372 39.1367C18.127 38.6441 17.6853 38.2188 17.3191 37.7564C17.2249 37.6512 17.1602 37.5302 17.1295 37.402C17.115 37.3388 17.1231 37.2735 17.153 37.214C17.1828 37.1545 17.2331 37.1035 17.2976 37.0671C17.513 36.9661 17.7737 37.1114 17.9568 37.2443C18.3553 37.5384 18.8529 37.868 19.0942 38.272C19.3786 38.7469 19.538 39.3121 19.7405 39.8135C19.9559 39.8507 19.6953 38.637 19.65 38.5271C19.5014 38.1604 19.4604 37.829 19.1955 37.5083C18.8508 37.0937 18.4027 36.6791 18.4005 36.1759C18.3934 36.1221 18.4027 36.0677 18.4275 36.0176C18.4523 35.9675 18.4919 35.9232 18.5427 35.8888C18.7194 35.7985 18.937 35.9296 19.0748 36.0572C20.055 36.9732 20.3954 38.194 20.5656 39.383L21.13 37.5686C21.1752 37.4268 21.283 37.2496 21.4575 37.2797C21.5132 37.2937 21.5632 37.32 21.6018 37.3559C22.0887 37.7723 21.9163 38.3819 21.7914 38.8833C21.647 39.4645 21.5372 40.0527 21.4445 40.641C21.3627 41.1566 21.2291 41.6687 21.2054 42.1896C21.1774 42.6574 21.507 42.9497 21.9982 43.1801C22.2656 43.2848 22.5439 43.3696 22.8297 43.4335C23.1292 43.5203 23.4006 43.6656 23.7087 43.7435" fill="#FF8DA8" fill-opacity="0.72"/>
<path id="Vector_32" d="M37.3924 20.1619C35.5742 19.6782 33.4156 19.6427 31.5263 19.6498H31.5091C31.2419 17.9718 29.7857 16.6837 28.0407 16.6837C26.397 16.6837 25.0247 17.8212 24.637 19.3504C24.3631 19.1407 24.0029 19.0242 23.6288 19.0242C23.2547 19.0242 22.8945 19.1407 22.6206 19.3504C22.2931 17.7557 20.8735 16.5366 19.1738 16.5366C17.2349 16.5366 15.6602 18.1154 15.6602 20.0556C15.6602 21.9958 17.2349 23.5745 19.1738 23.5745C21.1126 23.5745 22.6874 21.9958 22.6874 20.0556C22.6874 20.0006 22.6874 19.9475 22.6874 19.8926C22.7648 19.7413 22.8953 19.6125 23.0621 19.5225C23.229 19.4325 23.4247 19.3855 23.6242 19.3874C23.8237 19.3893 24.018 19.4401 24.1822 19.5332C24.3465 19.6263 24.4733 19.7576 24.5465 19.9103C24.5465 20.0077 24.5314 20.1052 24.5314 20.2044C24.5314 22.1535 26.1083 23.7233 28.045 23.7233C29.9817 23.7233 31.5586 22.1428 31.5586 20.2026C31.5586 20.1406 31.5586 20.0821 31.5586 20.0254C32.9487 20.0191 34.3373 20.1008 35.712 20.27C36.2398 20.3355 36.7633 20.4241 37.2847 20.5233C38.3769 20.7324 38.5772 21.606 38.6289 22.3767C38.6462 22.6159 39.1029 22.6177 39.0835 22.3767C38.9908 21.349 38.6677 20.4968 37.3924 20.1619ZM19.1781 23.1227C17.5408 23.1227 16.2116 21.7459 16.2116 20.0538C16.2116 18.3617 17.5408 16.9849 19.1781 16.9849C20.8153 16.9849 22.1445 18.3617 22.1445 20.0538C22.1445 21.7459 20.8132 23.1227 19.1781 23.1227ZM28.0407 23.2715C26.4056 23.2715 25.0743 21.8948 25.0743 20.2026C25.0743 18.5105 26.4056 17.1337 28.0407 17.1337C29.6758 17.1337 31.0093 18.5105 31.0093 20.2026C31.0093 21.8948 29.678 23.2715 28.0407 23.2715Z" fill="#F7BF54"/>
<g id="Group_8" style="mix-blend-mode:multiply" opacity="0.2">
<g id="Vector_33" style="mix-blend-mode:multiply" opacity="0.2">
<path d="M41.283 49.2754C40.0437 49.3539 38.8273 49.5931 37.6789 49.9841C36.1733 50.5075 34.8757 51.3667 33.9326 52.4648C34.9107 52.5307 35.8951 52.4854 36.8581 52.3301C37.853 52.1774 38.7832 51.816 39.5584 51.2808C40.3336 50.7456 40.9276 50.0549 41.283 49.2754Z" fill="#FF8DA8" fill-opacity="0.72"/>
</g>
</g>
</g>
</g>
</g>
</g>
</g>
</g>
<defs>
<linearGradient id="paint0_linear_1561_9500" x1="50" y1="50" x2="-16.6397" y2="44.8434" gradientUnits="userSpaceOnUse">
<stop stop-color="#92A3FD"/>
<stop offset="1" stop-color="#9DCEFF"/>
</linearGradient>
</defs>
</svg>
