<svg width="124" height="189" viewBox="0 0 124 189" fill="none" xmlns="http://www.w3.org/2000/svg">
<path d="M64.3692 78.2391C64.2477 80.5623 63.9353 83.2532 63.4841 86.2282C62.6684 91.4763 61.4189 97.4597 60.0131 103.276C56.924 116.613 53.2447 128.915 53.2447 128.915C52.9299 136.771 51.9958 144.593 50.4506 152.314C50.2944 153.166 50.1382 153.985 49.9647 154.821C49.444 157.512 48.8887 160.102 48.368 162.492C46.4417 170.983 44.6888 177.117 44.6888 177.117L36.237 175.713C35.8379 171.1 35.6817 166.687 35.699 162.559C35.699 159.985 35.6991 157.545 35.8726 155.172C35.8726 153.935 36.0114 152.731 36.0982 151.578C37.0874 137.505 39.5692 128.179 39.5692 126.324C39.5692 116.914 40.2113 108.708 40.9923 101.705C43.179 82.4008 47.0491 72.3392 47.0491 72.3392C52.5158 60.2386 60.7073 61.0743 63.4147 69.9826C64.1974 72.6664 64.5198 75.4553 64.3692 78.2391Z" fill="#FFEDE5"/>
<path d="M91.2514 165.133C91.2514 168.476 91.0432 172.002 90.7308 175.646L82.279 177.2C82.279 177.2 80.7865 171.936 79.0336 164.381C78.3915 161.607 77.7147 158.531 77.0726 155.289C76.899 154.37 76.7081 153.417 76.5346 152.481C74.9803 144.705 74.0404 136.827 73.7231 128.915C73.7231 128.915 70.0092 116.497 66.8853 103.092C65.5316 97.343 64.2821 91.3929 63.4143 86.195C62.9458 83.2367 62.6507 80.5124 62.5292 78.2059C62.3436 75.3924 62.6427 72.5687 63.4143 69.8491C66.1564 60.9408 74.3305 60.1219 79.7973 72.2058C79.7973 72.2058 83.65 82.2339 85.8194 101.421C86.735 109.649 87.2158 117.916 87.2598 126.191C87.2598 128.046 89.7589 137.188 90.7308 151.06C90.7308 152.23 90.887 153.417 90.9564 154.637C91.2341 157.963 91.3035 161.439 91.2514 165.133Z" fill="#FFEDE5"/>
<path d="M90.8525 151.127C86.1021 151.82 81.3171 152.272 76.5175 152.481C74.969 144.705 74.035 136.827 73.7233 128.915C73.7233 128.915 70.0094 116.497 66.8856 103.092C65.5319 97.343 64.2823 91.393 63.4146 86.195C62.5989 91.4431 61.3494 97.4266 59.9436 103.243C56.9239 116.614 53.2447 128.915 53.2447 128.915C52.9298 136.771 51.9957 144.594 50.4506 152.314C45.2441 152.08 40.2633 151.762 36.0981 151.428C37.0874 137.355 39.5691 128.029 39.5691 126.174C39.5691 116.764 40.2112 108.558 40.9922 101.555C43.1789 82.2506 47.049 72.1891 47.049 72.1891C52.5158 60.0885 60.7072 60.9241 63.4146 69.8325C65.4972 63.0301 70.7557 60.9409 75.5629 65.7209C77.3572 67.6213 78.7906 69.8107 79.7975 72.1891C80.8771 75.2618 81.7694 78.3925 82.4702 81.5654C84.0005 88.1386 85.142 94.7901 85.8891 101.488C86.8047 109.716 87.2855 117.983 87.3295 126.257C87.3469 128.113 89.8286 137.272 90.8525 151.127Z" fill="#8C80F8"/>
<path d="M82.5395 81.6488C77.7843 76.6515 56.9412 75.4314 56.9412 75.4314L75.6323 65.8879C77.4265 67.7883 78.8599 69.9777 79.8668 72.3561C80.9431 75.4014 81.8355 78.5042 82.5395 81.6488Z" fill="#826B80"/>
<path d="M45.7992 185.407C45.8088 185.49 45.8088 185.574 45.7992 185.657C45.5215 189.418 42.3283 188.85 37.6078 189C33.8418 189 31.8286 186.978 32.0542 184.788C32.1282 184.125 32.3793 183.492 32.7831 182.95C33.8578 181.332 34.6438 179.552 35.1087 177.685C35.313 176.839 35.8084 176.085 36.5144 175.546C39.4821 173.239 42.3283 175.011 43.7514 176.281C44.3874 176.828 44.8303 177.552 45.0183 178.353C45.5531 180.669 45.8151 183.035 45.7992 185.407Z" fill="#3B2645"/>
<path d="M89.4117 188.917C84.5697 188.917 81.2723 189.451 81.1855 185.407V185.056C81.1763 182.84 81.4325 180.63 81.9492 178.471C82.1488 177.554 82.6474 176.722 83.3722 176.097C84.1874 175.195 85.3106 174.603 86.5389 174.429C87.7673 174.254 89.0201 174.508 90.0712 175.145C91.0087 175.769 91.6756 176.702 91.9455 177.769C92.4152 179.551 93.1893 181.245 94.2364 182.783C94.4632 183.097 94.6442 183.44 94.7743 183.802C95.6074 186.343 93.6463 188.983 89.4117 188.917Z" fill="#3B2645"/>
<path d="M72.1959 13.5912C72.6588 13.0709 72.9543 12.4321 73.0463 11.7527C73.0954 10.6722 73.2998 9.60353 73.6537 8.57713C73.9662 8.12278 74.2225 7.63477 74.4173 7.12305C74.4814 6.85085 74.4737 6.56752 74.3948 6.29893C74.316 6.03034 74.1686 5.78504 73.9661 5.5854C73.671 5.30127 73.2545 5.10071 73.1157 4.7163C73.0805 4.47233 73.0805 4.22486 73.1157 3.9809C73.062 3.61942 72.9147 3.2768 72.6872 2.98467C72.4597 2.69255 72.1594 2.46036 71.8141 2.30955C71.1066 1.97696 70.3523 1.74609 69.5753 1.62429C68.811 1.53275 68.0798 1.26938 67.4407 0.855466C67.1778 0.619328 66.8932 0.406744 66.5903 0.22035C66.0149 -0.0171541 65.3741 -0.0641785 64.768 0.0866419C63.6171 0.278793 62.4932 0.598474 61.4185 1.03931C61.0309 1.2352 60.6159 1.37594 60.1864 1.45715C59.5442 1.45715 58.8674 1.34016 58.2253 1.45715C57.7443 1.6049 57.3025 1.85193 56.9308 2.18101C56.5592 2.51009 56.2665 2.91329 56.0733 3.3625C55.9564 3.6215 55.7781 3.85048 55.5526 4.03104C55.2689 4.17022 54.9645 4.26608 54.6502 4.31517C54.2529 4.46551 53.8999 4.70701 53.6216 5.01868C53.3433 5.33035 53.1483 5.70275 53.0535 6.10352C52.8894 6.93172 52.8894 7.78236 53.0535 8.61056C53.085 9.42932 53.1778 10.2448 53.3312 11.0507C55.0667 17.7362 55.57 15.881 55.57 15.881L60.7764 15.3628C63.1367 15.1121 65.4796 14.8447 67.8225 14.5272C68.7596 14.3934 69.6968 14.2096 70.6339 14.0592C71.1966 14.0936 71.7528 13.927 72.1959 13.5912Z" fill="#3B2645"/>
<path d="M55.0841 12.9728C54.9118 12.7449 54.686 12.5594 54.4251 12.4316C54.1643 12.3037 53.8757 12.2371 53.583 12.2371C53.2902 12.2371 53.0017 12.3037 52.7408 12.4316C52.4799 12.5594 52.2541 12.7449 52.0818 12.9728C50.6413 14.7611 53.2966 17.9868 55.2577 18.0871C55.3067 16.3805 55.2488 14.6726 55.0841 12.9728Z" fill="#E0855C"/>
<path d="M83.7022 32.277C81.809 36.997 80.2834 41.8462 79.1379 46.7844C78.999 47.4195 78.8949 48.0379 78.7734 48.6396C78.6519 49.2413 78.5999 49.6926 78.5305 50.1773C78.461 50.6619 78.5305 50.8625 78.3916 51.3305C77.8536 56.3446 76.847 70.267 76.6561 72.6403C76.6561 72.8743 76.6561 72.9913 76.6561 72.9913C63.1715 76.9858 48.8885 73.8102 48.8885 73.8102L48.7843 73.0748C48.472 70.7684 45.5563 46.0991 45.4522 45.113C44.8448 39.2466 44.4109 33.8481 44.3762 30.4887C44.3762 29.9873 44.8274 29.7031 45.5043 29.5193C46.5976 29.2184 48.1422 29.1683 49.357 28.9677C51.6194 28.6036 53.9031 28.3747 56.1948 28.2825H56.7502C56.8658 28.2759 56.9817 28.2759 57.0973 28.2825H57.5138L57.9477 21.5971H58.6245C59.0667 21.663 59.5134 21.6966 59.9608 21.6973C60.4944 21.7047 61.0279 21.6768 61.5575 21.6138L62.3037 21.5302C62.6682 21.5302 62.9979 21.4132 63.3277 21.3296C63.8597 21.2115 64.3818 21.0551 64.8896 20.8617C65.0457 20.8293 65.1973 20.7787 65.3408 20.7112H65.4797L65.8267 20.5608C66.4638 20.2944 67.0788 19.9815 67.6664 19.6249L68.482 19.09L68.6209 18.973C68.7314 18.9033 68.8359 18.825 68.9333 18.739L69.1242 18.5886C69.1242 18.8393 69.1242 18.9396 69.1242 19.0399C68.9726 20.3386 68.8915 21.644 68.8812 22.9509C68.8812 23.9035 68.8812 24.8562 68.8812 25.6919C68.8812 27.1125 68.8812 28.1488 68.8812 28.1488H69.8531C69.8708 28.1365 69.892 28.13 69.9138 28.13C69.9356 28.13 69.9568 28.1365 69.9745 28.1488C71.3815 28.1671 72.7852 28.2844 74.1744 28.4998C76.814 28.8337 79.4089 29.4388 81.9146 30.3048C82.2964 30.4553 82.5741 30.589 82.8171 30.706C83.0601 30.8229 83.8237 31.9762 83.7022 32.277Z" fill="#FFEDE5"/>
<path d="M69.1938 18.6052C68.9969 19.8083 68.5255 20.9544 67.8136 21.961C67.1016 22.9676 66.1668 23.8097 65.0764 24.4267C63.986 25.0437 62.7671 25.4202 61.5075 25.5291C60.2479 25.638 58.9788 25.4767 57.7917 25.0567L58.0174 21.597C59.9941 21.8961 62.0144 21.7839 63.9424 21.2679C65.8703 20.7518 67.661 19.8439 69.1938 18.6052Z" fill="#E0855C"/>
<path d="M55.2749 7.94211C54.303 8.97835 54.2856 11.2848 54.2856 13.7083C54.2856 21.2127 56.6806 23.4857 60.6722 23.7364C64.6638 23.9871 68.7943 22.4328 69.3496 15.3796C69.6793 11.8865 70.0264 8.69422 68.6728 7.19C66.7117 5.13424 58.2252 4.78325 55.2749 7.94211Z" fill="#FFEDE5"/>
<path d="M68.8464 14.5105C68.8464 14.5105 69.9571 11.3684 71.9355 12.9561C73.914 14.5439 71.3975 19.324 68.4645 19.0566C68.4472 19.0566 67.9439 15.5969 68.8464 14.5105Z" fill="#FFEDE5"/>
<path d="M71.0854 14.3935C70.6388 14.546 70.2431 14.8116 69.94 15.1623C69.5858 15.4638 69.3019 15.834 69.1069 16.2487C69.1069 16.3657 69.2458 16.4325 69.3325 16.3657C69.4193 16.2988 69.7664 15.8476 69.992 15.6136C70.1463 15.7901 70.3428 15.9277 70.5647 16.0147C70.604 16.0315 70.6479 16.0351 70.6895 16.0249C70.7311 16.0147 70.768 15.9913 70.794 15.9584C70.8201 15.9256 70.8339 15.8852 70.8333 15.8439C70.8326 15.8025 70.8175 15.7626 70.7904 15.7306C70.6695 15.5585 70.5092 15.4155 70.3218 15.3127C70.6409 15.1015 70.9426 14.8668 71.2242 14.6107C71.2436 14.5893 71.2553 14.5624 71.2577 14.534C71.2601 14.5056 71.2531 14.4773 71.2376 14.453C71.2221 14.4288 71.199 14.41 71.1716 14.3992C71.1442 14.3885 71.114 14.3865 71.0854 14.3935Z" fill="#E0855C"/>
<path d="M57.7048 13.424C57.7048 13.424 57.0453 13.6747 57.0974 12.5382C57.1495 11.4016 57.6528 11.6189 57.6528 11.6189C57.6528 11.6189 58.1213 11.6189 58.0693 12.5047C58.0172 13.3906 57.7048 13.424 57.7048 13.424Z" fill="#3B2645"/>
<path d="M64.5254 13.2233C64.5254 13.2233 63.8659 13.4741 63.9353 12.3208C64.0047 11.1676 64.4733 11.4183 64.4733 11.4183C64.4733 11.4183 64.9419 11.4183 64.9072 12.3041C64.8725 13.1899 64.5254 13.2233 64.5254 13.2233Z" fill="#3B2645"/>
<path d="M60.8978 16.3991C60.5507 16.3991 59.7698 16.5662 59.5962 16.2152C59.6426 15.4158 59.7883 14.6246 60.0301 13.8586C60.3115 12.8287 60.5374 11.7855 60.7069 10.7332C60.7069 10.7332 60.7069 10.7332 60.5854 10.7332C59.9528 12.593 59.4769 14.499 59.1623 16.4325C59.1537 16.4559 59.1512 16.4809 59.1551 16.5055C59.159 16.53 59.1691 16.5533 59.1846 16.5731C59.2 16.593 59.2204 16.6088 59.2437 16.6193C59.2671 16.6298 59.2928 16.6345 59.3185 16.633C59.8218 16.633 60.3078 16.633 60.8111 16.633C61.002 16.6832 61.0367 16.4158 60.8978 16.3991Z" fill="#E0855C"/>
<path d="M59.0413 9.96426C58.6255 9.93061 58.2075 9.93061 57.7917 9.96426C57.3646 9.86763 56.9286 9.81165 56.4901 9.79712C56.4401 9.79769 56.3914 9.81212 56.3497 9.83867C56.308 9.86522 56.2751 9.90277 56.255 9.94684C56.2348 9.9909 56.2283 10.0396 56.2361 10.0872C56.244 10.1347 56.2659 10.1791 56.2992 10.215C56.7026 10.4894 57.1688 10.6661 57.6582 10.7301C58.1477 10.7942 58.6459 10.7436 59.1107 10.5827C59.1829 10.5603 59.2449 10.5146 59.2863 10.4533C59.3276 10.392 59.3457 10.3189 59.3375 10.2462C59.3294 10.1736 59.2955 10.1058 59.2415 10.0545C59.1875 10.0031 59.1168 9.97125 59.0413 9.96426Z" fill="#3B2645"/>
<path d="M66.3647 9.07857C65.7802 9.39453 65.1379 9.59883 64.473 9.68026C64.0391 9.68026 63.5185 9.59669 63.1714 9.88082C63.1497 9.91321 63.1382 9.95093 63.1382 9.98946C63.1382 10.028 63.1497 10.0657 63.1714 10.0981C63.8482 11.0508 66.0696 9.93096 66.6423 9.26242C66.6597 9.14542 66.4862 9.02843 66.3647 9.07857Z" fill="#3B2645"/>
<path d="M63.4489 18.3546C62.7179 18.2542 61.9758 18.2542 61.2448 18.3546C60.7415 18.3546 60.03 18.271 59.6655 18.6721C60.0647 19.0231 60.7415 18.8727 61.2448 18.856C61.9779 18.923 62.7158 18.923 63.4489 18.856C63.5179 18.856 63.5841 18.8295 63.6329 18.7825C63.6818 18.7355 63.7092 18.6717 63.7092 18.6053C63.7092 18.5388 63.6818 18.475 63.6329 18.428C63.5841 18.381 63.5179 18.3546 63.4489 18.3546Z" fill="#E0855C"/>
<path d="M122.872 105.382H1.12806C0.82888 105.382 0.541953 105.268 0.330401 105.064C0.118848 104.86 0 104.584 0 104.296C0 104.007 0.118848 103.731 0.330401 103.527C0.541953 103.324 0.82888 103.209 1.12806 103.209H122.872C123.171 103.209 123.458 103.324 123.67 103.527C123.881 103.731 124 104.007 124 104.296C124 104.584 123.881 104.86 123.67 105.064C123.458 105.268 123.171 105.382 122.872 105.382Z" fill="#3B2645"/>
<path d="M4.98083 109.895C4.46992 109.895 3.97993 109.699 3.61867 109.351C3.2574 109.003 3.05444 108.532 3.05444 108.04V100.502C3.05444 100.01 3.2574 99.5378 3.61867 99.1899C3.97993 98.8419 4.46992 98.6465 4.98083 98.6465C5.49173 98.6465 5.98172 98.8419 6.34298 99.1899C6.70425 99.5378 6.90721 100.01 6.90721 100.502V108.006C6.91422 108.253 6.86944 108.499 6.77555 108.729C6.68167 108.959 6.5406 109.168 6.36078 109.345C6.18096 109.521 5.96607 109.661 5.72897 109.755C5.49187 109.85 5.23742 109.897 4.98083 109.895Z" fill="#3B2645"/>
<path d="M8.83361 116.463C8.3227 116.463 7.83272 116.268 7.47145 115.92C7.11018 115.572 6.90723 115.1 6.90723 114.608V93.9833C6.95289 93.5195 7.17649 93.0888 7.53433 92.7753C7.89217 92.4618 8.35854 92.2881 8.84229 92.2881C9.32604 92.2881 9.79241 92.4618 10.1502 92.7753C10.5081 93.0888 10.7317 93.5195 10.7773 93.9833V114.608C10.7728 115.101 10.566 115.573 10.2019 115.921C9.83791 116.268 9.34613 116.463 8.83361 116.463Z" fill="#291B30"/>
<path d="M12.7036 119.572C12.4499 119.574 12.1984 119.528 11.9636 119.435C11.7289 119.343 11.5156 119.206 11.3362 119.034C11.1569 118.861 11.0151 118.655 10.9191 118.429C10.8231 118.203 10.7749 117.961 10.7772 117.717V91.4931C10.7772 91.0011 10.9801 90.5292 11.3414 90.1813C11.7027 89.8334 12.1927 89.6379 12.7036 89.6379C13.2145 89.6379 13.7045 89.8334 14.0657 90.1813C14.427 90.5292 14.6299 91.0011 14.6299 91.4931V117.717C14.6299 118.209 14.427 118.681 14.0657 119.029C13.7045 119.376 13.2145 119.572 12.7036 119.572Z" fill="#3B2645"/>
<path d="M117.336 109.895C117.847 109.895 118.337 109.699 118.698 109.351C119.059 109.003 119.262 108.532 119.262 108.04V100.502C119.262 100.01 119.059 99.5378 118.698 99.1899C118.337 98.8419 117.847 98.6465 117.336 98.6465C116.825 98.6465 116.335 98.8419 115.973 99.1899C115.612 99.5378 115.409 100.01 115.409 100.502V108.006C115.405 108.253 115.451 108.497 115.546 108.726C115.641 108.955 115.782 109.164 115.961 109.34C116.14 109.515 116.354 109.655 116.59 109.75C116.826 109.846 117.08 109.895 117.336 109.895Z" fill="#3B2645"/>
<path d="M113.483 116.463C113.994 116.463 114.484 116.268 114.845 115.92C115.207 115.572 115.41 115.1 115.41 114.608V93.9833C115.364 93.5195 115.14 93.0888 114.783 92.7753C114.425 92.4618 113.958 92.2881 113.475 92.2881C112.991 92.2881 112.524 92.4618 112.167 92.7753C111.809 93.0888 111.585 93.5195 111.54 93.9833V114.608C111.544 115.101 111.751 115.573 112.115 115.921C112.479 116.268 112.971 116.463 113.483 116.463Z" fill="#291B30"/>
<path d="M109.613 119.572C109.867 119.574 110.118 119.528 110.353 119.435C110.588 119.343 110.801 119.206 110.98 119.034C111.16 118.861 111.301 118.655 111.397 118.429C111.493 118.203 111.542 117.961 111.539 117.717V91.4931C111.539 91.0011 111.336 90.5292 110.975 90.1813C110.614 89.8334 110.124 89.6379 109.613 89.6379C109.102 89.6379 108.612 89.8334 108.251 90.1813C107.889 90.5292 107.687 91.0011 107.687 91.4931V117.717C107.687 118.209 107.889 118.681 108.251 119.029C108.612 119.376 109.102 119.572 109.613 119.572Z" fill="#3B2645"/>
<path d="M51.9079 43.1075C51.1969 45.4946 50.2133 47.7984 48.975 49.9767C48.4717 50.9795 46.4412 55.2248 46.3544 55.3919C43.1958 62.0606 38.7356 71.9049 38.3365 73.0749C37.3473 76.8521 35.23 98.8305 35.2126 98.8305C33.0433 101.973 28.9128 100.502 28.9128 100.502C28.9128 100.502 28.9128 99.8333 28.7219 98.6967C28.2533 93.8331 27.1426 80.1614 28.4269 72.0721C28.7913 69.8324 30.1624 64.4005 31.8978 58.2666C33.2862 53.2526 33.8936 48.4892 35.5424 43.6089C36.9311 39.4097 39.024 35.4576 41.738 31.9094C42.7547 30.7923 44.0876 29.9849 45.5734 29.5862C46.2155 29.5862 46.4932 30.3884 47.0312 30.6224C48.5598 31.3097 49.7886 32.493 50.5022 33.9651C52.0144 36.7769 52.5091 39.9943 51.9079 43.1075Z" fill="#FFEDE5"/>
<path d="M28.4967 102.758C28.4967 102.023 28.6529 101.271 28.6702 100.535C28.6702 99.3819 28.6702 98.6298 28.6702 98.6298C29.4126 97.9353 30.3598 97.479 31.382 97.3234C32.4042 97.1678 33.4514 97.3205 34.38 97.7607C34.798 98.0545 35.182 98.3907 35.5254 98.7635C36.2196 99.3986 37.0179 99.9 37.6774 100.569C38.0205 100.887 38.2834 101.277 38.4459 101.709C38.6083 102.141 38.666 102.602 38.6145 103.059C37.7919 103.146 37.0286 103.514 36.4625 104.095C35.8204 104.864 36.0981 105.566 35.7857 106.418C35.4733 107.271 34.7097 107.354 34.0502 107.455C31.8288 107.772 28.6529 107.872 28.462 105.115C28.4135 104.329 28.4251 103.542 28.4967 102.758Z" fill="#FFEDE5"/>
<path d="M97.9674 98.5796C97.8633 99.7161 97.7765 100.385 97.7765 100.385C97.7765 100.385 93.6461 101.906 91.4594 98.7133C91.4594 98.7133 89.3421 76.8018 88.2834 73.0246C88.1099 72.3895 86.7562 69.2974 85.0554 65.5536C83.3547 61.8098 77.8879 50.361 77.7144 49.9766C76.4688 47.8016 75.4848 45.497 74.7814 43.1073C74.1227 39.9533 74.5938 36.6774 76.1177 33.8146C76.841 32.349 78.0669 31.1684 79.5887 30.4718C80.1259 30.2121 80.7239 30.0912 81.3242 30.1209C81.5142 30.1203 81.7026 30.1544 81.8795 30.2211C82.2009 30.3068 82.5057 30.4423 82.782 30.6223C83.2068 30.9081 83.602 31.2327 83.9621 31.5917C87.0735 34.7843 89.3727 38.6291 90.6784 42.8232C92.4139 47.8372 93.4378 53.2357 94.7568 58.0659C96.4922 64.1998 97.8459 69.6317 98.2277 71.8713C99.5467 80.0443 98.4186 93.7159 97.9674 98.5796Z" fill="#FFEDE5"/>
<path d="M98.1242 102.775C98.1242 101.939 98.02 101.103 98.0027 100.535C98.0027 99.382 98.0027 98.6299 98.0027 98.6299C97.2644 97.9346 96.3201 97.4776 95.3003 97.3219C94.2805 97.1662 93.2356 97.3195 92.3103 97.7608C91.8905 98.0586 91.5011 98.3944 91.1475 98.7636C90.4707 99.3987 89.655 99.9001 89.0129 100.569C88.6665 100.885 88.4014 101.275 88.2387 101.707C88.0761 102.139 88.0203 102.602 88.0758 103.059C88.8714 103.261 89.649 103.524 90.4013 103.844C91.0434 104.48 90.5575 105.048 90.5575 105.783C90.5575 106.803 91.2864 107.154 92.293 107.321L94.2367 107.655C95.2676 107.894 96.3509 107.806 97.3258 107.404C97.4659 107.327 97.5895 107.225 97.6903 107.104C97.7729 106.981 97.8318 106.845 97.8639 106.703C98.1959 105.419 98.2841 104.088 98.1242 102.775Z" fill="#FFEDE5"/>
<path d="M79.1377 46.7843L80.1096 72.941C64.0738 78.9746 46.7363 73.3422 46.7363 73.3422L46.3545 48.2718L45.8339 48.1214C45.0529 47.8874 44.2199 47.6367 43.3695 47.3024C42.8836 47.1186 42.3803 46.9347 41.877 46.7007C39.7052 45.7453 37.5904 44.674 35.5425 43.4917C36.9312 39.2926 39.0241 35.3405 41.7381 31.7922C42.7594 30.6803 44.0905 29.874 45.5735 29.4691C46.6669 29.1849 48.2115 29.1181 49.4263 28.9175C51.6887 28.5533 53.9723 28.3245 56.2641 28.2323L62.5639 43.2745C65.2614 38.3715 67.6322 33.3082 69.662 28.1153H69.8356C69.8533 28.103 69.8745 28.0964 69.8963 28.0964C69.9181 28.0964 69.9393 28.103 69.957 28.1153C71.364 28.1336 72.7677 28.2509 74.1569 28.4662C76.8032 28.8121 79.4037 29.4284 81.9145 30.3047C82.2359 30.3904 82.5407 30.5259 82.8169 30.7059C83.2418 30.9917 83.637 31.3163 83.9971 31.6753C87.1085 34.8679 89.4076 38.7127 90.7134 42.9068C88.6251 43.8289 86.4875 44.6434 84.3094 45.3469C81.4286 46.2161 79.1377 46.7843 79.1377 46.7843Z" fill="#3B2645"/>
<path d="M46.3546 39.6309V48.2718L45.834 48.1213C45.053 47.8874 44.22 47.6367 43.3696 47.3024C44.5009 44.7963 45.4972 42.2357 46.3546 39.6309Z" fill="#27192E"/>
<path d="M41.9292 179.64C40.5582 178.905 37.9896 178.337 36.7227 179.356C36.6984 179.397 36.6855 179.443 36.6855 179.49C36.6855 179.537 36.6984 179.583 36.7227 179.624V179.724C36.7227 179.858 36.9137 179.891 37.0178 179.841C37.1219 179.791 37.0178 179.841 37.1393 179.841C37.4361 179.659 37.7771 179.556 38.1285 179.54C38.5774 179.52 39.027 179.559 39.4648 179.657C40.2785 179.888 41.117 180.028 41.9639 180.075C42.0237 180.071 42.0793 180.043 42.1183 180C42.1574 179.956 42.1768 179.899 42.1722 179.841C42.1675 179.783 42.1394 179.73 42.0938 179.692C42.0482 179.655 41.989 179.636 41.9292 179.64Z" fill="#27192E"/>
<path d="M42.8144 181.997C42.0387 181.392 41.0707 181.061 40.0723 181.061C39.0837 180.833 38.0441 180.933 37.122 181.345C37.0005 181.445 36.9311 181.696 37.122 181.78C37.9319 181.98 38.7682 182.065 39.6037 182.03C40.6011 182.296 41.625 182.458 42.6582 182.515C42.7155 182.505 42.7689 182.48 42.8123 182.443C42.8556 182.405 42.8872 182.357 42.9034 182.303C42.9197 182.249 42.92 182.192 42.9042 182.138C42.8885 182.084 42.8573 182.035 42.8144 181.997Z" fill="#27192E"/>
<path d="M89.5333 178.738C88.6012 178.244 87.5343 178.037 86.4762 178.144C85.4181 178.252 84.4197 178.669 83.6153 179.34C83.4417 179.557 83.6153 179.975 83.8756 179.941C84.7607 179.941 85.6111 179.44 86.4788 179.356C87.3466 179.273 88.3011 179.59 89.2035 179.49C89.5506 179.457 89.863 179.055 89.5333 178.738Z" fill="#27192E"/>
<path d="M90.2624 180.927C89.1262 180.667 87.9506 180.605 86.7915 180.744C86.3822 180.692 85.9664 180.726 85.5715 180.841C85.1766 180.956 84.8116 181.151 84.5006 181.412C84.2577 181.713 84.5006 182.281 84.9345 182.131C86.67 181.546 88.6311 182.415 90.3492 181.813C90.4432 181.774 90.5219 181.707 90.5741 181.622C90.6262 181.537 90.6491 181.438 90.6395 181.34C90.6298 181.242 90.5882 181.149 90.5205 181.075C90.4528 181.001 90.3624 180.949 90.2624 180.927Z" fill="#27192E"/>
<path d="M30.3709 17.3685C24.5223 18.4047 18.4481 17.5356 12.7558 19.6415C12.374 19.7919 12.3913 20.4103 12.8599 20.3769C16.3309 20.1931 19.715 19.5245 23.1686 19.324C25.6677 19.1735 28.6007 19.6917 30.8742 18.505C31.5337 18.1373 31.0477 17.2515 30.3709 17.3685Z" fill="#F7F8F8"/>
<path d="M32.4878 9.52993C29.6359 8.11484 26.6908 6.88097 23.6716 5.83623C23.1509 5.66909 22.8559 6.4212 23.3071 6.68862C26.0328 8.20167 28.8493 9.55785 31.7416 10.75C32.592 11.101 33.3556 9.93105 32.4878 9.52993Z" fill="#F7F8F8"/>
</svg>
