<svg width="115" height="71" viewBox="0 0 115 71" fill="none" xmlns="http://www.w3.org/2000/svg">
<path fill-rule="evenodd" clip-rule="evenodd" d="M4.54192 57.7292C4.54192 55.8602 7.68666 54.3146 11.7784 54.0556C12.0546 53.1975 12.4537 52.393 12.9568 51.663C12.6761 50.5522 12.5234 49.3843 12.5234 48.1772C12.5234 40.8994 17.9669 35 24.6821 35C29.6699 35 33.9538 38.2563 35.8289 42.9133C36.1631 42.8929 36.4997 42.8792 36.8405 42.8792C40.5803 42.8792 43.9386 44.1412 46.2489 46.1444C48.6867 46.6193 50.7971 48.0882 52.1975 50.1443C54.3803 47.6042 58.2082 45.4352 63.3354 46.0969C72.9242 47.3343 72.1669 57.2342 72.1669 57.2342C72.1669 57.2342 74.9427 51.5417 83.6641 52.0367C92.3855 52.5316 95.634 60.5753 95.634 60.5753C95.634 60.5753 97.4004 58.4716 101.942 58.7191C106.484 58.9667 108.755 62.4316 108.755 62.4316C112.159 61.918 112.055 62.6778 115 63.7131C113.472 63.7333 115.414 63.2712 114.497 63.7372C100.339 70.9286 88.9809 65.5779 76.8685 67.558C61.5594 70.1983 54.6016 69.8683 39.4608 67.558C31.7276 65.9335 27.6447 71.7 23.4399 70.9286C12.0262 68.8345 15.8158 65.239 11.7784 66.2291C10.003 66.6875 11.2115 63.2198 9.47341 63.7305C9.47382 63.7246 9.47523 63.719 9.47563 63.7131C8.48659 63.9963 7.25933 64.1641 5.92982 64.1641C2.65497 64.1641 0 63.1465 0 61.891C0 60.6625 2.54282 59.6623 5.7209 59.6199C4.97291 59.066 4.54192 58.4197 4.54192 57.7292Z" fill="#E1DDF5"/>
<mask id="mask0_1562_11802" style="mask-type:luminance" maskUnits="userSpaceOnUse" x="58" y="0" width="49" height="50">
<path fill-rule="evenodd" clip-rule="evenodd" d="M106.696 35.1133L92.6482 0.344159L58.075 14.3126L72.1227 49.0817L106.696 35.1133Z" fill="white"/>
</mask>
<g mask="url(#mask0_1562_11802)">
<path fill-rule="evenodd" clip-rule="evenodd" d="M68.4301 37.102C73.5205 42.8829 81.8876 45.1366 89.4153 42.0952C98.9584 38.2395 103.552 27.3309 99.6752 17.7362C97.1454 11.4746 91.6568 7.31967 85.4975 6.25063C86.8744 7.80409 88.0226 9.61777 88.8465 11.6569C92.7227 21.251 88.1324 32.1742 78.5917 36.0289C75.2488 37.3795 71.7442 37.6884 68.4301 37.102Z" fill="#FFD474"/>
</g>
<path fill-rule="evenodd" clip-rule="evenodd" d="M52.583 10.7715L50.6674 14.254L47.1667 16.1582L50.6674 18.0604L52.583 21.5429L54.4986 18.0604L58 16.1582L54.4986 14.254L52.583 10.7715Z" fill="#FFD474"/>
<mask id="mask1_1562_11802" style="mask-type:luminance" maskUnits="userSpaceOnUse" x="3" y="36" width="7" height="7">
<path fill-rule="evenodd" clip-rule="evenodd" d="M9.04126 36.5439H3.33046V42.0643H9.04126V36.5439Z" fill="white"/>
</mask>
<g mask="url(#mask1_1562_11802)">
<path fill-rule="evenodd" clip-rule="evenodd" d="M6.18659 36.5439L5.17726 38.3297L3.32993 39.3054L5.17726 40.2811L6.18659 42.0643L7.19593 40.2811L9.04126 39.3054L7.19593 38.3297L6.18659 36.5439Z" fill="#FFD474"/>
</g>
<path fill-rule="evenodd" clip-rule="evenodd" d="M58.4159 52.2002L57.3849 54.0751L55.4999 55.0999L57.3849 56.126L58.4159 58.0002L59.4469 56.126L61.3333 55.0999L59.4469 54.0751L58.4159 52.2002Z" fill="white"/>
</svg>
