<svg width="40" height="40" viewBox="0 0 40 40" fill="none" xmlns="http://www.w3.org/2000/svg">
<path d="M4.64908 33.5955C4.45939 33.5955 4.27746 33.4969 4.14333 33.3213C4.00919 33.1457 3.93384 32.9075 3.93384 32.6592V6.44194C3.93384 6.19361 4.00919 5.95546 4.14333 5.77986C4.27746 5.60426 4.45939 5.50562 4.64908 5.50562C4.83877 5.50562 5.0207 5.60426 5.15483 5.77986C5.28897 5.95546 5.36432 6.19361 5.36432 6.44194V32.6592C5.36432 32.9075 5.28897 33.1457 5.15483 33.3213C5.0207 33.4969 4.83877 33.5955 4.64908 33.5955Z" fill="black"/>
<path d="M37.9078 7.50936C36.0625 5.16854 32.8868 4.40075 29.3249 5.37453V0H0V38.427C0.200268 39.2884 6.69466 40 14.6625 40C22.6302 40 29.1103 39.2884 29.3249 38.427V31.1798C30.9564 30.8117 32.515 30.0187 33.9082 28.8479C35.3014 27.677 36.5009 26.152 37.4357 24.3633C41.0549 18.1835 40.497 10.8052 37.9078 7.50936ZM27.923 37.2472C23.532 37.9968 19.1039 38.3098 14.6768 38.1835C10.2496 38.3113 5.8214 37.9983 1.43048 37.2472V1.87266H27.923V37.2472ZM29.3535 10.7865C31.2131 9.94382 34.0169 9.88764 34.9753 11.0674C36.4916 12.9401 36.8063 17.0787 34.489 21.3296C33.1755 23.5679 31.3903 25.254 29.3535 26.1798V10.7865ZM36.3343 23.2772C34.7494 26.2734 32.3845 28.4105 29.6825 29.2884V27.8839C32.0623 26.8422 34.1464 24.8841 35.6619 22.2659C38.4514 17.1348 37.9221 12.0037 35.9623 9.56929C34.5319 7.84644 31.6709 7.92135 29.6825 8.55805V7.17228C31.3276 6.74157 34.8323 6.21723 36.9065 8.85768C38.9807 11.4981 39.4527 17.8652 36.3343 23.221V23.2772Z" fill="black"/>
</svg>
