<svg width="152" height="174" viewBox="0 0 152 174" fill="none" xmlns="http://www.w3.org/2000/svg">
<path d="M58.0307 47.8785L48.2931 50.8313C48.2931 50.8313 45.3303 61.6762 46.255 63.609C47.1797 65.5417 52.3882 67.0092 54.8603 65.8459C57.3324 64.6827 65.7113 57.077 65.7113 57.077L58.0307 47.8785Z" fill="#FFEDE5"/>
<path d="M66.9564 37.4097C66.9564 37.4097 60.7289 44.1028 58.0303 47.8788L64.9749 58.1689L72.2404 51.9769C72.2404 51.9769 71.0326 34.8506 66.9564 37.4097Z" fill="#543753"/>
<path d="M56.918 48.2184V58.5264L60.0506 50.867L58.0314 47.8784L56.918 48.2184Z" fill="#E0855C"/>
<path d="M56.4455 42.2414C57.2947 42.4382 57.5589 41.8835 58.2571 42.9393C58.9554 43.9952 60.4273 48.1291 60.031 48.7555C59.6347 49.3818 55.2377 53.4084 54.9169 53.4084C54.5961 53.4084 53.7846 52.2809 53.9545 51.8872C53.9545 51.8872 52.9166 52.4778 52.2372 52.3704C52.2372 52.3704 50.7275 53.122 50.1236 52.9789C49.5197 52.8357 45.9908 47.8965 46.8211 46.5901C47.6515 45.2837 48.1799 45.9637 48.6705 45.4447C49.1612 44.9258 49.9915 44.0668 50.9917 44.1562C51.9919 44.2457 52.4448 42.7783 53.8979 42.993C55.351 43.2078 54.5584 41.794 56.4455 42.2414Z" fill="#FFEDE5"/>
<path d="M53.9347 52.0663C53.8592 52.0663 53.8026 52.0305 53.7649 51.9768C53.7083 51.8873 53.746 51.7799 53.8404 51.7441C53.8592 51.7441 55.5577 50.8851 56.0106 50.2588L56.0483 50.223C56.0672 50.223 57.0296 49.3998 57.3504 48.7734L55.7086 45.2479C55.6709 45.1585 55.7086 45.0511 55.803 45.0153C55.8973 44.9795 56.0106 45.0153 56.0483 45.1048L57.7467 48.7734L57.709 48.845C57.4259 49.5251 56.4446 50.3661 56.2936 50.4914C55.7652 51.1894 54.0668 52.0305 53.9913 52.0663C53.9913 52.0484 53.9725 52.0663 53.9347 52.0663Z" fill="#472938"/>
<path d="M52.2175 52.5496C52.142 52.5496 52.0854 52.5138 52.0477 52.4422L49.9529 48.3977C49.9152 48.3083 49.9529 48.2009 50.0473 48.1651C50.1417 48.1293 50.2549 48.1651 50.2926 48.2546L52.3873 52.299C52.4251 52.3885 52.3873 52.4959 52.293 52.5317C52.2741 52.5496 52.2552 52.5496 52.2175 52.5496Z" fill="#472938"/>
<path d="M55.0483 51.44C54.9728 51.44 54.9162 51.4042 54.8784 51.3327L52.9158 47.324C52.8781 47.2345 52.9158 47.1271 53.0102 47.0914C53.1045 47.0556 53.2178 47.0914 53.2555 47.1808L55.2181 51.1895C55.2559 51.279 55.2181 51.3863 55.1238 51.4221C55.1049 51.44 55.0672 51.44 55.0483 51.44Z" fill="#472938"/>
<path d="M54.8975 53.5871C54.5956 53.5871 54.2559 53.1397 54.1238 52.9608C54.0295 52.8355 53.8219 52.5134 53.7464 52.1912C53.3878 52.3523 52.7651 52.6028 52.2556 52.567C51.9536 52.7102 50.6704 53.3008 50.0665 53.1576C49.7268 53.086 49.104 52.2986 48.7644 51.8333C48.7078 51.7438 48.7266 51.6365 48.8021 51.5828C48.8776 51.5291 49.0097 51.547 49.0663 51.6186C49.6513 52.4239 50.0476 52.7639 50.142 52.7997C50.5383 52.8892 51.5573 52.4776 52.1235 52.2091L52.1801 52.1912H52.2367C52.8594 52.2807 53.8219 51.7259 53.8407 51.7259L54.3314 51.4575L54.1238 51.9586C54.1049 52.0123 54.1049 52.1912 54.2936 52.5313C54.5201 52.925 54.7843 53.1755 54.8975 53.2292C55.3693 52.9787 58.4453 50.2227 59.5399 49.1131C58.5208 49.3458 57.5395 48.9342 57.5018 48.9163C57.4074 48.8805 57.3697 48.7731 57.4074 48.6836C57.4452 48.5942 57.5584 48.5584 57.6527 48.5942C57.6716 48.5942 58.8982 49.1131 59.9362 48.5942C60.0683 48.5226 60.1626 48.5584 60.2004 48.6121C60.257 48.6478 60.2947 48.7373 60.257 48.8268C60.1249 49.1489 55.3504 53.5871 54.8975 53.5871Z" fill="#472938"/>
<path d="M88.3009 26.6539L97.7555 32.2911V43.9771C97.7555 43.9771 87.9235 63.3762 88.3009 70.3734L65.7875 74.3642C65.7875 74.3642 60.3903 53.8198 66.9575 37.3914L76.9971 30.6984L88.3009 26.6539Z" fill="#AB8DA8"/>
<path d="M63.7111 57.8644C63.6167 57.8644 63.5224 57.7928 63.5224 57.6854C63.4469 52.7283 63.8621 48.1111 64.7868 43.9235C64.8056 43.834 64.9 43.7625 65.0132 43.7803C65.1076 43.7982 65.183 43.8877 65.1642 43.9951C64.2584 48.1469 63.8243 52.7462 63.9187 57.6675C63.8998 57.7749 63.8243 57.8644 63.7111 57.8644Z" fill="#472938"/>
<path d="M97.7547 43.9952L90.376 42.9393L94.5088 50.8672L97.7547 43.9952Z" fill="#543753"/>
<path d="M85.8468 19.4779L88.3001 26.6541C85.677 27.6205 83.3181 29.1238 81.3932 31.0744C78.1662 34.3314 76.9207 37.4095 74.977 37.4095C73.0332 37.4095 77.0151 30.7165 77.0151 30.7165L76.5056 24.4529L85.8468 19.4779Z" fill="#FFEDE5"/>
<path d="M76.7515 27.6383C76.7515 27.6383 81.073 27.0298 83.281 21.1421L76.4873 24.4528L76.7515 27.6383Z" fill="#E0855C"/>
<path d="M73.5422 4.82104C73.5422 4.82104 69.3717 24.1128 71.5419 25.437C73.7121 26.7613 82.2796 25.616 85.4689 20.2473C88.6581 14.8785 84.6574 4.82104 73.5422 4.82104Z" fill="#FFEDE5"/>
<path d="M72.2035 11.675C72.2035 11.675 68.2783 16.489 68.6746 16.9543C69.0709 17.4196 71.2222 18.0817 71.2222 18.0817L72.2035 11.675Z" fill="#FFEDE5"/>
<path d="M83.9787 17.3303C83.9787 17.3303 82.0161 16.3997 83.2804 12.3374C83.2804 12.3374 80.7328 8.06029 79.0721 7.36235C77.4115 6.66442 73.1843 6.44966 73.1843 6.44966C73.1843 6.44966 72.3351 0.812483 73.7504 0.221921C75.1658 -0.368641 88.2625 -0.0286251 90.7346 4.35585C91.5649 5.8412 91.0365 6.736 91.0365 6.736C91.0365 6.736 92.433 8.48979 92.1877 9.99304C91.9424 11.4963 88.0926 17.0619 88.0926 17.0619L83.9787 17.3303Z" fill="#3B2645"/>
<path d="M87.8958 18.7973C89.2076 17.5533 89.578 15.8877 88.7231 15.077C87.8682 14.2663 86.1118 14.6176 84.8 15.8616C83.4882 17.1056 83.1178 18.7712 83.9727 19.5819C84.8276 20.3926 86.584 20.0413 87.8958 18.7973Z" fill="#FFEDE5"/>
<path d="M73.203 21.1779C72.3161 21.1779 71.5235 20.9452 71.4669 20.9273C71.3725 20.8915 71.3159 20.802 71.3536 20.6947C71.3914 20.6052 71.4857 20.5515 71.5989 20.5873C71.6178 20.5873 74.1843 21.3747 75.0713 20.0862C75.1279 19.9967 75.2411 19.9788 75.3355 20.0325C75.4298 20.0862 75.4487 20.1936 75.3921 20.2831C74.8826 20.981 74.0145 21.1779 73.203 21.1779Z" fill="#472938"/>
<path d="M84.9787 18.1534C84.9221 18.1534 84.8466 18.1176 84.8277 18.0639C84.7711 17.9744 84.79 17.8671 84.8844 17.8134L86.4129 16.9007C86.5073 16.847 86.6205 16.8649 86.6772 16.9544C86.7338 17.0439 86.7149 17.1512 86.6205 17.2049L85.0919 18.1176C85.0542 18.1355 85.0165 18.1534 84.9787 18.1534Z" fill="#472938"/>
<path d="M74.8072 11.693C75.2035 11.7825 75.4488 12.1583 75.3544 12.5162L75.2412 12.9994C75.1468 13.3752 74.7505 13.6078 74.3731 13.5183C73.9768 13.4289 73.7315 13.0531 73.8259 12.6951L73.9391 12.212C74.0334 11.8361 74.4109 11.6035 74.8072 11.693Z" fill="#3B2645"/>
<path d="M74.0145 9.81403C74.0145 9.81403 76.5055 9.65297 77.1472 11.5857C77.1472 11.5857 77.0717 9.56349 75.5054 9.25926C73.939 8.95502 73.4295 9.72455 74.0145 9.81403Z" fill="#3B2645"/>
<path d="M91.6603 28.6583C83.1871 27.2982 88.8107 44.2455 88.8107 44.2455L101.492 47.8784L106.191 34.1881C98.8125 31.11 91.6603 28.6583 91.6603 28.6583Z" fill="#AB8DA8"/>
<path d="M103.474 68.7092C103.474 68.7092 99.0015 70.1945 98.5675 70.8567C98.1334 71.5188 98.5486 73.8632 98.5486 73.8632C98.0768 74.579 97.6994 75.3306 97.4352 76.1359C97.0578 77.335 98.0013 76.977 99.1147 78.194C100.228 79.4109 101.134 79.1066 101.776 79.6614C102.417 80.2162 103.719 80.0372 104.229 80.2699C104.738 80.5025 105.701 81.2899 106.286 81.2541C106.871 81.2183 108.248 79.3214 109.381 76.9412C110.513 74.5611 110.305 72.6283 110.815 69.765C111.324 66.9017 123.232 48.4869 121.836 43.4939C121.138 41.0064 113.551 37.2841 106.173 34.1881L101.474 47.8784L108.192 49.8112L103.474 68.7092Z" fill="#FFEDE5"/>
<path d="M110.21 50.4912C110.191 50.4912 110.172 50.4912 110.153 50.4912L108.134 49.9722C108.04 49.9543 107.964 49.847 108.002 49.7575C108.021 49.668 108.134 49.6143 108.229 49.6322L110.248 50.1512C110.342 50.1691 110.418 50.2765 110.38 50.3659C110.38 50.4375 110.304 50.4912 110.21 50.4912Z" fill="#472938"/>
<path d="M125.552 114.612L132.893 111.122C132.893 111.122 132.723 109.762 134.195 108.223C135.667 106.684 134.572 103.123 133.195 102.55C131.817 101.978 131.138 102.371 129.949 100.528L119.324 104.895L125.552 114.612Z" fill="#FFEDE5"/>
<path d="M133.177 102.55C134.554 103.123 135.63 106.684 134.177 108.223C132.724 109.762 132.875 111.122 132.875 111.122C139.159 111.928 145.065 120.661 146.179 121.645C147.292 122.629 151.802 121.931 151.935 121.198C152.067 120.464 142.272 95.9645 141.367 95.4277C140.461 94.8908 129.931 100.528 129.931 100.528C131.12 102.371 131.799 101.978 133.177 102.55Z" fill="#AB8DA8"/>
<path d="M151.934 121.198C152.047 120.464 142.272 95.9646 141.366 95.4278C141.14 95.2846 140.309 95.5351 139.215 95.9825C141.819 100.886 148.462 117.78 150.104 121.967C151.085 121.788 151.877 121.502 151.934 121.198Z" fill="#E5E5E5"/>
<path d="M68.957 88.7346C68.957 88.7346 85.7902 130.611 92.8858 131.166C99.9814 131.72 128.779 113.377 128.779 113.377L123.42 103.194L99.0945 110.8L93.0368 84.5112L68.957 88.7346Z" fill="#8C80F8"/>
<g opacity="0.5">
<path opacity="0.5" d="M93.0368 84.5291L68.957 88.7346C68.957 88.7346 73.2786 99.4721 78.4493 110.138L95.0372 93.298L93.0368 84.5291Z" fill="#3B2645"/>
</g>
<path d="M24.7224 149.133L21.4766 156.273C21.4766 156.273 22.5334 157.222 22.4579 159.28C22.3824 161.338 25.6283 163.414 27.0813 163.002C28.5344 162.591 28.7798 161.875 30.95 162.573L36.1207 152.73L24.7224 149.133Z" fill="#FFEDE5"/>
<path d="M23.5898 151.621C23.5898 151.621 28.0435 156.041 33.8747 156.972L36.1015 152.73L24.7221 149.115L23.5898 151.621Z" fill="#E0855C"/>
<path d="M88.2996 70.3912C88.2996 70.3912 98.1504 81.2182 93.0174 89.8082C87.8844 98.3982 57.2941 114.182 55.2182 119.032C53.1424 123.882 51.9724 129.483 47.7263 136.212C43.4803 142.941 36.7055 154.806 36.7055 154.806C36.7055 154.806 26.4584 154.43 23.1182 150.225C23.1182 150.225 39.6494 110.549 43.5935 105.413C47.5376 100.277 66.1447 78.5159 66.1447 78.5159L65.7673 74.382L88.2996 70.3912Z" fill="#8C80F8"/>
<path d="M32.0442 153.392C32.0254 153.392 32.0254 153.392 32.0065 153.392C31.9688 153.374 31.931 153.321 31.9688 153.267C32.1575 152.891 50.3683 116.097 54.0104 111.802C55.3503 110.21 59.2944 106.469 63.8424 102.139C71.6362 94.7297 81.3172 85.5133 82.6193 82.6858C84.6574 78.2834 83.2987 72.0915 83.2798 72.0199C83.2609 71.9662 83.2987 71.9304 83.3553 71.9125C83.4119 71.8946 83.4497 71.9304 83.4685 71.9841C83.4874 72.0378 84.8461 78.3013 82.7892 82.7574C81.4682 85.6028 71.7683 94.8371 63.9745 102.264C59.4265 106.595 55.5013 110.317 54.1614 111.91C50.5381 116.187 32.3273 152.963 32.1575 153.339C32.1197 153.374 32.082 153.392 32.0442 153.392Z" fill="white"/>
<path d="M29.4603 152.837C29.4414 152.837 29.4414 152.837 29.4225 152.837C29.3848 152.82 29.347 152.766 29.3848 152.712C29.5735 152.336 48.4636 114.433 50.6527 111.248C51.7661 109.619 58.4088 102.962 64.8251 96.5372C71.1658 90.1841 77.733 83.5985 78.9974 81.8447C81.5261 78.3371 80.9978 72.6462 80.9978 72.5925C80.9978 72.5388 81.0355 72.5031 81.0921 72.5031C81.1487 72.5031 81.1865 72.5388 81.1865 72.5925C81.1865 72.6462 81.7337 78.4087 79.1484 81.9699C77.8651 83.7416 71.2979 90.3273 64.9572 96.6982C58.5409 103.123 51.9171 109.78 50.8037 111.391C48.6335 114.576 29.7245 152.462 29.5357 152.837C29.5357 152.82 29.498 152.837 29.4603 152.837Z" fill="white"/>
<path d="M27.0629 163.02C25.6287 163.414 22.364 161.356 22.4395 159.298C22.5149 157.24 21.4582 156.292 21.4582 156.292C16.0987 159.513 5.66289 156.435 4.13431 156.363C2.60574 156.291 -0.375925 159.584 0.0392434 160.211C0.454412 160.837 24.553 173.615 25.6287 173.489C26.7044 173.364 30.9127 162.609 30.9127 162.609C28.7613 161.893 28.516 162.627 27.0629 163.02Z" fill="#AB8DA8"/>
<path d="M0.0586667 160.211C0.454964 160.837 24.5725 173.615 25.6481 173.489C25.9123 173.454 26.3841 172.773 26.9125 171.753C21.5908 169.588 5.02181 160.712 0.945617 158.51C0.303993 159.226 -0.111175 159.942 0.0586667 160.211Z" fill="#E5E5E5"/>
<g opacity="0.5">
<path opacity="0.5" d="M66.1461 78.516C66.1461 78.516 77.3368 77.1917 77.2235 77.2275C77.1103 77.2633 65.9951 76.7622 65.9951 76.7622L66.1461 78.516Z" fill="#8C80F8"/>
</g>
</svg>
