<svg width="72" height="76" viewBox="0 0 72 76" fill="none" xmlns="http://www.w3.org/2000/svg">
<g clip-path="url(#clip0_1661_15253)">
<path fill-rule="evenodd" clip-rule="evenodd" d="M30.8386 3.94135C34.0136 2.02809 37.9864 2.02809 41.1614 3.94135L62.3383 16.7028C65.341 18.5122 67.1769 21.762 67.1769 25.2678V51.5443C67.1769 55.0501 65.341 58.2999 62.3383 60.1094L41.1614 72.8708C37.9864 74.784 34.0136 74.784 30.8386 72.8708L9.66171 60.1094C6.65897 58.2999 4.82309 55.0501 4.82309 51.5443V25.2678C4.82309 21.762 6.65897 18.5122 9.6617 16.7028L30.8386 3.94135Z" fill="#8C80F8"/>
<path opacity="0.4" d="M61 38.0592C61 52.1821 50.031 63.6311 36.5 63.6311C22.969 63.6311 12 52.1821 12 38.0592C12 23.9362 22.969 12.4873 36.5 12.4873C50.031 12.4873 61 23.9362 61 38.0592ZM18.125 38.0592C18.125 48.6514 26.3518 57.2381 36.5 57.2381C46.6482 57.2381 54.875 48.6514 54.875 38.0592C54.875 27.467 46.6482 18.8803 36.5 18.8803C26.3518 18.8803 18.125 27.467 18.125 38.0592Z" fill="white"/>
<path d="M36.5 15.6838C36.5 13.9184 37.9376 12.465 39.6867 12.7045C42.9307 13.1487 46.0677 14.2682 48.9075 16.009C52.6692 18.315 55.7728 21.6274 57.8976 25.6042C60.0223 29.5809 61.0913 34.0777 60.9939 38.6299C60.8965 43.1821 59.6364 47.6246 57.3437 51.4985C55.051 55.3723 51.8089 58.5369 47.9524 60.6653C44.0958 62.7937 39.7647 63.8088 35.4066 63.6056C31.0485 63.4024 26.8214 61.9883 23.162 59.5094C20.3131 57.5795 17.8888 55.0588 16.0333 52.1155C15.1458 50.7077 15.7609 48.894 17.236 48.1233C18.7843 47.3144 20.6766 47.9691 21.6807 49.3986C22.9921 51.2657 24.6217 52.8768 26.4965 54.1469C29.241 56.006 32.4114 57.0666 35.68 57.219C38.9486 57.3714 42.1969 56.6101 45.0893 55.0138C47.9817 53.4175 50.4132 51.044 52.1328 48.1386C53.8523 45.2333 54.7974 41.9014 54.8704 38.4872C54.9434 35.0731 54.1418 31.7005 52.5482 28.7179C50.9546 25.7354 48.6269 23.251 45.8056 21.5216C43.9069 20.3576 41.831 19.564 39.679 19.1695C37.9426 18.8511 36.5 17.4492 36.5 15.6838Z" fill="white"/>
<path d="M29.4775 42.4384C29.1335 42.4384 28.8015 42.3824 28.4815 42.2704C28.1695 42.1504 27.8895 41.9464 27.6415 41.6584C27.3935 41.3624 27.2015 40.9504 27.0655 40.4224C26.9295 39.8864 26.8695 39.1984 26.8855 38.3584C26.9095 36.7744 27.1655 35.6184 27.6535 34.8904C28.1415 34.1544 28.8335 33.7864 29.7295 33.7864C30.1535 33.7864 30.5575 33.9024 30.9415 34.1344C31.3255 34.3584 31.6295 34.6384 31.8535 34.9744L30.8935 35.7184C30.7495 35.4864 30.5815 35.3064 30.3895 35.1784C30.2055 35.0504 29.9855 34.9864 29.7295 34.9864C29.1935 34.9864 28.7935 35.2344 28.5295 35.7304C28.2735 36.2264 28.1375 36.9624 28.1215 37.9384C28.2575 37.7384 28.4495 37.5824 28.6975 37.4704C28.9535 37.3504 29.2095 37.2904 29.4655 37.2904C29.9135 37.2904 30.3135 37.3944 30.6655 37.6024C31.0175 37.8024 31.2935 38.0904 31.4935 38.4664C31.7015 38.8344 31.8055 39.2744 31.8055 39.7864C31.8055 40.2984 31.7095 40.7544 31.5175 41.1544C31.3255 41.5544 31.0535 41.8704 30.7015 42.1024C30.3575 42.3264 29.9495 42.4384 29.4775 42.4384ZM29.3935 41.2144C29.7455 41.2144 30.0175 41.0824 30.2095 40.8184C30.4095 40.5544 30.5095 40.2104 30.5095 39.7864C30.5095 39.3864 30.4095 39.0664 30.2095 38.8264C30.0175 38.5784 29.7615 38.4544 29.4415 38.4544C29.0735 38.4544 28.7855 38.5784 28.5775 38.8264C28.3695 39.0744 28.2735 39.3984 28.2895 39.7984C28.3055 40.2544 28.4095 40.6064 28.6015 40.8544C28.7935 41.0944 29.0575 41.2144 29.3935 41.2144ZM34.8426 42.3904C34.3386 42.3904 33.8706 42.2664 33.4386 42.0184C33.0066 41.7704 32.6666 41.4384 32.4186 41.0224L33.4986 40.3384C33.6586 40.5864 33.8466 40.7864 34.0626 40.9384C34.2866 41.0904 34.5466 41.1664 34.8426 41.1664C35.2906 41.1664 35.6266 41.0344 35.8506 40.7704C36.0826 40.4984 36.1986 40.1224 36.1986 39.6424C36.1986 39.1224 36.0986 38.7464 35.8986 38.5144C35.7066 38.2744 35.4346 38.1544 35.0826 38.1544C34.8586 38.1544 34.6586 38.2024 34.4826 38.2984C34.3066 38.3944 34.1786 38.5384 34.0986 38.7304H32.9106V33.9184H37.1826V35.0944H34.1946V37.3024C34.3306 37.2064 34.4786 37.1304 34.6386 37.0744C34.7986 37.0104 34.9586 36.9784 35.1186 36.9784C35.5666 36.9784 35.9666 37.0784 36.3186 37.2784C36.6786 37.4784 36.9626 37.7744 37.1706 38.1664C37.3866 38.5584 37.4946 39.0504 37.4946 39.6424C37.4946 40.5144 37.2506 41.1904 36.7626 41.6704C36.2746 42.1504 35.6346 42.3904 34.8426 42.3904ZM40.1193 38.1304C39.5513 38.1304 39.0953 37.9344 38.7513 37.5424C38.4073 37.1504 38.2353 36.6144 38.2353 35.9344C38.2353 35.2704 38.4073 34.7464 38.7513 34.3624C39.0953 33.9704 39.5513 33.7744 40.1193 33.7744C40.6793 33.7744 41.1313 33.9704 41.4753 34.3624C41.8193 34.7464 41.9913 35.2704 41.9913 35.9344C41.9913 36.6144 41.8193 37.1504 41.4753 37.5424C41.1313 37.9344 40.6793 38.1304 40.1193 38.1304ZM44.5833 42.4504C44.0233 42.4504 43.5673 42.2584 43.2153 41.8744C42.8713 41.4824 42.6993 40.9544 42.6993 40.2904C42.6993 39.6184 42.8713 39.0864 43.2153 38.6944C43.5673 38.3024 44.0233 38.1064 44.5833 38.1064C45.1513 38.1064 45.6073 38.3024 45.9513 38.6944C46.2953 39.0864 46.4673 39.6184 46.4673 40.2904C46.4673 40.9544 46.2953 41.4824 45.9513 41.8744C45.6073 42.2584 45.1513 42.4504 44.5833 42.4504ZM39.6033 42.5824L38.9793 42.1384L45.0993 33.6304L45.7113 34.0744L39.6033 42.5824ZM44.5833 41.4544C45.1753 41.4544 45.4713 41.0664 45.4713 40.2904C45.4713 39.5064 45.1753 39.1144 44.5833 39.1144C44.3033 39.1144 44.0833 39.2144 43.9233 39.4144C43.7713 39.6064 43.6953 39.8984 43.6953 40.2904C43.6953 40.6744 43.7713 40.9664 43.9233 41.1664C44.0833 41.3584 44.3033 41.4544 44.5833 41.4544ZM40.1193 37.1224C40.7033 37.1224 40.9953 36.7264 40.9953 35.9344C40.9953 35.1664 40.7033 34.7824 40.1193 34.7824C39.5273 34.7824 39.2313 35.1664 39.2313 35.9344C39.2313 36.7264 39.5273 37.1224 40.1193 37.1224Z" fill="white"/>
</g>
<defs>
<clipPath id="clip0_1661_15253">
<rect width="72" height="75.15" fill="white" transform="translate(0 0.831055)"/>
</clipPath>
</defs>
</svg>
