<svg width="206" height="295" viewBox="0 0 206 295" fill="none" xmlns="http://www.w3.org/2000/svg">
<g clip-path="url(#clip0_1319_2)">
<path d="M99.5687 294.228C94.9076 294.236 90.2592 293.742 85.7036 292.753C77.7409 291.112 70.2402 287.72 63.7418 282.822C57.2434 277.924 51.909 271.641 48.1231 264.426C45.1188 257.677 42.8871 250.608 41.4706 243.356L41.1438 241.974C36.4754 222.028 30.5933 200.934 19.7393 181.878C17.9886 178.811 16.0746 175.744 14.2306 172.794C9.76935 166.115 5.99213 159.001 2.95643 151.56C-1.71196 138.801 -0.848302 126.112 5.52404 117.754C6.36345 116.456 7.45564 115.341 8.73513 114.476C10.0146 113.611 11.4551 113.014 12.9701 112.721C13.8933 112.609 14.8296 112.688 15.7209 112.954C16.6123 113.22 17.4397 113.666 18.152 114.266C18.7077 114.71 19.1633 115.268 19.4892 115.901C19.815 116.534 20.0036 117.23 20.0427 117.942H18.5255C18.489 117.445 18.3497 116.962 18.1166 116.523C17.8835 116.083 17.5617 115.697 17.1717 115.39C16.6175 114.928 15.9767 114.583 15.2871 114.373C14.5976 114.164 13.8732 114.096 13.1569 114.172C10.5271 114.773 8.22874 116.366 6.73782 118.62C0.692265 126.604 -0.264754 138.707 4.40363 150.975C7.41362 158.362 11.1678 165.422 15.6078 172.045C17.4518 175.018 19.3658 178.085 21.1398 181.175C32.0171 200.372 37.9693 221.583 42.6377 241.646L42.9645 243.028C44.3513 250.161 46.544 257.112 49.5002 263.747C53.1793 270.758 58.3647 276.863 64.682 281.62C70.9993 286.377 78.2909 289.668 86.0304 291.255C101.68 294.366 117.918 292.158 132.177 284.981C137.887 282.429 143.042 278.778 147.35 274.235C151.732 268.915 155.109 262.838 157.317 256.302C161.215 246.048 164.319 235.232 167.12 224.814C171.438 209.269 175.897 193.185 183.46 178.623C185.794 174.363 188.128 170.172 190.602 166.122C195.235 158.853 199.144 151.145 202.273 143.109C204.957 135.477 205.074 129.062 202.647 124.38C201.794 122.818 200.61 121.464 199.178 120.412C197.747 119.36 196.102 118.637 194.36 118.293C193.145 118.004 191.879 118.004 190.663 118.293C189.447 118.582 188.316 119.151 187.358 119.955L186.354 118.808C187.48 117.841 188.816 117.152 190.254 116.794C191.693 116.437 193.195 116.421 194.64 116.748C196.616 117.157 198.478 117.998 200.092 119.212C201.706 120.426 203.032 121.983 203.977 123.771C206.615 128.921 206.498 135.617 203.674 143.67C200.512 151.808 196.54 159.605 191.816 166.941C189.482 170.991 186.914 175.159 184.813 179.373C177.344 193.794 172.909 209.807 168.614 225.259C165.696 235.747 162.685 246.586 158.74 256.887C156.484 263.604 153.019 269.849 148.517 275.312C144.067 280 138.747 283.769 132.854 286.409C122.48 291.474 111.107 294.146 99.5687 294.228Z" fill="#AB8DA8"/>
<path d="M116.701 21.628C117.908 19.7066 118.599 17.505 118.708 15.2367C118.84 14.218 118.748 13.1827 118.437 12.2038C118.126 11.2249 117.606 10.3262 116.911 9.57118C116.328 9.00931 115.604 8.5645 115.067 7.95581C114.53 7.34712 114.273 6.71501 113.83 6.12973C113.349 5.50183 112.731 4.99354 112.022 4.64436C111.314 4.29518 110.535 4.1145 109.745 4.11636C108.135 4.11636 106.431 4.86552 105.077 4.11636C104.236 3.69496 103.676 2.85216 102.743 2.38393C101.864 1.93536 100.856 1.81105 99.8949 2.03277C99.0555 2.3264 98.169 2.46135 97.2806 2.43076C96.0201 2.24347 95.1565 1.11973 94.036 0.487624C93.4601 0.192286 92.8267 0.0268828 92.1803 0.00301214C91.5339 -0.0208585 90.8901 0.0973814 90.2941 0.349441C89.698 0.6015 89.1642 0.981277 88.73 1.46214C88.2957 1.94301 87.9716 2.51332 87.7804 3.13309C87.6282 3.72429 87.6282 4.34456 87.7804 4.93576C88.0372 6.36384 89.0175 7.51099 89.0876 8.93908C89.1576 10.3672 88.2939 11.608 89.0876 12.8722C89.8812 14.1364 91.0483 14.1832 91.6085 15.3772C92.3554 16.9925 91.6085 19.0996 92.2854 20.832C92.6355 21.9323 92.8223 23.5009 93.8493 24.2032C95.2732 25.1865 98.3776 24.3671 100.082 24.2032L106.687 23.6647C109.605 23.3838 113.2 23.6647 115.837 22.2132C116.156 22.068 116.448 21.8701 116.701 21.628Z" fill="#3B2645"/>
<path d="M94.2935 20.5969C94.0617 20.2777 93.758 20.0179 93.4071 19.8388C93.0562 19.6597 92.6681 19.5664 92.2744 19.5664C91.8807 19.5664 91.4926 19.6597 91.1417 19.8388C90.7908 20.0179 90.4871 20.2777 90.2553 20.5969C88.2246 22.938 91.6558 27.6203 94.2935 27.9012C94.447 25.4689 94.447 23.0292 94.2935 20.5969Z" fill="#E0855C"/>
<path d="M127.089 59.8133C126.474 63.7568 125.648 67.6643 124.615 71.5189C124.451 72.2447 124.311 72.947 124.218 73.6259C124.124 74.3049 124.031 74.8199 123.914 75.6861C123.914 75.85 123.914 76.0373 123.914 76.2012C123.914 76.763 123.751 77.3483 123.681 77.9804L120.74 105.489C102.463 110.522 83.3928 105.489 83.3928 105.489C83.3928 105.489 83.3928 105.137 83.3928 104.459C83.0893 101.345 82.1557 91.4419 81.222 80.2747C81.222 80.2747 81.222 80.1108 81.222 80.0406C81.2314 79.8691 81.2314 79.6971 81.222 79.5256C80.8252 74.8433 80.4517 69.8801 80.1483 65.1511C79.5881 56.9337 79.2379 49.3485 79.308 44.6428C79.308 42.9104 83.3461 43.0977 86.1004 42.7231C88.1312 42.4422 90.2086 42.2549 92.006 42.1612C93.8033 42.0676 95.1571 42.0208 96.0674 42.0208H97.0945C97.0945 42.0208 97.3279 39.3285 97.3279 39.3051L97.9581 32.7031C98.2646 32.7823 98.5768 32.8371 98.8918 32.867C99.4695 32.9755 100.055 33.0382 100.642 33.0543C101.413 33.0543 102.136 33.0543 102.813 33.0543L103.817 32.9372H104.401C105.054 32.8201 105.684 32.6797 106.268 32.5158C106.851 32.3519 107.038 32.2817 107.412 32.1646C109.117 31.6166 110.736 30.8283 112.22 29.8235L112.43 29.683L112.827 29.3787L113.107 29.168C113.107 29.4957 113.107 29.6362 113.107 29.7767C112.92 31.3218 112.71 33.2884 112.617 35.2315C112.617 36.5894 112.477 37.9238 112.43 39.0709C112.383 40.2181 112.01 41.8803 112.827 42.4656C113.118 42.6298 113.433 42.7483 113.761 42.8167C115.042 43.0196 116.339 43.1058 117.635 43.0743C118.032 43.0743 118.429 43.0743 118.826 43.0743C119.821 43.0161 120.819 43.0161 121.814 43.0743C122.509 43.0722 123.198 43.21 123.839 43.4794C124.481 43.7488 125.062 44.1444 125.548 44.6428C126.153 45.5212 126.538 46.5332 126.669 47.5926L126.949 49.5124C127.393 52.929 127.44 56.3858 127.089 59.8133Z" fill="#FFEDE5"/>
<path d="M113.014 29.002C112.698 30.6774 112.016 32.2619 111.017 33.6415C110.018 35.021 108.727 36.1615 107.236 36.9808C105.745 37.8001 104.091 38.2779 102.394 38.3798C100.697 38.4818 98.9989 38.2054 97.4211 37.5705L97.8646 32.7244C100.508 33.2358 103.23 33.168 105.845 32.5255C108.46 31.883 110.905 30.681 113.014 29.002Z" fill="#E0855C"/>
<path d="M94.7608 13.5742C93.4069 14.9789 93.2902 18.116 93.1968 21.5808C92.8467 32.1159 95.9979 35.3935 101.343 35.9788C106.688 36.564 112.314 34.4804 113.458 24.7414C114.041 19.8484 114.648 15.3769 112.874 13.2464C110.33 10.1093 98.8689 9.26658 94.7608 13.5742Z" fill="#FFEDE5"/>
<path d="M112.664 23.314C112.664 23.314 114.298 18.9595 116.889 21.2772C119.48 23.5949 115.909 30.1735 111.941 29.6818C111.987 29.6818 111.45 24.8123 112.664 23.314Z" fill="#FFEDE5"/>
<path d="M115.745 23.2677C115.132 23.4597 114.583 23.8159 114.158 24.2978C113.676 24.7017 113.286 25.2047 113.014 25.7727C113.014 25.9366 113.177 26.0537 113.294 25.9366C113.623 25.6099 113.935 25.2661 114.228 24.9065C114.441 25.142 114.704 25.3261 114.998 25.445C115.231 25.445 115.418 25.2343 115.325 25.047C115.163 24.7991 114.948 24.591 114.695 24.4383C115.13 24.1584 115.544 23.8454 115.932 23.5019C115.939 23.4737 115.94 23.4442 115.933 23.4158C115.927 23.3873 115.915 23.3607 115.897 23.3379C115.879 23.3152 115.855 23.297 115.829 23.2849C115.803 23.2727 115.774 23.2668 115.745 23.2677Z" fill="#E0855C"/>
<path d="M97.7947 21.3473C97.7947 21.3473 96.8844 21.675 97.0244 20.0597C97.1645 18.4443 97.7947 18.8189 97.7947 18.8189C97.7947 18.8189 98.4249 18.8189 98.3316 20.0831C98.2382 21.3473 97.7947 21.3473 97.7947 21.3473Z" fill="#3B2645"/>
<path d="M106.968 21.3473C106.968 21.3473 106.081 21.675 106.221 20.0597C106.361 18.4443 106.968 18.8189 106.968 18.8189C106.968 18.8189 107.598 18.8189 107.505 20.0831C107.412 21.3473 106.968 21.3473 106.968 21.3473Z" fill="#3B2645"/>
<path d="M98.7753 16.4547C98.4085 16.2464 97.9857 16.1592 97.5667 16.2054C97.1478 16.2517 96.7539 16.429 96.4411 16.7122C96.4252 16.7443 96.4178 16.7798 96.4194 16.8155C96.421 16.8512 96.4317 16.8859 96.4504 16.9163C96.469 16.9468 96.4951 16.9719 96.5262 16.9895C96.5572 17.007 96.5922 17.0163 96.6278 17.0166C96.9546 17.0166 97.2347 16.8293 97.5615 16.8059C97.9038 16.7895 98.2457 16.8454 98.5652 16.9698C98.8686 17.0634 99.0787 16.5952 98.7753 16.4547Z" fill="#3B2645"/>
<path d="M108.345 17.2503C107.972 16.3138 106.361 16.2436 105.661 16.8055C105.627 16.8317 105.6 16.8654 105.581 16.904C105.562 16.9425 105.552 16.9849 105.552 17.0279C105.552 17.0708 105.562 17.1132 105.581 17.1518C105.6 17.1903 105.627 17.224 105.661 17.2503C106.08 17.2853 106.502 17.2853 106.921 17.2503C107.261 17.3051 107.591 17.4076 107.902 17.5546C107.942 17.6136 108.004 17.6541 108.074 17.6673C108.144 17.6805 108.216 17.6652 108.275 17.6249C108.334 17.5845 108.375 17.5224 108.388 17.4521C108.401 17.3819 108.386 17.3093 108.345 17.2503Z" fill="#3B2645"/>
<path d="M99.6387 28.8856C101.608 29.1445 103.609 28.8018 105.381 27.9023C105.116 28.527 104.723 29.0892 104.229 29.5529C103.735 30.0165 103.149 30.3714 102.51 30.5946C100.479 31.1565 99.6387 28.8856 99.6387 28.8856Z" fill="white"/>
<path d="M87.8506 44.6185C93.2192 48.3877 93.7094 55.7154 91.0951 61.5682C89.3211 65.4779 86.0299 68.217 84.0925 71.916C82.0736 75.5035 79.7295 78.8969 77.0899 82.0531C71.3011 89.4276 65.7924 96.0998 63.6683 98.6282C56.3623 107.384 41.0033 118.949 35.4713 122.975C34.2108 123.912 33.4639 124.427 33.4639 124.427C33.4639 124.427 28.1652 121.641 29.5658 116.49C29.5658 116.49 50.5735 94.1099 53.678 89.5447C57.1087 83.6109 60.2253 77.4999 63.0147 71.2371C66.5938 64.2917 70.3208 57.4401 74.1955 50.682C75.9695 47.5683 78.2337 43.6586 82.1318 42.9563C83.7049 42.779 85.2931 43.1156 86.6601 43.9162C87.0731 44.1215 87.471 44.3562 87.8506 44.6185Z" fill="#FFEDE5"/>
<path d="M29.5665 116.513C30.1414 116.469 30.7188 116.469 31.2938 116.513C31.2938 116.513 36.3356 119.323 35.472 122.975C35.472 122.975 34.9351 123.467 34.0948 124.216C33.2545 124.965 32.3441 125.855 31.2471 126.978C30.15 128.102 27.6524 131.661 26.5787 131.356C26.3284 131.263 26.1098 131.101 25.9485 130.888L23.7777 128.547C22.5639 127.189 20.5331 124.895 22.0737 123.092C20.9533 123.771 18.339 125.433 17.0552 124.637L16.5183 123.771C16.5183 123.771 20.3697 120.891 21.957 119.463C24.0982 117.663 26.7744 116.625 29.5665 116.513Z" fill="#FFEDE5"/>
<path d="M94.2236 80.4844C94.2155 80.6093 94.2155 80.7346 94.2236 80.8595C94.2236 80.8595 94.4339 80.8595 94.3872 80.8595L94.2236 80.4844Z" fill="#D6BED3"/>
<path d="M102.883 156.359C100.736 173.613 98.2147 188.62 98.2147 188.62C98.5648 192.787 98.7282 197.305 98.7282 201.941C98.7282 211.024 98.1213 220.67 97.351 229.168C96.3707 240.008 95.0169 249.232 94.4333 253.867V254.452C95.297 285.191 86.5671 289.265 82.4822 282.546C78.3974 275.827 82.4822 256.021 82.4822 256.021C82.4954 255.842 82.4954 255.662 82.4822 255.482C80.7637 246.284 79.6177 236.987 79.051 227.646C77.6505 205.031 80.0547 189.556 79.7746 186.747C74.8961 137.583 81.712 110.473 81.712 110.473C82.7761 106.534 84.6973 102.88 87.3374 99.7746C92.3092 94.39 98.2847 95.7478 102.043 102.326C102.438 103.001 102.796 103.696 103.117 104.41C104.648 108.188 105.516 112.204 105.684 116.279C106.058 126.463 104.634 142.172 102.883 156.359Z" fill="#FFEDE5"/>
<path d="M126.996 226.454C126.453 235.99 125.314 245.482 123.588 254.875L123.378 256.023C123.378 256.023 127.462 275.899 123.378 282.547C119.293 289.196 110.656 285.31 111.427 254.875C111.427 254.735 111.427 254.594 111.427 254.477C110.773 250.076 109.466 240.548 108.439 229.263C107.645 220.695 107.038 211.096 107.038 202.013C107.038 197.331 107.225 192.836 107.575 188.645C107.575 188.645 104.984 173.638 102.907 156.408C101.156 142.197 99.7089 126.488 100.316 116.398C100.49 112.321 101.367 108.305 102.907 104.528C103.213 103.793 103.571 103.081 103.98 102.398C108.299 94.8825 115.488 94.227 120.787 102.702C122.304 105.159 123.497 107.803 124.335 110.569C124.335 110.569 131.15 137.609 126.272 186.842C125.922 189.605 128.233 204.541 126.996 226.454Z" fill="#FFEDE5"/>
<path d="M29.0058 131.707C29.4709 132.247 30.0485 132.678 30.6979 132.969C31.3473 133.261 32.0526 133.405 32.7639 133.393C33.0897 133.317 33.3968 133.175 33.6665 132.977C33.9363 132.778 34.1631 132.527 34.3333 132.238C34.5034 131.949 34.6135 131.629 34.6567 131.296C34.6998 130.963 34.6753 130.625 34.5846 130.302C34.3131 129.59 33.8724 128.955 33.3008 128.453C29.7761 124.941 26.1581 121.43 22.4934 118.175C21.881 117.483 21.0626 117.007 20.1592 116.818C19.3192 116.817 18.5062 117.116 17.865 117.66C17.2239 118.205 16.7961 118.96 16.658 119.791C16.658 121.289 17.9418 121.851 18.9922 122.694C22.3067 125.644 25.6213 128.734 29.0058 131.707Z" fill="#3B2645"/>
<path d="M28.4921 127.563C28.6374 127.413 28.7558 127.239 28.8422 127.048C28.9014 126.806 28.9048 126.554 28.8522 126.311C28.7997 126.067 28.6925 125.839 28.5388 125.644C27.6751 124.216 25.9011 121.921 24.1505 121.711C23.5725 121.681 22.9969 121.804 22.4809 122.067C21.9649 122.33 21.5266 122.723 21.2094 123.209C20.6856 123.965 20.3525 124.837 20.2386 125.75C20.1248 126.664 20.2336 127.591 20.5558 128.453C21.0682 130.004 22.1206 131.317 23.5203 132.152C24.2187 132.449 25.0045 132.464 25.7135 132.193C26.4224 131.923 26.9998 131.388 27.325 130.701C27.6751 129.834 27.5584 128.781 28.1186 128.055C28.2249 127.878 28.3501 127.713 28.4921 127.563Z" fill="#FFEDE5"/>
<path d="M117.822 44.6178C112.43 48.387 111.94 55.7147 114.578 61.5675C116.328 65.4772 119.62 68.2163 121.58 71.9153C123.616 75.4924 125.959 78.8844 128.583 82.0524C134.372 89.4269 139.904 96.0991 142.005 98.6275C149.334 107.43 164.693 118.948 170.225 122.975L172.256 124.426C172.256 124.426 177.531 121.64 176.13 116.49C176.13 116.49 155.123 94.1092 152.018 89.544C148.578 83.6153 145.461 77.5038 142.681 71.2364C139.087 64.213 135.375 57.4472 131.477 50.6813C129.703 47.5676 127.463 43.6579 123.541 42.9556C121.968 42.78 120.38 43.1165 119.013 43.9155C118.599 44.1198 118.201 44.3545 117.822 44.6178Z" fill="#FFEDE5"/>
<path d="M176.107 116.513C175.524 116.469 174.939 116.469 174.357 116.513C174.357 116.513 169.315 119.323 170.178 122.975C170.178 122.975 170.739 123.466 171.556 124.215C172.373 124.965 173.33 125.854 174.403 126.978C175.477 128.102 178.021 131.66 179.072 131.356C179.318 131.257 179.536 131.096 179.702 130.888L181.849 128.547C183.086 127.189 185.094 124.894 183.577 123.092C184.674 123.771 187.288 125.433 188.595 124.637L189.039 123.771C189.039 123.771 185.187 120.891 183.577 119.463C181.477 117.685 178.852 116.649 176.107 116.513Z" fill="#FFEDE5"/>
<path d="M176.644 131.708C176.179 132.248 175.601 132.679 174.952 132.97C174.303 133.261 173.597 133.406 172.886 133.394C172.556 133.323 172.244 133.185 171.969 132.989C171.694 132.793 171.462 132.542 171.287 132.253C171.112 131.964 170.998 131.641 170.952 131.306C170.906 130.971 170.929 130.629 171.019 130.303C171.31 129.623 171.758 129.021 172.326 128.548C175.858 125.036 179.469 121.61 183.157 118.27C183.766 117.574 184.586 117.097 185.491 116.912C186.328 116.913 187.138 117.212 187.775 117.757C188.413 118.302 188.836 119.056 188.969 119.885C188.969 121.384 187.708 121.946 186.635 122.788C183.343 125.645 180.029 128.735 176.644 131.708Z" fill="#3B2645"/>
<path d="M177.181 127.563C177.022 127.42 176.894 127.245 176.807 127.048C176.758 126.804 176.762 126.553 176.818 126.31C176.875 126.068 176.982 125.841 177.134 125.644C177.975 124.216 179.748 121.921 181.499 121.711C182.077 121.681 182.653 121.804 183.169 122.067C183.685 122.33 184.123 122.723 184.44 123.209C184.958 123.968 185.282 124.844 185.384 125.758C185.486 126.672 185.362 127.598 185.024 128.453C184.527 130.012 183.47 131.33 182.059 132.152C181.361 132.449 180.575 132.464 179.866 132.193C179.157 131.923 178.58 131.388 178.255 130.701C177.928 129.834 178.045 128.781 177.461 128.055L177.181 127.563Z" fill="#FFEDE5"/>
<path d="M127.346 211.445V213.786C127.346 215.355 127.346 216.97 127.346 218.632V220.529C127.346 222.448 127.206 224.438 127.112 226.475C121.069 228.147 114.846 229.083 108.579 229.261C108.322 226.639 107.809 219.662 107.785 218.89C107.785 217.298 107.435 212.803 107.412 212.194C107.272 208.776 107.178 205.358 107.178 202.01C107.178 197.656 107.342 193.395 107.669 189.438C107.669 189.157 107.669 188.9 107.669 188.642C107.669 188.385 105.078 173.659 103 156.405C102.767 158.231 102.533 160.057 102.3 161.813C100.339 176.656 98.2617 188.642 98.2617 188.642C98.6119 192.81 98.7752 197.328 98.7752 201.963C98.7752 205.499 98.7752 208.987 98.5185 212.686C98.5185 213.294 98.0516 221.114 97.9816 221.863C97.8182 224.368 97.6081 226.826 97.3981 229.191C94.1302 229.05 90.909 228.84 87.7112 228.559C85.1902 228.348 82.0157 228.207 78.9346 227.763C78.7946 225.656 78.7012 223.642 78.6312 221.676C78.6312 221.184 78.6312 220.692 78.6312 220.201C78.6312 218.047 78.6312 216.01 78.6312 214.044V212.498C78.6312 198.311 80.0083 188.97 79.7983 186.746C74.9198 137.583 81.7356 110.472 81.7356 110.472C82.7998 106.533 84.7209 102.879 87.361 99.7734C89.3619 100.084 91.3254 100.602 93.2199 101.319C96.1059 102.075 99.0848 102.414 102.066 102.325H104.214C106.805 102.325 109.396 102.021 111.963 101.951H113.691C116.152 101.914 118.61 102.149 121.02 102.653C122.461 105.136 123.575 107.796 124.335 110.566C126.22 119.402 127.329 128.388 127.649 137.419C128.44 153.904 127.98 170.425 126.272 186.84C125.992 188.923 127.229 197.843 127.346 211.445Z" fill="#3B2645"/>
<path d="M94.2933 254.453C94.6201 266.556 93.4764 274.516 91.7024 279.315C88.9947 286.737 84.6998 286.643 82.3656 282.64C81.7352 281.529 81.3009 280.317 81.0818 279.058C79.3779 270.7 82.3656 256.115 82.3656 256.115C82.3787 255.936 82.3787 255.756 82.3656 255.576C83.527 256.426 84.8435 257.039 86.2404 257.379C87.8077 257.765 89.4576 257.632 90.9429 256.999C92.4283 256.366 93.6693 255.267 94.4801 253.867L94.2933 254.453Z" fill="#AB8DA8"/>
<path d="M124.778 278.404C124.579 279.891 124.104 281.329 123.377 282.641C120.856 286.762 116.515 286.738 113.83 278.755C112.197 274.073 111.146 266.277 111.496 254.852C113.244 256.427 115.496 257.324 117.845 257.38C119.941 257.187 121.932 256.372 123.564 255.039C123.607 255.405 123.607 255.774 123.564 256.14C123.564 256.14 126.225 269.952 124.778 278.404Z" fill="#AB8DA8"/>
<path d="M90.7685 261.641C89.5862 260.934 88.2353 260.561 86.8587 260.561C85.4822 260.561 84.1312 260.934 82.949 261.641C82.9051 261.69 82.8758 261.75 82.8643 261.815C82.8528 261.879 82.8596 261.946 82.8839 262.007C82.9082 262.068 82.9491 262.121 83.0018 262.159C83.0546 262.198 83.1171 262.221 83.1824 262.226C84.3495 262.226 85.5166 261.735 86.6136 261.758C87.8978 261.868 89.1659 262.119 90.395 262.507C90.5002 262.521 90.6068 262.499 90.6988 262.446C90.7908 262.394 90.8633 262.312 90.9054 262.215C90.9475 262.117 90.9569 262.008 90.9322 261.905C90.9075 261.802 90.8501 261.709 90.7685 261.641Z" fill="#291B30"/>
<path d="M90.3949 265.387C88.4016 264.221 86.0625 263.799 83.7891 264.193C83.0189 264.193 82.9955 265.48 83.7891 265.41C84.8874 265.304 85.995 265.352 87.0804 265.551C88.0841 265.738 88.9944 266.159 89.9981 266.37C90.1216 266.396 90.2505 266.378 90.3621 266.319C90.4737 266.26 90.5609 266.163 90.6083 266.045C90.6557 265.928 90.6603 265.798 90.6212 265.677C90.5822 265.557 90.5021 265.454 90.3949 265.387Z" fill="#291B30"/>
<path d="M121.3 261.64C119.526 261.031 115.674 260.797 114.297 262.436C114.11 262.646 114.297 263.091 114.554 263.068C115.651 262.927 116.608 262.482 117.752 262.436C118.895 262.389 120.086 262.693 121.16 262.623C121.224 262.632 121.29 262.628 121.353 262.612C121.416 262.596 121.475 262.568 121.527 262.528C121.579 262.489 121.623 262.44 121.656 262.384C121.689 262.328 121.711 262.266 121.72 262.201C121.729 262.137 121.725 262.071 121.709 262.008C121.693 261.945 121.665 261.885 121.626 261.833C121.587 261.781 121.538 261.737 121.482 261.704C121.426 261.671 121.364 261.649 121.3 261.64Z" fill="#291B30"/>
<path d="M122.164 265.596C120.227 264.73 115.395 264.098 114.415 266.72C114.275 267.071 114.718 267.352 114.998 267.188C116.007 266.624 117.131 266.299 118.284 266.239C119.437 266.178 120.589 266.382 121.651 266.837C122.351 267.118 122.888 265.901 122.164 265.596Z" fill="#291B30"/>
<path d="M33.7911 41.8319C33.7911 41.6914 33.511 41.6914 33.4876 41.8319C32.3206 49.8151 32.9975 58.2198 32.9975 66.3903C32.9975 75.0291 32.7174 83.738 33.2309 92.3534C33.253 92.4454 33.3053 92.5272 33.3794 92.5858C33.4535 92.6443 33.545 92.6761 33.6394 92.6761C33.7337 92.6761 33.8253 92.6443 33.8994 92.5858C33.9735 92.5272 34.0258 92.4454 34.0479 92.3534C34.538 83.738 34.2579 75.0291 34.2579 66.3903C34.2579 58.4071 34.9348 49.8854 33.7911 41.8319Z" fill="#F7F8F8"/>
<path d="M43.9918 44.5485C43.967 44.4335 43.9036 44.3306 43.8123 44.2568C43.721 44.1829 43.6073 44.1426 43.49 44.1426C43.3727 44.1426 43.2589 44.1829 43.1676 44.2568C43.0763 44.3306 43.013 44.4335 42.9881 44.5485C42.9881 52.2274 42.4979 60.0467 42.9881 67.7022C42.9881 67.8326 43.0398 67.9577 43.1317 68.0499C43.2236 68.1421 43.3483 68.1939 43.4783 68.1939C43.6083 68.1939 43.733 68.1421 43.8249 68.0499C43.9168 67.9577 43.9685 67.8326 43.9685 67.7022C44.5053 60.0467 44.0385 52.2274 43.9918 44.5485Z" fill="#F7F8F8"/>
<path d="M148.353 124.942C148.334 124.872 148.293 124.811 148.236 124.768C148.179 124.724 148.109 124.701 148.038 124.701C147.966 124.701 147.897 124.724 147.84 124.768C147.783 124.811 147.742 124.872 147.723 124.942C147.065 134.995 146.933 145.075 147.326 155.142C147.326 165.209 147.326 175.252 147.699 185.319C147.719 185.394 147.763 185.46 147.824 185.508C147.885 185.555 147.961 185.58 148.038 185.58C148.115 185.58 148.19 185.555 148.251 185.508C148.313 185.46 148.356 185.394 148.376 185.319C148.703 175.252 148.703 165.209 148.75 155.142C149.131 145.075 148.999 134.995 148.353 124.942Z" fill="#F7F8F8"/>
<path d="M166.35 66.0621C166.278 59.3633 165.841 52.6734 165.043 46.0221C165.043 45.6241 164.413 45.7412 164.39 46.0221C164.21 53.2155 164.42 60.4134 165.02 67.5839C165.323 74.2561 165.253 81.0921 166.14 87.6941C166.14 88.3028 167.167 88.1155 167.191 87.5536C167.517 80.4132 166.771 73.1323 166.35 66.0621Z" fill="#F7F8F8"/>
<path d="M171.018 69.7843C171.002 69.7319 170.969 69.6861 170.925 69.6536C170.881 69.6211 170.828 69.6035 170.773 69.6035C170.718 69.6035 170.665 69.6211 170.621 69.6536C170.577 69.6861 170.544 69.7319 170.528 69.7843C169.91 79.4028 169.863 89.0497 170.388 98.6738C170.374 98.7324 170.373 98.7936 170.385 98.8527C170.398 98.9118 170.424 98.9672 170.461 99.0148C170.498 99.0624 170.545 99.1009 170.599 99.1274C170.654 99.1538 170.713 99.1676 170.773 99.1676C170.833 99.1676 170.893 99.1538 170.947 99.1274C171.001 99.1009 171.049 99.0624 171.086 99.0148C171.123 98.9672 171.149 98.9118 171.161 98.8527C171.174 98.7936 171.173 98.7324 171.158 98.6738C171.684 89.0497 171.637 79.4028 171.018 69.7843Z" fill="#F7F8F8"/>
<path d="M102.183 161.791C102.219 159.968 102.454 158.155 102.883 156.383C102.65 158.209 102.417 160.035 102.183 161.791Z" fill="#291B30"/>
<path d="M127.579 137.419C124.428 118.433 98.4018 117.543 98.4018 117.543C96.7912 109.724 107.295 107.383 107.295 107.383L113.434 102.068C115.895 102.032 118.353 102.267 120.763 102.771C122.284 105.204 123.484 107.825 124.335 110.567C126.182 119.408 127.267 128.392 127.579 137.419Z" fill="#291B30"/>
<path d="M124.707 112.605C103.7 122.508 80.8713 113.425 80.8713 113.425C82.5286 108.742 81.2915 84.8623 81.1748 80.3205C81.1748 80.3205 81.1748 80.1567 81.1748 80.0864C81.1842 79.9149 81.1842 79.7429 81.1748 79.5714C85.5864 69.3172 86.0766 49.5582 86.0999 42.7689C88.084 42.4646 90.1614 42.3007 91.9588 42.207C92.659 49.7923 95.1566 69.247 102.112 68.4042C109.068 67.5614 112.383 50.2371 113.597 42.6519C114.877 42.8672 116.175 42.9534 117.471 42.9094C117.868 42.9094 118.265 42.9094 118.662 42.9094C118.055 53.2806 123.797 75.0764 123.961 75.6851C123.961 75.849 123.961 76.0363 123.961 76.2002C123.961 76.762 123.797 77.3473 123.727 77.9794C123.727 77.9794 123.727 78.2369 123.727 78.3774C122.257 91.5813 124.707 112.605 124.707 112.605Z" fill="#AB8DA8"/>
</g>
<defs>
<clipPath id="clip0_1319_2">
<rect width="206" height="295" fill="white"/>
</clipPath>
</defs>
</svg>
