<svg width="26" height="27" viewBox="0 0 26 27" fill="none" xmlns="http://www.w3.org/2000/svg">
<path fill-rule="evenodd" clip-rule="evenodd" d="M0.999512 25.6639C0.999512 26.2244 1.44141 26.6841 1.98121 26.6841H7.07356L8.17094 25.8581L9.28463 26.6841H11.7003L12.5292 25.8581L13.3597 26.6841H14.1901L15.0205 25.8581L15.8509 26.6841H18.6195C19.1593 26.6841 19.6012 26.2244 19.6012 25.6639V24.6332V24.298L10.0547 22.5234L0.999512 24.298V25.6639Z" fill="#7E707D"/>
<path fill-rule="evenodd" clip-rule="evenodd" d="M13.3978 5.22716L19.1785 3.69981C19.223 3.69981 19.266 3.69239 19.3075 3.68204C19.5018 3.62567 19.6442 3.44479 19.6442 3.2342V1.35971C19.6442 1.10316 19.4351 0.894043 19.1786 0.894043H6.86435C6.60781 0.894043 6.39722 1.10316 6.39722 1.35971V3.05027L13.3978 5.22716Z" fill="#F5A96C"/>
<path fill-rule="evenodd" clip-rule="evenodd" d="M0.465613 5.85606L6.62345 7.82171L12.7813 5.85606C12.8243 5.85606 12.8688 5.85012 12.9088 5.83829C13.103 5.78192 13.2469 5.60251 13.2469 5.39045V3.69984V3.51596C13.2469 3.25941 13.0363 3.05029 12.7813 3.05029H6.39732H0.465613C0.209066 3.05029 0 3.25941 0 3.51596V5.39045C0 5.63811 0.197234 5.84276 0.441898 5.85611H0.465613V5.85606Z" fill="#FFBC85"/>
<path fill-rule="evenodd" clip-rule="evenodd" d="M20.5869 22.8197V24.2981H6.24716C4.36855 23.4401 3.15803 22.9049 1.31655 20.0198C1.41542 18.0126 1.4238 16.0759 1.31554 13.9807C1.30665 13.8102 1.2972 13.6386 1.28674 13.4655C1.27521 13.2792 1.26318 13.0914 1.25013 12.902C1.10469 10.8079 0.844184 8.52861 0.441895 5.8564H12.7812C12.8257 5.8564 12.8685 5.8501 12.9088 5.83862C13.2468 6.34293 17.2028 16.4359 20.5514 22.1422C20.5686 22.1715 20.5587 22.2118 20.5618 22.2474C20.578 22.4252 20.5869 22.6151 20.5869 22.8197Z" fill="#FDE588"/>
<path fill-rule="evenodd" clip-rule="evenodd" d="M1.31684 20.02C1.25012 21.3902 1.14185 22.7917 0.999512 24.2983H6.24755C5.73004 22.0783 3.84077 20.02 1.31684 20.02Z" fill="#FFBC85"/>
<path fill-rule="evenodd" clip-rule="evenodd" d="M25.9998 20.6632V22.2473L22.7878 23.4403L19.5756 22.2473C19.573 22.2117 19.5699 22.1777 19.5651 22.1432C19.5651 22.1421 19.5651 22.1421 19.5651 22.1421C19.0954 18.0046 14.1051 21.2832 12.3688 17.9983C11.943 17.1932 11.7609 15.5265 11.8692 13.2618C11.8965 12.7052 11.9399 12.113 12.0026 11.4873C12.0152 11.3618 12.0283 11.2351 12.0424 11.107C12.057 10.9741 12.0722 10.8402 12.0879 10.7047C12.2637 9.23049 12.5352 7.59726 12.9087 5.8547C13.1028 5.79818 13.2466 5.61877 13.2466 5.40691V3.71772H19.1785C19.223 3.71772 19.2658 3.71199 19.3072 3.69995C18.7401 6.34444 18.41 8.73308 18.2897 10.7058C18.2813 10.8413 18.274 10.9752 18.2677 11.1071C18.2614 11.2368 18.2561 11.3639 18.252 11.4895C18.1808 13.5595 18.366 15.0845 18.7673 15.8441C20.59 19.2915 25.9998 15.5071 25.9998 20.6632Z" fill="#FDE588"/>
<path fill-rule="evenodd" clip-rule="evenodd" d="M17.9314 26.6844H18.6195C19.1593 26.6844 19.6012 26.2247 19.6012 25.6642V24.6335V24.2983H17.9314V24.6335V26.6844Z" fill="#6A5C69"/>
<path fill-rule="evenodd" clip-rule="evenodd" d="M17.3131 3.71778C16.7111 6.53243 16.3774 9.05641 16.2795 11.097C16.2781 11.0999 16.2781 11.1044 16.2781 11.1073H18.2681C18.366 9.06083 18.7012 6.52644 19.3077 3.69995C19.3062 3.69995 19.3047 3.69995 19.3032 3.70142C19.2632 3.71178 19.2217 3.71772 19.1786 3.71772H17.3131V3.71778Z" fill="#FDD76F"/>
<path fill-rule="evenodd" clip-rule="evenodd" d="M16.2778 11.1072C16.1695 13.3717 16.6841 16.1181 17.1097 16.9233C18.9337 20.3712 24.0097 16.9189 24.0097 22.0766V22.2471H25.9998V20.6633V20.6619C25.9983 15.5071 20.5901 19.2916 18.7676 15.8437C18.4206 15.1883 18.2352 13.9604 18.2367 12.3039C18.2367 11.9258 18.2471 11.5269 18.2679 11.1072H16.2778Z" fill="#FDD76F"/>
<path d="M18.29 10.7056C18.2817 10.8411 18.2743 10.975 18.2681 11.1068C18.2618 11.2366 18.2565 11.3637 18.2524 11.4893H12.0427C12.0291 11.4893 12.0161 11.4888 12.003 11.4872C11.8052 11.4673 11.6504 11.2999 11.6504 11.0969C11.6504 10.8798 11.8262 10.7046 12.0427 10.7046H18.2681C18.2754 10.7046 18.2827 10.7046 18.29 10.7056Z" fill="#7E707D"/>
<path fill-rule="evenodd" clip-rule="evenodd" d="M19.6008 22.8195V24.2979H17.9315L17.896 23.0152C17.9875 20.2452 12.4355 22.2237 10.6991 18.9358C10.2979 18.1751 10.1127 15.8121 10.1839 13.6453C10.188 13.5134 10.1933 13.3826 10.1996 13.2529H11.8694C11.8631 13.3858 11.8579 13.5166 11.8537 13.6453C11.7831 15.7117 11.9683 17.2345 12.369 17.9941C14.1053 21.2815 19.0955 18.0014 19.5653 22.1421L19.5757 22.2472C19.5919 22.4251 19.6008 22.615 19.6008 22.8195Z" fill="#FDD76F"/>
<path fill-rule="evenodd" clip-rule="evenodd" d="M12.909 5.83862C12.501 7.74388 12.2148 9.5163 12.0427 11.0972C11.9747 11.7161 11.9244 12.3057 11.891 12.8618C11.8826 12.9941 11.8758 13.1244 11.8695 13.2531H10.1997C10.206 13.1244 10.2133 12.9936 10.2211 12.8608C10.2552 12.3047 10.3048 11.7161 10.3729 11.0973C10.545 9.52209 10.8295 7.7544 11.2345 5.85645H12.7814C12.8258 5.8564 12.8687 5.85015 12.909 5.83862Z" fill="#FDD76F"/>
<path d="M11.8909 12.8616C11.8825 12.994 11.8757 13.1243 11.8695 13.2529C11.8632 13.3858 11.8579 13.5166 11.8538 13.6453H6.41363C5.92867 13.6453 5.5991 13.6547 5.43381 13.7818C5.25749 13.9178 5.17172 14.2898 5.17172 14.9186C5.17172 15.402 4.97449 15.7723 4.6308 15.9335C4.53924 15.9764 4.40792 16.0177 4.24004 16.0177C3.98004 16.0177 3.63265 15.9183 3.21365 15.5704L1.31565 13.9806C1.30676 13.8101 1.29732 13.6385 1.28686 13.4653C1.27533 13.279 1.26329 13.0913 1.25024 12.9019L3.71425 14.9662C4.01401 15.2147 4.22694 15.256 4.29758 15.223C4.34049 15.2032 4.38705 15.0991 4.38705 14.9186C4.38705 13.9927 4.55707 13.4669 4.95519 13.1604C5.34387 12.8606 5.86337 12.8606 6.41368 12.8606H11.8695C11.8768 12.8606 11.8836 12.8606 11.8909 12.8616Z" fill="#7E707D"/>
<path fill-rule="evenodd" clip-rule="evenodd" d="M19.6011 22.8198V24.2983V24.6334H20.5888L21.4192 23.8074L22.2496 24.6334H25.0182C25.558 24.6334 25.9999 24.1737 25.9999 23.6131V22.2473H19.5759C19.5922 22.4253 19.6011 22.6151 19.6011 22.8198Z" fill="#7E707D"/>
<path d="M24.01 22.2474V24.6334H25.0184C25.5582 24.6334 26.0001 24.1737 26.0001 23.6131V22.2473H24.01V22.2474Z" fill="#6A5C69"/>
</svg>
