<svg width="162" height="196" viewBox="0 0 162 196" fill="none" xmlns="http://www.w3.org/2000/svg">
<path d="M65.1536 11.2708C65.1536 11.2708 66.7984 0 79.4013 0C92.0041 0 98.1166 14.4177 100.962 22.8763C103.807 31.335 111.142 39.3027 120.7 44.0119C130.257 48.721 137.481 53.7873 136.259 64.4555C136.259 64.4555 156.708 80.5247 117.743 83.4931C78.7789 86.4614 59.6412 61.8442 61.9973 49.1674C64.3534 36.4906 49.1499 19.3054 65.1536 11.2708Z" fill="#3B2645"/>
<path d="M88.7362 38.3207C88.7362 38.3207 86.958 55.6398 94.5153 57.1574C94.5153 57.1574 97.6493 88.2469 80.0231 88.2469C62.3969 88.2469 64.1973 58.0948 64.1973 58.0948C64.1973 58.0948 71.7101 56.1084 71.11 39.392C70.5099 22.6755 88.9807 26.6928 88.7362 38.3207Z" fill="#FFEDE5"/>
<path d="M83.4916 39.8606C84.9808 34.1695 77.3124 33.0089 72.1557 32.8527C71.4222 34.5265 70.9998 36.6914 71.0888 39.3919C71.1999 41.7577 71.0888 44.1458 70.7998 46.5115C73.7338 46.7347 81.6912 46.7124 83.4916 39.8606Z" fill="#E0855C"/>
<path d="M68.9653 34.5499C70.5557 34.0009 71.0168 31.1368 69.9952 28.1526C68.9735 25.1685 66.856 23.1944 65.2655 23.7434C63.6751 24.2924 63.214 27.1566 64.2356 30.1407C65.2573 33.1248 67.3748 35.0989 68.9653 34.5499Z" fill="#E0855C"/>
<path d="M95.4385 30.1135C96.4602 27.1293 95.9991 24.2652 94.4086 23.7162C92.8182 23.1672 90.7006 25.1413 89.679 28.1254C88.6573 31.1096 89.1184 33.9737 90.7089 34.5227C92.2993 35.0717 94.4169 33.0976 95.4385 30.1135Z" fill="#E0855C"/>
<path d="M66.1088 14.0603C66.1088 14.0603 64.8863 43.9447 78.9783 44.0116C89.9364 44.0563 93.0704 30.6429 93.2482 15.5334C93.426 0.423808 66.2866 2.45477 66.1088 14.0603Z" fill="#FFEDE5"/>
<path d="M80.0907 35.263C77.7346 35.263 75.6674 33.8346 75.6452 33.8123C75.5341 33.7454 75.5118 33.6115 75.6008 33.4999C75.6674 33.3883 75.8008 33.366 75.9119 33.4552C75.9564 33.4775 79.9573 36.2227 82.9135 33.8793C83.0024 33.8123 83.158 33.8123 83.2247 33.9239C83.2914 34.0355 83.2914 34.1694 83.1803 34.2364C82.18 34.9952 81.1131 35.263 80.0907 35.263Z" fill="#472938"/>
<path d="M70.9326 22.8986C70.9326 22.8986 72.7775 24.0814 75.8893 23.1217C75.8893 23.0994 73.2442 25.8223 70.9326 22.8986Z" fill="#472938"/>
<path d="M88.6247 23.144C88.6247 23.144 86.7798 24.3269 83.668 23.3672C83.668 23.3672 86.313 26.0901 88.6247 23.144Z" fill="#472938"/>
<path d="M69.8662 19.2607C69.8662 19.2607 72.2001 16.6718 75.6008 17.4753C77.3346 17.877 76.6677 15.7344 73.5337 15.8683C70.3997 16.0023 69.8662 19.2607 69.8662 19.2607Z" fill="#472938"/>
<path d="M89.8698 19.2607C89.8698 19.2607 87.536 16.6718 84.1352 17.4753C82.4015 17.877 83.0683 15.7344 86.2023 15.8683C89.3364 16.0023 89.8698 19.2607 89.8698 19.2607Z" fill="#472938"/>
<path d="M79.5577 30.2639C78.8909 30.2639 77.4683 29.7729 76.9793 29.2819C76.8015 29.1034 76.7348 28.9248 76.7571 28.7463C76.8015 28.4784 77.0016 27.6303 77.2905 26.5591C77.6684 25.0191 78.1574 23.122 78.313 22.1846C78.4685 21.2919 78.313 20.3545 77.8906 19.5511C77.824 19.4395 77.8684 19.3056 77.9795 19.2386C78.0907 19.1717 78.2241 19.2163 78.2907 19.3279C78.7575 20.2206 78.9353 21.2473 78.7575 22.2516C78.6019 23.2113 78.1129 25.1307 77.7351 26.6706C77.4683 27.6973 77.246 28.59 77.2238 28.8132C77.2238 28.8355 77.2461 28.8802 77.3127 28.9694C77.7795 29.4381 79.2465 29.8845 79.6688 29.8176C80.2245 29.7283 81.3803 29.1926 81.7804 28.7239C81.8693 28.6347 82.0027 28.6347 82.0916 28.7016C82.1805 28.7909 82.1805 28.9248 82.1138 29.0141C81.6248 29.5497 80.3801 30.1523 79.7355 30.2416C79.6466 30.2639 79.6021 30.2639 79.5577 30.2639Z" fill="#472938"/>
<path d="M66.3091 21.7157C66.3091 21.7157 67.1982 14.5962 69.3987 11.9849C69.3987 11.9849 73.0884 10.3334 78.9564 13.8374C84.8244 17.3413 88.9364 20.2874 94.3821 19.417C94.3821 19.417 94.8934 2.43265 80.8235 3.3477C66.7536 4.26276 63.8641 11.6501 66.3091 21.7157Z" fill="#3B2645"/>
<path d="M159.286 126.657C159.064 126.299 158.397 126.902 158.397 126.902C158.397 126.902 157.708 126.121 155.841 126.679C153.974 127.237 148.439 132.013 148.439 132.013C145.949 131.968 141.882 134.423 141.882 134.423C141.882 134.423 138.815 133.151 136.036 128.955C133.258 124.759 130.235 122.706 130.235 122.706C130.235 122.706 123.722 96.4151 119.321 80.0111C114.854 81.9082 109.052 89.3848 104.918 95.4108C105.007 98.2452 105.096 100.053 105.096 100.053C105.096 100.053 119.588 138.664 121.455 139.824C123.322 140.985 144.638 143.574 144.86 143.418C145.083 143.261 147.039 143.775 147.839 143.418C148.639 143.061 149.617 143.641 150.595 142.971C151.573 142.302 153.262 143.328 153.951 142.681C154.64 142.034 155.841 142.302 156.641 141.922C157.441 141.543 161.909 135.204 161.998 134.066C162.086 132.928 159.508 127.014 159.286 126.657Z" fill="#FFEDE5"/>
<path d="M108.652 87.7111C108.652 87.7111 116.231 100.7 110.23 113.489L105.073 100.008L108.652 87.7111Z" fill="#E0855C"/>
<path d="M119.3 79.9666C117.722 74.0746 116.41 69.4547 115.766 67.7808C113.321 61.3531 108.808 61.063 108.808 61.063C104.363 61.1299 104.585 85.0552 104.896 95.3663C109.031 89.3404 114.832 81.886 119.3 79.9666Z" fill="#8C80F8"/>
<path d="M125.301 124.068C125.212 124.068 125.123 124.001 125.078 123.912C125.056 123.8 125.123 123.666 125.234 123.644L129.591 122.483C129.702 122.461 129.835 122.528 129.857 122.639C129.88 122.751 129.813 122.885 129.702 122.907L125.345 124.068C125.345 124.068 125.323 124.068 125.301 124.068Z" fill="#472938"/>
<path d="M146.861 139.267C146.75 139.267 146.639 139.177 146.639 139.043C146.528 136.321 143.327 136.209 143.194 136.209C143.061 136.209 142.972 136.097 142.972 135.986C142.972 135.852 143.083 135.763 143.194 135.763C143.238 135.763 146.928 135.896 147.061 139.021C147.106 139.155 146.995 139.267 146.861 139.267C146.884 139.267 146.884 139.267 146.861 139.267Z" fill="#472938"/>
<path d="M145.883 141.297C145.861 141.297 145.816 141.297 145.794 141.275C145.683 141.231 145.639 141.097 145.683 140.985C145.95 140.405 148.35 135.182 149.351 134.513C150.173 133.955 151.173 134.133 151.573 134.49C151.84 134.714 151.751 134.937 151.729 135.004C151.618 135.249 150.329 138.463 149.684 140.115C149.64 140.226 149.506 140.293 149.395 140.248C149.284 140.204 149.217 140.07 149.262 139.958C149.328 139.757 151.062 135.428 151.307 134.87C151.262 134.825 151.151 134.736 150.929 134.691C150.751 134.647 150.173 134.535 149.595 134.914C148.839 135.428 146.794 139.624 146.061 141.208C146.039 141.253 145.972 141.297 145.883 141.297Z" fill="#472938"/>
<path d="M152.907 139.624C152.774 139.624 152.685 139.534 152.685 139.401C152.685 139.356 152.685 139.356 153.307 137.146C153.818 135.339 154.641 132.393 154.73 131.924C154.596 131.79 153.974 131.522 153.552 131.656C153.218 131.768 152.196 133.285 151.44 134.624C151.373 134.736 151.24 134.758 151.129 134.714C151.018 134.647 150.996 134.513 151.04 134.401C151.44 133.709 152.774 131.433 153.396 131.21C153.93 131.031 154.619 131.277 154.93 131.5C155.085 131.611 155.174 131.745 155.174 131.857C155.174 131.991 154.863 133.129 153.73 137.236C153.441 138.285 153.152 139.289 153.129 139.401C153.129 139.534 153.018 139.624 152.907 139.624Z" fill="#472938"/>
<path d="M156.041 139.155C156.019 139.155 156.019 139.155 155.997 139.155C155.886 139.133 155.797 138.999 155.819 138.887C156.597 135.405 157.731 130.094 157.753 129.513C157.664 129.379 157.264 129.156 156.575 129.156C156.197 129.156 155.241 130.428 154.596 131.611C154.53 131.723 154.396 131.767 154.285 131.701C154.174 131.634 154.13 131.5 154.196 131.388C154.552 130.763 155.752 128.71 156.575 128.71C157.353 128.71 157.997 128.978 158.175 129.357C158.22 129.446 158.331 129.692 156.241 138.976C156.241 139.088 156.152 139.155 156.041 139.155Z" fill="#472938"/>
<path d="M157.708 129.379C157.619 129.379 157.53 129.312 157.486 129.223C157.13 128.085 158.175 126.813 158.219 126.768C158.308 126.679 158.442 126.657 158.53 126.746C158.619 126.835 158.642 126.969 158.553 127.058C158.553 127.081 157.619 128.197 157.908 129.112C157.953 129.223 157.886 129.357 157.753 129.402C157.753 129.379 157.73 129.379 157.708 129.379Z" fill="#472938"/>
<path d="M156.53 136.99C156.485 136.99 156.441 136.968 156.419 136.946C156.308 136.879 156.285 136.745 156.352 136.633L158.175 133.866L157.641 130.518C157.619 130.406 157.708 130.272 157.819 130.272C157.93 130.25 158.063 130.339 158.063 130.451L158.641 133.977L156.73 136.901C156.663 136.946 156.596 136.99 156.53 136.99Z" fill="#472938"/>
<path d="M2.38387 130.384C2.58391 130.027 3.27296 130.585 3.27296 130.585C3.27296 130.585 3.93977 129.781 5.82909 130.272C7.71841 130.763 13.4308 135.294 13.4308 135.294C15.898 135.16 20.099 137.437 20.099 137.437C20.099 137.437 23.1219 136.031 25.7447 131.723C28.3675 127.416 31.3015 125.229 31.3015 125.229C31.3015 125.229 36.7472 98.7143 40.5036 82.1094C45.038 83.8279 51.1282 91.059 55.507 96.9065C55.5292 99.7409 55.5292 101.549 55.5292 101.549C55.5292 101.549 42.593 140.695 40.7703 141.945C38.9477 143.195 17.7429 146.61 17.5429 146.476C17.3428 146.342 15.3868 146.922 14.5644 146.587C13.742 146.252 12.8085 146.9 11.786 146.252C10.7635 145.605 9.14095 146.699 8.40745 146.096C7.67395 145.494 6.51814 145.784 5.6735 145.449C4.82887 145.114 0.138915 138.954 0.00555193 137.816C-0.127812 136.678 2.18382 130.741 2.38387 130.384Z" fill="#FFEDE5"/>
<path d="M51.4397 89.4521C51.4397 89.4521 44.3936 102.754 50.884 115.275L55.485 101.593L51.4397 89.4521Z" fill="#E0855C"/>
<path d="M40.4805 82.1318C41.8141 76.1951 42.9477 71.5306 43.5256 69.8121C45.7039 63.2951 50.216 62.8041 50.216 62.8041C54.6615 62.6925 55.3727 86.6178 55.4839 96.9289C51.1051 91.1038 45.0148 83.8726 40.4805 82.1318Z" fill="#8C80F8"/>
<path d="M36.2361 126.434C36.2138 126.434 36.2138 126.434 36.1916 126.434L31.7906 125.452C31.6795 125.43 31.5906 125.296 31.6128 125.184C31.635 125.072 31.7684 124.983 31.8795 125.006L36.2805 125.988C36.3917 126.01 36.4806 126.144 36.4583 126.255C36.4361 126.367 36.325 126.434 36.2361 126.434Z" fill="#472938"/>
<path d="M15.276 142.481C15.1426 142.481 15.0537 142.369 15.0537 142.257C15.0759 139.111 18.7434 138.843 18.7879 138.843C18.899 138.843 19.0102 138.932 19.0324 139.044C19.0324 139.178 18.9435 139.267 18.8323 139.289C18.699 139.289 15.5205 139.535 15.5205 142.257C15.4983 142.391 15.4093 142.481 15.276 142.481Z" fill="#472938"/>
<path d="M16.3654 144.467C16.2765 144.467 16.2098 144.422 16.1654 144.355C15.3874 142.815 13.1647 138.686 12.3868 138.195C11.7866 137.838 11.2087 137.972 11.0309 138.017C10.8309 138.084 10.7197 138.173 10.6753 138.218C10.942 138.776 12.8313 143.039 12.9202 143.239C12.9647 143.351 12.9202 143.485 12.8091 143.53C12.6979 143.574 12.5646 143.53 12.5201 143.418C11.7866 141.789 10.3863 138.62 10.2752 138.374C10.1863 138.218 10.2529 138.017 10.4085 137.861C10.7864 137.504 11.7866 137.28 12.6313 137.794C13.6759 138.419 16.2765 143.552 16.5655 144.132C16.6099 144.244 16.5877 144.378 16.4766 144.422C16.4321 144.467 16.3877 144.467 16.3654 144.467Z" fill="#472938"/>
<path d="M9.25242 143.061C9.14129 143.061 9.05238 142.994 9.03015 142.883C9.00792 142.771 8.71897 141.878 8.38556 140.829C7.05192 136.7 6.69629 135.54 6.69629 135.406C6.69629 135.272 6.76297 135.16 6.91856 135.049C7.22974 134.803 7.89656 134.536 8.45224 134.692C9.09683 134.87 10.5194 137.102 10.9417 137.772C11.0084 137.883 10.9639 138.017 10.875 138.084C10.7639 138.151 10.6305 138.106 10.5638 138.017C9.74142 136.7 8.65229 135.227 8.3411 135.138C7.89656 135.004 7.29642 135.317 7.16306 135.451C7.2742 135.852 8.22997 138.888 8.8301 140.718C9.49692 142.793 9.49692 142.793 9.49692 142.838C9.49692 142.95 9.38579 143.061 9.25242 143.061C9.27465 143.061 9.27465 143.061 9.25242 143.061Z" fill="#472938"/>
<path d="M6.11842 142.748C6.02951 142.748 5.9406 142.681 5.89615 142.592C3.45115 133.375 3.56229 133.129 3.58451 133.04C3.74011 132.638 4.36247 132.348 5.16265 132.326H5.18488C6.00728 132.326 7.27424 134.312 7.6521 134.915C7.71878 135.026 7.67433 135.16 7.58542 135.227C7.47428 135.294 7.34092 135.249 7.27424 135.16C6.58519 134.022 5.58497 132.772 5.2071 132.772C4.54029 132.794 4.14019 133.04 4.05129 133.174C4.09574 133.754 5.4516 139.021 6.36292 142.458C6.38515 142.57 6.31847 142.704 6.20733 142.726C6.14065 142.726 6.11842 142.748 6.11842 142.748Z" fill="#472938"/>
<path d="M4.07292 133.062C4.05069 133.062 4.02846 133.062 4.00624 133.062C3.8951 133.04 3.80619 132.906 3.85065 132.795C4.09515 131.857 3.13937 130.786 3.11715 130.764C3.02824 130.674 3.05047 130.54 3.13937 130.451C3.22828 130.362 3.36165 130.384 3.45056 130.473C3.49501 130.518 4.58415 131.746 4.27296 132.906C4.25074 132.995 4.16183 133.062 4.07292 133.062Z" fill="#472938"/>
<path d="M5.54034 140.584C5.47366 140.584 5.40698 140.561 5.36252 140.494L3.33984 137.66L3.76216 134.111C3.78439 134 3.89552 133.91 4.00666 133.91C4.1178 133.933 4.20671 134.044 4.20671 134.156L3.80662 137.526L5.74039 140.226C5.80707 140.316 5.78484 140.472 5.69593 140.539C5.62925 140.584 5.5848 140.584 5.54034 140.584Z" fill="#472938"/>
<path d="M94.4932 57.1575L108.808 61.0632C108.808 61.0632 107.074 84.2966 110.03 89.0951C112.986 93.8935 111.341 104.807 107.763 110.231C107.763 110.231 102.028 128.755 103.584 133.107C105.14 137.459 110.363 147.078 110.363 147.078C110.363 147.078 87.0471 158.952 53.3061 148.395C53.3061 148.395 59.9965 134.245 58.9518 128.822C57.9071 123.398 50.6833 108.289 50.7722 101.147C50.8611 94.0051 53.1283 74.9452 49.8164 62.8933L64.1308 58.0948C64.1308 58.0948 64.3753 86.3946 80.6678 86.3946C96.9604 86.3946 94.4932 57.1575 94.4932 57.1575Z" fill="#8C80F8"/>
<path d="M107.784 110.231C107.784 110.231 106.006 113.802 94.7148 115.297C94.7148 115.297 105.584 116.123 104.495 122.684L107.784 110.231Z" fill="#543753"/>
<path d="M52.3281 109.226C52.3281 109.226 54.9954 114.248 67.0648 115.386C67.0648 115.386 53.8396 113.378 56.3068 120.653L52.3281 109.226Z" fill="#543753"/>
<path d="M50.8387 102.397C50.7275 102.397 50.6164 102.308 50.6164 102.196C50.5942 101.817 50.5719 101.482 50.5942 101.147C50.6164 99.5405 50.7498 97.3533 50.8831 94.809C51.0832 91.3273 51.3277 86.9976 51.3944 82.5562C51.3944 82.4223 51.4833 82.333 51.6166 82.333C51.75 82.333 51.8389 82.4446 51.8389 82.5562C51.7722 86.9976 51.5277 91.3496 51.3277 94.8313C51.1721 97.3756 51.0609 99.5628 51.0387 101.17C51.0387 101.482 51.0387 101.817 51.0609 102.174C51.0609 102.263 50.972 102.375 50.8387 102.397Z" fill="#472938"/>
<path d="M110.03 89.3185C109.963 89.3185 109.874 89.2739 109.83 89.2069C108.852 87.6223 108.274 83.9844 108.118 78.4048C108.118 78.2709 108.207 78.1816 108.34 78.1816C108.452 78.1816 108.563 78.2709 108.563 78.4048C108.718 83.9175 109.274 87.4884 110.208 88.9837C110.274 89.0953 110.23 89.2292 110.141 89.2962C110.119 89.2962 110.074 89.3185 110.03 89.3185Z" fill="#472938"/>
<path d="M54.0849 146.743C54.0849 146.743 66.6433 151.542 81.3355 151.028C96.0277 150.515 125.434 139.847 139.171 142.034C152.907 144.221 152.018 150.091 151.551 152.792C151.085 155.492 122.567 196 97.517 196H59.1305C59.1305 196 11.9643 166.16 10.4306 157.545C8.8969 148.93 10.0083 143.775 23.1668 143.529C36.3253 143.284 50.5508 145.583 54.0849 146.743Z" fill="#3B2645"/>
<path d="M80.8457 159.889C80.8457 159.889 99.6055 152.055 115.276 149.355C115.276 149.355 125.367 165.067 122.411 178.346C122.388 178.346 86.5137 170.446 80.8457 159.889Z" fill="#FFEDE5"/>
<path d="M80.8457 159.889C80.8457 159.889 126.234 165.848 122.388 178.346C118.543 190.844 80.8457 159.889 80.8457 159.889Z" fill="#E0855C"/>
<path d="M101.251 182.497C101.251 182.497 54.729 186.515 44.5267 188.613C34.3244 190.711 23.9887 189.773 17.6762 191.983C11.3636 194.192 7.87393 195.888 7.1182 195.978C6.36247 196.067 4.62875 186.224 7.80725 182.743C7.80725 182.743 6.82924 179.194 11.2747 176.449C15.7201 173.704 23.0996 177.319 25.8336 176.449C28.5675 175.579 30.5235 174.775 33.4353 175.4C36.347 176.025 43.4598 177.788 43.4598 177.788C43.4598 177.788 80.0903 154.421 101.251 182.497Z" fill="#FFEDE5"/>
<path d="M43.4824 177.788L71.1109 185.332L101.251 182.498C101.251 182.498 87.5146 168.303 68.5548 169.62C49.5949 170.937 43.4824 177.788 43.4824 177.788Z" fill="#E0855C"/>
<path d="M53.1068 149.734C53.1068 149.734 67.3767 152.636 88.0036 163.482C108.631 174.329 125.701 169.888 131.725 171.986C137.748 174.084 149.173 172.454 151.04 174.084C152.907 175.713 154.13 178.569 153.018 179.797C153.018 179.797 157.997 191.269 157.53 192.027C157.064 192.786 155.33 192.719 154.508 192.541C153.685 192.362 146.439 188.747 138.104 187.251C129.769 185.756 106.786 182.542 88.4704 181.605C70.1551 180.667 43.4824 178.815 43.4824 178.815C43.4824 178.815 44.1048 156.251 53.1068 149.734Z" fill="#FFEDE5"/>
<path d="M151.507 180.266C150.795 180.266 149.839 180.132 148.617 179.708C148.506 179.663 148.439 179.529 148.484 179.417C148.528 179.306 148.661 179.239 148.773 179.284C151.529 180.266 152.862 179.596 152.885 179.596C152.996 179.529 153.129 179.574 153.174 179.685C153.24 179.797 153.196 179.931 153.085 179.975C153.062 179.975 152.551 180.266 151.507 180.266Z" fill="#472938"/>
<path d="M10.0531 183.435C8.49714 183.435 7.74142 182.944 7.69696 182.922C7.58583 182.855 7.5636 182.721 7.63028 182.609C7.69696 182.498 7.83033 182.475 7.94146 182.542C7.94146 182.542 8.74165 183.033 10.2976 182.966C11.9201 182.922 13.6761 182.118 13.6983 182.118C13.8095 182.074 13.9428 182.118 13.9873 182.23C14.0317 182.341 13.9873 182.475 13.8761 182.52C13.8095 182.565 12.0091 183.346 10.3198 183.413C10.2309 183.435 10.142 183.435 10.0531 183.435Z" fill="#472938"/>
</svg>
