<svg width="30" height="27" viewBox="0 0 30 27" fill="none" xmlns="http://www.w3.org/2000/svg">
<path id="Star 37" opacity="0.1" d="M14.1078 0.762618C14.4779 0.0314472 15.5221 0.0314475 15.8922 0.762618L19.4667 7.82434C19.6143 8.11592 19.8951 8.31698 20.2187 8.36283L28.1691 9.48921C28.9971 9.60652 29.3239 10.628 28.7177 11.2042L22.9974 16.6407C22.7545 16.8715 22.6434 17.2087 22.7014 17.5388L24.0562 25.2403C24.1993 26.0538 23.3502 26.6802 22.6152 26.3034L15.4562 22.6338C15.1698 22.487 14.8302 22.487 14.5438 22.6338L7.38484 26.3034C6.64976 26.6802 5.8007 26.0538 5.94381 25.2403L7.29859 17.5388C7.35665 17.2087 7.24552 16.8716 7.00261 16.6407L1.28231 11.2042C0.676084 10.628 1.00286 9.60652 1.83094 9.48921L9.78133 8.36283C10.1049 8.31698 10.3857 8.11592 10.5333 7.82434L14.1078 0.762618Z" fill="#141416"/>
</svg>
