<svg width="164" height="190" viewBox="0 0 164 190" fill="none" xmlns="http://www.w3.org/2000/svg">
<path d="M84.6464 39.1753L87.2329 60.052L63.1748 61.332V45.8818L84.6464 39.1753Z" fill="#FFEDE5"/>
<path d="M63.1748 56.068C63.1748 56.068 78.2155 63.6579 82.4673 39.8606L63.1748 45.882V56.068Z" fill="#E0855C"/>
<path d="M59.4288 35.5971C61.1618 35.0653 61.7995 32.0454 60.8532 28.852C59.907 25.6586 57.735 23.5009 56.0021 24.0327C54.2691 24.5645 53.6314 27.5844 54.5776 30.7778C55.5239 33.9712 57.6959 36.1289 59.4288 35.5971Z" fill="#E0855C"/>
<path d="M56.7432 20.7866C56.7432 20.7866 57.2038 53.7063 71.2524 54.7519C85.3011 55.7976 86.4171 29.2599 86.5057 20.7866C86.5943 12.3134 77.7187 9.87954 69.782 9.96968C61.8453 10.0598 57.1152 14.2063 56.7432 20.7866Z" fill="#FFEDE5"/>
<path d="M85.9044 28.1421C85.9044 28.1421 82.3258 23.0942 82.4498 17.0187C82.4498 17.0187 70.2968 22.95 62.2361 18.2627C62.2361 18.2627 57.4174 21.3094 57.2048 27.7275L55.5572 24.23C55.5572 24.23 54.6715 16.9466 55.1675 15.2339C55.4687 14.2063 56.1773 13.3409 57.1162 12.8722C57.1162 12.8722 53.0239 3.65974 63.0156 0C63.0156 0 63.051 2.21748 67.0371 1.911C71.0231 1.60452 89.483 0.468738 88.0126 10.4925C87.9949 10.4744 92.1049 17.0187 85.9044 28.1421Z" fill="#3B2645"/>
<path d="M90.0718 29.0305C90.9411 25.8144 90.2309 22.8112 88.4856 22.3227C86.7404 21.8342 84.6209 24.0454 83.7516 27.2615C82.8824 30.4776 83.5926 33.4807 85.3378 33.9692C87.0831 34.4577 89.2026 32.2466 90.0718 29.0305Z" fill="#FFEDE5"/>
<path d="M85.9045 30.3597C85.8868 30.3597 85.8513 30.3597 85.8336 30.3416C85.745 30.3056 85.7096 30.1974 85.745 30.1073L87.304 26.8261C87.3395 26.736 87.4458 26.6999 87.5343 26.736C87.6229 26.772 87.6583 26.8802 87.6229 26.9704L86.0639 30.2515C86.0285 30.3236 85.9753 30.3597 85.9045 30.3597Z" fill="#472938"/>
<path d="M70.704 39.2115C69.836 39.2115 68.153 38.7428 67.7632 38.0216C67.4975 37.5169 68.0289 34.6864 69.0565 29.945C69.2336 29.0977 69.3931 28.4306 69.4462 28.1061C69.6588 26.9162 69.0033 26.5917 68.9679 26.5917C68.8793 26.5557 68.8439 26.4475 68.8793 26.3574C68.9147 26.2672 69.021 26.2312 69.1096 26.2672C69.145 26.2853 70.0486 26.6999 69.7828 28.1782C69.7297 28.5027 69.5879 29.1698 69.3931 30.0351C68.9147 32.2346 67.7986 37.3907 68.0644 37.8594C68.3833 38.4543 70.3674 38.9952 70.9521 38.8329C71.5367 38.6707 72.6882 37.8053 72.7059 37.8053C72.7768 37.7512 72.9008 37.7693 72.9539 37.8414C73.0071 37.9135 72.9894 38.0397 72.9185 38.0938C72.8654 38.1298 71.6961 38.9952 71.0584 39.1755C70.9521 39.1935 70.8458 39.2115 70.704 39.2115Z" fill="#472938"/>
<path d="M71.0575 44.5117C69.4631 44.5117 68.223 44.1151 68.2053 44.1151C68.1167 44.0791 68.0636 43.9889 68.099 43.8808C68.1344 43.7906 68.223 43.7365 68.3293 43.7726C68.3824 43.7906 74.4058 45.6836 76.6734 40.9061C76.7089 40.8159 76.8152 40.7799 76.9037 40.8159C76.9923 40.852 77.0278 40.9602 76.9923 41.0503C75.6282 43.8808 73.0594 44.5117 71.0575 44.5117Z" fill="#472938"/>
<path d="M77.631 27.1145C78.198 27.1145 78.6586 27.5832 78.6586 28.1601V28.9354C78.6586 29.5123 78.198 29.981 77.631 29.981C77.0641 29.981 76.6035 29.5123 76.6035 28.9354V28.1601C76.6035 27.5832 77.0464 27.1145 77.631 27.1145Z" fill="#472938"/>
<path d="M63.795 27.8356C64.3619 27.7815 64.858 28.1961 64.9111 28.773L64.982 29.5482C65.0351 30.1251 64.6277 30.6299 64.0608 30.684C63.4939 30.7381 62.9978 30.3234 62.9447 29.7465L62.8738 28.9713C62.8207 28.3944 63.2281 27.8896 63.795 27.8356Z" fill="#472938"/>
<path d="M81.1568 23.7792C79.9167 23.0581 78.4463 22.9499 77.1176 23.4727C74.9031 24.3741 74.2477 23.7612 74.1059 23.4547C73.9642 23.1482 75.4523 21.6518 78.4286 21.778C80.4659 21.8502 81.1568 23.7792 81.1568 23.7792Z" fill="#472938"/>
<path d="M59.4717 25.4379C60.5701 24.5184 62.0228 24.1759 63.4046 24.4644C65.7431 24.9872 66.2746 24.2841 66.3631 23.9596C66.4517 23.6351 64.751 22.4092 61.8279 23.0041C59.8437 23.4368 59.4717 25.4379 59.4717 25.4379Z" fill="#472938"/>
<path d="M115.153 70.6345L103.55 66.2356C73.2733 75.8808 60.1813 68.3449 55.1145 63.1348C55.1145 63.1348 36.7433 65.7669 34.2985 67.8221C31.8537 69.8773 38.8337 132.634 39.188 146.371C39.4183 155.133 38.3377 167.861 37.5227 175.902C50.9159 184.862 66.6121 190 83.9027 190C94.4082 190 104.861 186.412 114.657 180.409C113.01 166.419 109.573 137.195 109.431 132.994C109.254 127.46 115.153 70.6345 115.153 70.6345Z" fill="#AB8DA8"/>
<path d="M63.174 61.3318L55.1133 63.1346C60.18 68.3448 73.272 75.8806 103.566 66.2535L87.2321 60.0518L63.174 61.3318Z" fill="#FFEDE5"/>
<path d="M110.175 121.763C110.175 121.763 102.327 83.3807 97.278 68.0567C96.5694 65.8933 95.9139 64.1986 95.347 63.1349L88.5618 60.5569C88.5618 60.5569 89.5362 64.2707 90.8117 69.5169C93.1857 79.1981 96.6225 94.0715 97.0477 100.345H60.7126V61.8729L54.5121 63.1349C54.5121 63.1349 54.5121 63.189 54.4943 63.2792C53.9983 66.3079 44.9101 119.708 38.1604 131.588C38.1604 131.588 39.0993 143.397 39.1702 146.371C39.4005 155.133 38.3198 167.861 37.5049 175.902C50.898 184.862 66.5942 190 83.8849 190C94.3903 190 104.843 186.412 114.639 180.409C112.992 166.419 109.555 137.195 109.413 132.994C109.396 131.678 109.697 127.442 110.175 121.763Z" fill="#8C80F8"/>
<path d="M37.9112 128.469L43.8992 102.184L36.2637 109.486L37.9112 128.469Z" fill="#543753"/>
<path d="M78.9068 158.432C74.1058 158.432 70.0489 156.665 66.8423 153.204C61.6339 147.561 59.5789 138.295 58.7817 131.516C57.9136 124.178 58.2679 118.103 58.2856 118.049L58.3033 117.887H99.528L99.5457 118.049C99.5457 118.103 99.9178 124.197 99.0497 131.516C98.2525 138.295 96.1975 147.561 90.989 153.204C87.7647 156.665 83.7078 158.432 78.9068 158.432ZM58.6222 118.229C58.5691 119.257 58.3565 124.864 59.136 131.48C59.9332 138.204 61.9705 147.381 67.1081 152.952C70.2438 156.341 74.2121 158.072 78.9068 158.072C83.6015 158.072 87.5698 156.341 90.7055 152.952C95.8431 147.381 97.8805 138.204 98.6777 131.48C99.4572 124.864 99.2446 119.257 99.1914 118.229H58.6222Z" fill="white"/>
<path d="M34.2802 67.8222C34.2802 67.8222 27.2471 73.6093 11.0371 107.178L33.2173 126.576L45.9727 102.941C45.9727 102.941 40.4808 66.8306 34.2802 67.8222Z" fill="#AB8DA8"/>
<path d="M37.7347 173.702C37.7347 173.702 47.4961 178.299 49.0196 177.668C50.5432 177.037 48.6653 163.985 48.187 163.841C47.7087 163.697 39.2228 157.08 37.5221 157.495C36.3351 157.783 35.2367 161.659 35.2367 161.659L17.078 147.615L30.7369 124.413L11.0369 107.178C11.0369 107.178 4.90728 118.139 0 128.397C8.25556 148.336 21.1881 164.959 37.5221 175.902L37.7347 173.702Z" fill="#FFEDE5"/>
<path d="M11.0371 107.178L30.7371 124.413L28.8061 127.694L11.0371 107.178Z" fill="#E0855C"/>
<path d="M115.152 70.6343C118.306 71.7521 139.831 99.7861 139.831 99.7861L116.269 118.031C116.269 118.031 107.535 105.808 106.702 99.7861C105.869 93.7646 108.775 68.3808 115.152 70.6343Z" fill="#AB8DA8"/>
<path d="M139.849 99.8042C139.849 99.8042 162.861 132.868 163.836 140.061C164.81 147.255 161.905 155.115 142.63 154.989C123.355 154.863 106.649 152.825 102.273 153.673C97.8976 154.52 88.1362 155.079 86.4709 154.592C84.8056 154.105 79.0479 140.061 79.3314 138.15C79.6149 136.239 82.5202 135.122 82.5202 135.122C82.5202 135.122 81.7053 133.86 81.9356 132.652C82.1659 131.444 92.2639 133.95 94.4784 134.202C96.6929 134.455 101.529 140.025 102.769 140.314C104.01 140.602 134.233 135.897 134.233 135.897L117.35 117.201L139.849 99.8042Z" fill="#FFEDE5"/>
<path d="M139.849 99.8043L117.35 117.202L119.972 120.122L139.849 99.8043Z" fill="#E0855C"/>
<path d="M134.232 135.897L145.677 133.859C145.677 133.859 140.203 133.571 139.299 122.393L134.232 135.897Z" fill="#E0855C"/>
<path d="M139.282 118.049H84.8057C84.4691 123.818 84.9828 128.668 85.8155 132.598C88.9866 133.085 93.1675 134.04 94.4962 134.202C96.7107 134.455 101.547 140.044 102.787 140.314C104.027 140.584 134.233 135.897 134.233 135.897C140.185 133.139 139.282 118.049 139.282 118.049Z" fill="#E3DCF7"/>
<path d="M97.4901 134.635C93.947 132.868 85.8154 132.616 85.8154 132.616C88.9866 133.102 93.1675 134.058 94.4962 134.22C96.7106 134.473 101.547 140.061 102.787 140.332C103.336 140.458 109.324 139.629 115.95 138.673C105.887 139.719 101.016 136.384 97.4901 134.635Z" fill="#3B2645"/>
<path d="M84.806 118.049C84.806 118.049 80.5542 114.101 81.3337 112.55C82.1132 111 85.4438 113.92 85.4438 113.92C85.4438 113.92 82.5915 106.493 84.6997 105.736C86.8079 104.978 93.9119 113.488 93.9119 113.488C93.9119 113.488 92.2998 105.627 93.2565 105.303C94.2131 104.978 99.7759 112.352 99.7759 112.352C99.7759 112.352 101.99 102.959 104.293 102.923C106.596 102.887 104.949 113.668 104.949 113.668C104.949 113.668 107.447 105.393 109.342 105.952C111.238 106.511 111.415 115.363 111.415 115.363C111.415 115.363 111.752 108.584 113.116 108.314C114.48 108.043 116.269 118.049 116.269 118.049H84.806Z" fill="#679E97"/>
<path d="M118.111 118.049C118.111 118.049 120.893 108.728 122.239 108.602C123.586 108.476 123.674 116.3 123.674 116.3C123.674 116.3 126.402 107.124 127.235 106.889C128.068 106.655 128.617 113.001 128.617 113.001C128.617 113.001 132.975 106.637 133.985 106.871C134.995 107.106 133.666 113.001 133.666 113.001C133.666 113.001 137.829 106.98 140.557 107.881C143.286 108.782 139.317 118.031 139.317 118.031L118.111 118.049Z" fill="#679E97"/>
<path d="M139.282 118.049C139.282 118.049 145.429 112.226 143.817 110.946C142.205 109.666 134.8 114.497 134.8 114.497C134.8 114.497 140.859 106.475 140.575 104.077C140.292 101.679 128.794 116.913 128.794 116.913C128.794 116.913 133.772 106.042 132.532 105.465C131.292 104.888 126.172 117.165 126.172 117.165C126.172 117.165 127.696 110.369 126.172 110.405C124.649 110.441 122.54 117.508 122.54 117.508C122.54 117.508 120.432 110.008 118.997 109.72C117.562 109.431 117.757 113.992 117.757 113.992C117.757 113.992 116.464 110.459 115.171 110.657C113.877 110.855 115.401 115.543 115.401 115.543C115.401 115.543 111.433 108.872 109.2 108.764C106.968 108.656 105.888 115.795 105.888 115.795C105.888 115.795 106.632 108.926 105.143 108.746C103.655 108.566 102.61 116.174 102.61 116.174C102.61 116.174 101.866 105.357 98.9075 105.068C95.949 104.78 98.252 113.343 98.252 113.343C98.252 113.343 93.4511 109.954 92.2818 110.657C91.1126 111.36 93.9471 118.049 93.9471 118.049H139.282Z" fill="#85CCC6"/>
<path d="M111.29 109.936C111.273 109.936 111.273 109.936 111.29 109.936C111.184 109.918 111.113 109.846 111.113 109.738L112.956 90.7357C112.973 90.6456 113.044 90.5555 113.151 90.5735C113.239 90.5915 113.328 90.6636 113.31 90.7718L111.468 109.774C111.45 109.864 111.379 109.936 111.29 109.936Z" fill="#472938"/>
</svg>
