<svg width="230" height="265" viewBox="0 0 230 265" fill="none" xmlns="http://www.w3.org/2000/svg">
<g clip-path="url(#clip0_1319_42)">
<path d="M229.217 210.272C229.028 213.811 228.379 221.08 223.489 221.08H223.245C222.636 221.024 222.041 220.859 221.489 220.593C221.235 220.479 220.991 220.343 220.76 220.188C219.617 219.253 218.731 218.045 218.182 216.674C217.634 215.304 217.443 213.817 217.625 212.352C217.654 211.444 217.563 210.535 217.355 209.65C217.276 209.229 217.167 208.814 217.031 208.407C217.019 208.327 217.019 208.245 217.031 208.164C216.815 207.678 216.626 207.3 216.436 206.948C216.326 206.732 216.2 206.524 216.058 206.327C216.077 206.274 216.077 206.217 216.058 206.165C215.984 206.037 215.893 205.919 215.788 205.814C215.5 205.423 215.174 205.061 214.815 204.733L214.653 204.571C214.248 204.219 213.87 203.868 213.491 203.571C212.059 202.355 210.789 201.517 210.952 199.977C211.168 196.357 213.653 191.682 217.085 192.709C217.085 192.709 217.95 188.386 215.572 187.305C214.059 186.549 215.572 186.143 216.49 186.062C218.058 185.927 219.625 186.549 221.3 186.414C221.404 186.318 221.512 186.228 221.624 186.143C222.287 186.049 222.961 186.049 223.624 186.143H223.786C224.505 186.297 225.175 186.624 225.74 187.095C226.305 187.565 226.747 188.166 227.028 188.845C227.495 190.22 227.733 191.662 227.731 193.114C228.001 198.978 229.541 204.355 229.217 210.272Z" fill="#3B2645"/>
<path d="M219.138 202.355C218.922 202.922 218.463 203.166 217.976 203.49C217.415 203.884 216.882 204.317 216.382 204.787C216.099 205.083 215.837 205.399 215.599 205.732C215.31 205.341 214.985 204.98 214.626 204.652L214.464 204.49C214.647 204.235 214.846 203.991 215.058 203.76C215.869 202.868 217.463 201.22 218.76 201.625C218.905 201.675 219.025 201.778 219.095 201.914C219.166 202.05 219.181 202.208 219.138 202.355Z" fill="#E8CEE5"/>
<path d="M220.381 205.49C219.322 206.494 218.173 207.398 216.95 208.192C216.733 207.706 216.544 207.328 216.355 206.976C217.286 205.862 218.576 205.107 220.003 204.842C220.076 204.848 220.147 204.872 220.209 204.911C220.271 204.951 220.323 205.004 220.36 205.068C220.397 205.132 220.418 205.203 220.422 205.277C220.426 205.35 220.412 205.423 220.381 205.49Z" fill="#E8CEE5"/>
<path d="M229.216 210.274C229.027 213.813 228.379 221.082 223.488 221.082H223.245C222.635 221.026 222.04 220.861 221.489 220.595C228.703 217.893 227.109 208.382 226.433 201.682C226.369 196.407 225.522 191.171 223.92 186.145C224.616 186.315 225.262 186.649 225.802 187.119C226.343 187.589 226.763 188.181 227.028 188.847C227.495 190.222 227.732 191.664 227.73 193.116C228 198.98 229.54 204.356 229.216 210.274Z" fill="#E8CEE5"/>
<path d="M83.8246 66.6913C83.8246 66.6913 83.0951 69.9066 81.8792 74.7972C79.3752 85.2232 76.069 95.44 71.9901 105.356C70.8756 107.992 69.4516 110.486 67.748 112.786C60.1555 122.405 29.6234 100.384 25.7326 97.5206C25.476 97.323 25.1646 97.2097 24.841 97.1964C22.6794 97.1964 14.0332 96.737 14.2223 90.7657C14.3844 84.254 18.8697 76.0671 28.6777 85.3618C34.7301 91.0629 56.1026 98.1421 56.1026 98.1421L63.0466 53.1275C63.1341 52.5732 63.3713 52.0534 63.7326 51.6241C64.0939 51.1948 64.5656 50.8724 65.0968 50.6916C65.628 50.5108 66.1985 50.4786 66.7467 50.5984C67.2949 50.7181 67.7999 50.9854 68.2073 51.3712C72.0171 54.9108 77.9074 60.6119 83.8246 66.6913Z" fill="#FFEDE5"/>
<path d="M81.8516 74.6884C79.3617 85.1504 76.0645 95.4036 71.9894 105.356C71.8543 92.3863 71.5571 74.5264 71.5571 74.5264C73.1574 73.7159 74.9308 73.3072 76.7244 73.3354C78.5179 73.3636 80.2777 73.828 81.8516 74.6884Z" fill="#E0855C"/>
<path d="M106.196 145.749C100.549 149.748 94.2538 153.612 87.9853 157.422C84.9861 159.232 82.122 161.042 79.4201 162.825C71.4583 168.113 63.7913 173.832 56.4535 179.956C59.6148 183.739 62.9111 192.439 65.8833 202.328C71.8546 222.214 76.6911 246.991 76.6911 246.991C71.2872 251.936 66.7209 249.693 66.7209 249.693C62.4788 241.587 53.3462 224.052 45.6457 207.921C38.4314 192.925 32.4871 178.956 33.0816 174.525C33.676 170.094 45.3484 157.286 57.3991 144.966C70.9089 131.456 84.7429 118.432 84.7429 118.432C89.9266 112.877 95.8018 108.01 102.225 103.95C108.682 100.14 115.734 97.9519 121.138 101.518C123.892 103.459 125.963 106.22 127.056 109.408C127.255 109.875 127.426 110.353 127.569 110.84C131.703 123.998 121.003 135.347 106.196 145.749Z" fill="#FFEDE5"/>
<path d="M215.599 199.33C200.738 200.032 185.31 201.735 172.8 202.707C161.992 203.572 153.454 203.95 149.347 202.707C141.241 200.384 128.299 181.416 119.625 167.582C114.519 159.314 110.844 152.856 110.844 152.856C110.844 152.856 108.71 150.154 106.116 145.75C99.2797 134.321 89.3095 112.462 108.818 106.545C117.194 104.005 122.868 105.896 127.38 110.841C133.432 117.461 137.404 129.538 143.051 143.994L158.588 182.605C163.162 181.649 167.831 181.223 172.503 181.335C187.342 181.91 202.092 183.919 216.545 187.333C221.192 193.115 215.599 199.33 215.599 199.33Z" fill="#FFEDE5"/>
<path d="M78.1773 24.4594C83.8784 22.8923 89.5525 21.2171 95.1726 19.3798C98.4689 18.299 102.09 18.2449 103.278 14.4352C103.729 12.8582 103.815 11.1993 103.529 9.58426C103.244 7.9692 102.594 6.44032 101.63 5.11344C99.7533 2.75224 97.1194 1.11079 94.1728 0.466075C91.2423 -0.155358 88.214 -0.155358 85.2834 0.466075C83.1689 0.73342 81.1346 1.44448 79.314 2.55269C77.4934 3.66089 75.9275 5.14122 74.7188 6.89673C73.4262 9.47711 72.9189 12.3799 73.2597 15.2458C73.4874 17.7586 74.3421 20.174 75.7455 22.2708C75.9346 22.5681 77.2046 25.1619 77.853 24.9728C78.0422 24.8647 78.1502 24.4864 78.1773 24.4594Z" fill="#3B2645"/>
<path d="M76.6643 19.9475C76.3253 19.6441 75.9195 19.425 75.4798 19.3081C75.0402 19.1911 74.5791 19.1796 74.1342 19.2743C73.6892 19.3691 73.2729 19.5676 72.9191 19.8536C72.5653 20.1395 72.284 20.505 72.098 20.9202C70.3958 24.1625 75.4214 28.5937 78.4206 28.1884C78.0091 25.4072 77.4225 22.6548 76.6643 19.9475Z" fill="#E0855C"/>
<path d="M126.11 42.698C124.433 51.6946 123.484 60.8117 123.273 69.9607C123.273 70.8524 123.273 71.636 123.273 72.4195C123.624 78.0666 126.515 104.68 127.056 108.868C127.056 109.22 127.056 109.409 127.056 109.409C108.871 118.866 87.8503 118.46 85.1754 118.433H84.8781C84.7817 118.049 84.6644 117.67 84.5269 117.299C82.9057 112.408 76.6372 92.2789 71.5845 74.527C71.5845 74.2569 71.4224 74.0137 71.3413 73.7165C68.6394 64.5839 64.8296 57.5047 63.8029 52.29C63.4246 50.3175 69.6391 48.0479 72.6653 46.8861C73.0976 46.6969 73.5569 46.5618 74.0433 46.3997C76.421 45.5621 78.8798 44.8596 80.8522 44.3462L84.9322 43.4005L83.6623 32.5927H84.743C85.4224 32.5637 86.0993 32.4915 86.7695 32.3766C87.6005 32.241 88.4219 32.0515 89.2283 31.8092L90.3631 31.4579L91.8492 30.8365C92.6411 30.5037 93.4086 30.1155 94.1458 29.6746C94.3123 29.6026 94.4747 29.5214 94.6322 29.4314C94.6568 29.4457 94.6848 29.4532 94.7132 29.4532C94.7417 29.4532 94.7697 29.4457 94.7943 29.4314L95.3077 29.1072C96.2146 28.5109 97.0647 27.8326 97.8475 27.0807C98.2798 26.6754 98.6581 26.3242 98.9553 26L99.1444 25.7838C99.2865 25.6545 99.4134 25.5094 99.5227 25.3515C99.627 25.2561 99.7179 25.147 99.7929 25.0273V25.2704C99.7929 25.4325 99.7929 25.5947 99.7929 25.7838C99.7929 27.5671 100.171 29.8097 100.549 32.0523C100.766 33.5924 101.009 35.1055 101.252 36.4295C101.684 38.6991 102.036 40.3473 102.036 40.3473C102.525 40.2288 103.021 40.1386 103.522 40.0771H103.684H104.494C106.401 39.7938 108.323 39.6224 110.249 39.5638C111.06 39.5638 111.844 39.5638 112.6 39.5638C116.877 39.6306 121.12 40.3317 125.191 41.6443C125.438 41.6964 125.661 41.8274 125.827 42.0175C125.993 42.2076 126.092 42.4465 126.11 42.698Z" fill="#FFEDE5"/>
<path d="M100.036 24.918C100.089 26.8928 99.7025 28.8547 98.9053 30.6622C98.108 32.4697 96.9195 34.0776 95.4254 35.3701C93.9313 36.6625 92.169 37.6072 90.2656 38.136C88.3622 38.6647 86.3651 38.7644 84.4185 38.4278L83.77 32.8347C86.8922 32.7685 89.963 32.0264 92.7709 30.6598C95.5789 29.2931 98.0574 27.3342 100.036 24.918Z" fill="#E0855C"/>
<path d="M75.5026 11.8946C74.3137 13.813 74.9622 17.2985 75.6647 21.3244C77.8263 33.2941 82.1494 36.2392 88.3639 35.5907C94.5784 34.9423 100.415 31.2676 99.3609 19.9734C98.8475 14.3264 98.4692 9.16558 95.9564 7.13912C92.2007 4.22101 79.1232 6.05834 75.5026 11.8946Z" fill="#FFEDE5"/>
<path d="M98.1989 18.6227C98.1989 18.6227 98.9824 13.2188 102.468 15.2723C105.953 17.3257 103.495 25.5667 98.9014 26.0801C98.9014 25.918 97.1181 20.5411 98.1989 18.6227Z" fill="#FFEDE5"/>
<path d="M80.8249 19.921C80.8249 19.921 79.8793 20.5425 79.6361 18.6781C79.3929 16.8138 80.2035 17.084 80.2035 17.084C80.2035 17.084 80.906 16.9219 81.1222 18.3809C81.3383 19.84 80.8249 19.921 80.8249 19.921Z" fill="#3B2645"/>
<path d="M91.2278 17.7051C91.2278 17.7051 90.2821 18.2996 90.0389 16.4622C89.7957 14.6249 90.6063 14.8681 90.6063 14.8681C90.6063 14.8681 91.3088 14.706 91.525 16.165C91.7411 17.6241 91.2278 17.7051 91.2278 17.7051Z" fill="#3B2645"/>
<path d="M86.5264 23.7843C86.013 23.7843 84.8782 24.3787 84.4999 23.7843C84.3374 22.5015 84.3374 21.2033 84.4999 19.9205C84.6438 18.2043 84.6889 16.4812 84.635 14.7598C84.635 14.7598 84.4729 14.7598 84.4458 14.7598C83.9769 17.9166 83.7691 21.1067 83.8244 24.2977C83.817 24.3399 83.8208 24.3833 83.8355 24.4235C83.8502 24.4637 83.8753 24.4993 83.9082 24.5268C83.9411 24.5542 83.9807 24.5724 84.0229 24.5796C84.0651 24.5869 84.1085 24.5828 84.1486 24.5679C84.9052 24.4058 85.6887 24.4058 86.4453 24.2436C86.7966 24.1896 86.7965 23.7573 86.5264 23.7843Z" fill="#E0855C"/>
<path d="M80.7708 14.1658C79.9331 13.9497 78.5551 14.1658 78.0688 15.0304C78.0498 15.0693 78.0429 15.113 78.049 15.1558C78.0552 15.1987 78.074 15.2387 78.1031 15.2707C78.1322 15.3027 78.1702 15.3252 78.2123 15.3354C78.2544 15.3456 78.2985 15.3429 78.339 15.3277C78.6902 15.3277 78.9875 14.9764 79.3387 14.8683C79.7309 14.7875 80.1354 14.7875 80.5276 14.8683C80.6207 14.9006 80.7229 14.8945 80.8116 14.8514C80.9002 14.8084 80.9682 14.7318 81.0004 14.6387C81.0327 14.5455 81.0266 14.4434 80.9835 14.3547C80.9404 14.266 80.8639 14.1981 80.7708 14.1658Z" fill="#3B2645"/>
<path d="M91.768 12.7603C91.5552 12.5597 91.3044 12.4038 91.0303 12.3017C90.7563 12.1996 90.4645 12.1536 90.1724 12.1661C89.8802 12.1787 89.5935 12.2498 89.3292 12.375C89.065 12.5003 88.8285 12.6772 88.6337 12.8954C88.6064 12.942 88.5911 12.9947 88.5893 13.0487C88.5875 13.1027 88.5992 13.1563 88.6233 13.2046C88.6475 13.2529 88.6834 13.2944 88.7276 13.3254C88.7719 13.3563 88.8232 13.3757 88.8769 13.3818C89.3527 13.3217 89.8226 13.2223 90.2819 13.0846C90.6763 13.0298 91.0764 13.0298 91.4708 13.0846C91.687 13.2197 91.9301 12.9495 91.768 12.7603Z" fill="#3B2645"/>
<path d="M89.7959 25.7015C88.6341 26.296 88.0126 27.1876 86.6346 27.4308C85.9615 27.6071 85.2543 27.6071 84.5811 27.4308C84.2029 27.4308 84.2029 27.2417 83.8246 27.2687C83.7968 27.2715 83.7699 27.2804 83.746 27.2948C83.722 27.3092 83.7016 27.3287 83.6861 27.352C83.6706 27.3752 83.6604 27.4016 83.6563 27.4293C83.6522 27.4569 83.6543 27.4851 83.6625 27.5119C83.9867 28.6737 85.824 28.4846 86.7157 28.3495C87.4203 28.2729 88.0959 28.0263 88.6842 27.631C89.2725 27.2356 89.756 26.7033 90.0931 26.0798C90.1742 25.8637 89.985 25.6205 89.7959 25.7015Z" fill="#E0855C"/>
<path d="M147.32 154.314C146.509 154.909 145.753 155.476 144.969 155.99C144.186 156.503 143.726 156.854 143.105 157.259C136.017 162.165 128.057 165.668 119.652 167.581C114.518 159.313 110.844 152.855 110.844 152.855C110.844 152.855 108.709 150.153 106.115 145.749C100.468 149.748 94.1726 153.612 87.9041 157.422C84.9049 159.232 82.0408 161.042 79.3389 162.826C76.772 161.285 74.4483 159.745 72.3408 158.259C66.816 154.491 61.8027 150.022 57.426 144.966C70.9358 131.456 84.7698 118.432 84.7698 118.432C89.9535 112.877 95.8287 108.01 102.251 103.95C108.331 101.889 114.762 101.062 121.165 101.518C123.909 103.463 125.97 106.224 127.055 109.408C127.255 109.875 127.426 110.353 127.569 110.84C133.621 117.46 137.593 129.537 143.24 143.993C144.672 147.614 145.969 151.018 147.32 154.314Z" fill="#AB8DA8"/>
<path d="M76.6375 246.991C71.2336 251.936 66.6673 249.693 66.6673 249.693C62.4252 241.587 53.2926 224.052 45.592 207.921C52.5393 206.814 59.344 204.948 65.8837 202.355C71.855 222.214 76.6375 246.991 76.6375 246.991Z" fill="#E8CEE5"/>
<path d="M79.4743 250.614C79.5152 250.865 79.5152 251.119 79.4743 251.37C79.2846 252.561 78.6586 253.64 77.718 254.396C76.5375 255.252 75.235 255.926 73.8542 256.395C68.4503 258.584 63.83 261.799 58.1019 263.231C54.6974 264.123 47.6453 265.744 46.0782 261.097C46.0726 261.016 46.0726 260.934 46.0782 260.853C46.0146 260.378 46.0146 259.897 46.0782 259.421C46.1057 259.02 46.169 258.623 46.2673 258.234C46.7807 256.45 48.3748 254.234 52.752 252.829C53.6228 252.562 54.4576 252.19 55.2378 251.721C55.6027 251.518 55.9546 251.292 56.2915 251.045L56.5077 250.857C56.9081 250.54 57.2789 250.187 57.6155 249.803L57.9668 249.398L58.1019 249.236L58.4801 248.642C58.6954 248.314 58.8851 247.97 59.0475 247.614C59.3448 246.992 59.5609 246.48 59.75 246.021C60.4255 244.291 60.8849 242.886 62.452 242.508C65.9645 241.589 71.1523 242.508 71.2874 246.075C71.2874 246.075 75.6646 245.56 76.0158 242.939C76.259 241.264 77.1506 242.561 77.5019 243.426C78.0963 244.885 78.0153 246.56 78.6637 248.073C78.6637 248.289 78.8529 248.452 78.9339 248.669C79.258 249.259 79.486 249.898 79.6094 250.56C79.5675 250.585 79.5219 250.603 79.4743 250.614Z" fill="#3B2645"/>
<path d="M215.599 199.33C200.738 200.032 185.31 201.735 172.8 202.707C173.705 198.265 174.041 193.725 173.8 189.198C173.761 186.512 173.38 183.843 172.665 181.254C187.504 181.829 202.254 183.838 216.707 187.252C221.192 193.115 215.599 199.33 215.599 199.33Z" fill="#E8CEE5"/>
<path d="M60.2633 255.018C59.0744 253.775 57.9937 252.451 56.7508 251.235L56.3455 250.857C56.7459 250.54 57.1167 250.187 57.4533 249.803C57.6154 249.965 57.7505 250.127 57.9126 250.263C59.1546 251.419 60.2688 252.705 61.236 254.099C61.6413 254.721 60.8037 255.585 60.2633 255.018Z" fill="#E8CEE5"/>
<path d="M63.4246 251.423C63.4665 251.528 63.4762 251.643 63.4525 251.753C63.4288 251.864 63.3728 251.964 63.2916 252.043C63.2104 252.121 63.1077 252.173 62.9966 252.193C62.8856 252.213 62.7712 252.199 62.668 252.153C61.4702 251.358 60.3486 250.453 59.3176 249.451C59.0011 249.177 58.6671 248.925 58.3179 248.694C58.5331 248.367 58.7228 248.024 58.8853 247.668C59.2863 247.824 59.6601 248.043 59.9931 248.316C61.4012 249.016 62.5887 250.091 63.4246 251.423Z" fill="#E8CEE5"/>
<path d="M79.4475 251.369C79.2577 252.56 78.6318 253.639 77.6912 254.395C76.5106 255.251 75.2082 255.925 73.8274 256.394C68.4235 258.583 63.8031 261.798 58.075 263.23C54.6705 264.122 47.6184 265.743 46.0513 261.096C46.0458 261.015 46.0458 260.933 46.0513 260.852C45.9878 260.377 45.9878 259.896 46.0513 259.42C52.8332 263.987 59.3449 259.826 66.2349 257.61C71.2605 255.962 76.3402 254.989 79.4475 251.369Z" fill="#E8CEE5"/>
<path d="M144.97 155.991C144.348 156.451 143.727 156.856 143.105 157.261C136.513 141.401 130.541 125.081 121.787 110.491C121.328 109.734 122.381 108.923 122.922 109.68C128.326 117.11 131.649 126.297 135.459 134.646C138.701 141.617 141.997 148.777 144.97 155.991Z" fill="#E8CEE5"/>
<path d="M106.197 145.75C100.549 149.749 94.2539 153.613 87.9854 157.423C84.9862 159.233 82.1221 161.043 79.4202 162.827C76.8533 161.286 74.5296 159.746 72.4221 158.26C91.7681 147.236 105.818 145.777 106.197 145.75Z" fill="#826B80"/>
<path d="M127.055 109.409C108.871 118.866 87.85 118.514 85.1751 118.433H84.8778L84.5266 117.38C82.9054 112.489 76.6369 92.3596 71.5842 74.6078C74.2862 65.5292 74.2862 51.452 74.043 46.5615C76.4207 45.7239 78.8795 45.0214 80.8519 44.508C80.987 49.2635 82.2569 61.125 91.3896 61.4493C102.197 61.8275 104.278 46.5345 104.656 39.8336C106.563 39.5503 108.485 39.3789 110.411 39.3203C111.222 39.3203 112.005 39.3203 112.762 39.3203C112.198 43.8194 112.353 48.3796 113.221 52.83C114.656 60.2601 118.159 67.1343 123.327 72.6624C123.489 75.5265 124.272 83.6323 125.083 91.5761C125.894 99.5198 127.055 109.409 127.055 109.409Z" fill="#3B2645"/>
<path d="M123.353 72.6618C123.353 75.3637 124.272 83.4696 125.083 91.5754C117.075 80.3064 112.906 66.7591 113.194 52.9375C114.656 60.3321 118.167 67.1668 123.326 72.6618H123.353Z" fill="#291B30"/>
<path d="M31.704 88.4952C30.6502 92.305 28.7588 95.7365 27.624 99.4652C27.0296 101.411 29.7856 102.168 30.8934 100.979C33.5691 97.5451 35.4182 93.5418 36.2973 89.2788C36.9728 86.4418 32.4875 85.6852 31.704 88.4952Z" fill="#AB8DA8"/>
<path d="M79.366 38.6992C80.0145 39.5908 80.6899 40.4014 81.3654 41.239C81.6229 41.5268 81.8577 41.8339 82.0679 42.1577C86.1749 47.8858 86.8774 54.4786 88.9309 60.8282L89.6604 59.6934C89.066 57.2076 88.5526 54.7218 87.8771 52.29C88.5077 48.5056 90.0571 44.9338 92.3894 41.8875C94.2149 40.08 95.8701 38.1083 97.334 35.9972C98.5533 33.7278 99.2633 31.2198 99.4145 28.6479C99.4697 26.1432 99.9541 23.6666 100.847 21.3256C100.946 21.1292 101.019 20.9202 101.063 20.7042C101.071 20.4263 101.012 20.1504 100.89 19.9008C100.767 19.6512 100.585 19.4353 100.36 19.2722C100.191 19.1284 99.9852 19.0348 99.7657 19.002C99.6522 18.9886 99.5373 19.0098 99.4361 19.0628C99.3348 19.1159 99.252 19.1982 99.1983 19.2992C99.1706 19.4419 99.1706 19.5887 99.1983 19.7315C99.2565 21.3126 99.1661 22.8957 98.9281 24.4599C98.766 26.1081 98.685 27.7833 98.4958 29.4585C98.0287 33.3015 96.243 36.8634 93.4432 39.5368C90.2508 42.6162 88.1617 46.6614 87.4989 51.0471C86.8624 48.7761 85.9553 46.5899 84.7969 44.5354C83.2028 41.8335 81.0412 39.4557 79.393 36.8078C78.1992 34.9634 77.365 32.9099 76.9342 30.7555C76.6358 29.7649 76.4811 28.7367 76.4749 27.7022C76.4749 26.6755 76.9612 24.622 76.3128 23.7574C75.3131 22.4064 74.9348 23.9736 75.0699 24.9192C75.3941 26.9727 75.3671 29.0532 75.7994 31.0797C76.3912 33.534 77.4259 35.8598 78.8526 37.9427L79.366 38.6992Z" fill="#AB8DA8"/>
<path d="M101.576 90.8995C99.9006 92.8449 100.225 96.3034 100.279 98.5731C100.545 100.552 100.662 102.548 100.63 104.544C100.618 105.407 100.415 106.256 100.037 107.032C99.6586 107.807 99.1139 108.489 98.4416 109.03C97.9146 109.272 97.3457 109.409 96.7664 109.435C96.2587 109.543 95.734 109.543 95.2263 109.435C94.5032 109.131 93.8837 108.625 93.443 107.976C91.5516 105.598 91.9299 103.491 91.7948 100.654C91.7808 99.4484 91.5167 98.2593 91.019 97.1616C90.5213 96.0639 89.801 95.0817 88.9037 94.2771C83.9591 89.0893 86.553 84.6581 88.0391 78.8489C89.9575 71.3375 90.741 61.6915 87.4446 54.5312C88.1423 59.1929 88.5305 63.8955 88.6065 68.6084C88.1999 73.7122 87.1747 78.7479 85.5533 83.6043C84.9914 84.9575 84.7021 86.4082 84.7021 87.8733C84.7021 89.3385 84.9914 90.7894 85.5533 92.1425C86.1538 93.1405 86.8904 94.0498 87.7419 94.8444C90.4438 97.5463 90.4438 100.086 90.741 103.788C91.0382 107.49 94.9831 112.758 99.3332 109.651C100.167 108.907 100.811 107.975 101.21 106.931C101.61 105.887 101.754 104.763 101.63 103.653C101.63 101.707 101.225 99.789 101.117 97.8435C100.945 96.2027 101.018 94.5455 101.333 92.9261C101.415 92.6029 101.563 92.2996 101.765 92.0344C102.178 91.5865 102.73 91.2914 103.332 91.1968C103.638 91.0624 103.972 91.0066 104.305 91.0346C104.733 91.0822 105.133 91.2726 105.44 91.575C106.19 92.4588 106.8 93.452 107.25 94.5202C107.25 94.7634 107.439 95.2768 107.709 95.3849C107.979 95.4929 108.412 95.2497 108.331 94.8984C107.655 92.1965 104.737 87.2789 101.576 90.8995Z" fill="#AB8DA8"/>
<path d="M112.076 92.199L105.982 95.1752C104.534 95.8825 103.933 97.6298 104.641 99.0779L112.075 114.301C112.782 115.749 114.53 116.349 115.978 115.642L122.072 112.666C123.52 111.959 124.121 110.212 123.413 108.763L115.979 93.5406C115.272 92.0924 113.524 91.4918 112.076 92.199Z" fill="#E8CEE5"/>
<path d="M124.111 41.4286C124.536 41.3394 124.977 41.3542 125.396 41.4718C125.814 41.5894 126.198 41.8063 126.515 42.1041C131.919 47.2108 157.777 72.7713 160.074 83.9033C162.478 95.5487 127.191 104.492 122.652 105.519C122.343 105.588 122.067 105.76 121.868 106.005C120.517 107.572 114.843 113.652 110.493 109.869C106.143 106.086 102.387 97.278 115.437 95.7379C123.408 94.7922 141.943 83.3359 141.943 83.3359L119.679 66.2866C119.679 66.2866 112.438 43.9955 124.111 41.4286Z" fill="#FFEDE5"/>
<path d="M152.859 182.659C142.24 182.037 131.487 182.659 120.868 182.659C110.249 182.659 99.4685 182.253 88.8769 183.01C88.8292 183.027 88.7878 183.058 88.7586 183.099C88.7293 183.14 88.7136 183.189 88.7136 183.24C88.7136 183.29 88.7293 183.339 88.7586 183.381C88.7878 183.422 88.8292 183.453 88.8769 183.469C99.4685 184.226 110.249 183.767 120.868 183.794C131.487 183.821 142.24 184.388 152.859 183.794C153.01 183.794 153.154 183.734 153.26 183.627C153.367 183.521 153.427 183.377 153.427 183.226C153.427 183.076 153.367 182.931 153.26 182.825C153.154 182.719 153.01 182.659 152.859 182.659Z" fill="#F7F8F8"/>
<path d="M229.433 139.834C217.679 139.212 205.818 139.645 194.064 139.645C182.311 139.645 170.368 138.915 158.695 139.969C158.581 139.969 158.471 140.014 158.39 140.096C158.309 140.177 158.263 140.287 158.263 140.401C158.263 140.516 158.309 140.626 158.39 140.707C158.471 140.788 158.581 140.834 158.695 140.834C170.368 141.86 182.365 141.104 194.064 141.131C205.764 141.158 217.679 141.563 229.433 140.969C229.583 140.969 229.727 140.909 229.834 140.802C229.94 140.696 230 140.552 230 140.401C230 140.251 229.94 140.106 229.834 140C229.727 139.894 229.583 139.834 229.433 139.834Z" fill="#F7F8F8"/>
<path d="M49.2393 124.566C41.2686 124.079 33.1627 124.431 25.1649 124.566C17.1305 124.232 9.0835 124.358 1.06349 124.944C0.998995 124.944 0.937141 124.97 0.891537 125.015C0.845933 125.061 0.820313 125.123 0.820312 125.187C0.820313 125.252 0.845933 125.314 0.891537 125.359C0.937141 125.405 0.998995 125.43 1.06349 125.43C9.0841 126.003 17.1303 126.129 25.1649 125.809C33.2708 125.809 41.3766 126.16 49.2393 125.809C49.4041 125.809 49.5622 125.743 49.6788 125.627C49.7953 125.51 49.8608 125.352 49.8608 125.187C49.8608 125.022 49.7953 124.864 49.6788 124.748C49.5622 124.631 49.4041 124.566 49.2393 124.566Z" fill="#F7F8F8"/>
<path d="M57.345 130.484C48.7918 129.7 40.1801 129.808 31.6494 130.808C31.6494 130.808 31.6494 131.051 31.6494 131.078C40.1819 132.056 48.7922 132.155 57.345 131.376C57.4446 131.351 57.533 131.294 57.5962 131.213C57.6594 131.132 57.6937 131.032 57.6937 130.93C57.6937 130.827 57.6594 130.728 57.5962 130.647C57.533 130.566 57.4446 130.509 57.345 130.484Z" fill="#F7F8F8"/>
<path d="M198.333 24.0269C187.201 23.4055 175.934 23.8378 164.775 23.8648C153.616 23.8918 142.348 23.4866 131.216 24.2701C131.13 24.2701 131.048 24.3043 130.987 24.3651C130.926 24.4259 130.892 24.5084 130.892 24.5944C130.892 24.6803 130.926 24.7628 130.987 24.8236C131.048 24.8844 131.13 24.9186 131.216 24.9186C142.348 25.7022 153.643 25.3239 164.775 25.3509C175.907 25.3779 187.201 25.8102 198.333 25.1888C198.466 25.16 198.584 25.0867 198.67 24.981C198.755 24.8753 198.801 24.7436 198.801 24.6079C198.801 24.4721 198.755 24.3404 198.67 24.2347C198.584 24.1291 198.466 24.0557 198.333 24.0269Z" fill="#F7F8F8"/>
</g>
<defs>
<clipPath id="clip0_1319_42">
<rect width="230" height="265" fill="white"/>
</clipPath>
</defs>
</svg>
