<svg width="34" height="44" viewBox="0 0 34 44" fill="none" xmlns="http://www.w3.org/2000/svg">
<g clip-path="url(#clip0_827_3263)">
<path d="M2.1623 15.5188C7.13422 18.7844 12.781 17.7066 18.5563 16.593C22.8075 15.7838 27.1229 14.9602 31.3373 15.8088L31.5163 15.8446L29.1796 39.2877C29.0971 40.2381 28.5827 41.1345 27.7289 41.8157C27.3243 42.1349 26.8424 42.3883 26.3112 42.561C25.78 42.7337 25.2101 42.8224 24.6346 42.8218H9.67756C9.11027 42.8237 8.54825 42.7369 8.02469 42.5665C7.50112 42.3962 7.02663 42.1457 6.62922 41.83C5.77789 41.139 5.24916 40.2449 5.12801 39.2912L1.73535 15.2395L2.1623 15.5188Z" fill="black" fill-opacity="0.7"/>
<path fill-rule="evenodd" clip-rule="evenodd" d="M2.01996 16.3998C10.7426 22.129 21.3797 14.7455 31.2822 16.7579L28.9592 40.0541C28.7756 41.9053 27.0127 43.4307 24.6346 43.4307H9.67753C7.29946 43.4307 5.61002 41.8982 5.35293 40.0541L2.01996 16.3998Z" fill="url(#paint0_linear_827_3263)"/>
<path d="M1.23205e-05 5.05241C-0.0115601 4.99668 -0.0115601 4.93985 1.23205e-05 4.88412C-0.00676476 4.80782 -0.00676476 4.73125 1.23205e-05 4.65495C1.23205e-05 3.24772 2.02 2.04102 5.28411 1.22461C8.29572 0.465495 12.4413 0 16.9862 0C21.5312 0 25.7089 0.465495 28.7205 1.22103C31.9846 2.03744 34 3.24414 34 4.65137C33.9994 4.8759 33.9497 5.09871 33.8531 5.31023L29.7213 40.0899C29.6115 41.1387 29.0368 42.1249 28.0962 42.8793C27.6468 43.2355 27.1108 43.5181 26.5195 43.7106C25.9283 43.903 25.2937 44.0014 24.653 44H9.67757C9.03841 44.0028 8.40507 43.9053 7.81516 43.7134C7.22526 43.5214 6.69082 43.239 6.2436 42.8828C5.30013 42.132 4.71657 41.1509 4.59088 40.1042L1.23205e-05 5.05241ZM1.74913 6.80339L6.10128 39.9932C6.18753 40.7717 6.61374 41.5036 7.30868 42.0664C7.61779 42.3115 7.98661 42.5058 8.39343 42.638C8.80024 42.7702 9.23685 42.8376 9.67757 42.8363H24.6346C25.0777 42.837 25.5165 42.769 25.9255 42.6362C26.3346 42.5034 26.7057 42.3085 27.0173 42.0629C27.7078 41.5031 28.1294 40.7745 28.2109 40.0004L32.1591 6.85352C31.0962 7.39641 29.9379 7.81615 28.7205 8.09962C25.7089 8.84083 21.5771 9.3099 16.9862 9.3099C12.3954 9.3099 8.26358 8.84441 5.27033 8.08887C4.02003 7.80168 2.8328 7.36826 1.74913 6.80339ZM32.3703 5.06315L32.4024 4.83041C32.4096 4.74996 32.4394 4.67174 32.4896 4.60124C32.407 3.78841 30.8048 2.98991 28.2568 2.35254C25.3921 1.62207 21.4118 1.17806 16.9862 1.17806C12.5606 1.17806 8.6079 1.62207 5.74319 2.33822C3.1264 2.99349 1.51041 3.81706 1.51041 4.65495C1.51041 5.49284 3.1264 6.31641 5.74319 6.97168C8.6079 7.68783 12.5882 8.13184 17 8.13184C21.4118 8.13184 25.3921 7.68783 28.2568 6.97168C30.4604 6.42025 31.9295 5.75066 32.3886 5.05241L32.3703 5.06315Z" fill="black" fill-opacity="0.74"/>
</g>
<defs>
<linearGradient id="paint0_linear_827_3263" x1="95.625" y1="-44.3928" x2="11.3866" y2="51.8005" gradientUnits="userSpaceOnUse">
<stop stop-color="#C58BF2"/>
<stop offset="1" stop-color="#B4C0FE"/>
</linearGradient>
<clipPath id="clip0_827_3263">
<rect width="34" height="44" fill="white"/>
</clipPath>
</defs>
</svg>
