<svg width="25" height="35" viewBox="0 0 25 35" fill="none" xmlns="http://www.w3.org/2000/svg">
<path d="M0 1.73389L2.80651 32.9377C2.89235 33.8932 7.0496 34.7138 12.0934 34.7843C17.1372 34.8548 21.3137 34.1512 21.4232 33.1957L25 2.07908L0 1.73389Z" fill="url(#paint0_linear_993_685)"/>
<g opacity="0.64">
<path opacity="0.64" d="M22.7219 8.02511C22.7558 7.99884 22.7739 7.97375 22.7739 7.94747C22.7739 7.51389 18.1638 7.09822 12.466 7.01939C6.76829 6.94055 2.14573 7.22722 2.13782 7.662C2.13782 7.68828 2.15476 7.71456 2.18752 7.74083H2.1062L4.44628 32.1864C4.51856 32.9365 7.96092 33.5792 12.1362 33.6377C16.3116 33.6962 19.7686 33.1468 19.8601 32.399L22.8044 8.03228L22.7219 8.02511Z" fill="white"/>
</g>
<path d="M24.9648 1.97951C24.9717 1.42609 19.3975 0.900202 12.5145 0.804907C5.63144 0.709612 0.0461086 1.081 0.0392585 1.63442C0.0324085 2.18784 5.60664 2.71373 12.4896 2.80902C19.3727 2.90432 24.958 2.53293 24.9648 1.97951Z" fill="#7B6F72"/>
<g opacity="0.51">
<path opacity="0.51" d="M22.8056 7.88432C22.8056 8.2761 18.1503 8.53052 12.4153 8.45169C6.68027 8.37285 2.04529 7.98944 2.04981 7.59766C2.05433 7.20588 6.70512 6.95027 12.4401 7.03029C18.1751 7.11032 22.8135 7.49135 22.8056 7.88432Z" fill="white"/>
</g>
<path d="M10.762 19.3316C10.8245 18.4693 10.8685 17.6065 10.8941 16.7433C10.9088 16.2655 10.2029 16.2297 10.1883 16.7122C10.1649 17.5006 10.1273 18.2885 10.0753 19.076L8.32704 18.9996C8.34285 18.4382 8.35829 17.8776 8.37335 17.3178C8.38577 16.84 7.67991 16.8042 7.66635 17.2868C7.62645 18.7392 7.5888 20.192 7.55342 21.6453C7.53986 22.1231 8.24573 22.1589 8.25928 21.6763C8.2766 21.0337 8.29391 20.3903 8.31123 19.7461L10.0245 19.8214C9.96352 20.5906 9.88822 21.3578 9.79863 22.1231C9.74329 22.6009 10.4492 22.6283 10.5045 22.1541C10.6016 21.3228 10.6822 20.4899 10.7462 19.6553C10.7691 19.6052 10.7822 19.5508 10.785 19.4952C10.7877 19.4396 10.7799 19.384 10.762 19.3316Z" fill="white"/>
<path d="M12.3509 24.8621C12.2944 24.8621 11.8381 24.8144 11.6665 24.7929C11.7615 24.7142 11.8485 24.6253 11.9262 24.5277C11.9928 24.4536 12.064 24.3844 12.1295 24.3079C12.4017 23.9878 12.605 23.5912 12.4977 23.1505C12.3068 22.3645 11.2667 22.3144 11.078 23.1278C10.9651 23.5936 11.6427 23.8242 11.7557 23.3559C11.8788 23.3559 11.8844 23.4336 11.7715 23.5853C11.7121 23.6902 11.6391 23.7859 11.5546 23.8695C11.4553 23.9806 11.3491 24.0857 11.2554 24.2028C11.0848 24.419 10.9165 24.6877 10.9504 24.984C11.0261 25.6445 11.8765 25.5597 12.326 25.6087C12.7755 25.6576 12.8015 24.9171 12.3509 24.8621Z" fill="white"/>
<path d="M15.5245 17.3037C15.521 17.2161 15.485 17.1336 15.4244 17.0739C15.3637 17.0142 15.2832 16.9822 15.2004 16.9848C14.0146 16.9692 13.4137 18.8278 13.3832 19.8431C13.3482 20.9778 13.87 22.3658 15.118 22.3825C16.3433 22.3992 17.0933 21.1821 17.1972 20.0091C17.2875 18.9879 16.5726 17.4888 15.5245 17.3037ZM16.4721 20.1393C16.3592 20.8787 15.8396 21.7411 15.022 21.6264C14.2043 21.5117 14.0462 20.42 14.0959 19.7296C14.1213 19.3836 14.2023 19.0447 14.3353 18.7275C14.4358 18.4886 14.6572 18.0108 14.9305 17.8161C14.9652 17.8865 15.0197 17.9438 15.0864 17.9801C15.1531 18.0165 15.2288 18.0301 15.3032 18.0192C15.6849 17.9702 16.1242 18.6164 16.2914 18.9162C16.4884 19.2878 16.5525 19.7219 16.4721 20.1393Z" fill="white"/>
<defs>
<linearGradient id="paint0_linear_993_685" x1="25" y1="34.7892" x2="-8.40493" y2="32.8342" gradientUnits="userSpaceOnUse">
<stop stop-color="#92A3FD"/>
<stop offset="1" stop-color="#9DCEFF"/>
</linearGradient>
</defs>
</svg>
