<svg width="14" height="17" viewBox="0 0 14 17" fill="none" xmlns="http://www.w3.org/2000/svg">
<path fill-rule="evenodd" clip-rule="evenodd" d="M6.9754 11.4429C3.75238 11.4429 1 11.9302 1 13.8818C1 15.8333 3.73492 16.3381 6.9754 16.3381C10.1984 16.3381 12.95 15.85 12.95 13.8992C12.95 11.9484 10.2159 11.4429 6.9754 11.4429Z" stroke="url(#paint0_linear_22_16522)" stroke-width="1.2" stroke-linecap="round" stroke-linejoin="round"/>
<path fill-rule="evenodd" clip-rule="evenodd" d="M6.97471 8.65952C9.08979 8.65952 10.8041 6.94444 10.8041 4.82936C10.8041 2.71429 9.08979 1 6.97471 1C4.85963 1 3.14455 2.71429 3.14455 4.82936C3.13741 6.9373 4.84059 8.65238 6.94773 8.65952H6.97471Z" stroke="url(#paint1_linear_22_16522)" stroke-width="1.2" stroke-linecap="round" stroke-linejoin="round"/>
<defs>
<linearGradient id="paint0_linear_22_16522" x1="12.95" y1="16.3381" x2="-2.52023" y2="13.4158" gradientUnits="userSpaceOnUse">
<stop stop-color="#92A3FD"/>
<stop offset="1" stop-color="#9DCEFF"/>
</linearGradient>
<linearGradient id="paint1_linear_22_16522" x1="10.8041" y1="8.65952" x2="0.595486" y2="7.86957" gradientUnits="userSpaceOnUse">
<stop stop-color="#92A3FD"/>
<stop offset="1" stop-color="#9DCEFF"/>
</linearGradient>
</defs>
</svg>
