<svg width="18" height="18" viewBox="0 0 18 18" fill="none" xmlns="http://www.w3.org/2000/svg">
<path d="M12.2748 4.81152C10.8573 4.81152 10.2582 5.48793 9.27102 5.48793C8.25887 5.48793 7.48684 4.81645 6.25848 4.81645C5.05614 4.81645 3.77399 5.55051 2.95977 6.80102C1.81648 8.56446 2.01055 11.8857 3.86223 14.7151C4.52457 15.7279 5.4091 16.8638 6.56926 16.8761H6.59036C7.59864 16.8761 7.89817 16.2159 9.28579 16.2081H9.30688C10.6738 16.2081 10.948 16.8722 11.952 16.8722H11.9731C13.1333 16.8599 14.0653 15.6013 14.7276 14.5924C15.2043 13.8667 15.3815 13.5025 15.7472 12.6816C13.0686 11.6649 12.6383 7.86766 15.2873 6.41184C14.4787 5.39934 13.3425 4.81293 12.2713 4.81293L12.2748 4.81152Z" fill="#323233"/>
<path d="M11.961 1.125C11.1172 1.1823 10.1328 1.71949 9.55627 2.42086C9.03315 3.05648 8.60283 3.99938 8.77158 4.91379H8.83908C9.73768 4.91379 10.6574 4.37273 11.1945 3.67945C11.712 3.01957 12.1044 2.08441 11.961 1.125Z" fill="#323233"/>
</svg>
