<svg width="26" height="24" viewBox="0 0 26 24" fill="none" xmlns="http://www.w3.org/2000/svg">
<path d="M19.528 4.9556L19.0715 5.15956L19.0808 5.18048L19.0921 5.20046L19.528 4.9556ZM6.46 4.9556L6.01126 4.73507L5.99982 4.75835L5.99086 4.78268L6.46 4.9556ZM6.532 4.8091L6.98083 5.02968L6.98513 5.02047L6.532 4.8091ZM6.65894 4.53684L6.20575 4.3256L6.20575 4.3256L6.65894 4.53684ZM7.516 2.72142L7.06919 2.49696L7.06726 2.50089L7.516 2.72142ZM10.168 1L10.168 0.499972L10.1628 0.500028L10.168 1ZM15.82 1L15.8252 0.5H15.82V1ZM18.484 2.72142L18.9328 2.50088L18.9308 2.49697L18.484 2.72142ZM19.2386 4.32267L18.7851 4.53343L18.7851 4.53343L19.2386 4.32267ZM19.408 4.68701L19.8646 4.48303L19.8613 4.47598L19.408 4.68701ZM10.9243 11.5361L11.2809 11.8866L11.2809 11.8866L10.9243 11.5361ZM15.9163 13.6238L16.4163 13.6274V13.6238H15.9163ZM10.9363 15.7237L11.2929 15.3732L11.2929 15.3732L10.9363 15.7237ZM10.0843 13.6116H10.5844L10.5843 13.6038L10.0843 13.6116ZM16.3254 17.0177L16.682 17.3682L16.682 17.3682L16.3254 17.0177ZM9.66537 17.0177L9.30641 17.3658L9.31114 17.3706L9.66537 17.0177ZM8.28537 13.6237L8.78539 13.6237L8.78535 13.619L8.28537 13.6237ZM9.65337 10.2419L9.29678 9.89139L9.29444 9.8938L9.65337 10.2419ZM16.3374 10.2297L16.6963 9.88158L16.694 9.87919L16.3374 10.2297ZM17.7174 13.6237L18.2174 13.6282V13.6237H17.7174ZM19.768 4.60211C19.8119 4.60211 19.8571 4.6155 19.8952 4.63988C19.931 4.66281 19.9523 4.68996 19.9639 4.71075L19.0921 5.20046C19.2128 5.41552 19.4493 5.60211 19.768 5.60211V4.60211ZM25.5 10.4251C25.5 7.22702 22.9322 4.60211 19.768 4.60211V5.60211C22.3638 5.60211 24.5 7.76299 24.5 10.4251H25.5ZM25.5 17.677V10.4251H24.5V17.677H25.5ZM19.768 23.5C22.9322 23.5 25.5 20.8751 25.5 17.677H24.5C24.5 20.3391 22.3638 22.5 19.768 22.5V23.5ZM6.232 23.5H19.768V22.5H6.232V23.5ZM0.5 17.677C0.5 20.8743 3.05503 23.5 6.232 23.5V22.5C3.62497 22.5 1.5 20.3399 1.5 17.677H0.5ZM0.5 10.4251V17.677H1.5V10.4251H0.5ZM6.232 4.60211C3.05503 4.60211 0.5 7.22778 0.5 10.4251H1.5C1.5 7.76223 3.62497 5.60211 6.232 5.60211V4.60211ZM5.99086 4.78268C6.01542 4.71603 6.062 4.66643 6.11034 4.63728C6.15501 4.61035 6.19788 4.60211 6.232 4.60211V5.60211C6.48107 5.60211 6.80298 5.47083 6.92915 5.12853L5.99086 4.78268ZM6.08326 4.58857L6.01126 4.73507L6.90874 5.17614L6.98074 5.02963L6.08326 4.58857ZM6.20575 4.3256C6.16264 4.41809 6.12021 4.50912 6.07887 4.59773L6.98513 5.02047C7.02653 4.93171 7.06902 4.84055 7.11212 4.74808L6.20575 4.3256ZM7.06726 2.50089C6.85396 2.93491 6.51164 3.66937 6.20575 4.3256L7.11212 4.74808C7.42021 4.08714 7.75714 3.36436 7.96474 2.94195L7.06726 2.50089ZM10.1628 0.500028C8.79743 0.514348 7.69867 1.244 7.06921 2.49697L7.96279 2.94588C8.43733 2.00128 9.21057 1.51007 10.1732 1.49997L10.1628 0.500028ZM15.82 0.5H10.168V1.5H15.82V0.5ZM18.9308 2.49697C18.3002 1.24182 17.1883 0.514324 15.8252 0.500028L15.8148 1.49997C16.7797 1.51009 17.5638 2.00346 18.0372 2.94588L18.9308 2.49697ZM19.692 4.11191C19.4155 3.51718 19.1247 2.89158 18.9327 2.50089L18.0353 2.94195C18.2213 3.32047 18.5065 3.93395 18.7851 4.53343L19.692 4.11191ZM19.8613 4.47598C19.806 4.35715 19.7492 4.23509 19.692 4.11191L18.7851 4.53343C18.8424 4.65656 18.8992 4.7789 18.9547 4.89805L19.8613 4.47598ZM19.9845 4.75165L19.8645 4.48306L18.9515 4.89097L19.0715 5.15956L19.9845 4.75165ZM19.7323 10.2426C19.4166 10.2426 19.1523 9.98625 19.1523 9.6438H18.1523C18.1523 10.5222 18.8481 11.2426 19.7323 11.2426V10.2426ZM20.3243 9.6438C20.3243 9.97902 20.0553 10.2426 19.7323 10.2426V11.2426C20.6094 11.2426 21.3243 10.5294 21.3243 9.6438H20.3243ZM19.7323 9.03281C20.0481 9.03281 20.3243 9.30135 20.3243 9.6438H21.3243C21.3243 8.76538 20.6166 8.03281 19.7323 8.03281V9.03281ZM19.1523 9.6438C19.1523 9.29406 19.4237 9.03281 19.7323 9.03281V8.03281C18.841 8.03281 18.1523 8.77267 18.1523 9.6438H19.1523ZM13.0003 10.1571C12.0847 10.1571 11.2247 10.5172 10.5677 11.1856L11.2809 11.8866C11.752 11.4073 12.3559 11.1571 13.0003 11.1571V10.1571ZM15.4209 11.1734C14.7749 10.5161 13.9144 10.1571 13.0003 10.1571V11.1571C13.6463 11.1571 14.2498 11.4085 14.7077 11.8744L15.4209 11.1734ZM16.4163 13.6238C16.4163 12.7017 16.0666 11.8303 15.4209 11.1734L14.7077 11.8744C15.166 12.3406 15.4163 12.9587 15.4163 13.6238H16.4163ZM13.0003 17.0905C14.8958 17.0905 16.4024 15.5251 16.4163 13.6274L15.4163 13.6201C15.4063 14.9943 14.3208 16.0905 13.0003 16.0905V17.0905ZM10.5797 16.0742C11.2258 16.7314 12.0863 17.0905 13.0003 17.0905V16.0905C12.3544 16.0905 11.7509 15.8391 11.2929 15.3732L10.5797 16.0742ZM9.58433 13.6238C9.58433 14.5459 9.93402 15.4172 10.5797 16.0742L11.2929 15.3732C10.8346 14.9069 10.5843 14.2888 10.5843 13.6238H9.58433ZM9.58433 13.6116V13.6238H10.5843V13.6116H9.58433ZM10.5677 11.1856C9.92375 11.8408 9.57026 12.7139 9.58439 13.6194L10.5843 13.6038C10.5744 12.971 10.8209 12.3546 11.2809 11.8866L10.5677 11.1856ZM13.0014 18.9217C14.4388 18.9217 15.7412 18.3253 16.682 17.3682L15.9688 16.6672C15.2055 17.4437 14.156 17.9217 13.0014 17.9217V18.9217ZM9.31114 17.3706C10.302 18.3652 11.6043 18.9217 13.0014 18.9217V17.9217C11.8784 17.9217 10.8287 17.477 10.0196 16.6648L9.31114 17.3706ZM7.78537 13.6237C7.78537 15.0371 8.32906 16.358 9.30644 17.3658L10.0243 16.6696C9.22568 15.8461 8.78537 14.7741 8.78537 13.6237H7.78537ZM9.29444 9.8938C8.31765 10.901 7.77211 12.2231 7.78539 13.6284L8.78535 13.619C8.77463 12.4848 9.21309 11.4141 10.0123 10.59L9.29444 9.8938ZM13.0014 8.32568C11.6053 8.32568 10.2894 8.88155 9.29678 9.8914L10.01 10.5924C10.8174 9.77092 11.8775 9.32568 13.0014 9.32568V8.32568ZM16.694 9.87919C15.7127 8.88086 14.3965 8.32568 13.0014 8.32568V9.32568C14.1262 9.32568 15.186 9.77162 15.9808 10.5802L16.694 9.87919ZM18.2174 13.6237C18.2174 12.2231 17.6741 10.8899 16.6963 9.88159L15.9784 10.5778C16.7766 11.4008 17.2174 12.4848 17.2174 13.6237H18.2174ZM16.682 17.3682C17.6231 16.4106 18.2042 15.0908 18.2174 13.6282L17.2174 13.6192C17.2066 14.818 16.7316 15.8911 15.9688 16.6672L16.682 17.3682Z" fill="#ADA4A5"/>
</svg>
