<svg width="16" height="16" viewBox="0 0 16 16" fill="none" xmlns="http://www.w3.org/2000/svg">
<path fill-rule="evenodd" clip-rule="evenodd" d="M10.6636 0.500185C10.9684 0.187733 11.3816 0.012207 11.8125 0.012207C12.2434 0.012207 12.6566 0.187733 12.9614 0.500185L15.0625 2.65518C15.3671 2.96773 15.5383 3.39158 15.5383 3.83352C15.5383 4.27546 15.3671 4.69931 15.0625 5.01185L13.7739 6.33352L9.375 1.82185L10.6636 0.500185ZM8.22613 3.00018L0.913625 10.5002C0.608857 10.8127 0.437592 11.2365 0.4375 11.6785V13.8335C0.4375 14.2755 0.608705 14.6995 0.913451 15.012C1.2182 15.3246 1.63152 15.5002 2.0625 15.5002H4.16363C4.59457 15.5001 5.00782 15.3244 5.3125 15.0119L12.625 7.51185L8.22613 3.00018Z" fill="url(#paint0_linear_26_3649)"/>
<defs>
<linearGradient id="paint0_linear_26_3649" x1="7.98789" y1="0.012207" x2="7.98789" y2="15.5002" gradientUnits="userSpaceOnUse">
<stop stop-color="#C58BF2"/>
<stop offset="1" stop-color="#EEA4CE"/>
</linearGradient>
</defs>
</svg>
