<svg width="255" height="328" viewBox="0 0 255 328" fill="none" xmlns="http://www.w3.org/2000/svg">
<g clip-path="url(#clip0_700_3726)">
<path d="M231.02 207.108C272.114 129.199 259.072 41.3816 201.892 10.9634C144.712 -19.4548 65.0453 19.0445 23.952 96.954C-17.1413 174.864 -4.10016 262.681 53.0802 293.099C110.26 323.517 189.927 285.018 231.02 207.108Z" fill="#97BEFC"/>
<path d="M98.2968 327.548C129.534 327.548 154.858 326.913 154.858 326.129C154.858 325.345 129.534 324.709 98.2968 324.709C67.059 324.709 41.7358 325.345 41.7358 326.129C41.7358 326.913 67.059 327.548 98.2968 327.548Z" fill="#3B2645"/>
<path d="M98.441 326.129C135.891 326.129 166.251 295.821 166.251 258.435C166.251 221.048 135.891 190.74 98.441 190.74C60.9908 190.74 30.6313 221.048 30.6313 258.435C30.6313 295.821 60.9908 326.129 98.441 326.129Z" fill="#FA9E97"/>
<path d="M86.5865 305.737C81.2506 305.737 75.9146 305.128 70.6364 303.854C51.9462 299.422 36.1691 287.604 26.2183 270.543C16.2675 253.51 13.3544 233.292 17.9692 213.624C22.5841 193.956 34.2078 177.213 50.7059 166.438C67.2041 155.663 86.5865 152.187 105.277 156.618C123.967 161.05 139.744 172.868 149.695 189.93C159.646 206.962 162.559 227.18 157.944 246.848C153.329 266.516 141.676 283.259 125.207 294.034C113.382 301.739 100.085 305.737 86.5865 305.737ZM89.4131 155.344C56.7341 155.344 26.6798 179.009 18.4884 213.769C13.9024 233.292 16.8155 253.337 26.6798 270.253C36.5441 287.169 52.2058 298.901 70.7517 303.303C76.0011 304.549 81.3082 305.157 86.5865 305.157C99.9696 305.157 113.151 301.218 124.89 293.542C141.244 282.853 152.781 266.227 157.396 246.703C161.982 227.18 159.069 207.135 149.204 190.219C139.34 173.303 123.678 161.572 105.132 157.169C99.8831 155.923 94.6048 155.344 89.4131 155.344Z" fill="white"/>
<path d="M63.8583 270.803C57.5417 270.803 51.7731 269.21 46.841 265.966C36.6018 259.246 31.237 246.356 31.785 229.642C32.333 212.958 38.6496 194.477 49.6099 177.59C60.5702 160.703 74.8475 147.407 89.8458 140.166C104.844 132.924 118.775 132.634 129.014 139.326C139.254 146.046 144.618 158.936 144.07 175.649C143.522 192.334 137.206 210.814 126.246 227.702C115.285 244.589 101.008 257.884 86.0097 265.126C78.2221 268.921 70.7229 270.803 63.8583 270.803ZM49.8118 177.706L49.9849 177.822C39.0534 194.651 32.7657 213.074 32.2177 229.642C31.6985 246.211 36.9767 258.956 47.0718 265.589C67.9829 279.29 103.344 262.171 125.871 227.47C148.397 192.768 149.695 153.374 128.784 139.702C107.873 126.001 72.5112 143.12 49.9849 177.822L49.8118 177.706Z" fill="white"/>
<path d="M57.8301 244.821C53.6768 244.821 50.2733 243.575 48.2831 240.968C45.6296 237.55 45.7161 232.336 48.5427 226.311C51.3405 220.315 56.4457 214.232 62.993 209.134L63.1084 209.279L62.993 209.134C76.5203 198.59 91.9513 195.752 97.3738 202.791C102.796 209.829 96.1912 224.11 82.6639 234.653C74.1264 241.229 64.8678 244.821 57.8301 244.821ZM63.2238 209.424C56.7341 214.464 51.6578 220.518 48.8888 226.456C46.1488 232.336 46.0334 237.405 48.6004 240.707C53.8787 247.572 69.05 244.676 82.4331 234.277C95.8162 223.878 102.364 209.829 97.0565 202.993C91.7494 196.157 76.578 199.025 63.2238 209.424Z" fill="white"/>
<g opacity="0.3">
<path opacity="0.3" d="M155.896 222.488C158.348 229.41 159.588 236.71 159.559 244.067C159.559 279.841 130.687 308.807 95.0952 308.807C61.8682 308.807 34.5251 283.577 31.0063 251.164C30.7467 253.568 30.6313 256.001 30.6313 258.435C30.6313 295.801 61.0029 326.129 98.441 326.129C135.879 326.129 166.251 295.83 166.251 258.464C166.279 245.718 162.674 233.234 155.896 222.488Z" fill="#543753"/>
</g>
<path d="M141.619 71.6894C141.619 71.6894 136.629 74.9047 131.899 82.6966C127.168 90.4885 122.121 97.817 122.121 97.817C122.121 97.817 120.275 82.0304 121.14 79.9448C122.005 77.8592 125.121 73.2536 125.842 71.6894C126.563 70.1252 129.995 67.8948 130.024 66.9969C130.053 66.0989 129.678 63.2892 129.533 63.2023C129.389 63.1154 127.659 63.7527 127.399 64.6796C127.197 65.3458 127.053 65.9251 127.053 65.9251C127.053 65.9251 124.717 67.2286 124.313 67.2576C123.909 67.2866 122.005 66.2727 121.977 66.0989C121.948 65.9251 123.563 62.1595 124.053 61.9568C124.544 61.754 127.255 63.8685 127.774 63.8685C128.293 63.8685 129.389 63.1733 129.447 62.7678C129.505 62.3623 126.072 58.8284 125.784 58.7994C125.495 58.7705 122.554 58.2491 122.15 58.5387C121.746 58.8284 119.554 60.7402 119.554 60.7402C119.554 60.7402 119.554 54.1648 119.554 52.8324C119.554 51.4999 119.265 47.3867 118.66 47.0971C118.054 46.8653 117.391 46.8074 116.756 46.8943C116.468 46.9812 116.295 48.8061 116.295 48.8061C116.295 48.8061 114.766 48.5744 114.362 48.893C113.958 49.2116 113.122 61.6671 113.122 61.783C113.122 61.8988 110.959 59.2629 110.699 58.7705C110.439 58.278 109.545 55.2656 109.142 55.1497C108.738 55.0338 107.584 54.9469 107.44 55.2366C107.296 55.5263 108.219 59.8712 108.276 60.3636C108.334 60.856 111.074 66.7072 111.218 67.6052C111.362 68.5031 111.939 76.0344 112.112 77.5696C112.285 79.1048 110.353 97.1508 109.92 104.682C109.488 112.213 109.863 118.962 110.324 119.658C110.786 120.353 114.564 122.815 116.583 121.801C118.602 120.787 124.169 116.413 129.476 111.315C134.783 106.217 141.042 99.526 141.042 99.526L141.619 71.6894Z" fill="#FFEDE5"/>
<path d="M122.092 97.788C122.092 97.788 122.611 101.843 122.813 105.493C122.813 105.493 123.938 102.046 123.39 95.8762L122.092 97.788Z" fill="#DE835C"/>
<path d="M112.805 65.5486C112.776 65.5486 112.747 65.5486 112.718 65.5196C112.66 65.4617 112.66 65.3748 112.718 65.3169C113.583 64.332 118.516 61.2037 118.717 61.0588C118.775 61.0299 118.862 61.0299 118.919 61.1168C118.948 61.1747 118.948 61.2616 118.862 61.3195C118.804 61.3485 113.756 64.5637 112.92 65.5196C112.891 65.5486 112.833 65.5486 112.805 65.5486Z" fill="#472938"/>
<path d="M116.583 59.9872C116.554 59.9872 116.583 59.9872 116.583 59.9872C116.496 59.9872 116.439 59.9292 116.439 59.8423C116.439 59.7554 116.785 52.0504 116.698 50.66C116.612 49.3566 116.208 48.98 116.208 48.98C116.15 48.9221 116.15 48.8352 116.179 48.7772C116.237 48.7193 116.323 48.7193 116.381 48.7483C116.439 48.7772 116.871 49.2117 116.958 50.6311C117.045 52.0504 116.698 59.5527 116.698 59.8713C116.698 59.9292 116.641 59.9872 116.583 59.9872Z" fill="#472938"/>
<path d="M117.477 72.0661C117.448 72.0371 117.448 72.0661 117.477 72.0661C117.362 72.0371 117.333 71.9792 117.333 71.8923C117.939 68.4742 121.717 66.07 121.861 65.9831C121.919 65.9542 122.006 65.9542 122.063 66.0411C122.092 66.099 122.092 66.1859 122.006 66.2438C121.977 66.2728 118.169 68.677 117.593 71.9792C117.593 72.0081 117.535 72.0661 117.477 72.0661Z" fill="#472938"/>
<path d="M144.82 323.667C144.936 324.275 146.291 326.274 153.127 326.882C159.963 327.491 168.327 324.999 172.452 324.536C175.913 324.159 180.326 322.856 181.653 322.421C181.883 322.364 182.056 322.132 182.056 321.871C182.056 321.466 182.028 320.799 181.999 319.988C176.403 320.075 168.5 322.161 159.011 323.464C151.858 324.449 147.041 322.566 144.936 321.437C144.82 322.19 144.791 322.914 144.82 323.667Z" fill="#3B2645"/>
<path d="M181.133 306.664C178.624 306.896 177.586 308.981 176.374 309.676C175.163 310.371 171.586 310.661 171.904 306.113C172.221 301.566 168.731 300.204 168.731 300.204C167.779 300.233 165.212 305.331 160.857 310.835C156.502 316.339 146.06 319.235 145.599 319.409C145.339 319.496 145.138 320.452 144.993 321.437C147.099 322.537 151.916 324.449 159.069 323.464C168.529 322.161 176.461 320.075 182.056 319.988C181.97 317.005 181.797 311.907 181.508 309.734C181.335 308.894 181.249 307.794 181.133 306.664Z" fill="#AB8DA8"/>
<path d="M171.904 306.142C171.615 310.69 175.163 310.401 176.374 309.705C177.586 309.01 178.653 306.925 181.133 306.693C180.903 303.767 180.73 300.639 180.73 300.639L168.702 300.233C168.731 300.233 172.192 301.624 171.904 306.142Z" fill="#FFEDE5"/>
<path d="M158.694 317.381C164.347 316.86 171.904 307.127 171.904 307.127C171.875 306.809 171.875 306.461 171.904 306.143C172.192 301.595 168.731 300.233 168.731 300.233C167.779 300.262 165.212 305.36 160.857 310.864C159.184 313.008 156.559 314.745 153.992 316.078C155.319 317.121 156.992 317.584 158.694 317.381Z" fill="#3B2645"/>
<path d="M124.63 321.929C125.121 323.464 128.264 324.014 135.216 324.014C142.167 324.014 145.484 311.617 148.31 309.097C151.137 306.606 156.992 298.032 156.992 296.555C156.992 296.12 156.127 295.048 154.886 293.716C153.646 296.381 150.877 301.739 146.81 305.592C143.436 308.807 143.292 319.612 134.898 321.61C130.976 322.537 127.313 321.494 124.544 320.133C124.428 320.741 124.486 321.35 124.63 321.929Z" fill="#3B2645"/>
<path d="M146.291 285.403C143.32 288.589 144.272 292.47 144.128 294.035C143.984 295.599 138.648 296.004 137.811 295.657C136.975 295.309 136.081 294.006 134.408 294.035C133.399 294.063 132.476 294.556 131.928 295.396C131.495 300.928 130.716 307.504 130.37 310.111C129.793 314.427 127.313 315.527 126.072 316.396C125.207 316.976 124.63 318.685 124.515 320.162C127.284 321.523 130.947 322.566 134.869 321.639C143.292 319.67 143.407 308.836 146.782 305.621C150.848 301.768 153.617 296.439 154.858 293.745C151.858 290.501 146.666 285.837 146.291 285.403Z" fill="#AB8DA8"/>
<path d="M134.379 294.006C136.081 293.977 136.946 295.28 137.783 295.628C138.619 295.975 143.955 295.57 144.099 294.006C144.243 292.441 143.292 288.56 146.262 285.374C145.743 284.736 143.955 281.405 143.955 281.405L132.1 287.285C132.302 288.676 132.158 291.804 131.87 295.367C132.447 294.527 133.398 294.035 134.379 294.006Z" fill="#FFEDE5"/>
<path d="M133.11 313.471C137.321 311.936 137.783 295.628 137.783 295.628C136.946 295.28 136.052 293.977 134.379 294.006C133.37 294.035 132.447 294.527 131.899 295.367C131.466 300.9 130.687 307.475 130.341 310.082C130.197 311.414 129.735 312.689 129.014 313.819C130.399 314.05 131.812 313.905 133.11 313.471Z" fill="#3B2645"/>
<path d="M182.893 133.156C182.893 133.156 198.122 159.052 198.122 172.174C198.122 185.295 185.027 229.179 184.797 235.088C184.566 240.997 189.21 253.916 187.739 266.951C186.268 279.986 180.73 300.61 180.73 300.61C180.73 300.61 173.288 301.74 168.702 300.204C168.702 300.204 168.5 261.448 165.789 245.603C163.078 229.758 160.972 196.187 160.972 196.187C160.972 196.187 133.139 226.398 132.245 231.41C131.351 236.421 136.456 239.723 138.879 254.843C141.301 269.964 143.984 281.434 143.984 281.434C143.984 281.434 138.504 287.923 132.129 287.314C132.129 287.314 108.392 233.64 109.747 226.63C111.103 219.62 138.561 168.002 139.571 161.891C140.58 155.779 141.301 148.016 142.571 140.05L182.893 133.156Z" fill="#AB8DA8"/>
<path d="M164.03 150.565C173.663 148.942 181.307 143.149 185.95 138.688C184.162 135.328 182.893 133.185 182.893 133.185L142.542 140.05C142.253 141.846 141.994 143.642 141.763 145.409C145.484 148.247 153.041 152.418 164.03 150.565Z" fill="#3B2645"/>
<g opacity="0.5">
<path opacity="0.5" d="M161.001 196.187V184.021C161.001 184.021 157.367 176.779 157.021 170.725L157.857 188.569L149.954 208.526L161.001 196.187Z" fill="#543753"/>
</g>
<path d="M142.57 123.655C143.407 127.797 142.57 140.05 142.57 140.05C142.57 140.05 144.589 144.598 155.434 146.394C166.279 148.19 182.893 133.156 182.893 133.156C181.335 129.622 181.076 125.567 181.191 122.439C156.992 118.702 142.57 123.655 142.57 123.655Z" fill="#FFEDE5"/>
<path d="M181.826 129.912C181.278 127.45 181.076 124.959 181.191 122.439C178.278 121.975 175.509 121.657 172.884 121.425L173.548 127.276L181.826 129.912Z" fill="#DE835C"/>
<path d="M156.703 92.98C171.99 91.5896 176.634 78.5258 178.018 71.2263L173.923 70.0677L153.963 68.04L148.108 69.5463C145.022 80.2348 143.407 94.1676 156.703 92.98Z" fill="#FFEDE5"/>
<path d="M189.498 74.3834L183.383 72.7034C179.518 106.13 186.787 105.232 186.787 105.232L188.806 99.9316L189.498 74.3834Z" fill="#FFEDE5"/>
<path d="M181.71 117.398C186.873 112.764 186.787 105.233 186.787 105.233C186.787 105.233 179.489 106.131 183.383 72.7036L178.018 71.2263C176.605 78.5258 171.961 91.6185 156.704 92.9799C143.407 94.1675 145.022 80.2348 148.137 69.5752L142.109 71.1394C142.109 71.1394 135.1 94.1096 134.898 102.423C134.754 107.753 137.927 114.965 140.263 119.455C155.925 112.764 181.71 117.398 181.71 117.398Z" fill="#AB8DA8"/>
<path d="M181.191 122.438C181.249 120.729 181.422 119.049 181.739 117.369C181.739 117.369 155.954 112.735 140.263 119.426C141.561 121.946 142.57 123.626 142.57 123.626C142.57 123.626 156.992 118.702 181.191 122.438Z" fill="#3B2645"/>
<path d="M183.383 72.6746C183.383 72.6746 186.21 88.4901 175.826 107.086L174.644 119.716L175.653 148.537C175.653 148.537 171.038 149.783 168.587 149.783C166.135 149.783 162.703 150.912 162.703 150.912L162.213 146.249L159.617 146.307C159.617 146.307 158.867 136.835 162.097 129.072C165.328 121.309 166.885 116.616 167.404 108.622C167.923 100.627 166.135 89.9095 172.048 73.6015L183.383 72.6746Z" fill="white"/>
<path d="M188.834 99.9318L187.104 93.3564L186.815 105.204L188.834 99.9318Z" fill="#DE835C"/>
<path d="M155.377 144.627C155.679 144.627 155.925 144.25 155.925 143.787C155.925 143.323 155.679 142.947 155.377 142.947C155.074 142.947 154.829 143.323 154.829 143.787C154.829 144.25 155.074 144.627 155.377 144.627Z" fill="#DE835C"/>
<path d="M154.944 58.9445C154.944 58.9445 155.059 70.8786 148.656 86.7521C142.253 102.626 141.734 108.216 143.234 123.626C144.734 139.036 141.042 151.347 141.042 151.347C141.042 151.347 123.967 154.91 117.189 145.669C117.189 145.669 125.553 126.32 129.303 103.205C133.052 80.0898 142.109 71.0814 142.109 71.0814C142.109 71.0814 143.84 66.0992 147.762 66.6205C147.762 66.6785 150.935 58.7417 154.944 58.9445Z" fill="white"/>
<path d="M133.6 136.024C133.514 136.024 133.456 135.966 133.456 135.879C132.302 114.328 138.532 94.7467 141.878 84.2319L142.109 83.5367C142.138 83.4498 142.224 83.4209 142.282 83.4498C142.369 83.4788 142.397 83.5657 142.369 83.6236L142.138 84.3188C138.792 94.8336 132.591 114.357 133.745 135.85C133.745 135.966 133.687 136.024 133.6 136.024Z" fill="#472938"/>
<path d="M143.609 79.2209H143.58C143.493 79.1919 143.465 79.105 143.493 79.0471C145.887 70.7917 147.618 66.6785 147.647 66.6495C147.676 66.5626 147.762 66.5337 147.849 66.5626C147.935 66.5916 147.964 66.6785 147.935 66.7654C147.906 66.7944 146.176 70.9075 143.811 79.134C143.724 79.1629 143.667 79.2209 143.609 79.2209Z" fill="#472938"/>
<path d="M133.11 97.0352H133.081C132.995 97.0062 132.966 96.9483 132.966 96.8614C135.475 87.0997 141.907 71.2552 141.965 71.0814C141.994 70.9945 142.08 70.9655 142.167 70.9945C142.253 71.0235 142.282 71.1104 142.253 71.1973C142.196 71.3421 135.764 87.1866 133.254 96.9193C133.254 96.9772 133.197 97.0352 133.11 97.0352Z" fill="#472938"/>
<path d="M162.241 146.423C162.155 146.423 162.097 146.365 162.097 146.278C162.097 146.191 162.039 136.516 163.914 132.026C163.943 131.94 164.03 131.911 164.116 131.94C164.203 131.969 164.232 132.055 164.203 132.142C162.357 136.574 162.414 146.191 162.414 146.278C162.386 146.365 162.328 146.423 162.241 146.423Z" fill="#472938"/>
<path d="M165.241 144.771C165.155 144.771 165.097 144.713 165.097 144.627C165.097 144.54 164.78 136.458 166.51 130.375C168.241 124.35 168.702 114.067 168.702 113.98C168.702 113.893 168.76 113.835 168.846 113.835C168.933 113.835 168.991 113.893 168.991 113.98C168.991 114.096 168.529 124.379 166.799 130.462C165.068 136.487 165.385 144.54 165.385 144.598C165.385 144.685 165.328 144.771 165.241 144.771Z" fill="#472938"/>
<path d="M171.125 131.795C171.096 131.795 171.096 131.795 171.125 131.795C171.01 131.766 170.981 131.708 170.981 131.621C172.106 125.712 171.211 113.546 171.211 113.401C171.211 113.314 171.269 113.256 171.356 113.256C171.442 113.256 171.5 113.314 171.5 113.401C171.5 113.517 172.394 125.741 171.269 131.679C171.24 131.737 171.183 131.795 171.125 131.795Z" fill="#472938"/>
<path d="M173.259 108.448C173.144 108.419 173.115 108.361 173.115 108.274C173.144 108.158 174.932 97.093 176.663 91.995C176.692 91.9081 176.778 91.8791 176.836 91.9081C176.922 91.937 176.951 92.0239 176.922 92.0819C175.221 97.151 173.404 108.187 173.404 108.303C173.404 108.39 173.346 108.448 173.259 108.448Z" fill="#472938"/>
<path d="M171.125 107.231C171.067 107.231 171.01 107.173 170.981 107.115C170.981 107.058 170.029 102.162 171.269 93.3275C171.269 93.2406 171.356 93.1827 171.442 93.2116C171.529 93.2116 171.587 93.2985 171.558 93.3854C170.346 102.191 171.269 107.029 171.269 107.086C171.269 107.144 171.212 107.231 171.125 107.231Z" fill="#472938"/>
<path d="M173.75 49.7332L173.923 70.0675H153.762L155.694 51.9346L173.75 49.7332Z" fill="#FFEDE5"/>
<path d="M155.694 51.9346C155.694 51.9346 158.636 71.1972 173.836 59.9003L173.75 49.7332L155.694 51.9346Z" fill="#DE835C"/>
<path d="M152.451 48.8468C153.754 48.4745 154.208 46.0522 153.467 43.4365C152.726 40.8208 151.069 39.0021 149.766 39.3745C148.464 39.7468 148.01 42.169 148.751 44.7847C149.492 47.4005 151.149 49.2191 152.451 48.8468Z" fill="#DE835C"/>
<path d="M173.779 51.6449C173.779 51.6449 173.721 56.5981 173.49 59.9003C173.49 59.9003 171.125 67.4026 172.192 74.3834C173.259 81.3643 172.913 86.5203 171.24 89.0114L173.115 88.1134C173.115 88.1134 182.72 88.2293 182.604 74.1807C182.604 74.1807 187.45 66.3018 180.182 57.0616C172.913 47.8214 177.009 42.7812 177.009 42.7812C177.009 42.7812 174.009 44.2875 173.779 51.6449Z" fill="#3B2645"/>
<path d="M176.951 42.7522C176.951 42.7522 174.009 44.2874 173.75 51.6448C173.75 51.6448 173.692 56.5981 173.461 59.9002C174.615 56.8298 175.596 53.7014 176.403 50.5152C174.759 45.4461 176.951 42.7522 176.951 42.7522Z" fill="#3B2645"/>
<path d="M178.16 44.3522C178.942 41.7487 178.526 39.3196 177.23 38.9266C175.934 38.5336 174.248 40.3256 173.466 42.9291C172.683 45.5325 173.1 47.9616 174.396 48.3546C175.692 48.7476 177.377 46.9557 178.16 44.3522Z" fill="#FFEDE5"/>
<path d="M150.791 29.8912C150.791 29.8912 150.272 44.9537 152.262 51.2683C154.252 57.583 159.213 61.5803 162.472 61.5803C165.731 61.5803 172.077 59.2051 174.557 49.0669C177.038 38.9287 176.749 26.2125 166.106 22.8814C155.463 19.5503 150.791 26.5311 150.791 29.8912Z" fill="#FFEDE5"/>
<path d="M175.769 40.7826C175.769 40.7826 175.192 36.6984 173 34.468C170.808 32.2376 166.308 30.7313 167.145 27.1685C167.145 27.1685 164.26 28.8775 159.069 28.8775C153.877 28.8775 150.3 32.9327 150.819 39.8267L150.156 39.3633C150.156 39.3633 147.676 29.5727 150.704 24.8222C153.761 20.0717 160.972 17.0592 166.798 18.7103C172.625 20.3614 179.172 24.2718 178.595 31.9189C178.422 34.3521 178.076 36.7563 177.557 39.1315C177.557 39.1026 175.884 39.3633 175.769 40.7826Z" fill="#3B2645"/>
<path d="M155.434 41.9702C154.973 41.9702 154.598 41.6226 154.569 41.1592L154.54 40.6378C154.54 40.1743 154.886 39.7978 155.348 39.7688C155.809 39.7688 156.184 40.1164 156.213 40.5799L156.242 41.1012C156.242 41.5647 155.896 41.9702 155.434 41.9702Z" fill="#472938"/>
<path d="M168.327 42.4048C167.866 42.3469 167.548 41.9124 167.635 41.4489L167.721 40.9275C167.779 40.4641 168.212 40.1454 168.673 40.2323C169.135 40.2903 169.452 40.7248 169.366 41.1882L169.279 41.7096C169.193 42.1731 168.76 42.4627 168.327 42.4048Z" fill="#472938"/>
<path d="M152.435 38.4364C152.435 38.4364 153.214 37.5674 155.031 37.5384C156.848 37.5094 157.425 37.6832 157.54 37.1039C157.655 36.5246 153.762 35.0473 152.435 38.4364Z" fill="#472938"/>
<path d="M171.385 38.1756C171.385 38.1756 170.519 37.3646 168.558 37.4515C166.597 37.5384 166.02 37.7411 165.876 37.1908C165.731 36.6404 169.856 34.8735 171.385 38.1756Z" fill="#472938"/>
<path d="M166.251 50.9787L158.636 50.718C158.636 50.718 159.04 55.9609 162.443 55.874C165.847 55.7871 166.251 50.9787 166.251 50.9787Z" fill="white"/>
<path d="M161.982 48.6904C161.491 48.6904 161.03 48.5746 160.655 48.4008C160.338 48.227 160.165 47.9952 160.078 47.7345C159.905 47.0683 160.251 45.4462 160.655 43.4186L160.799 42.7813C161.463 39.5081 159.674 38.6102 159.588 38.5812C159.501 38.5522 159.472 38.4364 159.501 38.3495C159.53 38.2626 159.646 38.2336 159.732 38.2626C159.819 38.2915 161.838 39.3054 161.116 42.8392L160.972 43.4765C160.568 45.3883 160.251 47.0683 160.395 47.6476C160.453 47.8214 160.568 47.9663 160.799 48.1111C161.347 48.4008 162.213 48.4587 163.02 48.198C163.107 48.169 163.222 48.227 163.251 48.3139C163.28 48.4008 163.222 48.5166 163.135 48.5456C162.761 48.6325 162.357 48.6904 161.982 48.6904Z" fill="#472938"/>
<path d="M189.498 74.3835C189.498 74.3835 195.526 74.6732 198.526 83.3052C201.525 91.9081 211.015 116.935 211.39 121.541C211.765 126.146 210.351 129.854 203.804 131.215C198.237 132.374 183.47 128.058 182.258 127.942C181.047 127.826 177.615 127.739 176.461 125.741C175.307 123.742 174.673 120.353 174.673 120.353C174.673 120.353 171.644 119.194 171.125 119.194C170.606 119.194 166.943 119.426 166.597 118.876C166.25 118.325 166.25 117.283 166.366 116.79C166.366 116.79 165.731 115.631 165.933 114.936C165.933 114.936 165.27 113.256 165.328 112.88C165.385 112.503 167.173 111.402 167.548 111.316C167.923 111.229 172.25 111.055 172.25 111.055C172.25 111.055 170.952 109.462 170.721 109.404C170.49 109.346 167.404 109.462 167.404 109.462L167.347 110.244C167.347 110.244 166.51 109.52 166.366 109.114C166.222 108.709 166.481 107.521 166.827 107.376C167.173 107.231 171.269 105.87 172.509 106.304C173.75 106.739 177.701 109.172 178.22 109.983C178.739 110.794 181.653 118.934 182.576 119.542C183.499 120.15 188.229 120.816 195.786 119.194L185.027 91.8792L189.498 74.3835Z" fill="#FFEDE5"/>
</g>
<defs>
<clipPath id="clip0_700_3726">
<rect width="255" height="327" fill="white" transform="translate(0 0.54834)"/>
</clipPath>
</defs>
</svg>
