<svg width="38" height="29" viewBox="0 0 36 26" fill="none" xmlns="http://www.w3.org/2000/svg">
<path d="M27.8146 25.2395H8.11769C3.6344 25.2395 0 21.2987 0 16.4375C0 10.0159 4.80109 4.81006 10.7234 4.81006H25.2089C31.1313 4.81006 35.9323 10.0159 35.9323 16.4374C35.9323 21.2987 32.2979 25.2395 27.8146 25.2395Z" fill="url(#paint0_linear_26_3634)"/>
<path d="M27.2699 19.5102C27.8688 19.5102 28.3542 18.9838 28.3542 18.3344C28.3542 17.6851 27.8688 17.1587 27.2699 17.1587C26.671 17.1587 26.1855 17.6851 26.1855 18.3344C26.1855 18.9838 26.671 19.5102 27.2699 19.5102Z" fill="url(#paint1_linear_26_3634)"/>
<path d="M14.9593 15.0918C14.3605 15.0918 13.875 15.6182 13.875 16.2675C13.875 16.9169 14.3605 17.4433 14.9593 17.4433C15.5582 17.4433 16.0437 16.9169 16.0437 16.2675C16.0437 15.6182 15.5582 15.0918 14.9593 15.0918Z" fill="url(#paint2_linear_26_3634)"/>
<path d="M9.07262 12.7402C8.47375 12.7402 7.98828 13.2666 7.98828 13.916C7.98828 14.5653 8.47375 15.0917 9.07262 15.0917C9.67149 15.0917 10.157 14.5653 10.157 13.916C10.1569 13.2666 9.67141 12.7402 9.07262 12.7402Z" fill="url(#paint3_linear_26_3634)"/>
<path d="M7.58346 22.3127C8.72333 22.3127 9.64738 21.3108 9.64738 20.0748C9.64738 18.8389 8.72333 17.8369 7.58346 17.8369C6.44358 17.8369 5.51953 18.8389 5.51953 20.0748C5.51953 21.3108 6.44358 22.3127 7.58346 22.3127Z" fill="url(#paint4_linear_26_3634)"/>
<path d="M34.6123 10.8446C32.7898 7.24781 29.2618 4.81006 25.2093 4.81006H10.7234C7.76278 4.81006 5.08137 6.11109 3.14114 8.21577C2.42549 8.99174 1.81114 9.87576 1.32031 10.8446C1.83584 12.8832 3.95972 14.4244 6.14867 13.1993C8.56078 11.8501 11.1763 10.8294 13.5728 10.8294H22.3598C24.7563 10.8294 27.3718 11.8501 29.784 13.1993C30.0474 13.3467 30.3099 13.454 30.5689 13.5252C31.7698 13.8557 32.6275 15.0079 32.6364 16.3513C32.6366 16.3799 32.6367 16.4086 32.6367 16.4372C32.6367 17.7723 32.3622 19.0376 31.8716 20.1713C31.4752 19.8295 30.9663 19.6344 30.4145 19.6637C29.3218 19.7216 28.4254 20.6807 28.3587 21.8648C28.3455 22.099 28.3639 22.3264 28.4099 22.5424C28.5999 23.4354 28.1811 24.3486 27.3907 24.673C26.498 25.0394 25.5302 25.2399 24.5192 25.2399H27.815C30.0566 25.2399 32.0858 24.2541 33.555 22.6611C35.0242 21.0681 35.9325 18.8679 35.9325 16.4372C35.9324 14.4102 35.454 12.5037 34.6123 10.8446V10.8446Z" fill="url(#paint5_linear_26_3634)"/>
<path d="M13.5724 8.59604H22.3598C24.7562 8.59604 27.3719 9.61614 29.7836 10.9656C33.1838 12.8682 36.4283 8.09509 33.7293 5.15435C30.8074 1.97064 26.7623 0 22.2926 0H13.6395C9.16988 0 5.12471 1.97064 2.20274 5.15435C-0.496211 8.09509 2.74833 12.8682 6.14852 10.9656C8.56022 9.61622 11.1758 8.59604 13.5724 8.59604V8.59604Z" fill="url(#paint6_linear_26_3634)"/>
<path d="M33.7309 5.15393C31.25 2.4507 27.9594 0.622029 24.2867 0.131621C24.2867 0.131621 24.2852 0.131621 24.283 0.131711C23.6311 0.0445588 22.9678 0 22.2946 0H18.3449C16.809 0.468799 15.5885 1.11619 14.686 1.71446C12.7375 3.00656 11.8003 4.34867 11.7616 4.40493C11.5574 4.70138 11.6134 5.12107 11.8868 5.34252C11.998 5.43182 12.1273 5.47557 12.2557 5.47557C12.4443 5.47557 12.6296 5.38271 12.7515 5.2068C12.7825 5.16134 15.7919 0.909916 22.3989 0.679892C23.109 0.655158 23.8187 0.776331 24.4868 1.03841L24.497 1.04243C19.695 1.64374 17.3476 4.64156 17.2317 4.79345C17.0147 5.07776 17.0514 5.49798 17.3129 5.73417C17.4281 5.8382 17.5681 5.88892 17.7073 5.88892C17.8841 5.88892 18.0598 5.80713 18.1822 5.64889C18.1898 5.63907 18.9593 4.65638 20.4904 3.76334C21.9432 2.91602 23.5578 2.42945 25.3098 2.30774C26.3984 2.23211 27.4824 2.5642 28.3698 3.25204L28.3832 3.26239C23.3481 3.465 20.7425 6.43996 20.6163 6.58792C20.3851 6.85875 20.4003 7.28049 20.6493 7.53204C20.7681 7.65196 20.919 7.71125 21.0697 7.71125C21.2349 7.71125 21.3999 7.64 21.5215 7.49918C21.5297 7.48989 22.3482 6.55479 23.9226 5.75516C25.5357 4.93587 27.3154 4.54869 29.2316 4.59539C29.6814 4.60637 30.1126 4.803 30.4301 5.14866L30.4351 5.15402C32.2106 7.0886 31.4137 9.81594 29.6928 10.9143C29.7235 10.9313 29.7544 10.9482 29.785 10.9653C33.1852 12.8679 36.4298 8.09469 33.7309 5.15393V5.15393Z" fill="url(#paint7_linear_26_3634)"/>
<path d="M13.6405 8.99266e-05C13.6301 8.99266e-05 13.6198 8.99266e-05 13.6095 8.99266e-05C11.9292 0.00348311 10.3115 0.709981 9.08442 1.95457C7.84015 3.21665 7.30263 4.32524 7.25652 4.42275C7.10252 4.75136 7.22275 5.15318 7.52499 5.32195C7.61475 5.37195 7.7111 5.39606 7.80663 5.39606C8.02981 5.39606 8.2464 5.26301 8.35593 5.03353C8.36169 5.02192 8.91593 3.88163 10.2311 2.64847C11.552 1.40996 13.1299 0.523265 14.9392 0H13.6405V8.99266e-05Z" fill="url(#paint8_linear_26_3634)"/>
<defs>
<linearGradient id="paint0_linear_26_3634" x1="0.966412" y1="15.0248" x2="35.0609" y2="15.0248" gradientUnits="userSpaceOnUse">
<stop stop-color="#F8F6F7"/>
<stop offset="0.1788" stop-color="#F8F6F7"/>
<stop offset="1" stop-color="#E7E6F5"/>
</linearGradient>
<linearGradient id="paint1_linear_26_3634" x1="-3.96724" y1="18.3344" x2="35.6585" y2="18.3344" gradientUnits="userSpaceOnUse">
<stop stop-color="#F8F6F7"/>
<stop offset="1" stop-color="#D1CEEB"/>
</linearGradient>
<linearGradient id="paint2_linear_26_3634" x1="-3.96602" y1="16.2675" x2="35.6597" y2="16.2675" gradientUnits="userSpaceOnUse">
<stop stop-color="#F8F6F7"/>
<stop offset="1" stop-color="#D1CEEB"/>
</linearGradient>
<linearGradient id="paint3_linear_26_3634" x1="-3.96715" y1="13.916" x2="35.6586" y2="13.916" gradientUnits="userSpaceOnUse">
<stop stop-color="#F8F6F7"/>
<stop offset="1" stop-color="#D1CEEB"/>
</linearGradient>
<linearGradient id="paint4_linear_26_3634" x1="-3.96685" y1="20.0749" x2="35.6588" y2="20.0749" gradientUnits="userSpaceOnUse">
<stop stop-color="#F8F6F7"/>
<stop offset="1" stop-color="#D1CEEB"/>
</linearGradient>
<linearGradient id="paint5_linear_26_3634" x1="-3.96708" y1="15.025" x2="35.6587" y2="15.025" gradientUnits="userSpaceOnUse">
<stop stop-color="#F8F6F7"/>
<stop offset="1" stop-color="#D1CEEB"/>
</linearGradient>
<linearGradient id="paint6_linear_26_3634" x1="1.87959" y1="5.70057" x2="42.1924" y2="5.70057" gradientUnits="userSpaceOnUse">
<stop stop-color="#FBC56D"/>
<stop offset="0.5841" stop-color="#FE9738"/>
<stop offset="0.9984" stop-color="#FB2B3A"/>
</linearGradient>
<linearGradient id="paint7_linear_26_3634" x1="0.316607" y1="5.70033" x2="36.1102" y2="5.70033" gradientUnits="userSpaceOnUse">
<stop stop-color="#FBC56D"/>
<stop offset="0.5841" stop-color="#FE9738"/>
<stop offset="0.9984" stop-color="#FB2B3A"/>
</linearGradient>
<linearGradient id="paint8_linear_26_3634" x1="0.316305" y1="2.69812" x2="36.1099" y2="2.69812" gradientUnits="userSpaceOnUse">
<stop stop-color="#FBC56D"/>
<stop offset="0.5841" stop-color="#FE9738"/>
<stop offset="0.9984" stop-color="#FB2B3A"/>
</linearGradient>
</defs>
</svg>
