<svg width="20" height="20" viewBox="0 0 20 20" fill="none" xmlns="http://www.w3.org/2000/svg">
<path fill-rule="evenodd" clip-rule="evenodd" d="M12.6636 2.4997C12.9684 2.18724 13.3816 2.01172 13.8125 2.01172C14.2434 2.01172 14.6566 2.18724 14.9614 2.4997L17.0625 4.6547C17.3671 4.96724 17.5383 5.39109 17.5383 5.83303C17.5383 6.27497 17.3671 6.69882 17.0625 7.01136L15.7739 8.33303L11.375 3.82136L12.6636 2.4997ZM10.2261 4.9997L2.91363 12.4997C2.60886 12.8122 2.43759 13.236 2.4375 13.678V15.833C2.4375 16.2751 2.6087 16.699 2.91345 17.0115C3.2182 17.3241 3.63152 17.4997 4.0625 17.4997H6.16363C6.59457 17.4996 7.00782 17.3239 7.3125 17.0114L14.625 9.51136L10.2261 4.9997Z" fill="white"/>
</svg>
