<svg width="40" height="41" viewBox="0 0 40 41" fill="none" xmlns="http://www.w3.org/2000/svg">
<circle opacity="0.2" cx="20" cy="20.2109" r="20" fill="url(#paint0_linear_430_15)"/>
<g clip-path="url(#clip0_430_15)">
<g opacity="0.3">
<path opacity="0.3" d="M14.6144 23.0392H14.6019L14.1229 22.9C14.1065 22.8949 14.0927 22.8834 14.0844 22.868C14.0762 22.8526 14.0742 22.8345 14.0789 22.8176C14.0836 22.8007 14.0945 22.7864 14.1095 22.7777C14.1244 22.769 14.142 22.7665 14.1587 22.771L14.6343 22.9085C14.6494 22.9135 14.6622 22.924 14.6703 22.9379C14.6784 22.9518 14.6813 22.9682 14.6785 22.9842C14.6757 23.0001 14.6673 23.0145 14.6549 23.0246C14.6425 23.0347 14.6269 23.0399 14.611 23.0392H14.6144Z" fill="black"/>
<path opacity="0.3" d="M14.1236 23.4159C14.11 23.4147 14.0971 23.4092 14.0867 23.4002C14.0763 23.3913 14.0689 23.3793 14.0653 23.3658C14.0627 23.357 14.0619 23.3478 14.0629 23.3386C14.064 23.3295 14.0668 23.3206 14.0714 23.3127C14.0759 23.3047 14.082 23.2978 14.0892 23.2923C14.0965 23.2869 14.1048 23.283 14.1136 23.281L14.5926 23.157C14.6092 23.1534 14.6265 23.1564 14.641 23.1656C14.6555 23.1747 14.6659 23.1892 14.6701 23.206C14.6743 23.2228 14.6719 23.2407 14.6635 23.2557C14.6551 23.2708 14.6413 23.282 14.625 23.2869L14.1452 23.4108C14.1383 23.4138 14.131 23.4155 14.1236 23.4159Z" fill="black"/>
<path opacity="0.3" d="M14.3681 23.8675C14.3524 23.8659 14.3376 23.8587 14.3266 23.8471C14.3144 23.8346 14.3076 23.8176 14.3076 23.8C14.3076 23.7824 14.3144 23.7655 14.3266 23.7529L14.6808 23.4006C14.6868 23.3939 14.6942 23.3884 14.7023 23.3846C14.7105 23.3809 14.7193 23.3788 14.7283 23.3787C14.7373 23.3785 14.7462 23.3802 14.7545 23.3837C14.7628 23.3872 14.7703 23.3924 14.7765 23.3989C14.7828 23.4055 14.7877 23.4133 14.7908 23.4219C14.794 23.4304 14.7955 23.4395 14.7951 23.4487C14.7947 23.4578 14.7925 23.4668 14.7885 23.475C14.7846 23.4833 14.7791 23.4906 14.7723 23.4966L14.4197 23.8505C14.4127 23.8568 14.4045 23.8616 14.3957 23.8645C14.3868 23.8675 14.3774 23.8685 14.3681 23.8675Z" fill="black"/>
<path opacity="0.3" d="M14.798 24.135H14.7855C14.777 24.1325 14.7691 24.1284 14.7622 24.1228C14.7553 24.1171 14.7496 24.1102 14.7454 24.1022C14.7412 24.0943 14.7387 24.0856 14.7378 24.0767C14.737 24.0677 14.738 24.0587 14.7406 24.0501L14.872 23.5645C14.877 23.5478 14.8883 23.5337 14.9034 23.5253C14.9185 23.5169 14.9362 23.5148 14.9527 23.5196C14.9693 23.5244 14.9833 23.5356 14.9919 23.5508C15.0004 23.566 15.0028 23.5841 14.9984 23.601L14.8637 24.0866C14.8596 24.101 14.8509 24.1136 14.839 24.1223C14.8271 24.1311 14.8127 24.1355 14.798 24.135Z" fill="black"/>
</g>
<path d="M27.7886 16.5977L26.597 17.2979L23.9875 17.6833C23.9875 17.6833 22.0823 14.7617 21.7905 14.3025C21.4986 13.8433 21.1568 13.5487 20.366 13.5496L20.5156 15.8804C20.5406 15.956 22.1181 17.9396 23.1584 19.021C23.526 19.4021 23.7513 19.4998 24.3226 19.3368C25.7887 18.9217 27.5658 17.6918 27.7088 17.3845C27.9009 16.983 27.7745 16.6061 27.7886 16.5977Z" fill="#FFEDE5"/>
<path d="M27.2989 15.1199C27.4552 14.5988 28.0939 14.1744 28.6868 14.3441C28.7807 14.3706 28.8707 14.4097 28.9546 14.4604C29.5367 14.7999 29.9999 15.6275 29.9999 16.3083C30.0018 16.4232 29.986 16.5378 29.9533 16.6478C29.7978 17.1681 29.1608 17.5959 28.5654 17.4253C28.4716 17.3985 28.3816 17.3594 28.2976 17.309C27.7205 16.9695 27.2523 16.1411 27.2523 15.4603C27.2506 15.3451 27.2663 15.2303 27.2989 15.1199Z" fill="#455A64"/>
<path d="M28.2985 17.304C27.7214 16.9645 27.2532 16.136 27.2532 15.4553C27.2532 14.7745 27.7214 14.4995 28.2985 14.839C28.8756 15.1786 29.3413 16.0062 29.3413 16.6869C29.3413 17.3677 28.8756 17.6435 28.2985 17.304Z" fill="#37474F"/>
<path d="M28.2985 15.5936C28.0764 15.4628 27.896 15.5689 27.896 15.8304C27.9035 15.9729 27.9439 16.1116 28.0139 16.2352C28.0838 16.3588 28.1813 16.4638 28.2985 16.5417C28.5205 16.6724 28.7001 16.5663 28.7001 16.3049C28.6927 16.1624 28.6525 16.0237 28.5827 15.9001C28.5129 15.7765 28.4155 15.6715 28.2985 15.5936Z" fill="#455A64"/>
<path d="M28.1604 15.9865C28.163 16.0354 28.1769 16.0829 28.2009 16.1252C28.2249 16.1675 28.2583 16.2035 28.2984 16.2302C28.3116 16.2398 28.3269 16.2461 28.343 16.2483C28.3591 16.2505 28.3755 16.2487 28.3907 16.2429L28.4007 16.2369C28.4126 16.2265 28.4219 16.2135 28.428 16.1987C28.4341 16.184 28.4367 16.168 28.4356 16.1521C28.433 16.1033 28.4192 16.0559 28.3954 16.0136C28.3715 15.9713 28.3383 15.9353 28.2984 15.9085C28.2852 15.8988 28.2699 15.8925 28.2538 15.8903C28.2377 15.8881 28.2213 15.89 28.2061 15.8957L28.1961 15.9017C28.184 15.9119 28.1745 15.925 28.1683 15.9397C28.1621 15.9545 28.1593 15.9705 28.1604 15.9865Z" fill="#37474F"/>
<path d="M25.9526 17.2878C25.9552 17.3365 25.969 17.384 25.9928 17.4263C26.0166 17.4686 26.0499 17.5046 26.0899 17.5314C26.1077 17.5432 26.1285 17.5496 26.1497 17.5501C26.1659 17.5497 26.1817 17.5451 26.1955 17.5365L28.3908 16.2429L28.4008 16.2369C28.4127 16.2266 28.422 16.2135 28.4281 16.1987C28.4342 16.184 28.4368 16.168 28.4357 16.1521C28.4331 16.1033 28.4193 16.0559 28.3955 16.0136C28.3717 15.9713 28.3384 15.9353 28.2985 15.9085C28.2853 15.8988 28.27 15.8925 28.2539 15.8903C28.2378 15.8881 28.2214 15.89 28.2062 15.8957L28.1962 15.9017L26.0009 17.1953C25.9851 17.2045 25.9722 17.2181 25.9637 17.2344C25.9552 17.2508 25.9513 17.2693 25.9526 17.2878Z" fill="#FAFAFA"/>
<path d="M23.7981 17.1835C23.9536 16.6632 24.5906 16.2328 25.186 16.4034C25.28 16.4304 25.3702 16.4695 25.4546 16.5197C26.0317 16.8592 26.4999 17.6877 26.4999 18.3684C26.5013 18.4834 26.4856 18.5978 26.4533 18.708C26.297 19.2283 25.6608 19.6561 25.0654 19.4863C24.9717 19.4593 24.8817 19.4202 24.7977 19.37C24.2205 19.0305 23.7524 18.2021 23.7524 17.5222C23.7504 17.4075 23.7659 17.2933 23.7981 17.1835Z" fill="#455A64"/>
<path d="M24.7968 19.3667C24.2196 19.0271 23.7515 18.1987 23.7515 17.5188C23.7515 16.8389 24.2196 16.5622 24.7968 16.9017C25.3739 17.2412 25.8421 18.0697 25.8421 18.7504C25.8421 19.4312 25.3747 19.707 24.7968 19.3667Z" fill="#37474F"/>
<path d="M24.7967 17.6546C24.5746 17.5231 24.395 17.6292 24.395 17.8915C24.4025 18.0338 24.4428 18.1723 24.5126 18.2957C24.5824 18.4191 24.6797 18.5241 24.7967 18.6019C25.0187 18.7326 25.1992 18.6265 25.1992 18.3651C25.1915 18.2227 25.151 18.0842 25.0811 17.9608C25.0112 17.8373 24.9137 17.7324 24.7967 17.6546Z" fill="#455A64"/>
<path d="M24.6596 18.0493C24.6622 18.098 24.676 18.1454 24.6998 18.1878C24.7236 18.2301 24.7569 18.2661 24.7968 18.2929C24.81 18.3026 24.8253 18.3088 24.8414 18.311C24.8575 18.3132 24.8739 18.3114 24.8892 18.3056C24.8928 18.3043 24.8962 18.3023 24.8991 18.2997C24.9112 18.2893 24.9207 18.2763 24.9269 18.2616C24.9331 18.2468 24.9358 18.2308 24.9349 18.2148C24.9322 18.166 24.9182 18.1185 24.8943 18.0762C24.8703 18.0339 24.8369 17.9979 24.7968 17.9712C24.7837 17.9618 24.7685 17.9558 24.7525 17.9537C24.7366 17.9516 24.7204 17.9535 24.7054 17.9593L24.6954 17.9652C24.6833 17.9753 24.6738 17.9882 24.6675 18.0028C24.6613 18.0174 24.6586 18.0334 24.6596 18.0493Z" fill="#37474F"/>
<path d="M24.3269 18.2485C24.3293 18.2973 24.343 18.3448 24.3668 18.3872C24.3907 18.4295 24.424 18.4655 24.4641 18.4921C24.482 18.5039 24.5027 18.5104 24.524 18.5108C24.5401 18.5104 24.5559 18.5057 24.5697 18.4972L24.8891 18.3088C24.8927 18.3075 24.8961 18.3055 24.899 18.3028C24.9111 18.2925 24.9206 18.2795 24.9268 18.2647C24.933 18.25 24.9357 18.234 24.9348 18.218C24.9321 18.1692 24.9182 18.1217 24.8942 18.0794C24.8702 18.0371 24.8368 18.0011 24.7968 17.9743C24.7836 17.9649 24.7684 17.9589 24.7525 17.9569C24.7365 17.9548 24.7203 17.9567 24.7053 17.9625L24.6953 17.9684L24.3751 18.156C24.3594 18.1652 24.3465 18.1788 24.338 18.1952C24.3294 18.2115 24.3256 18.23 24.3269 18.2485Z" fill="#FAFAFA"/>
<path d="M24.3269 18.2488C24.3294 18.2977 24.3431 18.3453 24.3669 18.3878C24.3907 18.4303 24.424 18.4664 24.4641 18.4933C24.4774 18.5027 24.4928 18.5087 24.5089 18.5108C24.5249 18.5129 24.5412 18.5109 24.5564 18.5052L24.5664 18.4992C24.5786 18.489 24.5881 18.476 24.5944 18.4612C24.6006 18.4465 24.6033 18.4304 24.6022 18.4144C24.5994 18.3655 24.5854 18.3179 24.5615 18.2755C24.5375 18.233 24.5042 18.1969 24.4641 18.1699C24.4508 18.1605 24.4355 18.1545 24.4194 18.1524C24.4033 18.1503 24.387 18.1523 24.3718 18.158L24.3618 18.164C24.3499 18.1743 24.3405 18.1874 24.3344 18.2021C24.3284 18.2169 24.3258 18.2329 24.3269 18.2488Z" fill="#E0E0E0"/>
<path d="M27.027 17.982C27.5317 17.589 28.0157 17.5915 27.9284 16.6307C27.8544 16.2062 27.7513 16.1757 27.3463 16.0144C27.1683 15.944 26.9305 15.8905 26.7883 16.0569C26.7727 16.0778 26.7554 16.0973 26.7367 16.1154C26.6948 16.1427 26.6467 16.1585 26.597 16.1613C26.5022 16.166 26.4121 16.2048 26.3426 16.2708C26.2952 16.3259 26.2769 16.4015 26.2303 16.4566C26.1856 16.4999 26.1375 16.5393 26.0864 16.5746C26.0499 16.607 26.0204 16.6468 25.9999 16.6916C25.9794 16.7363 25.9684 16.785 25.9675 16.8344C25.9709 16.8908 25.9863 16.9459 26.0128 16.9956C26.0392 17.0453 26.076 17.0885 26.1205 17.1221L26.375 16.9727C26.4789 16.8997 26.6935 17.1603 26.6012 17.2978C26.454 17.5168 27.027 17.982 27.027 17.982Z" fill="#FFEDE5"/>
<path d="M21.1478 19.914C21.3092 19.2485 21.3557 17.5857 21.3557 17.5857L16.634 17.73L16.891 18.78C16.9334 19.0167 16.9559 19.2566 16.9583 19.4972C16.9583 19.4972 17.4165 20.3639 18.7753 20.5158C19.6103 20.597 20.4473 20.3847 21.1478 19.914Z" fill="#FFEDE5"/>
<path d="M21.3583 17.5857C21.3641 17.6383 21.3309 18.1416 21.3309 18.1416C20.7271 18.6603 18.7904 18.9225 16.7572 18.2325L16.3264 16.5348C16.3264 16.5348 17.7883 15.8795 16.8004 13.6811L17.8623 13.5962L19.7475 13.5479H20.3662C20.8749 14.0523 21.3049 14.6335 21.641 15.2709C21.888 15.7412 22.2024 16.4304 21.3583 17.5857Z" fill="#455A64"/>
<path d="M18.6865 17.6009C17.8358 17.3793 17.6229 16.8369 17.5622 16.438C17.5622 16.438 17.4017 17.6009 18.6175 17.8716C19.8997 18.1568 20.427 17.1204 20.427 17.1204C20.427 17.1204 19.7126 17.8682 18.6865 17.6009Z" fill="#37474F"/>
<path d="M11.4449 30.541C11.1955 30.7269 10.6208 30.7719 10.1144 30.5292C9.60797 30.2864 9.39675 29.5955 9.49155 29.0616C9.60631 28.4105 9.92147 28.0549 10.0013 27.6627C10.0811 27.2706 10.0013 26.729 10.1227 26.3793C10.1728 26.2449 10.2507 26.1231 10.3512 26.0223C10.4516 25.9215 10.5723 25.8441 10.7048 25.7953C10.7893 25.762 10.8802 25.7489 10.9704 25.757C11.0607 25.7651 11.1479 25.7941 11.2254 25.842L11.3751 25.932L11.4449 30.541Z" fill="#263238"/>
<path d="M12.0397 28.0583L11.6455 29.2653C11.6455 29.2653 11.895 30.126 11.7544 30.3552C11.5474 30.6947 11.1823 30.7541 10.5678 30.5623C9.86508 30.3441 9.6996 29.6948 9.73619 29.1906C9.78608 28.4717 10.4372 27.931 10.3624 27.2383C10.3258 26.8988 10.3715 26.5194 10.5536 26.2274C10.7574 25.9014 11.0917 25.8403 11.4384 25.9464C11.7361 26.0381 11.9973 26.2291 12.2492 26.4082C12.3216 26.4552 12.3871 26.5123 12.4438 26.5779C12.4889 26.6394 12.5228 26.7087 12.5436 26.7825C12.5892 26.9308 12.6028 27.0875 12.5835 27.2417C12.5652 27.386 12.4746 27.47 12.3906 27.5812L12.0397 28.0583Z" fill="url(#paint1_linear_430_15)"/>
<path d="M13.7384 27.487C13.7143 27.4777 12.5102 26.6917 12.3804 26.6322C12.2507 26.5728 11.9314 26.4888 11.6229 27.2179C11.4025 27.7365 11.7193 27.9284 11.7193 27.9284L13.133 28.7857L13.7384 27.487Z" fill="#FFEDE5"/>
<path d="M11.6453 29.2654C11.3905 29.1354 11.1085 29.071 10.8237 29.0778C10.8026 29.0798 10.7812 29.0765 10.7617 29.0681C10.7421 29.0598 10.7248 29.0467 10.7113 29.0299C10.6978 29.0131 10.6886 28.9933 10.6844 28.972C10.6802 28.9508 10.6812 28.9288 10.6873 28.908C10.6953 28.8833 10.7103 28.8615 10.7305 28.8455C10.7506 28.8295 10.775 28.8199 10.8004 28.818C10.9908 28.8028 11.4532 28.7968 11.7601 29.0549C11.8416 29.2229 11.6453 29.2654 11.6453 29.2654Z" fill="url(#paint2_linear_430_15)"/>
<path d="M11.7899 28.7135C11.5422 28.5703 11.2638 28.4913 10.9792 28.4835C10.9577 28.4846 10.9364 28.4802 10.917 28.4708C10.8976 28.4614 10.8808 28.4472 10.8681 28.4295C10.8554 28.4119 10.8472 28.3913 10.8443 28.3696C10.8413 28.3479 10.8436 28.3258 10.8511 28.3052C10.8603 28.2809 10.8763 28.2598 10.8972 28.2447C10.918 28.2296 10.9428 28.2211 10.9683 28.2204C11.1596 28.2153 11.622 28.2348 11.9155 28.5081C11.9879 28.6821 11.7899 28.7135 11.7899 28.7135Z" fill="url(#paint3_linear_430_15)"/>
<path opacity="0.3" d="M11.6453 29.2654C11.3905 29.1354 11.1085 29.071 10.8237 29.0778C10.8026 29.0798 10.7812 29.0765 10.7617 29.0681C10.7421 29.0598 10.7248 29.0467 10.7113 29.0299C10.6978 29.0131 10.6886 28.9933 10.6844 28.972C10.6802 28.9508 10.6812 28.9288 10.6873 28.908C10.6953 28.8833 10.7103 28.8615 10.7305 28.8455C10.7506 28.8295 10.775 28.8199 10.8004 28.818C10.9908 28.8028 11.4532 28.7968 11.7601 29.0549C11.8416 29.2229 11.6453 29.2654 11.6453 29.2654Z" fill="black"/>
<path opacity="0.3" d="M11.7899 28.7135C11.5422 28.5703 11.2638 28.4913 10.9792 28.4835C10.9577 28.4846 10.9364 28.4802 10.917 28.4708C10.8976 28.4614 10.8808 28.4472 10.8681 28.4295C10.8554 28.4119 10.8472 28.3913 10.8443 28.3696C10.8413 28.3479 10.8436 28.3258 10.8511 28.3052C10.8603 28.2809 10.8763 28.2598 10.8972 28.2447C10.918 28.2296 10.9428 28.2211 10.9683 28.2204C11.1596 28.2153 11.622 28.2348 11.9155 28.5081C11.9879 28.6821 11.7899 28.7135 11.7899 28.7135Z" fill="black"/>
<path d="M24.0617 30.6717L25.6259 30.0385C25.5993 29.6268 25.4995 29.0785 25.6034 28.0014L23.8289 27.6567V29.4698L24.0617 30.6717Z" fill="#FFEDE5"/>
<path d="M28.5246 32.074C28.5662 32.2026 28.5585 32.3424 28.503 32.4653C28.4498 32.5799 27.8635 32.9169 27.0727 32.8626C26.4863 32.8206 25.9215 32.6193 25.437 32.2794C25.136 32.0757 24.8216 32.0375 24.4308 32.0146C24.0399 31.9917 23.5244 31.7922 23.4387 31.6055C23.3531 31.4187 23.452 31.0962 23.452 31.0962L28.5246 32.074Z" fill="#263238"/>
<path d="M25.334 29.5548L25.3964 29.5412C25.4303 29.5319 25.4657 29.5302 25.5003 29.5361C25.5387 29.5483 25.5728 29.5716 25.5985 29.6032C25.6759 29.7039 25.7433 29.8123 25.7997 29.9266C25.966 30.2025 26.3136 30.4316 26.6936 30.6396C26.9523 30.7814 27.2051 30.8942 27.472 31.0139C27.7389 31.1336 28.1048 31.2151 28.3177 31.3619C28.6279 31.575 28.6686 32.1114 28.3177 32.3228C28.0134 32.5061 27.2109 32.7039 26.3693 32.4603C25.9103 32.3279 25.4014 31.8279 24.8001 31.7813C24.4176 31.7507 23.6933 31.6412 23.4472 31.345C23.3565 31.2134 23.4779 30.7958 23.5777 30.4359C23.6867 30.0429 23.7266 29.3503 23.8546 29.3851C23.8546 29.3851 23.8197 29.4827 23.8696 29.5353C23.9195 29.5879 24.095 29.6932 24.1465 29.7373C24.2327 29.8271 24.3023 29.932 24.3519 30.0471C24.3725 30.0991 24.4109 30.1416 24.46 30.1668C24.5249 30.1914 24.5731 30.1498 24.6263 30.1235C24.6983 30.0907 24.7793 30.0849 24.855 30.1074C24.8477 30.0294 24.8341 29.9522 24.8143 29.8765C24.8058 29.8526 24.8038 29.8268 24.8085 29.8018C24.8189 29.7785 24.836 29.759 24.8575 29.7458C25.0015 29.6488 25.1638 29.5838 25.334 29.5548Z" fill="url(#paint4_linear_430_15)"/>
<path d="M26.3359 30.4273C26.3359 30.4273 26.281 30.2771 26.054 30.2347C25.8793 30.2016 25.5717 30.3323 25.3804 30.4893C25.3624 30.5045 25.3483 30.5239 25.3393 30.5458C25.3303 30.5678 25.3266 30.5917 25.3287 30.6154C25.3307 30.6391 25.3384 30.662 25.351 30.682C25.3637 30.7021 25.3809 30.7186 25.4012 30.7304C25.4273 30.7456 25.4574 30.752 25.4873 30.7486C25.5172 30.7453 25.5453 30.7324 25.5675 30.7117C25.778 30.5192 26.0534 30.4173 26.3359 30.4273Z" fill="url(#paint5_linear_430_15)"/>
<path d="M26.8756 30.7355C26.8379 30.6813 26.788 30.637 26.7301 30.6064C26.6723 30.5759 26.6081 30.5599 26.5429 30.5598C26.5429 30.5598 26.088 30.5734 25.8061 30.8408C25.789 30.8555 25.7755 30.8743 25.767 30.8954C25.7584 30.9166 25.7549 30.9395 25.7569 30.9624C25.7588 30.9852 25.7661 31.0072 25.7782 31.0265C25.7902 31.0458 25.8067 31.0619 25.8261 31.0733C25.8508 31.0874 25.8792 31.0931 25.9072 31.0897C25.9353 31.0864 25.9616 31.0741 25.9824 31.0547C26.0985 30.9368 26.239 30.847 26.3935 30.7917C26.5481 30.7365 26.7128 30.7173 26.8756 30.7355Z" fill="url(#paint6_linear_430_15)"/>
<path d="M27.4719 31.0137C27.4285 30.9634 27.375 30.9231 27.3151 30.8958C27.2551 30.8684 27.19 30.8545 27.1243 30.855C27.1243 30.855 26.7002 30.8711 26.4192 31.1385C26.4018 31.1531 26.3881 31.1717 26.3794 31.1929C26.3706 31.214 26.367 31.237 26.3689 31.2599C26.3708 31.2828 26.3781 31.3049 26.3902 31.3242C26.4022 31.3436 26.4188 31.3597 26.4383 31.3711C26.4631 31.385 26.4916 31.3907 26.5198 31.3874C26.548 31.384 26.5744 31.3718 26.5955 31.3524C26.7056 31.2302 26.8423 31.136 26.9944 31.0772C27.1466 31.0184 27.3101 30.9967 27.4719 31.0137Z" fill="url(#paint7_linear_430_15)"/>
<path opacity="0.3" d="M26.3359 30.4273C26.3359 30.4273 26.281 30.2771 26.054 30.2347C25.8793 30.2016 25.5717 30.3323 25.3804 30.4893C25.3624 30.5045 25.3483 30.5239 25.3393 30.5458C25.3303 30.5678 25.3266 30.5917 25.3287 30.6154C25.3307 30.6391 25.3384 30.662 25.351 30.682C25.3637 30.7021 25.3809 30.7186 25.4012 30.7304C25.4273 30.7456 25.4574 30.752 25.4873 30.7486C25.5172 30.7453 25.5453 30.7324 25.5675 30.7117C25.778 30.5192 26.0534 30.4173 26.3359 30.4273Z" fill="black"/>
<path opacity="0.3" d="M26.8756 30.7355C26.8379 30.6813 26.788 30.637 26.7301 30.6064C26.6723 30.5759 26.6081 30.5599 26.5429 30.5598C26.5429 30.5598 26.088 30.5734 25.8061 30.8408C25.789 30.8555 25.7755 30.8743 25.767 30.8954C25.7584 30.9166 25.7549 30.9395 25.7569 30.9624C25.7588 30.9852 25.7661 31.0072 25.7782 31.0265C25.7902 31.0458 25.8067 31.0619 25.8261 31.0733C25.8508 31.0874 25.8792 31.0931 25.9072 31.0897C25.9353 31.0864 25.9616 31.0741 25.9824 31.0547C26.0985 30.9368 26.239 30.847 26.3935 30.7917C26.5481 30.7365 26.7128 30.7173 26.8756 30.7355Z" fill="black"/>
<path opacity="0.3" d="M27.4719 31.0137C27.4285 30.9634 27.375 30.9231 27.3151 30.8958C27.2551 30.8684 27.19 30.8545 27.1243 30.855C27.1243 30.855 26.7002 30.8711 26.4192 31.1385C26.4018 31.1531 26.3881 31.1717 26.3794 31.1929C26.3706 31.214 26.367 31.237 26.3689 31.2599C26.3708 31.2828 26.3781 31.3049 26.3902 31.3242C26.4022 31.3436 26.4188 31.3597 26.4383 31.3711C26.4631 31.385 26.4916 31.3907 26.5198 31.3874C26.548 31.384 26.5744 31.3718 26.5955 31.3524C26.7056 31.2302 26.8423 31.136 26.9944 31.0772C27.1466 31.0184 27.3101 30.9967 27.4719 31.0137Z" fill="black"/>
<path d="M25.1311 21.5665C23.9419 21.294 21.1021 20.688 21.1021 20.688L21.1478 19.9138C20.1208 20.4571 17.9562 20.3034 16.9583 19.4971L16.8011 20.3179C16.4228 20.7802 16.0951 21.2835 15.824 21.8186C15.5962 22.2795 15.2153 22.9984 15.5945 24.6731C15.8174 25.6569 16.1143 28.2467 16.1143 28.2467L13.2037 27.1517C13.2037 27.1517 12.9543 27.195 12.743 27.7518C12.6183 28.0811 12.5767 28.3977 12.7031 28.5616C13.7675 29.4197 15.4922 30.8211 17.2352 31.6071C18.3994 32.0621 19.0181 31.063 19.0747 30.6929C19.2934 29.2754 19.5453 24.7207 19.5453 24.7207L23.4371 24.5942C23.3082 25.3463 23.8321 28.2849 23.8321 28.2849C23.8321 28.2849 24.7901 28.7093 25.5834 28.2747C25.5834 28.2747 26.114 24.893 26.1655 23.7649C26.2179 22.507 26.2811 21.8305 25.1311 21.5665Z" fill="url(#paint8_linear_430_15)"/>
<path opacity="0.15" d="M23.437 24.5943C23.437 24.3914 23.5693 23.6827 24.0192 23.3049C24.0192 23.3049 23.4021 23.4178 23.1194 24.6045L23.437 24.5943Z" fill="black"/>
<path opacity="0.15" d="M16.1143 28.2468C16.1143 28.2468 16.1975 29.3647 16.4071 29.9097C16.4071 29.9097 15.8823 28.942 15.825 28.1365L16.1143 28.2468Z" fill="black"/>
<path opacity="0.15" d="M21.1013 20.6881L21.147 19.9148C20.12 20.4572 17.9562 20.3036 16.9592 19.498L16.802 20.318C16.8103 20.3256 17.4506 21.0013 19.1155 21.0887C20.7803 21.1762 21.1013 20.6881 21.1013 20.6881Z" fill="black"/>
<path opacity="0.15" d="M19.5486 24.7208C19.5348 24.3006 19.4375 23.8877 19.2625 23.5072C19.0875 23.1266 18.8386 22.7864 18.5308 22.5071C18.5308 22.5071 19.4255 22.9315 19.7249 24.2752C19.7249 24.2752 20.3902 23.9586 20.7378 23.0096C20.7378 23.0096 20.6313 23.9586 20.0958 24.4984L21.7099 24.6503L19.5486 24.7208Z" fill="black"/>
<path d="M19.0297 7.55347C18.688 7.55291 18.3496 7.6211 18.0338 7.75415C17.718 7.88719 17.431 8.08247 17.1892 8.32883C16.9474 8.57519 16.7555 8.86778 16.6245 9.18989C16.4936 9.51199 16.4261 9.85728 16.426 10.206C16.426 10.5548 16.4934 10.9002 16.6243 11.2224C16.7552 11.5446 16.947 11.8373 17.1889 12.0838C17.4307 12.3302 17.7178 12.5256 18.0336 12.6587C18.3495 12.7918 18.688 12.86 19.0297 12.8594C19.7183 12.8583 20.3784 12.5782 20.8648 12.0807C21.3513 11.5832 21.6244 10.9089 21.6242 10.206C21.6242 9.50325 21.351 8.82921 20.8646 8.33188C20.3781 7.83456 19.7182 7.55459 19.0297 7.55347Z" fill="#263238"/>
<path d="M16.3147 9.16603C16.4087 9.16164 16.5029 9.16704 16.5958 9.18216C16.6272 9.18427 16.6569 9.19817 16.6789 9.2212C16.6917 9.24025 16.6989 9.26263 16.6997 9.28571C16.7212 9.43308 16.7078 9.58355 16.6606 9.72455C16.624 9.82301 16.5101 9.87309 16.4378 9.94439C16.1567 10.2228 16.1342 10.6837 16.2448 11.0665C16.3554 11.4493 16.5775 11.7906 16.7213 12.1606C16.8652 12.5307 16.9417 12.9764 16.738 13.349C16.659 13.4916 16.5151 13.6036 16.5326 13.7734C16.5525 13.9814 16.7305 14.18 16.807 14.3676C16.891 14.5898 16.9195 14.8298 16.8901 15.0661C16.8691 15.3599 16.7622 15.6405 16.5833 15.8717C16.4465 16.0344 16.27 16.1571 16.0716 16.2275C15.8732 16.2979 15.6601 16.3133 15.454 16.2723C15.3671 16.2568 15.2849 16.2211 15.2137 16.1679C15.0914 16.0677 15.0424 15.9039 14.9758 15.7588C14.7621 15.2894 14.3106 14.9482 14.1734 14.4499C14.0245 13.9194 14.2723 13.3677 14.5767 12.9169C14.7189 12.7064 14.8777 12.5002 14.9476 12.254C15.0415 11.9221 14.9592 11.569 14.9376 11.2236C14.917 10.8861 14.955 10.5476 15.0499 10.2237C15.118 9.98938 15.2237 9.71946 15.4024 9.55139C15.6534 9.31854 15.976 9.18227 16.3147 9.16603Z" fill="#263238"/>
<path d="M20.6546 8.76709C20.939 8.9411 21.2891 9.67532 21.2484 11.2117C21.2134 12.5138 20.7985 12.8338 20.5906 12.9263C20.3827 13.0188 19.9819 12.9594 19.5927 12.8915V13.6732C19.5927 13.6732 20.1282 14.3133 20.0916 14.6723C20.055 15.0313 19.3133 15.112 18.811 14.7572C18.3087 14.4024 17.8871 13.7208 17.8871 13.7208L17.9038 11.923C17.9038 11.923 17.6717 12.1522 17.2834 11.8042C16.9649 11.5164 16.8585 11.0334 17.1096 10.7788C17.3607 10.5241 17.8223 10.5929 17.9986 10.963C17.9986 10.963 18.6189 10.9884 19.448 10.5284C19.7705 10.3522 20.0478 10.1009 20.2575 9.79491C20.4671 9.4889 20.6032 9.13678 20.6546 8.76709Z" fill="#FFEDE5"/>
<path d="M19.8247 10.8793C19.8248 10.9115 19.8156 10.943 19.7984 10.9699C19.7811 10.9968 19.7564 11.0179 19.7274 11.0306C19.6984 11.0433 19.6665 11.047 19.6354 11.0412C19.6044 11.0354 19.5758 11.0205 19.553 10.9982C19.5303 10.9759 19.5145 10.9473 19.5076 10.9159C19.5007 10.8845 19.503 10.8517 19.5142 10.8216C19.5254 10.7916 19.5451 10.7656 19.5707 10.7468C19.5964 10.7281 19.6268 10.7175 19.6583 10.7163C19.7013 10.7163 19.7426 10.7332 19.7736 10.7636C19.8047 10.794 19.8229 10.8354 19.8247 10.8793Z" fill="#263238"/>
<g style="mix-blend-mode:multiply" opacity="0.5">
<g style="mix-blend-mode:multiply" opacity="0.5">
<path d="M19.8613 11.9834L20.233 12.1056C20.2263 12.1311 20.2145 12.1549 20.1985 12.1756C20.1825 12.1964 20.1626 12.2136 20.1399 12.2263C20.1173 12.239 20.0923 12.2468 20.0666 12.2494C20.0409 12.252 20.0149 12.2493 19.9902 12.2414C19.9401 12.224 19.8986 12.1873 19.8745 12.1391C19.8505 12.0909 19.8457 12.0351 19.8613 11.9834Z" fill="#F28F8F"/>
</g>
</g>
<path d="M21.1428 10.3815L20.8193 10.1506C20.8329 10.1283 20.8508 10.109 20.8719 10.094C20.893 10.0789 20.917 10.0685 20.9422 10.0632C20.9674 10.058 20.9935 10.058 21.0187 10.0634C21.0439 10.0688 21.0677 10.0795 21.0888 10.0946C21.1317 10.1265 21.1612 10.1739 21.1713 10.2272C21.1813 10.2804 21.1711 10.3356 21.1428 10.3815Z" fill="#263238"/>
<path d="M21.0663 10.7654C21.0666 10.7976 21.0576 10.8292 21.0405 10.8562C21.0233 10.8832 20.9986 10.9045 20.9697 10.9173C20.9407 10.9301 20.9087 10.9339 20.8776 10.9283C20.8466 10.9226 20.8178 10.9077 20.795 10.8855C20.7722 10.8632 20.7563 10.8346 20.7493 10.8032C20.7424 10.7717 20.7446 10.7389 20.7558 10.7088C20.767 10.6787 20.7867 10.6526 20.8123 10.6338C20.838 10.6151 20.8685 10.6044 20.9 10.6033C20.9429 10.6032 20.9841 10.6201 21.0151 10.6503C21.046 10.6805 21.0644 10.7217 21.0663 10.7654Z" fill="#263238"/>
<g style="mix-blend-mode:multiply" opacity="0.5">
<g style="mix-blend-mode:multiply" opacity="0.5">
<path d="M20.3096 10.6687L20.3312 11.655L20.8401 11.4963L20.3096 10.6687Z" fill="#F28F8F"/>
</g>
</g>
<g style="mix-blend-mode:multiply" opacity="0.5">
<g style="mix-blend-mode:multiply" opacity="0.5">
<path d="M19.5937 12.8917C19.1829 12.8356 18.3397 12.5844 18.21 12.2432C18.2622 12.4156 18.3649 12.5676 18.5043 12.6786C18.7555 12.901 19.592 13.1556 19.592 13.1556L19.5937 12.8917Z" fill="#F28F8F"/>
</g>
</g>
<path d="M16.8003 13.6819C15.9953 13.7405 15.6635 13.8449 15.2153 14.86C14.812 15.7725 13.8473 18.1339 13.6062 18.6602C13.365 19.1865 13.3193 19.3978 13.523 19.9487C13.6893 20.3977 15.0481 22.9773 15.197 23.3533C15.3458 23.7293 15.4115 24.1096 15.6652 24.5476C15.9188 24.9856 16.3196 25.4134 16.6365 25.5144C17.1063 25.6646 17.7175 25.4558 17.735 25.1664C17.7524 24.8769 17.0456 24.3939 16.8535 23.7514C16.9813 23.8371 17.116 23.9118 17.256 23.9746C17.4464 24.0544 17.6593 24.0366 17.7225 23.9262C17.7857 23.8159 17.5953 23.7488 17.4256 23.5765C17.3242 23.4738 17.1445 23.2429 16.915 23.0392C16.7595 22.9017 16.5051 22.861 16.3903 22.7099C16.3288 22.6292 16.0494 21.9307 15.839 21.3085C15.5795 20.5369 15.2377 19.5099 15.2377 19.5099L16.6365 16.539C16.6365 16.539 17.7333 15.422 16.8003 13.6819Z" fill="#FFEDE5"/>
<path d="M15.1946 23.3533C15.1946 23.3533 15.5165 22.6887 16.3879 22.7099L16.1576 22.187C16.1576 22.187 15.3069 22.2481 14.9485 22.8364L15.1946 23.3533Z" fill="#37474F"/>
<path d="M15.1004 22.7888L15.2875 23.0596C15.301 23.0793 15.3183 23.096 15.3383 23.1087C15.3583 23.1214 15.3806 23.1299 15.4039 23.1336C15.4272 23.1373 15.451 23.1362 15.4739 23.1304C15.4967 23.1245 15.5182 23.114 15.537 23.0995L15.8696 22.8448C15.9083 22.8146 15.9342 22.7705 15.9421 22.7214C15.9499 22.6724 15.9392 22.6221 15.912 22.5808L15.7382 22.3194C15.7251 22.2992 15.7082 22.282 15.6884 22.2687C15.6685 22.2554 15.6463 22.2464 15.6229 22.2422C15.5996 22.238 15.5757 22.2387 15.5526 22.2442C15.5295 22.2498 15.5078 22.26 15.4887 22.2744L15.1361 22.5291C15.0978 22.5587 15.0724 22.6027 15.0657 22.6514C15.059 22.7001 15.0715 22.7495 15.1004 22.7888Z" fill="#263238"/>
<path d="M15.0383 22.7821L15.2271 23.0529C15.2407 23.0725 15.258 23.0891 15.278 23.1017C15.298 23.1144 15.3203 23.1228 15.3436 23.1265C15.3668 23.1302 15.3906 23.1292 15.4134 23.1234C15.4362 23.1176 15.4577 23.1072 15.4765 23.0928L15.8092 22.8381C15.8478 22.8079 15.8738 22.7638 15.8818 22.7148C15.8898 22.6658 15.8793 22.6155 15.8524 22.5741L15.6786 22.3127C15.6655 22.2926 15.6485 22.2755 15.6286 22.2623C15.6088 22.2491 15.5866 22.2401 15.5633 22.2359C15.54 22.2317 15.5161 22.2323 15.493 22.2378C15.47 22.2433 15.4482 22.2535 15.4291 22.2677L15.0765 22.5266C15.0388 22.5557 15.0136 22.5987 15.0065 22.6464C14.9993 22.6941 15.0107 22.7428 15.0383 22.7821Z" fill="#455A64"/>
<path d="M15.8182 22.693C15.814 22.7265 15.797 22.7571 15.7708 22.7779L15.4382 23.0325C15.4266 23.0419 15.4132 23.0487 15.3989 23.0524C15.3845 23.056 15.3696 23.0565 15.3551 23.0537C15.3408 23.0515 15.3271 23.0463 15.3148 23.0386C15.3026 23.0309 15.2919 23.0207 15.2835 23.0087L15.0939 22.7371C15.0779 22.7146 15.0708 22.6867 15.074 22.659C15.0751 22.6422 15.0799 22.6259 15.0879 22.6112C15.096 22.5966 15.1071 22.5839 15.1205 22.5741L15.4731 22.3195C15.4849 22.3106 15.4984 22.3042 15.5127 22.3009C15.527 22.2975 15.5419 22.2972 15.5563 22.3C15.5705 22.3025 15.5841 22.308 15.5963 22.316C15.6084 22.324 15.6189 22.3345 15.627 22.3467L15.8008 22.6081C15.8171 22.6331 15.8242 22.6632 15.8207 22.693H15.8182Z" fill="url(#paint9_linear_430_15)"/>
</g>
<defs>
<linearGradient id="paint0_linear_430_15" x1="40" y1="40.2109" x2="-13.3117" y2="36.0856" gradientUnits="userSpaceOnUse">
<stop stop-color="#C58BF2"/>
<stop offset="1" stop-color="#EEA4CE"/>
</linearGradient>
<linearGradient id="paint1_linear_430_15" x1="12.592" y1="30.6706" x2="8.76487" y2="30.493" gradientUnits="userSpaceOnUse">
<stop stop-color="#92A3FD"/>
<stop offset="1" stop-color="#9DCEFF"/>
</linearGradient>
<linearGradient id="paint2_linear_430_15" x1="11.7799" y1="29.2654" x2="10.3577" y2="28.9988" gradientUnits="userSpaceOnUse">
<stop stop-color="#92A3FD"/>
<stop offset="1" stop-color="#9DCEFF"/>
</linearGradient>
<linearGradient id="paint3_linear_430_15" x1="11.9314" y1="28.7135" x2="10.5134" y2="28.4717" gradientUnits="userSpaceOnUse">
<stop stop-color="#92A3FD"/>
<stop offset="1" stop-color="#9DCEFF"/>
</linearGradient>
<linearGradient id="paint4_linear_430_15" x1="28.5659" y1="32.5737" x2="21.7662" y2="31.7241" gradientUnits="userSpaceOnUse">
<stop stop-color="#92A3FD"/>
<stop offset="1" stop-color="#9DCEFF"/>
</linearGradient>
<linearGradient id="paint5_linear_430_15" x1="26.3359" y1="30.7495" x2="25.0144" y2="30.5514" gradientUnits="userSpaceOnUse">
<stop stop-color="#92A3FD"/>
<stop offset="1" stop-color="#9DCEFF"/>
</linearGradient>
<linearGradient id="paint6_linear_430_15" x1="26.8756" y1="31.0907" x2="25.4139" y2="30.8522" gradientUnits="userSpaceOnUse">
<stop stop-color="#92A3FD"/>
<stop offset="1" stop-color="#9DCEFF"/>
</linearGradient>
<linearGradient id="paint7_linear_430_15" x1="27.4719" y1="31.3883" x2="26.0293" y2="31.1573" gradientUnits="userSpaceOnUse">
<stop stop-color="#92A3FD"/>
<stop offset="1" stop-color="#9DCEFF"/>
</linearGradient>
<linearGradient id="paint8_linear_430_15" x1="26.1887" y1="31.7236" x2="8.13781" y2="30.1742" gradientUnits="userSpaceOnUse">
<stop stop-color="#92A3FD"/>
<stop offset="1" stop-color="#9DCEFF"/>
</linearGradient>
<linearGradient id="paint9_linear_430_15" x1="15.8216" y1="23.0555" x2="14.8241" y2="22.9792" gradientUnits="userSpaceOnUse">
<stop stop-color="#92A3FD"/>
<stop offset="1" stop-color="#9DCEFF"/>
</linearGradient>
<clipPath id="clip0_430_15">
<rect width="20.5333" height="25.3151" fill="white" transform="translate(9.46655 7.55347)"/>
</clipPath>
</defs>
</svg>
