<svg width="14" height="15" viewBox="0 0 14 15" fill="none" xmlns="http://www.w3.org/2000/svg">
<path d="M7.00008 7.79435C7.32225 7.79435 7.58341 7.53318 7.58341 7.21102C7.58341 6.88885 7.32225 6.62769 7.00008 6.62769C6.67792 6.62769 6.41675 6.88885 6.41675 7.21102C6.41675 7.53318 6.67792 7.79435 7.00008 7.79435Z" fill="#ADA4A5" stroke="#ADA4A5" stroke-width="2" stroke-linecap="round" stroke-linejoin="round"/>
<path d="M7.00008 3.71086C7.32225 3.71086 7.58341 3.44969 7.58341 3.12752C7.58341 2.80536 7.32225 2.54419 7.00008 2.54419C6.67792 2.54419 6.41675 2.80536 6.41675 3.12752C6.41675 3.44969 6.67792 3.71086 7.00008 3.71086Z" fill="#ADA4A5" stroke="#ADA4A5" stroke-width="2" stroke-linecap="round" stroke-linejoin="round"/>
<path d="M7.00008 11.8776C7.32225 11.8776 7.58341 11.6164 7.58341 11.2943C7.58341 10.9721 7.32225 10.7109 7.00008 10.7109C6.67792 10.7109 6.41675 10.9721 6.41675 11.2943C6.41675 11.6164 6.67792 11.8776 7.00008 11.8776Z" fill="#ADA4A5" stroke="#ADA4A5" stroke-width="2" stroke-linecap="round" stroke-linejoin="round"/>
</svg>
