<svg width="20" height="21" viewBox="0 0 20 21" fill="none" xmlns="http://www.w3.org/2000/svg">
<path fill-rule="evenodd" clip-rule="evenodd" d="M17.3389 6.56399L16.8202 5.66391C16.3814 4.90231 15.409 4.63958 14.6463 5.07658V5.07658C14.2833 5.29043 13.8501 5.35111 13.4423 5.24522C13.0345 5.13933 12.6855 4.87558 12.4724 4.51212C12.3353 4.2811 12.2616 4.01797 12.2588 3.74934V3.74934C12.2712 3.31866 12.1087 2.90131 11.8084 2.59237C11.5081 2.28343 11.0955 2.1092 10.6646 2.10938H9.61962C9.19751 2.10937 8.7928 2.27757 8.49504 2.57677C8.19728 2.87596 8.03102 3.28147 8.03305 3.70358V3.70358C8.02054 4.57508 7.31044 5.27499 6.43885 5.2749C6.17022 5.27211 5.90709 5.19843 5.67607 5.06132V5.06132C4.91343 4.62432 3.94097 4.88706 3.50216 5.64866L2.94533 6.56399C2.50705 7.32464 2.76621 8.29648 3.52504 8.7379V8.7379C4.01829 9.02268 4.32215 9.54897 4.32215 10.1185C4.32215 10.6881 4.01829 11.2144 3.52504 11.4992V11.4992C2.76717 11.9376 2.50773 12.9071 2.94533 13.6654V13.6654L3.47165 14.5731C3.67725 14.9441 4.02221 15.2179 4.4302 15.3338C4.83819 15.4498 5.27557 15.3984 5.64556 15.191V15.191C6.00927 14.9788 6.4427 14.9206 6.84949 15.0295C7.25628 15.1383 7.60274 15.4052 7.81184 15.7707C7.94896 16.0017 8.02263 16.2649 8.02542 16.5335V16.5335C8.02542 17.4139 8.73917 18.1277 9.61962 18.1277H10.6646C11.5421 18.1277 12.2546 17.4186 12.2588 16.5411V16.5411C12.2568 16.1177 12.4241 15.711 12.7235 15.4116C13.0229 15.1122 13.4296 14.9449 13.853 14.9469C14.121 14.9541 14.3831 15.0274 14.6158 15.1605V15.1605C15.3765 15.5988 16.3483 15.3396 16.7897 14.5808V14.5808L17.3389 13.6654C17.5515 13.3006 17.6098 12.866 17.501 12.458C17.3922 12.0499 17.1252 11.7021 16.7592 11.4915V11.4915C16.3932 11.2809 16.1262 10.9331 16.0174 10.5251C15.9086 10.1171 15.9669 9.68249 16.1795 9.31761C16.3177 9.07626 16.5179 8.87614 16.7592 8.7379V8.7379C17.5135 8.29672 17.772 7.33056 17.3389 6.57162V6.57162V6.56399Z" stroke="url(#paint0_linear_430_213)" stroke-width="1.2" stroke-linecap="round" stroke-linejoin="round"/>
<circle cx="10.146" cy="10.1184" r="2.1968" stroke="url(#paint1_linear_430_213)" stroke-width="1.2" stroke-linecap="round" stroke-linejoin="round"/>
<defs>
<linearGradient id="paint0_linear_430_213" x1="17.5546" y1="18.1277" x2="-2.21755" y2="16.7119" gradientUnits="userSpaceOnUse">
<stop stop-color="#92A3FD"/>
<stop offset="1" stop-color="#9DCEFF"/>
</linearGradient>
<linearGradient id="paint1_linear_430_213" x1="12.3428" y1="12.3152" x2="6.48706" y2="11.8621" gradientUnits="userSpaceOnUse">
<stop stop-color="#92A3FD"/>
<stop offset="1" stop-color="#9DCEFF"/>
</linearGradient>
</defs>
</svg>
