<svg width="14" height="14" viewBox="0 0 14 14" fill="none" xmlns="http://www.w3.org/2000/svg">
<path d="M2.33333 9.33335C3.622 9.33335 4.66667 8.28868 4.66667 7.00002C4.66667 5.71136 3.622 4.66669 2.33333 4.66669C1.04467 4.66669 0 5.71136 0 7.00002C0 8.28868 1.04467 9.33335 2.33333 9.33335Z" fill="#1D1617"/>
<path d="M11.6654 14C12.954 14 13.9987 12.9553 13.9987 11.6666C13.9987 10.378 12.954 9.33331 11.6654 9.33331C10.3767 9.33331 9.33203 10.378 9.33203 11.6666C9.33203 12.9553 10.3767 14 11.6654 14Z" fill="#1D1617"/>
<path d="M4.41797 8.04181L9.56686 10.6163" stroke="#1D1617" stroke-width="1.2" stroke-linecap="round" stroke-linejoin="round"/>
<path d="M11.6654 4.66667C12.954 4.66667 13.9987 3.622 13.9987 2.33333C13.9987 1.04467 12.954 0 11.6654 0C10.3767 0 9.33203 1.04467 9.33203 2.33333C9.33203 3.622 10.3767 4.66667 11.6654 4.66667Z" fill="#1D1617"/>
<path d="M4.41797 5.95781L9.56686 3.38336" stroke="#1D1617" stroke-width="1.2" stroke-linecap="round" stroke-linejoin="round"/>
</svg>
